<svg viewBox="0 0 217.66 41.18" xmlns="http://www.w3.org/2000/svg"><g fill="#fffe7b" transform="translate(-.25 -.09)"><path d="m1.4 29.89h7.21v8.43h-.71v-7.8h-6.5v7.83h-.72v-12.35h.72v3.91zm16.7 8.64a4.37 4.37 0 0 1 -4.51-4.53 4.29 4.29 0 0 1 4.51-4.35 4.27 4.27 0 0 1 4.51 4.35 4.32 4.32 0 0 1 -4.51 4.53zm0-.59a3.72 3.72 0 0 0 3.79-3.88 3.64 3.64 0 0 0 -3.79-3.73 3.64 3.64 0 0 0 -3.79 3.73 3.72 3.72 0 0 0 3.79 3.88zm20.8-8h.69l-2.89 8.38h-.7l-3-7.62-3 7.62h-.72l-2.88-8.43h.72l2.55 7.49 2.92-7.49h.72l2.92 7.49 2.61-7.49zm5.94-3.94v12.32h-.71v-12.32zm6 2a.57.57 0 1 1 0-1.12.56.56 0 1 1 0 1.12zm.31 1.95v8.43h-.72v-8.49zm13.56 0v8.43h-.69v-7.8h-6.5v7.83h-.71v-8.52zm13.09 0h.65v7.34c0 2.61-1.71 4-4.38 4a8.33 8.33 0 0 1 -3.21-.65v-.56a7.8 7.8 0 0 0 3.11.62c2.21 0 3.77-1.15 3.77-3.39v-1.17a4 4 0 0 1 -3.61 2.39 4.29 4.29 0 0 1 -4.45-4.44 4.24 4.24 0 0 1 4.45-4.41 4 4 0 0 1 3.71 2.32v-2.11zm-3.61 8a3.68 3.68 0 0 0 3.62-3.95 3.67 3.67 0 1 0 -7.34.06 3.63 3.63 0 0 0 3.76 3.85zm24-.09h1.27v.5h-1.9v-1.84a3.84 3.84 0 0 1 -3.66 2.05c-2.12 0-3.52-1-3.52-2.67s1.37-2.55 3.79-2.55a12.29 12.29 0 0 1 3.36.5v-3.36h-6.53v-.6h7.22v7.93zm-4.19.08a3.29 3.29 0 0 0 3.57-3.45v-.12a13.63 13.63 0 0 0 -3.26-.5c-2.05 0-3.2.75-3.2 2s1.13 2.07 2.89 2.07zm15.36-7.08h-4v4.19c0 1.87.68 2.92 2.36 2.92a5.59 5.59 0 0 0 1.65-.28v.6a6.66 6.66 0 0 1 -1.83.31c-2 0-2.9-1.28-2.9-3.39v-4.35h-1.64v-.62h1.65l.12-1.93h.56v1.93h4v.62zm16.36 0h-4v4.19c0 1.87.68 2.92 2.36 2.92a5.59 5.59 0 0 0 1.65-.28v.6a6.66 6.66 0 0 1 -1.84.31c-2 0-2.89-1.28-2.89-3.39v-4.35h-1.62v-.62h1.62l.13-1.93h.56v1.93h4v.62zm5.07-1h7.21v8.43h-.71v-7.8h-6.5v7.83h-.79v-12.32h.72v3.91zm20.46 3.77c0 .21 0 .49-.06.8h-7.5c.16 2.15 1.75 3.45 4.33 3.45a6.84 6.84 0 0 0 2.73-.49v.61a7.36 7.36 0 0 1 -2.83.52c-3 0-4.91-1.67-4.91-4.47a4.08 4.08 0 0 1 4.26-4.38 3.8 3.8 0 0 1 4 4zm-4-3.36a3.51 3.51 0 0 0 -3.61 3.54h6.91v-.28a3.08 3.08 0 0 0 -3.33-3.23zm29.67-.41v8.43h-.72v-7.8h-5.78v7.83h-.72v-7.8h-5.78v7.83h-.72v-8.46zm9.51 8.64a4.37 4.37 0 0 1 -4.51-4.5 4.51 4.51 0 0 1 9 0 4.34 4.34 0 0 1 -4.52 4.53zm0-.59a3.73 3.73 0 0 0 3.8-3.88 3.8 3.8 0 0 0 -7.59 0 3.73 3.73 0 0 0 3.76 3.91zm13.38.59a4.37 4.37 0 0 1 -4.51-4.5 4.51 4.51 0 0 1 9 0 4.36 4.36 0 0 1 -4.52 4.53zm0-.59a3.73 3.73 0 0 0 3.79-3.88 3.8 3.8 0 0 0 -7.59 0 3.71 3.71 0 0 0 3.77 3.91zm17.41-8v8.43h-.71v-7.8h-6.51v7.83h-.72v-8.48z"/><path d="m.25 12.52a9.65 9.65 0 0 0 3.48.63c2.46 0 3.58-1.15 3.58-3.67v-9.11h4.41v9.63c0 4.22-2.27 6.77-7.27 6.77a11.23 11.23 0 0 1 -4.2-.77zm26.62 4-1-2.7h-7.37l-1 2.7h-4.5l6.56-16.15h5.57l6.59 16.16zm-7.15-6h4.88l-2.43-6.42zm23.82-2.3 6.37 8.26h-5.56l-4-5.44a1.44 1.44 0 0 0 -1.35-.66h-1.09v6.18h-4.42v-16.16h4.42v6.13h1.09a1.74 1.74 0 0 0 1.36-.91l3.52-5.28h5l-5.34 7.66-.13.15a1.13 1.13 0 0 1 .13.12zm18.78-7.85h4.29v9.63c0 4.13-3 6.83-7.77 6.83s-7.65-2.69-7.65-6.83v-9.63h4.41v9.05a3.21 3.21 0 0 0 3.4 3.48 3.16 3.16 0 0 0 3.33-3.48zm20.12 7.71a4 4 0 0 1 2.74 3.85c0 2.83-2.46 4.6-6.63 4.6h-8.33v-16.16h8.3c3.77 0 5.94 1.63 5.94 4.23a3.77 3.77 0 0 1 -2.02 3.48zm-4.6-4.57h-3.3v3.42h3.52a1.81 1.81 0 0 0 1.94-1.74c0-1-.84-1.68-2.15-1.68zm.16 9.85c1.3 0 2.33-.71 2.33-1.86a1.89 1.89 0 0 0 -2.09-1.77h-3.7v3.63zm28.64-1.12 2.36 4.29h-5.44l-1.56-3.32c-.37-.78-.68-1.25-1.4-1.25h-3v4.57h-4.4v-16.16h8.06c4 0 6.56 2.21 6.56 5.5a5.09 5.09 0 0 1 -2.46 4.45 9.85 9.85 0 0 1 1.31 1.92zm-9.05-3.69h3.51a2.19 2.19 0 0 0 2.21-2.18c0-1.37-1-2.27-2.61-2.27h-3.08v4.45zm21.41 8.26c-5.1 0-8.77-3.48-8.77-8.51 0-4.85 3.67-8.21 8.77-8.21s8.74 3.39 8.74 8.21c-.02 5.03-3.69 8.51-8.74 8.51zm0-3.88a4.25 4.25 0 0 0 4.32-4.57 4.32 4.32 0 1 0 -8.64 0 4.27 4.27 0 0 0 4.32 4.57zm16.58 0h8.52v3.6h-14.73v-2.61l8.27-9.92h-8.18v-3.63h14.21v2.63zm23.2 3.6-1-2.7h-7.34l-1 2.7h-4.54l6.52-16.16h5.58l6.6 16.16zm-7.16-6h4.89l-2.51-6.43zm18.2 2.26h8.08v3.7h-12.5v-16.12h4.42zm15.95 4a16.35 16.35 0 0 1 -6.34-1.27v-3.71a13.91 13.91 0 0 0 5.75 1.3c1.71 0 2.92-.43 2.92-1.36 0-.72-.62-1.12-2.21-1.4l-1.3-.22c-3.58-.65-5.26-2.45-5.26-4.94 0-3.39 3-5.07 7.06-5.07a15.1 15.1 0 0 1 5.44.91v3.72a13.48 13.48 0 0 0 -4.94-.93c-1.4 0-2.86.28-2.89 1.25 0 .65.56 1 2.58 1.46l1.37.28c3.36.68 4.88 2.2 4.88 4.66 0 3.38-3 5.34-7.06 5.34zm19.93-8.54 6.3 8.28h-5.57l-4-5.44a1.44 1.44 0 0 0 -1.37-.71h-1.06v6.18h-4.42v-16.16h4.42v6.13h1.05a1.76 1.76 0 0 0 1.37-.91l3.58-5.28h5l-5.32 7.58-.12.16a.52.52 0 0 0 .09.19zm12.26 8.26h-4.42v-16.14h4.42z"/></g></svg>