<svg viewBox="0 0 144.95 49.45" xmlns="http://www.w3.org/2000/svg"><path d="m0 49.37v-3h1.85v.46h-1.36v.9h1.22v.46h-1.19v1.11h-.52zm9.44-3c.76 0 1.17.38 1.17.95v1.18c0 .57-.41 1-1.17 1s-1.17-.38-1.17-1v-1.17c0-.59.41-.95 1.17-.95zm9.88 1a.76.76 0 0 1 -.47.74l.49 1.22h-.54l-.49-1.14h-.63v1.14h-.51v-3h1.19a.85.85 0 0 1 1 .81v.19zm6.52 2v-3h1.85v.46h-1.36v.79h1.17v.46h-1.17v.73h1.36v.46h-1.85zm10.83-.54.52-2.39h.54l-.73 2.93h-.68l-.47-2-.46 2h-.68l-.71-2.93h.55l.51 2.39.55-2.39h.46l.57 2.39zm8.57-2.45c.76 0 1.17.38 1.17.95v1.17c0 .57-.41 1-1.17 1s-1.17-.38-1.17-1v-1.17c0-.59.41-.95 1.17-.95zm9.88 1a.76.76 0 0 1 -.47.74l.49 1.22h-.54l-.49-1.14h-.65v1.14h-.52v-3h1.2a.84.84 0 0 1 1 .81v.19zm-.52 0v-.22c0-.21-.14-.32-.38-.32h-.74v.87h.71c.27.06.41-.05.41-.27zm8.16-1c.71 0 1.12.35 1.12 1v1.08c0 .57-.41.93-1.12.93h-1.11v-3zm37.54.76c0 .54 1.66.24 1.69 1.33 0 .51-.38.89-1.12.89s-1.14-.38-1.14-.92v-.11h.52v.14c0 .27.27.43.65.43s.57-.13.57-.41c0-.65-1.66-.27-1.66-1.33 0-.46.33-.84 1.06-.84s1.09.36 1.09.87v.14h-.51v-.17c0-.21-.22-.38-.58-.38s-.57.14-.57.36zm9.39-.76c.57 0 1 .32 1 .81v.3c0 .52-.35.81-1 .81h-.69v1h-.52v-3h1.2zm8 0h.73l.87 3h-.51l-.19-.63h-1.09l-.22.63h-.52zm10.17 1a.75.75 0 0 1 -.46.74l.49 1.22h-.54l-.49-1.14h-.66v1.14h-.49v-3h1.2a.84.84 0 0 1 1 .81v.19zm6.26-.51v-.46h2.2v.46h-.81v2.47h-.51v-2.44zm10.34-.46h.54v3h-.52v-1.21h-1.2v1.2h-.52v-3h.52v1.27h1.2v-1.23zm-66.22 1.41a.67.67 0 0 1 .33.57v.19a.8.8 0 0 1 -.87.79h-1.28v-3h1.19c.52 0 .87.27.87.71v.21a.59.59 0 0 1 -.24.53zm-68.15.65v-1.11c0-.33-.19-.49-.65-.49s-.65.19-.65.49v1.11c0 .3.19.49.65.49s.65-.19.65-.49zm8.71-1v-.22c0-.21-.14-.32-.38-.32h-.74v.87h.71c.27 0 .41-.11.41-.33zm27.09 1v-1.11c0-.33-.19-.49-.65-.49s-.65.19-.65.49v1.11c0 .3.19.49.65.49s.65-.19.65-.49zm17.47 0v-1c0-.29-.19-.48-.57-.48h-.63v2h.63c.38-.08.57-.27.57-.57zm46.76-.87v-.33c0-.21-.13-.32-.38-.32h-.74v1h.71c.27 0 .4-.13.4-.35zm7.51.71h.79l-.42-1.31zm9.69-.82v-.22c0-.21-.14-.32-.38-.32h-.74v.87h.71c.27 0 .41-.11.41-.33zm-49.27 1.12v-.22a.3.3 0 0 0 -.33-.3h-.79v.82h.79c.22 0 .33-.11.33-.3zm-1.12-1.71v.76h.68a.32.32 0 0 0 .36-.3v-.19c0-.16-.14-.27-.33-.27zm9.06.84.63-1.3h.54l-.92 1.92v1h-.52v-1l-.92-1.9h.57l.63 1.28z" fill="#fff"/><path d="m92.66 15.36v-5.36h14.85v5.32h-4v24.3h-6.83v-24.26zm-4.25-5.36a3.07 3.07 0 0 1 3.08 3.07v7.38h-6.83v-4.45a.6.6 0 0 0 -.6-.6.61.61 0 0 0 -.6.6v17.71a.62.62 0 0 0 .6.6.61.61 0 0 0 .6-.6v-4.51h6.83v7.39a3.08 3.08 0 0 1 -3.08 3.06h-8.7a3.07 3.07 0 0 1 -3.07-3.06v-23.51a3.08 3.08 0 0 1 3.07-3.08zm-24.26 29.62v-29.62h11.29v5.32h-4.44v6.81h4.46v5.32h-4.46v6.82h4.46v5.31zm-8-5.91v-23.71h6.85v26.59a3.08 3.08 0 0 1 -3.08 3.06h-8.72a3.08 3.08 0 0 1 -3.08-3.06v-7.39h6.88v4.51a.62.62 0 0 0 .6.6.61.61 0 0 0 .6-.6zm-12.3-23.71a3.07 3.07 0 0 1 3.08 3.07v23.52a3.08 3.08 0 0 1 -3.08 3.06h-8.7a3.08 3.08 0 0 1 -3.08-3.06v-23.51a3.09 3.09 0 0 1 3.08-3.08zm-32.07 0a3.06 3.06 0 0 1 3.07 3.07v14.78a3.07 3.07 0 0 1 -3.07 3.06h-4.95v8.71h-6.83v-29.62zm131.61 0a1.52 1.52 0 0 1 1.53 1.52v3.26a2.81 2.81 0 0 1 -.19 1l-8.57 23.77h-6.67l8.79-24.26h-8.79v-5.29zm-16.62 0a1.52 1.52 0 0 1 1.53 1.52v3.26a2.81 2.81 0 0 1 -.19 1l-8.6 23.77h-6.64l8.79-24.26h-8.79v-5.29zm-95.89 17.93a3 3 0 0 1 -2.15 2.85l3.32 8.84h-6.94l-2.23-5.94v5.94h-6.83v-29.62h11.78a3.06 3.06 0 0 1 3.07 3.07v14.86zm9.22 5.78v-17.71a.6.6 0 1 0 -1.2 0v17.71a.6.6 0 1 0 1.2 0zm-32.1-8.71v-9a.61.61 0 0 0 -.6-.6h-.6v10.17h.6a.62.62 0 0 0 .6-.57zm16 1.93v-10.93a.6.6 0 0 0 -.6-.6h-.6v12.09h.6a.59.59 0 0 0 .65-.59z" fill="#ff6c0c"/><path d="m2.37 0h.89v3.26h-.65v-2.15l-.73 2.15h-.49l-.74-2.15v2.15h-.65v-3.26h.9l.73 2zm7 0h1l1 3.26h-.66l-.19-.57h-1.27l-.16.57h-.66l.98-3.26zm9.13.11c.68 0 1.09.35 1.09 1v.11a.84.84 0 0 1 -.59.78l.55 1.22h-.71l-.52-1.11h-.73v1.12h-.59v-3.12zm6.28.62v-.62h2.64v.62h-1v2.5h-.68v-2.5zm7.95 2.5v-3.12h.68v3.12zm8.16-1.23v-1.89h.65v3.12h-.65l-1.28-1.93v1.93h-.61v-3.12h.65zm13.52-1.89c.87 0 1.39.43 1.39 1.08v1c0 .66-.52 1.09-1.39 1.09h-1.41v-3.17zm6.85 3.12v-3.12h2.34v.62h-1.66v.68h1.47v.59h-1.47v.59h1.66v.63h-2.34zm8.41-2.23c0 .47 2 .11 2 1.28 0 .54-.46 1-1.36 1s-1.41-.46-1.41-1v-.16h.68v.13c0 .25.35.44.76.44s.65-.11.65-.38c0-.6-2-.08-2-1.31 0-.48.35-.95 1.31-.95s1.33.44 1.33 1v.11h-.63v-.1c0-.22-.3-.38-.68-.38s-.6.11-.6.32zm8.84-.95c.93 0 1.49.44 1.49 1.09v.19h-.73v-.14c0-.32-.25-.51-.71-.51s-.76.22-.76.51v1c0 .33.27.52.76.52s.71-.22.71-.52v-.19h.73v.2c0 .65-.51 1.08-1.44 1.08s-1.44-.43-1.44-1.08v-1.09c-.05-.65.47-1.06 1.39-1.06zm9 1.36v-1.3h.68v3.12h-.68v-1.23h-1.41v1.2h-.68v-3.09h.68v1.3zm7-1.3h1l1 3.12h-.68l-.19-.54h-1.27l-.19.54h-.68zm9 1.87.71-1.87h.9v3.12h-.66v-2.06l-.7 2.06h-.49l-.71-2.06v2.06h-.65v-3.12h.89l.74 1.89zm-93.58-1.33-.46 1.35h.89zm9 .54v-.19c0-.19-.14-.29-.36-.29h-.89v.76h.89c.2.02.34-.09.34-.28zm36.21.9v-.84c0-.33-.25-.52-.66-.52h-.78v1.9h.76c.41-.02.66-.24.66-.54zm39.47 0h.93l-.49-1.36zm18.39-.52a.72.72 0 0 1 .33.6v.19a.9.9 0 0 1 -1 .87h-1.68v-3.12h1.58c.57 0 1 .32 1 .79v.21a.47.47 0 0 1 -.23.46zm-.35.82v-.22a.25.25 0 0 0 -.28-.24h-1v.7h1a.25.25 0 0 0 .28-.24zm-1.3-1.68v.65h.9a.25.25 0 0 0 .27-.25v-.21c0-.11-.14-.19-.27-.19zm8.19-.6h1l1 3.12h-.68l-.19-.54h-1.36l-.19.54h-.68zm0 2h.93l-.42-1.38zm9.36.08v-2h.68v2.01c0 .65-.52 1.08-1.42 1.08s-1.41-.43-1.41-1.08v-2.09h.68v2c0 .33.27.52.73.52s.84-.16.84-.49zm6.85-2v2.5h1.69v.62h-2.37v-3.2zm6.51 0h2.74v.54h-1v2.5h-.68v-2.5h-1z" fill="#fff"/></svg>