<svg viewBox="0 0 110 26.1" xmlns="http://www.w3.org/2000/svg" xmlns:xlink="http://www.w3.org/1999/xlink"><linearGradient id="a" gradientTransform="matrix(12.28 0 0 -23.86 3698.99 9126.53)" gradientUnits="userSpaceOnUse" x1="-300.67" x2="-301.01" y1="382.44" y2="381.77"><stop offset="0" stop-color="#00a0ff"/><stop offset=".01" stop-color="#00a1ff"/><stop offset=".26" stop-color="#00beff"/><stop offset=".51" stop-color="#00d2ff"/><stop offset=".76" stop-color="#00dfff"/><stop offset="1" stop-color="#00e3ff"/></linearGradient><linearGradient id="b" gradientTransform="matrix(9.6 0 0 -8.14 2832.55 2880.1)" gradientUnits="userSpaceOnUse" x1="-292.75" x2="-295.14" y1="352.06" y2="352.06"><stop offset="0" stop-color="#ffe000"/><stop offset=".41" stop-color="#ffbd00"/><stop offset=".78" stop-color="#ffa500"/><stop offset="1" stop-color="#ff9c00"/></linearGradient><linearGradient id="c" gradientTransform="matrix(15.83 0 0 -12.31 4863.29 4543.82)" gradientUnits="userSpaceOnUse" x1="-306.48" x2="-307.84" y1="367.73" y2="366.66"><stop offset="0" stop-color="#ff3a44"/><stop offset="1" stop-color="#c31162"/></linearGradient><linearGradient id="d" gradientTransform="matrix(15.83 0 0 -12.31 4863.29 4531.58)" gradientUnits="userSpaceOnUse" x1="-307.53" x2="-306.92" y1="368" y2="367.52"><stop offset="0" stop-color="#32a071"/><stop offset=".07" stop-color="#2da771"/><stop offset=".48" stop-color="#15cf74"/><stop offset=".8" stop-color="#06e775"/><stop offset="1" stop-color="#00f076"/></linearGradient><g transform="translate(0 -.9)"><path d="m35.77 4.21a2.58 2.58 0 0 1 -.71 1.93 2.75 2.75 0 0 1 -2.06.86 3 3 0 0 1 -2.13-.86 2.9 2.9 0 0 1 -.87-2.14 2.94 2.94 0 0 1 3-3 3 3 0 0 1 1.14.21 2.7 2.7 0 0 1 .93.65l-.5.5a2 2 0 0 0 -1.57-.72 2.18 2.18 0 0 0 -1.56.65 2.22 2.22 0 0 0 -.73 1.71 2.18 2.18 0 0 0 .64 1.64 2.22 2.22 0 0 0 3.14 0 1.83 1.83 0 0 0 .51-1.14h-2.08v-.71h2.78a.89.89 0 0 1 .07.42zm4.42-2.35h-2.63v1.78h2.35v.72h-2.35v1.78h2.63v.72h-3.35v-5.72h3.35zm3.07 5h-.71v-5h-1.55v-.72h3.9v.72h-1.57v5zm4.49 0v-5.72h.71v5.72zm4 0h-.75v-5h-1.54v-.72h3.92v.72h-1.56v5zm9.06-.72a2.87 2.87 0 0 1 -2.08.86 2.64 2.64 0 0 1 -2.07-.86 2.89 2.89 0 0 1 -.85-2.14 2.92 2.92 0 0 1 2.92-3 2.75 2.75 0 0 1 2.07.86 2.89 2.89 0 0 1 .85 2.14 3.58 3.58 0 0 1 -.85 2.14zm-3.71-.5a2.22 2.22 0 0 0 3.14 0 2.25 2.25 0 0 0 .63-1.64 2.25 2.25 0 0 0 -.64-1.64 2.22 2.22 0 0 0 -3.14 0 2.25 2.25 0 0 0 -.64 1.64 2.25 2.25 0 0 0 .64 1.64zm5.56 1.22v-5.72h.86l2.78 4.43v-4.43h.7v5.72h-.78l-2.93-4.65v4.65z" fill="#fff" stroke="#fff" stroke-width=".2"/><path d="m55.59 15.37a4 4 0 1 0 4 4 3.93 3.93 0 0 0 -4-4zm0 6.48a2.4 2.4 0 1 1 2.25-2.39 2.3 2.3 0 0 1 -2.25 2.39zm-8.74-6.48a4 4 0 1 0 4 4 4 4 0 0 0 -4-4zm0 6.48a2.4 2.4 0 1 1 2.25-2.39 2.34 2.34 0 0 1 -2.25 2.39zm-10.51-5.21v1.69h4.09a3.45 3.45 0 0 1 -.91 2.11 4.32 4.32 0 0 1 -3.18 1.27 4.44 4.44 0 0 1 -4.44-4.51 4.49 4.49 0 0 1 4.44-4.51 4.77 4.77 0 0 1 3.1 1.2l1.2-1.2a5.84 5.84 0 0 0 -4.3-1.69 6.33 6.33 0 0 0 -6.34 6.2 6.29 6.29 0 0 0 6.34 6.21 5.86 5.86 0 0 0 4.37-1.77 5.53 5.53 0 0 0 1.48-3.94 4.68 4.68 0 0 0 -.07-1.06zm42.79 1.27a3.7 3.7 0 0 0 -3.46-2.54 3.84 3.84 0 0 0 -3.8 4 4 4 0 0 0 7.26 2.25l-1.34-.91a2.32 2.32 0 0 1 -2 1.12 2.11 2.11 0 0 1 -2-1.19l5.36-2.19zm-5.5 1.34a2.18 2.18 0 0 1 2.11-2.33 1.54 1.54 0 0 1 1.48.85zm-4.37 3.94h1.74v-11.84h-1.74zm-2.89-6.9a2.85 2.85 0 0 0 -2.18-.92 4 4 0 0 0 -3.88 4 4 4 0 0 0 3.88 4 2.73 2.73 0 0 0 2.11-.92h.07v.56a2 2 0 0 1 -2.11 2.33 2.31 2.31 0 0 1 -2.05-1.34l-1.55.63a3.83 3.83 0 0 0 3.53 2.37c2 0 3.8-1.2 3.8-4.16v-7.19h-1.69v.64zm-2 5.56a2.3 2.3 0 0 1 -2.26-2.39 2.33 2.33 0 0 1 2.29-2.46 2.27 2.27 0 0 1 2.11 2.47 2.23 2.23 0 0 1 -2.11 2.38zm23-10.5h-4.22v11.77h1.76v-4.44h2.46a3.73 3.73 0 0 0 3.88-3.68 3.77 3.77 0 0 0 -3.88-3.65zm0 5.71h-2.53v-4.06h2.53a2 2 0 0 1 2 2.05 2 2 0 0 1 -2 2.01zm10.93-1.69a3.34 3.34 0 0 0 -3.17 1.83l1.55.64a1.73 1.73 0 0 1 1.62-.84 1.68 1.68 0 0 1 1.83 1.55v.14a3.66 3.66 0 0 0 -1.83-.42c-1.69 0-3.38.92-3.38 2.68a2.78 2.78 0 0 0 3 2.61 2.62 2.62 0 0 0 2.25-1.13h.07v.91h1.69v-4.52a3.29 3.29 0 0 0 -3.59-3.45zm-.21 6.48c-.57 0-1.41-.28-1.41-1 0-.92 1-1.27 1.83-1.27a2.76 2.76 0 0 1 1.62.42 2.11 2.11 0 0 1 -2 1.83zm9.91-6.27-2 5.15h-.07l-2.11-5.15h-1.91l3.18 7.12-1.77 3.95h1.84l4.84-11.07zm-15.83 7.61h1.76v-11.84h-1.76z" fill="#fff"/><path d="m.43 1.38a1.82 1.82 0 0 0 -.43 1.36v21.14a1.73 1.73 0 0 0 .43 1.29l.07.07 11.78-11.86v-.28z" fill="url(#a)"/><path d="m16.18 17.38-3.9-3.92v-.29l3.9-3.93.07.07 4.61 2.69c1.35.78 1.35 2 0 2.78l-4.61 2.57-.07.07z" fill="url(#b)"/><path d="m16.25 17.31-4-4.07-11.82 11.93c.42.5 1.13.5 2 .07l13.84-7.93" fill="url(#c)"/><path d="m16.25 9.24-13.84-7.93a1.55 1.55 0 0 0 -2 .07l11.87 11.93z" fill="url(#d)"/><path d="m16.18 17.24-13.77 7.86a1.55 1.55 0 0 1 -1.91 0l-.07.07.07.07a1.55 1.55 0 0 0 1.91 0l13.84-7.93z" opacity=".2"/><path d="m.43 25.1a2.05 2.05 0 0 1 -.43-1.36v.14a1.73 1.73 0 0 0 .43 1.29zm20.51-10.57-4.76 2.71.07.07 4.61-2.64a1.68 1.68 0 0 0 1-1.36 1.66 1.66 0 0 1 -.92 1.22z" opacity=".12"/><path d="m2.41 1.46 18.53 10.54a2 2 0 0 1 1 1.21 1.69 1.69 0 0 0 -1-1.36l-18.53-10.54c-1.35-.71-2.41-.14-2.41 1.43v.14c0-1.57 1.06-2.21 2.41-1.42z" fill="#fff" opacity=".25"/></g></svg>