<svg viewBox="0 0 2500 2500" xmlns="http://www.w3.org/2000/svg"><path d="m312.5 1164.77v170.46a156.25 156.25 0 0 1 -312.5 0v-170.46a156.25 156.25 0 0 1 312.5 0z" fill="#0066d9"/><path d="m2187.56 1169.21q-.06-2.22-.06-4.44a156.25 156.25 0 0 1 312.5 0c0 1.48 0 3-.06 4.44h.06v170.46h-.06a156.25 156.25 0 0 1 -312.38 0h-.06v-170.46z" fill="#4285f4"/><path d="m852.27 1676.14v170.45a156.25 156.25 0 0 1 -312.5 0v-170.46a156.25 156.25 0 0 1 312.5 0zm0-1022.73v557.53a156.25 156.25 0 0 1 -312.42 0v-557.53a156.25 156.25 0 0 1 312.5 0z" fill="#ea4335"/><path d="m1647.73 823.86a156.25 156.25 0 1 0 312.5 0v-170.45a156.25 156.25 0 0 0 -312.5 0z" fill="#34a853"/><path d="m1093.75 326.71a156.25 156.25 0 1 0 312.5 0v-170.46a156.25 156.25 0 0 0 -312.5 0zm0 1846.58a156.25 156.25 0 0 1 312.5 0v170.46a156.25 156.25 0 0 1 -312.5 0z" fill="#fab908"/><path d="m1647.73 1292.61a156.25 156.25 0 0 1 312.5 0v554a156.25 156.25 0 0 1 -312.5 0z" fill="#34a853"/><path d="m1406.25 795.46v909.08a156.25 156.25 0 0 1 -312.5 0v-909.08a156.25 156.25 0 0 1 312.5 0z" fill="#fab908"/></svg>