<svg viewBox="0 0 449.99 48" xmlns="http://www.w3.org/2000/svg"><g fill-rule="evenodd"><path d="m30.83 0a5.47 5.47 0 0 1 4.84 2.93l17.82 31.18a5.62 5.62 0 0 1 -.22 6.33l-4.34 7.56-27.51-48zm2.91 37 6.35 11h-30.57a5.49 5.49 0 0 1 -4.91-3l-4.61-8zm-17-29.25 12.36 21.49h-24.71z" fill="#33ace2"/><g fill="#fefefe"><path d="m293.57 13.34v11.4h7.07a3.72 3.72 0 0 0 3.81-3.66v-4.38c0-2-1.85-3.36-4.14-3.36zm-2.81 23.66v-26.24h9.81c4 0 6.66 2.47 6.66 5.42v5.42a6 6 0 0 1 -6.29 5.68h-7.37v9.72z"/><path d="m324.76 34.69a3.71 3.71 0 0 0 3.84-3.69v-14.24a3.7 3.7 0 0 0 -3.84-3.76h-4.55a3.7 3.7 0 0 0 -3.83 3.72v14.28a3.7 3.7 0 0 0 3.83 3.73zm-4.7 2.55c-3.83 0-6.52-2.67-6.52-5.75v-15.26c0-3.08 2.69-5.75 6.52-5.75h5c3.76 0 6.37 2.67 6.37 5.75v15.26c0 3.08-2.61 5.75-6.37 5.75z"/><path d="m341.64 13.3v21.12h8.36a3.7 3.7 0 0 0 3.84-3.71v-13.71a3.7 3.7 0 0 0 -3.84-3.7zm-2.84-2.54h11.48c3.76 0 6.37 2.66 6.37 5.73v14.75c0 3.07-2.61 5.73-6.37 5.73h-11.48z"/><path d="m380.81 28.56v2.93c0 3.08-2.64 5.75-6.36 5.75h-4.45c-3.83 0-6.51-2.67-6.51-5.75v-15.26c0-3.08 2.68-5.75 6.51-5.75h4.43c3.72 0 6.36 2.67 6.36 5.75v2.77h-2.79v-2.24a3.7 3.7 0 0 0 -3.85-3.76h-4a3.7 3.7 0 0 0 -3.83 3.72v14.28a3.7 3.7 0 0 0 3.83 3.72h4a3.7 3.7 0 0 0 3.85-3.72v-2.44z"/><path d="m392.11 26.86h8.42l-4.22-12.57zm5.62-16.1 9.16 26.48h-2.89l-2.62-7.82h-10.13l-2.62 7.82h-2.88l9.17-26.48z"/><path d="m414.4 29.42v1.58c0 2.18 2 3.72 4.52 3.72h3c2.61 0 4.67-1.24 4.67-3.5v-1.65c0-3.75-14.19-4.51-14.19-11.53v-2.41c0-2.7 2.5-5.15 6.12-5.15h3.4c4 0 6.72 2.56 6.72 5.53v2.52h-2.8v-2c0-2-1.87-3.49-4.18-3.49h-2.66c-2.05 0-3.69 1.28-3.69 3.12v1.69c0 4.73 14.15 5.45 14.15 11.31v2.56c0 3.3-3 5.52-7.17 5.52h-3.47c-4.26 0-7.21-2.67-7.21-5.75v-2.07z"/><path d="m440.45 37.06v-23.61h-7.14v-2.54h16.68v2.54h-6.74v23.61z"/><path d="m75.83 26.86h6.41l-3.24-10.14zm5.66-16.1 8.84 26.24h-4.87l-1.87-5.82h-9.11l-1.79 5.82h-4.87l8.84-26.21z"/><path d="m98.77 15.1v8.37h5.87c1.58 0 2.85-.9 2.85-2.43v-3.48c0-1.61-1.35-2.46-3-2.46zm-4.87 21.9v-26.24h11.1c4.57 0 7.3 2.76 7.3 5.76v5.57a5.69 5.69 0 0 1 -3.89 5.12l4.43 9.79h-5.09l-4.15-9.2h-4.83v9.2z"/><path d="m121.81 36.97v-21.91h-6.5v-4.3h17.3v4.3h-5.98v21.91z"/><path d="m139 29.42v1.58c0 2.18 2 3.72 4.52 3.72h3c2.61 0 4.67-1.24 4.67-3.5v-1.65c.04-3.75-14.19-4.51-14.19-11.57v-2.37c0-2.7 2.5-5.15 6.12-5.15h3.4c4 0 6.72 2.56 6.72 5.53v2.52h-2.8v-2c0-2-1.87-3.49-4.18-3.49h-2.73c-2 0-3.69 1.28-3.69 3.12v1.69c0 4.73 14.15 5.45 14.15 11.31v2.56c0 3.3-2.95 5.52-7.17 5.52h-3.47c-4.26 0-7.21-2.67-7.21-5.75v-2.07z"/><path d="m164.22 36.97v-23.67h-7.17v-2.54h16.74v2.54h-6.75v23.67z"/><path d="m179.88 26.86h8.42l-4.23-12.57zm5.61-16.1 9.17 26.48h-2.88l-2.62-7.82h-10.16l-2.62 7.82h-2.88l9.17-26.48z"/><path d="m201.83 36.97v-23.67h-7.17v-2.54h16.75v2.54h-6.76v23.67z"/><path d="m215.8 36.97h2.75v-26.21h-2.75z"/><path d="m236.63 34.69a3.7 3.7 0 0 0 3.83-3.69v-14.24a3.7 3.7 0 0 0 -3.83-3.76h-4.55a3.7 3.7 0 0 0 -3.84 3.72v14.28a3.71 3.71 0 0 0 3.84 3.73zm-4.7 2.55c-3.84 0-6.52-2.67-6.52-5.75v-15.26c0-3.08 2.68-5.75 6.52-5.75h5c3.76 0 6.37 2.67 6.37 5.75v15.26c0 3.08-2.61 5.75-6.37 5.75z"/><path d="m249.85 36.97v-26.21h2.9l12.15 21.2v-21.2h2.79v26.21h-2.9l-12.11-21.09v21.09z"/></g></g></svg>