<svg viewBox="0 0 470 155" xmlns="http://www.w3.org/2000/svg" xmlns:xlink="http://www.w3.org/1999/xlink"><linearGradient id="a" gradientTransform="matrix(380 0 0 38 21692 -4343)" gradientUnits="userSpaceOnUse" x1="-56.35" x2="-56.35" y1="117.37" y2="118.37"><stop offset="0"/><stop offset="1" stop-color="#101010"/></linearGradient><linearGradient id="b" gradientTransform="matrix(329 0 0 38 18696 -4343)" gradientUnits="userSpaceOnUse" x1="-56.33" x2="-56.33" y1="117.37" y2="118.37"><stop offset="0" stop-opacity=".3"/><stop offset="1" stop-opacity=".56"/></linearGradient><filter id="c" height="141.7" name="c" width="127" x="-13.5" y="-16.7"><feOffset dy="1" in="SourceAlpha" result="shadowOffsetOuter1"/><feGaussianBlur in="shadowOffsetOuter1" result="shadowBlurOuter1" stdDeviation="1.5"/><feColorMatrix in="shadowBlurOuter1" values="0 0 0 0 0 0 0 0 0 0 0 0 0 0 0 0 0 0 0.5 0"/></filter><filter id="d" height="123.7" name="a" width="101.9" x="-1" y="-11.8"><feGaussianBlur in="SourceAlpha" result="shadowBlurInner1" stdDeviation="4.5"/><feOffset in="shadowBlurInner1" result="shadowOffsetInner1"/><feComposite in="shadowOffsetInner1" in2="SourceAlpha" k2="-1" k3="1" operator="arithmetic" result="shadowInnerInner1"/><feColorMatrix in="shadowInnerInner1" values="0 0 0 0 0 0 0 0 0 0 0 0 0 0 0 0 0 0 0.5 0"/></filter><linearGradient id="e" gradientTransform="matrix(375 0 0 38 21318 -4402)" gradientUnits="userSpaceOnUse" x1="-56.35" x2="-56.35" y1="116.7" y2="118.58"><stop offset="0" stop-color="#2bd8f9"/><stop offset="1" stop-color="#13aff0"/></linearGradient><filter id="f" height="139.5" name="j" width="104" x="-2" y="-19.7"><feGaussianBlur in="SourceAlpha" result="shadowBlurInner1" stdDeviation="5"/><feOffset dy="-5" in="shadowBlurInner1" result="shadowOffsetInner1"/><feComposite in="shadowOffsetInner1" in2="SourceAlpha" k2="-1" k3="1" operator="arithmetic" result="shadowInnerInner1"/><feColorMatrix in="shadowInnerInner1" values="0 0 0 0 0 0 0 0 0 0 0 0 0 0 0 0 0 0 0.5 0"/></filter><filter id="g" height="116.7" name="h" width="110.8" x="-5.4" y="-4.2"><feOffset dy="1" in="SourceAlpha" result="shadowOffsetOuter1"/><feGaussianBlur in="shadowOffsetOuter1" result="shadowBlurOuter1" stdDeviation=".5"/><feColorMatrix in="shadowBlurOuter1" values="0 0 0 0 1 0 0 0 0 1 0 0 0 0 1 0 0 0 0.52 0"/></filter><filter id="h" height="123.7" name="g" width="101.9" x="-1" y="-11.8"><feGaussianBlur in="SourceAlpha" result="shadowBlurInner1" stdDeviation="4.5"/><feOffset in="shadowBlurInner1" result="shadowOffsetInner1"/><feComposite in="shadowOffsetInner1" in2="SourceAlpha" k2="-1" k3="1" operator="arithmetic" result="shadowInnerInner1"/><feColorMatrix in="shadowInnerInner1" values="0 0 0 0 0 0 0 0 0 0 0 0 0 0 0 0 0 0 0.5 0"/></filter><linearGradient id="i" gradientTransform="matrix(446.5 0 0 38 25393.5 -4460)" gradientUnits="userSpaceOnUse" x1="-56.37" x2="-56.37" y1="118.93" y2="117.04"><stop offset="0" stop-color="#3f933f"/><stop offset="1" stop-color="#66d166"/></linearGradient><filter id="j" height="139.5" name="f" width="103.4" x="-1.7" y="-19.7"><feGaussianBlur in="SourceAlpha" result="shadowBlurInner1" stdDeviation="5"/><feOffset dy="-5" in="shadowBlurInner1" result="shadowOffsetInner1"/><feComposite in="shadowOffsetInner1" in2="SourceAlpha" k2="-1" k3="1" operator="arithmetic" result="shadowInnerInner1"/><feColorMatrix in="shadowInnerInner1" values="0 0 0 0 0 0 0 0 0 0 0 0 0 0 0 0 0 0 0.5 0"/></filter><filter id="k" height="116.7" name="e" width="110.8" x="-5.4" y="-4.2"><feOffset dy="1" in="SourceAlpha" result="shadowOffsetOuter1"/><feGaussianBlur in="shadowOffsetOuter1" result="shadowBlurOuter1" stdDeviation=".5"/><feColorMatrix in="shadowBlurOuter1" values="0 0 0 0 1 0 0 0 0 1 0 0 0 0 1 0 0 0 0.52 0"/></filter><path d="m95 117h370a5 5 0 0 1 5 5v28a5 5 0 0 1 -5 5h-370a5 5 0 0 1 -5-5v-28a5 5 0 0 1 5-5z" fill="url(#a)"/><path d="m5 117h324v38h-324a5 5 0 0 1 -5-5v-28a5 5 0 0 1 5-5z" fill="#5d5d5d"/><path d="m5 117h324v38h-324a5 5 0 0 1 -5-5v-28a5 5 0 0 1 5-5z" fill="url(#b)"/><g fill="#f1f1f1" filter="url(#c)"><path d="m285.4 143 5.3-11.5h-7v-1.3h8.6v1.2l-5.3 11.7h-1.6z"/><path d="m302.6 136.6a10.72 10.72 0 0 1 -1 5 3.53 3.53 0 0 1 -3.2 1.6 3.73 3.73 0 0 1 -3.2-1.7 9.35 9.35 0 0 1 -1.1-4.9 9.6 9.6 0 0 1 1-5 3.53 3.53 0 0 1 3.2-1.6 3.61 3.61 0 0 1 3.2 1.7c.8 1.1 1.1 2.7 1.1 4.9zm-7 0a8.62 8.62 0 0 0 .7 4.1 2.35 2.35 0 0 0 4.2 0 10.08 10.08 0 0 0 .7-4.1 8.62 8.62 0 0 0 -.7-4.1 2.35 2.35 0 0 0 -4.2 0 10.08 10.08 0 0 0 -.7 4.1z"/><path d="m309.7 134a5.13 5.13 0 0 1 -.7 3 2.12 2.12 0 0 1 -2 1 2.06 2.06 0 0 1 -1.9-1 6.78 6.78 0 0 1 0-6 2.06 2.06 0 0 1 1.9-1 2.33 2.33 0 0 1 2 1 5.13 5.13 0 0 1 .7 3zm-4.1 0a6.08 6.08 0 0 0 .3 2.2 1.08 1.08 0 0 0 1.1.7c1 0 1.4-1 1.4-3s-.5-3-1.4-3a1.17 1.17 0 0 0 -1.1.7 5.38 5.38 0 0 0 -.3 2.4zm9.6-3.8-7.2 12.8h-1.3l7.1-12.8zm2.2 8.9a5.13 5.13 0 0 1 -.7 3 2.12 2.12 0 0 1 -2 1 2.06 2.06 0 0 1 -1.9-1 6 6 0 0 1 -.7-3 5.13 5.13 0 0 1 .7-3 2.3 2.3 0 0 1 3.8 0 4.47 4.47 0 0 1 .8 3zm-4 0a5.73 5.73 0 0 0 .3 2.2 1.23 1.23 0 0 0 1.1.7 1.08 1.08 0 0 0 1.1-.7 5.92 5.92 0 0 0 .4-2.3 4.32 4.32 0 0 0 -.4-2.2 1.08 1.08 0 0 0 -1.1-.7 1.17 1.17 0 0 0 -1.1.7 7.12 7.12 0 0 0 -.3 2.3z"/></g><path d="m285.4 143 5.3-11.5h-7v-1.3h8.6v1.2l-5.3 11.7h-1.6z" fill="#f1f1f1"/><path d="m302.6 136.6a10.72 10.72 0 0 1 -1 5 3.53 3.53 0 0 1 -3.2 1.6 3.73 3.73 0 0 1 -3.2-1.7 9.35 9.35 0 0 1 -1.1-4.9 9.6 9.6 0 0 1 1-5 3.53 3.53 0 0 1 3.2-1.6 3.61 3.61 0 0 1 3.2 1.7c.8 1.1 1.1 2.7 1.1 4.9zm-7 0a8.62 8.62 0 0 0 .7 4.1 2.35 2.35 0 0 0 4.2 0 10.08 10.08 0 0 0 .7-4.1 8.62 8.62 0 0 0 -.7-4.1 2.35 2.35 0 0 0 -4.2 0 10.08 10.08 0 0 0 -.7 4.1z" fill="#f1f1f1"/><path d="m309.7 134a5.13 5.13 0 0 1 -.7 3 2.12 2.12 0 0 1 -2 1 2.06 2.06 0 0 1 -1.9-1 6.78 6.78 0 0 1 0-6 2.06 2.06 0 0 1 1.9-1 2.33 2.33 0 0 1 2 1 5.13 5.13 0 0 1 .7 3zm-4.1 0a6.08 6.08 0 0 0 .3 2.2 1.08 1.08 0 0 0 1.1.7c1 0 1.4-1 1.4-3s-.5-3-1.4-3a1.17 1.17 0 0 0 -1.1.7 5.38 5.38 0 0 0 -.3 2.4zm9.6-3.8-7.2 12.8h-1.3l7.1-12.8zm2.2 8.9a5.13 5.13 0 0 1 -.7 3 2.12 2.12 0 0 1 -2 1 2.06 2.06 0 0 1 -1.9-1 6 6 0 0 1 -.7-3 5.13 5.13 0 0 1 .7-3 2.3 2.3 0 0 1 3.8 0 4.47 4.47 0 0 1 .8 3zm-4 0a5.73 5.73 0 0 0 .3 2.2 1.23 1.23 0 0 0 1.1.7 1.08 1.08 0 0 0 1.1-.7 5.92 5.92 0 0 0 .4-2.3 4.32 4.32 0 0 0 -.4-2.2 1.08 1.08 0 0 0 -1.1-.7 1.17 1.17 0 0 0 -1.1.7 7.12 7.12 0 0 0 -.3 2.3z" fill="#f1f1f1"/><path d="m5 58h460a5 5 0 0 1 5 5v28a5 5 0 0 1 -5 5h-460a5 5 0 0 1 -5-5v-28a5 5 0 0 1 5-5z" fill="#101010"/><g filter="url(#d)"><path d="m5 58h460a5 5 0 0 1 5 5v28a5 5 0 0 1 -5 5h-460a5 5 0 0 1 -5-5v-28a5 5 0 0 1 5-5z"/></g><path d="m5 58h370v38h-370a5 5 0 0 1 -5-5v-28a5 5 0 0 1 5-5z" fill="url(#e)"/><g filter="url(#f)"><path d="m5 58h370v38h-370a5 5 0 0 1 -5-5v-28a5 5 0 0 1 5-5z"/></g><g fill="#101010" filter="url(#g)"><path d="m334.1 71a4.65 4.65 0 0 1 2.8.8 2.64 2.64 0 0 1 1 2.3 2.72 2.72 0 0 1 -.6 1.7 4.94 4.94 0 0 1 -1.9 1.4 5.69 5.69 0 0 1 2.2 1.6 3.16 3.16 0 0 1 .7 1.9 3.47 3.47 0 0 1 -1.1 2.6 4.29 4.29 0 0 1 -3.1 1 5.07 5.07 0 0 1 -3.2-.9 3 3 0 0 1 -1.1-2.6c0-1.5.9-2.6 2.7-3.4a5.16 5.16 0 0 1 -1.7-1.5 3.45 3.45 0 0 1 -.5-1.8 2.57 2.57 0 0 1 1-2.2 3.66 3.66 0 0 1 2.8-.9zm-2.8 9.8a1.75 1.75 0 0 0 .7 1.6 3.28 3.28 0 0 0 2.1.6 2.81 2.81 0 0 0 2-.6 2.41 2.41 0 0 0 .7-1.7 1.8 1.8 0 0 0 -.7-1.5 8.56 8.56 0 0 0 -2.4-1.3 6.23 6.23 0 0 0 -1.9 1.2 2.31 2.31 0 0 0 -.5 1.7zm2.8-8.6a2.86 2.86 0 0 0 -1.7.5 1.68 1.68 0 0 0 -.6 1.4 2.39 2.39 0 0 0 .5 1.4 5.17 5.17 0 0 0 1.9 1.2 7 7 0 0 0 1.8-1.1 2.39 2.39 0 0 0 .5-1.4 1.68 1.68 0 0 0 -.6-1.4 2.33 2.33 0 0 0 -1.8-.6z"/><path d="m348.6 77.6a10.72 10.72 0 0 1 -1 5 3.53 3.53 0 0 1 -3.2 1.6 3.73 3.73 0 0 1 -3.2-1.7 9.35 9.35 0 0 1 -1.1-4.9 9.6 9.6 0 0 1 1-5 3.53 3.53 0 0 1 3.2-1.6 3.61 3.61 0 0 1 3.2 1.7c.8 1.1 1.1 2.7 1.1 4.9zm-7 0a8.62 8.62 0 0 0 .7 4.1 2.35 2.35 0 0 0 4.2 0 10.08 10.08 0 0 0 .7-4.1 8.62 8.62 0 0 0 -.7-4.1 2.35 2.35 0 0 0 -4.2 0 10.08 10.08 0 0 0 -.7 4.1z"/><path d="m355.7 75a5.13 5.13 0 0 1 -.7 3 2.12 2.12 0 0 1 -2 1 2.06 2.06 0 0 1 -1.9-1 5.13 5.13 0 0 1 -.7-3 5.13 5.13 0 0 1 .7-3 2.06 2.06 0 0 1 1.9-1 2.33 2.33 0 0 1 2 1 5.13 5.13 0 0 1 .7 3zm-4.1 0a6.08 6.08 0 0 0 .3 2.2 1.08 1.08 0 0 0 1.1.7c1 0 1.4-1 1.4-3s-.5-3-1.4-3a1.17 1.17 0 0 0 -1.1.7 5.38 5.38 0 0 0 -.3 2.4zm9.6-3.8-7.2 12.8h-1.3l7.1-12.8zm2.2 8.9a5.13 5.13 0 0 1 -.7 3 2.12 2.12 0 0 1 -2 1 2.06 2.06 0 0 1 -1.9-1 6 6 0 0 1 -.7-3 5.13 5.13 0 0 1 .7-3 2.31 2.31 0 0 1 3.8 0 4.47 4.47 0 0 1 .8 3zm-4 0a5.73 5.73 0 0 0 .3 2.2 1.23 1.23 0 0 0 1.1.7 1.08 1.08 0 0 0 1.1-.7 5.92 5.92 0 0 0 .4-2.3 4.32 4.32 0 0 0 -.4-2.2 1.08 1.08 0 0 0 -1.1-.7 1.17 1.17 0 0 0 -1.1.7 7.12 7.12 0 0 0 -.3 2.3z"/></g><path d="m334.1 71a4.65 4.65 0 0 1 2.8.8 2.64 2.64 0 0 1 1 2.3 2.72 2.72 0 0 1 -.6 1.7 4.94 4.94 0 0 1 -1.9 1.4 5.69 5.69 0 0 1 2.2 1.6 3.16 3.16 0 0 1 .7 1.9 3.47 3.47 0 0 1 -1.1 2.6 4.29 4.29 0 0 1 -3.1 1 5.07 5.07 0 0 1 -3.2-.9 3 3 0 0 1 -1.1-2.6c0-1.5.9-2.6 2.7-3.4a5.16 5.16 0 0 1 -1.7-1.5 3.45 3.45 0 0 1 -.5-1.8 2.57 2.57 0 0 1 1-2.2 3.66 3.66 0 0 1 2.8-.9zm-2.8 9.8a1.75 1.75 0 0 0 .7 1.6 3.28 3.28 0 0 0 2.1.6 2.81 2.81 0 0 0 2-.6 2.41 2.41 0 0 0 .7-1.7 1.8 1.8 0 0 0 -.7-1.5 8.56 8.56 0 0 0 -2.4-1.3 6.23 6.23 0 0 0 -1.9 1.2 2.31 2.31 0 0 0 -.5 1.7zm2.8-8.6a2.86 2.86 0 0 0 -1.7.5 1.68 1.68 0 0 0 -.6 1.4 2.39 2.39 0 0 0 .5 1.4 5.17 5.17 0 0 0 1.9 1.2 7 7 0 0 0 1.8-1.1 2.39 2.39 0 0 0 .5-1.4 1.68 1.68 0 0 0 -.6-1.4 2.33 2.33 0 0 0 -1.8-.6z" fill="#101010"/><path d="m348.6 77.6a10.72 10.72 0 0 1 -1 5 3.53 3.53 0 0 1 -3.2 1.6 3.73 3.73 0 0 1 -3.2-1.7 9.35 9.35 0 0 1 -1.1-4.9 9.6 9.6 0 0 1 1-5 3.53 3.53 0 0 1 3.2-1.6 3.61 3.61 0 0 1 3.2 1.7c.8 1.1 1.1 2.7 1.1 4.9zm-7 0a8.62 8.62 0 0 0 .7 4.1 2.35 2.35 0 0 0 4.2 0 10.08 10.08 0 0 0 .7-4.1 8.62 8.62 0 0 0 -.7-4.1 2.35 2.35 0 0 0 -4.2 0 10.08 10.08 0 0 0 -.7 4.1z" fill="#101010"/><path d="m355.7 75a5.13 5.13 0 0 1 -.7 3 2.12 2.12 0 0 1 -2 1 2.06 2.06 0 0 1 -1.9-1 5.13 5.13 0 0 1 -.7-3 5.13 5.13 0 0 1 .7-3 2.06 2.06 0 0 1 1.9-1 2.33 2.33 0 0 1 2 1 5.13 5.13 0 0 1 .7 3zm-4.1 0a6.08 6.08 0 0 0 .3 2.2 1.08 1.08 0 0 0 1.1.7c1 0 1.4-1 1.4-3s-.5-3-1.4-3a1.17 1.17 0 0 0 -1.1.7 5.38 5.38 0 0 0 -.3 2.4zm9.6-3.8-7.2 12.8h-1.3l7.1-12.8zm2.2 8.9a5.13 5.13 0 0 1 -.7 3 2.12 2.12 0 0 1 -2 1 2.06 2.06 0 0 1 -1.9-1 6 6 0 0 1 -.7-3 5.13 5.13 0 0 1 .7-3 2.31 2.31 0 0 1 3.8 0 4.47 4.47 0 0 1 .8 3zm-4 0a5.73 5.73 0 0 0 .3 2.2 1.23 1.23 0 0 0 1.1.7 1.08 1.08 0 0 0 1.1-.7 5.92 5.92 0 0 0 .4-2.3 4.32 4.32 0 0 0 -.4-2.2 1.08 1.08 0 0 0 -1.1-.7 1.17 1.17 0 0 0 -1.1.7 7.12 7.12 0 0 0 -.3 2.3z" fill="#101010"/><path d="m5 0h460a5 5 0 0 1 5 5v28a5 5 0 0 1 -5 5h-460a5 5 0 0 1 -5-5v-28a5 5 0 0 1 5-5z" fill="#101010"/><g filter="url(#h)"><path d="m5 0h460a5 5 0 0 1 5 5v28a5 5 0 0 1 -5 5h-460a5 5 0 0 1 -5-5v-28a5 5 0 0 1 5-5z"/></g><path d="m5 0h441.5v38h-441.5a5 5 0 0 1 -5-5v-28a5 5 0 0 1 5-5z" fill="url(#i)"/><g filter="url(#j)"><path d="m5 0h441.5v38h-441.5a5 5 0 0 1 -5-5v-28a5 5 0 0 1 5-5z"/></g><g fill="#101010" filter="url(#k)"><path d="m408.3 18.6c0 5-1.9 7.5-5.8 7.5a6.27 6.27 0 0 1 -1.6-.2v-1.3a4.14 4.14 0 0 0 1.6.2 3.82 3.82 0 0 0 3.2-1.3 7 7 0 0 0 1.2-4h-.1a2.76 2.76 0 0 1 -1.3 1.1 3.42 3.42 0 0 1 -1.8.4 3.62 3.62 0 0 1 -2.7-1 3.71 3.71 0 0 1 -1-2.8 4.77 4.77 0 0 1 1.1-3.2 4.11 4.11 0 0 1 5.2-.5 3.47 3.47 0 0 1 1.5 2 10.59 10.59 0 0 1 .5 3.1zm-4.4-4.4a2.41 2.41 0 0 0 -1.9.8 3.61 3.61 0 0 0 -.7 2.2 3.17 3.17 0 0 0 .6 2 2.35 2.35 0 0 0 1.9.7 4 4 0 0 0 1.5-.3 3.13 3.13 0 0 0 1.1-.9 1.92 1.92 0 0 0 .4-1.2 3.29 3.29 0 0 0 -.4-1.7 4 4 0 0 0 -1-1.2 3.31 3.31 0 0 0 -1.5-.4z"/><path d="m414.1 18.2a4.55 4.55 0 0 1 3.2 1 3.49 3.49 0 0 1 1.2 2.8 3.74 3.74 0 0 1 -1.3 3.1 4.76 4.76 0 0 1 -3.5 1.1 6 6 0 0 1 -3.3-.7v-1.4a3.39 3.39 0 0 0 1.5.6 11 11 0 0 0 1.8.2 3.61 3.61 0 0 0 2.4-.7 2.58 2.58 0 0 0 .9-2.1q0-2.7-3.3-2.7a10.33 10.33 0 0 0 -2.2.3l-.8-.5.5-6h6.4v1.3h-5.1l-.3 3.9a6.15 6.15 0 0 1 1.9-.2z"/><path d="m425.7 17a5.13 5.13 0 0 1 -.7 3 2.12 2.12 0 0 1 -2 1 2.06 2.06 0 0 1 -1.9-1 5.13 5.13 0 0 1 -.7-3 5.13 5.13 0 0 1 .7-3 2.06 2.06 0 0 1 1.9-1 2.33 2.33 0 0 1 2 1 5.13 5.13 0 0 1 .7 3zm-4.1 0a6.08 6.08 0 0 0 .3 2.2 1.08 1.08 0 0 0 1.1.7c1 0 1.4-1 1.4-3s-.5-3-1.4-3a1.17 1.17 0 0 0 -1.1.7 5.38 5.38 0 0 0 -.3 2.4zm9.6-3.8-7.2 12.8h-1.3l7.1-12.8zm2.2 8.9a5.13 5.13 0 0 1 -.7 3 2.12 2.12 0 0 1 -2 1 2.06 2.06 0 0 1 -1.9-1 6 6 0 0 1 -.7-3 5.13 5.13 0 0 1 .7-3 2.3 2.3 0 0 1 3.8 0 4.47 4.47 0 0 1 .8 3zm-4 0a5.73 5.73 0 0 0 .3 2.2 1.23 1.23 0 0 0 1.1.7 1.08 1.08 0 0 0 1.1-.7 5.92 5.92 0 0 0 .4-2.3 4.32 4.32 0 0 0 -.4-2.2 1.08 1.08 0 0 0 -1.1-.7 1.17 1.17 0 0 0 -1.1.7 7.12 7.12 0 0 0 -.3 2.3z"/></g><path d="m408.3 18.6c0 5-1.9 7.5-5.8 7.5a6.27 6.27 0 0 1 -1.6-.2v-1.3a4.14 4.14 0 0 0 1.6.2 3.82 3.82 0 0 0 3.2-1.3 7 7 0 0 0 1.2-4h-.1a2.76 2.76 0 0 1 -1.3 1.1 3.42 3.42 0 0 1 -1.8.4 3.62 3.62 0 0 1 -2.7-1 3.71 3.71 0 0 1 -1-2.8 4.77 4.77 0 0 1 1.1-3.2 4.11 4.11 0 0 1 5.2-.5 3.47 3.47 0 0 1 1.5 2 10.59 10.59 0 0 1 .5 3.1zm-4.4-4.4a2.41 2.41 0 0 0 -1.9.8 3.61 3.61 0 0 0 -.7 2.2 3.17 3.17 0 0 0 .6 2 2.35 2.35 0 0 0 1.9.7 4 4 0 0 0 1.5-.3 3.13 3.13 0 0 0 1.1-.9 1.92 1.92 0 0 0 .4-1.2 3.29 3.29 0 0 0 -.4-1.7 4 4 0 0 0 -1-1.2 3.31 3.31 0 0 0 -1.5-.4z" fill="#101010"/><path d="m414.1 18.2a4.55 4.55 0 0 1 3.2 1 3.49 3.49 0 0 1 1.2 2.8 3.74 3.74 0 0 1 -1.3 3.1 4.76 4.76 0 0 1 -3.5 1.1 6 6 0 0 1 -3.3-.7v-1.4a3.39 3.39 0 0 0 1.5.6 11 11 0 0 0 1.8.2 3.61 3.61 0 0 0 2.4-.7 2.58 2.58 0 0 0 .9-2.1q0-2.7-3.3-2.7a10.33 10.33 0 0 0 -2.2.3l-.8-.5.5-6h6.4v1.3h-5.1l-.3 3.9a6.15 6.15 0 0 1 1.9-.2z" fill="#101010"/><path d="m425.7 17a5.13 5.13 0 0 1 -.7 3 2.12 2.12 0 0 1 -2 1 2.06 2.06 0 0 1 -1.9-1 5.13 5.13 0 0 1 -.7-3 5.13 5.13 0 0 1 .7-3 2.06 2.06 0 0 1 1.9-1 2.33 2.33 0 0 1 2 1 5.13 5.13 0 0 1 .7 3zm-4.1 0a6.08 6.08 0 0 0 .3 2.2 1.08 1.08 0 0 0 1.1.7c1 0 1.4-1 1.4-3s-.5-3-1.4-3a1.17 1.17 0 0 0 -1.1.7 5.38 5.38 0 0 0 -.3 2.4zm9.6-3.8-7.2 12.8h-1.3l7.1-12.8zm2.2 8.9a5.13 5.13 0 0 1 -.7 3 2.12 2.12 0 0 1 -2 1 2.06 2.06 0 0 1 -1.9-1 6 6 0 0 1 -.7-3 5.13 5.13 0 0 1 .7-3 2.3 2.3 0 0 1 3.8 0 4.47 4.47 0 0 1 .8 3zm-4 0a5.73 5.73 0 0 0 .3 2.2 1.23 1.23 0 0 0 1.1.7 1.08 1.08 0 0 0 1.1-.7 5.92 5.92 0 0 0 .4-2.3 4.32 4.32 0 0 0 -.4-2.2 1.08 1.08 0 0 0 -1.1-.7 1.17 1.17 0 0 0 -1.1.7 7.12 7.12 0 0 0 -.3 2.3z" fill="#101010"/><g fill="#fff"><path d="m25.46 73.69a3.8 3.8 0 0 1 -1.41 3.17 6.37 6.37 0 0 1 -4.05 1.14h-1.6v5.3h-1.54v-13.56h3.51c3.39 0 5.09 1.31 5.09 3.95zm-7 2.92h1.42a5.24 5.24 0 0 0 3-.68 2.5 2.5 0 0 0 .93-2.17 2.33 2.33 0 0 0 -.88-2 4.59 4.59 0 0 0 -2.74-.66h-1.76z"/><path d="m32.7 73a5.7 5.7 0 0 1 1.22.11l-.22 1.43a4.8 4.8 0 0 0 -1.11-.14 2.7 2.7 0 0 0 -2.11 1 3.68 3.68 0 0 0 -.88 2.49v5.41h-1.54v-10.17h1.27l.18 1.87h.08a4.38 4.38 0 0 1 1.41-1.52 3.13 3.13 0 0 1 1.7-.48z"/><path d="m44.6 78.21a5.59 5.59 0 0 1 -1.26 3.88 4.41 4.41 0 0 1 -3.46 1.4 4.65 4.65 0 0 1 -2.42-.64 4.24 4.24 0 0 1 -1.63-1.85 6.45 6.45 0 0 1 -.58-2.8 5.62 5.62 0 0 1 1.25-3.88 4.41 4.41 0 0 1 3.5-1.32 4.29 4.29 0 0 1 3.39 1.42 5.55 5.55 0 0 1 1.21 3.79zm-7.75 0a4.82 4.82 0 0 0 .78 3 2.7 2.7 0 0 0 2.29 1 2.73 2.73 0 0 0 2.3-1 4.82 4.82 0 0 0 .78-3 4.74 4.74 0 0 0 -.78-2.95 2.78 2.78 0 0 0 -2.32-1 2.71 2.71 0 0 0 -2.28 1 4.8 4.8 0 0 0 -.77 2.95z"/><path d="m58.79 80.53a2.55 2.55 0 0 1 -1.06 2.19 5 5 0 0 1 -3 .77 6.52 6.52 0 0 1 -3.15-.64v-1.43a7.93 7.93 0 0 0 1.57.58 6.67 6.67 0 0 0 1.62.21 3.69 3.69 0 0 0 1.86-.38 1.32 1.32 0 0 0 .13-2.19 8.24 8.24 0 0 0 -2-1 11.23 11.23 0 0 1 -2-.92 2.82 2.82 0 0 1 -.89-.9 2.36 2.36 0 0 1 -.29-1.19 2.27 2.27 0 0 1 1-2 4.73 4.73 0 0 1 2.79-.63 8.24 8.24 0 0 1 3.21.66l-.58 1.21a7.39 7.39 0 0 0 -2.77-.63 3.24 3.24 0 0 0 -1.66.34 1.06 1.06 0 0 0 -.55 1 1.13 1.13 0 0 0 .21.69 2 2 0 0 0 .67.55 16 16 0 0 0 1.78.75 6.65 6.65 0 0 1 2.45 1.33 2.33 2.33 0 0 1 .66 1.63z"/><path d="m65.59 83.49a4.67 4.67 0 0 1 -3.59-1.38 5.29 5.29 0 0 1 -1.3-3.81 5.9 5.9 0 0 1 1.21-3.91 4 4 0 0 1 3.28-1.39 3.87 3.87 0 0 1 3 1.25 4.84 4.84 0 0 1 1.11 3.32v1h-7a4 4 0 0 0 .9 2.72 3.13 3.13 0 0 0 2.42.93 8.14 8.14 0 0 0 3.24-.69v1.38a8.32 8.32 0 0 1 -1.54.5 8.81 8.81 0 0 1 -1.73.08zm-.42-9.25a2.53 2.53 0 0 0 -2 .79 3.7 3.7 0 0 0 -.86 2.21h5.32a3.41 3.41 0 0 0 -.63-2.24 2.27 2.27 0 0 0 -1.83-.76z"/><path d="m73.5 83.3h-1.5v-14.44h1.5z"/><path d="m78.3 83.3h-1.54v-14.44h1.54z"/><path d="m85.86 83.49a4.67 4.67 0 0 1 -3.56-1.38 5.33 5.33 0 0 1 -1.3-3.81 5.9 5.9 0 0 1 1.21-3.91 4 4 0 0 1 3.25-1.39 3.86 3.86 0 0 1 3 1.25 4.84 4.84 0 0 1 1.11 3.32v1h-7a4 4 0 0 0 .9 2.72 3.13 3.13 0 0 0 2.42.93 8.14 8.14 0 0 0 3.24-.69v1.38a8.08 8.08 0 0 1 -1.54.5 8.81 8.81 0 0 1 -1.73.08zm-.42-9.25a2.53 2.53 0 0 0 -2 .79 3.76 3.76 0 0 0 -.86 2.21h5.42a3.41 3.41 0 0 0 -.7-2.24 2.27 2.27 0 0 0 -1.86-.76z"/><path d="m96.86 73a5.64 5.64 0 0 1 1.22.11l-.21 1.43a4.88 4.88 0 0 0 -1.12-.14 2.71 2.71 0 0 0 -2.11 1 3.67 3.67 0 0 0 -.87 2.49v5.41h-1.54v-10.17h1.27l.17 1.87h.08a4.38 4.38 0 0 1 1.36-1.54 3.13 3.13 0 0 1 1.75-.46z"/><path d="m106.54 80.53a2.55 2.55 0 0 1 -1.06 2.19 5 5 0 0 1 -3 .77 6.52 6.52 0 0 1 -3.15-.64v-1.43a7.93 7.93 0 0 0 1.57.58 6.67 6.67 0 0 0 1.62.21 3.66 3.66 0 0 0 1.86-.38 1.28 1.28 0 0 0 .65-1.17 1.26 1.26 0 0 0 -.52-1 8.24 8.24 0 0 0 -2-1 10.74 10.74 0 0 1 -2-.92 2.76 2.76 0 0 1 -.9-.9 2.36 2.36 0 0 1 -.29-1.19 2.27 2.27 0 0 1 1-2 4.73 4.73 0 0 1 2.78-.72 8.24 8.24 0 0 1 3.21.66l-.55 1.26a7.39 7.39 0 0 0 -2.77-.63 3.24 3.24 0 0 0 -1.66.34 1.06 1.06 0 0 0 -.55 1 1.13 1.13 0 0 0 .21.69 2 2 0 0 0 .67.55 16 16 0 0 0 1.78.75 6.65 6.65 0 0 1 2.45 1.33 2.33 2.33 0 0 1 .65 1.65z"/><path d="m18.43 142h-1.57v-13.56h7.56v1.4h-6v5h5.63v1.4h-5.62z"/><path d="m31.07 131.65a5.54 5.54 0 0 1 1.21.11l-.21 1.43a4.8 4.8 0 0 0 -1.11-.14 2.7 2.7 0 0 0 -2.11 1 3.63 3.63 0 0 0 -.88 2.49v5.46h-1.54v-10.17h1.27l.18 1.89h.12a4.4 4.4 0 0 1 1.37-1.54 3.11 3.11 0 0 1 1.7-.53z"/><path d="m38.48 142.19a4.67 4.67 0 0 1 -3.56-1.38 5.33 5.33 0 0 1 -1.3-3.81 5.9 5.9 0 0 1 1.21-3.91 4 4 0 0 1 3.25-1.44 3.86 3.86 0 0 1 3 1.25 4.84 4.84 0 0 1 1.11 3.32v1h-7a4 4 0 0 0 .9 2.72 3.13 3.13 0 0 0 2.42.93 8.14 8.14 0 0 0 3.24-.69v1.38a8.08 8.08 0 0 1 -1.54.5 8.81 8.81 0 0 1 -1.73.13zm-.42-9.25a2.53 2.53 0 0 0 -2 .79 3.76 3.76 0 0 0 -.86 2.21h5.32a3.41 3.41 0 0 0 -.65-2.23 2.27 2.27 0 0 0 -1.81-.77z"/><path d="m49.14 142.19a4.67 4.67 0 0 1 -3.56-1.38 5.29 5.29 0 0 1 -1.3-3.81 5.9 5.9 0 0 1 1.21-3.91 4 4 0 0 1 3.25-1.44 3.87 3.87 0 0 1 3 1.25 4.84 4.84 0 0 1 1.11 3.32v1h-7a4 4 0 0 0 .9 2.72 3.13 3.13 0 0 0 2.42.93 8.14 8.14 0 0 0 3.24-.69v1.38a8.08 8.08 0 0 1 -1.54.5 8.81 8.81 0 0 1 -1.73.13zm-.42-9.25a2.53 2.53 0 0 0 -1.95.79 3.76 3.76 0 0 0 -.86 2.21h5.32a3.41 3.41 0 0 0 -.65-2.23 2.27 2.27 0 0 0 -1.86-.77z"/><path d="m59.86 138.48a3.64 3.64 0 0 1 .64-2.13 6.91 6.91 0 0 1 2.32-1.87 10.21 10.21 0 0 1 -1.07-1.34 4.9 4.9 0 0 1 -.46-.95 3.11 3.11 0 0 1 -.16-1 2.7 2.7 0 0 1 .87-2.19 3.75 3.75 0 0 1 2.53-.78 3.42 3.42 0 0 1 2.37.78 2.75 2.75 0 0 1 .86 2.16 3 3 0 0 1 -.63 1.83 7.25 7.25 0 0 1 -2.09 1.7l3.78 3.63a4.85 4.85 0 0 0 .83-1.35 12.16 12.16 0 0 0 .52-1.7h1.56a8.92 8.92 0 0 1 -1.9 4l2.77 2.7h-2.08l-1.72-1.65a7.29 7.29 0 0 1 -2.23 1.41 7.16 7.16 0 0 1 -2.52.43 4.45 4.45 0 0 1 -3.09-1 3.43 3.43 0 0 1 -1.1-2.68zm4.23 2.32a5.13 5.13 0 0 0 3.71-1.42l-4.06-3.94a9.28 9.28 0 0 0 -1.45 1 2.7 2.7 0 0 0 -.63.89 2.63 2.63 0 0 0 -.21 1.08 2.19 2.19 0 0 0 .72 1.72 2.81 2.81 0 0 0 1.92.67zm-1.44-9.66a2.46 2.46 0 0 0 .33 1.22 8.14 8.14 0 0 0 1.14 1.39 6 6 0 0 0 1.67-1.28 2.14 2.14 0 0 0 .47-1.36 1.53 1.53 0 0 0 -.48-1.17 1.78 1.78 0 0 0 -1.28-.45 2 2 0 0 0 -1.34.45 1.52 1.52 0 0 0 -.51 1.2z"/><path d="m88.08 132.39a3.8 3.8 0 0 1 -1.41 3.17 6.33 6.33 0 0 1 -4 1.11h-1.61v5.33h-1.58v-13.56h3.52c3.38 0 5.08 1.31 5.08 3.95zm-7 2.92h1.42a5.22 5.22 0 0 0 3-.68 2.5 2.5 0 0 0 .94-2.17 2.34 2.34 0 0 0 -.89-2 4.57 4.57 0 0 0 -2.74-.66h-1.75z"/><path d="m92.23 142h-1.54v-14.44h1.54z"/><path d="m96.94 131.83v6.6a2.66 2.66 0 0 0 .56 1.85 2.32 2.32 0 0 0 1.78.62 2.86 2.86 0 0 0 2.33-.88 4.39 4.39 0 0 0 .74-2.84v-5.35h1.54v10.17h-1.27l-.23-1.36h-.08a3.12 3.12 0 0 1 -1.31 1.15 4.51 4.51 0 0 1 -1.92.4 3.88 3.88 0 0 1 -2.78-.89 3.75 3.75 0 0 1 -.92-2.82v-6.65z"/><path d="m113.71 139.23a2.55 2.55 0 0 1 -1.06 2.19 5 5 0 0 1 -3 .77 6.57 6.57 0 0 1 -3.16-.64v-1.43a7.93 7.93 0 0 0 1.57.58 6.7 6.7 0 0 0 1.62.22 3.63 3.63 0 0 0 1.86-.39 1.28 1.28 0 0 0 .65-1.17 1.26 1.26 0 0 0 -.52-1 8.24 8.24 0 0 0 -2-1 11.06 11.06 0 0 1 -2-.92 2.63 2.63 0 0 1 -.89-.9 2.44 2.44 0 0 1 .71-3.15 4.73 4.73 0 0 1 2.78-.72 8.24 8.24 0 0 1 3.21.66l-.55 1.26a7.35 7.35 0 0 0 -2.77-.63 3.17 3.17 0 0 0 -1.65.34 1 1 0 0 0 -.56.95 1.13 1.13 0 0 0 .21.69 2 2 0 0 0 .67.55 16 16 0 0 0 1.78.75 6.65 6.65 0 0 1 2.45 1.33 2.33 2.33 0 0 1 .65 1.66z"/><path d="m127.71 139.23a2.55 2.55 0 0 1 -1.06 2.19 5 5 0 0 1 -3 .77 6.57 6.57 0 0 1 -3.16-.64v-1.43a7.93 7.93 0 0 0 1.57.58 6.7 6.7 0 0 0 1.62.22 3.65 3.65 0 0 0 1.86-.39 1.28 1.28 0 0 0 .65-1.17 1.26 1.26 0 0 0 -.52-1 8.24 8.24 0 0 0 -2-1 10.74 10.74 0 0 1 -2-.92 2.76 2.76 0 0 1 -.9-.9 2.36 2.36 0 0 1 -.29-1.19 2.27 2.27 0 0 1 1-2 4.73 4.73 0 0 1 2.78-.72 8.24 8.24 0 0 1 3.21.66l-.55 1.26a7.35 7.35 0 0 0 -2.77-.63 3.17 3.17 0 0 0 -1.65.34 1 1 0 0 0 -.56.95 1.13 1.13 0 0 0 .21.69 2 2 0 0 0 .67.55 16 16 0 0 0 1.78.75 6.65 6.65 0 0 1 2.45 1.33 2.33 2.33 0 0 1 .66 1.7z"/><path d="m134.51 142.19a4.67 4.67 0 0 1 -3.56-1.38 5.29 5.29 0 0 1 -1.3-3.81 5.9 5.9 0 0 1 1.21-3.91 4 4 0 0 1 3.25-1.44 3.86 3.86 0 0 1 3 1.25 4.84 4.84 0 0 1 1.11 3.32v1h-7a4 4 0 0 0 .9 2.72 3.13 3.13 0 0 0 2.42.93 8.14 8.14 0 0 0 3.24-.69v1.38a8.08 8.08 0 0 1 -1.54.5 8.81 8.81 0 0 1 -1.73.13zm-.42-9.25a2.53 2.53 0 0 0 -2 .79 3.76 3.76 0 0 0 -.86 2.21h5.32a3.41 3.41 0 0 0 -.65-2.23 2.27 2.27 0 0 0 -1.81-.77z"/><path d="m142.42 142h-1.54v-14.44h1.54z"/><path d="m147.22 142h-1.54v-14.44h1.54z"/><path d="m154.78 142.19a4.63 4.63 0 0 1 -3.55-1.38 5.29 5.29 0 0 1 -1.31-3.81 6 6 0 0 1 1.21-3.91 4 4 0 0 1 3.25-1.44 3.86 3.86 0 0 1 3 1.25 4.84 4.84 0 0 1 1.11 3.32v1h-7a4 4 0 0 0 .9 2.72 3.13 3.13 0 0 0 2.42.93 8.19 8.19 0 0 0 3.25-.69v1.38a8.4 8.4 0 0 1 -1.55.5 8.74 8.74 0 0 1 -1.73.13zm-.41-9.25a2.53 2.53 0 0 0 -2 .79 3.76 3.76 0 0 0 -.86 2.21h5.32a3.41 3.41 0 0 0 -.65-2.23 2.26 2.26 0 0 0 -1.81-.77z"/><path d="m165.79 131.65a5.61 5.61 0 0 1 1.21.11l-.21 1.43a4.82 4.82 0 0 0 -1.12-.14 2.71 2.71 0 0 0 -2.11 1 3.67 3.67 0 0 0 -.87 2.49v5.46h-1.54v-10.17h1.27l.17 1.89h.08a4.48 4.48 0 0 1 1.36-1.54 3.14 3.14 0 0 1 1.76-.53z"/><path d="m175.46 139.23a2.55 2.55 0 0 1 -1.06 2.19 5 5 0 0 1 -3 .77 6.57 6.57 0 0 1 -3.16-.64v-1.43a7.93 7.93 0 0 0 1.57.58 6.7 6.7 0 0 0 1.62.22 3.63 3.63 0 0 0 1.86-.39 1.28 1.28 0 0 0 .65-1.17 1.26 1.26 0 0 0 -.52-1 8.24 8.24 0 0 0 -2-1 11.06 11.06 0 0 1 -2-.92 2.63 2.63 0 0 1 -.89-.9 2.44 2.44 0 0 1 .71-3.15 4.73 4.73 0 0 1 2.78-.72 8.24 8.24 0 0 1 3.21.66l-.55 1.26a7.35 7.35 0 0 0 -2.77-.63 3.17 3.17 0 0 0 -1.65.34 1 1 0 0 0 -.56.95 1.13 1.13 0 0 0 .21.69 2 2 0 0 0 .67.55 16 16 0 0 0 1.78.75 6.65 6.65 0 0 1 2.45 1.33 2.33 2.33 0 0 1 .65 1.66z"/><path d="m25.84 16.2a3.79 3.79 0 0 1 -1.41 3.17 6.37 6.37 0 0 1 -4 1.11h-1.6v5.33h-1.59v-13.56h3.51q5.09 0 5.09 3.95zm-7 2.92h1.42a5.32 5.32 0 0 0 3-.67 2.51 2.51 0 0 0 .93-2.17 2.34 2.34 0 0 0 -.88-2 4.59 4.59 0 0 0 -2.74-.66h-1.76z"/><path d="m33.08 15.46a6.43 6.43 0 0 1 1.22.11l-.22 1.43a5.42 5.42 0 0 0 -1.08-.14 2.7 2.7 0 0 0 -2.11 1 3.69 3.69 0 0 0 -.88 2.5v5.45h-1.57v-10.16h1.27l.18 1.88h.11a4.56 4.56 0 0 1 1.33-1.53 3 3 0 0 1 1.75-.54z"/><path d="m45 20.72a5.58 5.58 0 0 1 -1.26 3.88 4.41 4.41 0 0 1 -3.48 1.4 4.56 4.56 0 0 1 -2.42-.64 4.24 4.24 0 0 1 -1.63-1.84 6.31 6.31 0 0 1 -.58-2.8 5.58 5.58 0 0 1 1.25-3.87 4.38 4.38 0 0 1 3.45-1.39 4.29 4.29 0 0 1 3.39 1.42 5.59 5.59 0 0 1 1.28 3.84zm-7.75 0a4.82 4.82 0 0 0 .78 3 2.7 2.7 0 0 0 2.29 1 2.73 2.73 0 0 0 2.3-1 4.78 4.78 0 0 0 .78-3 4.78 4.78 0 0 0 -.78-2.95 2.77 2.77 0 0 0 -2.32-1 2.7 2.7 0 0 0 -2.28 1 4.8 4.8 0 0 0 -.79 2.95z"/><path d="m60.5 22.2a3.35 3.35 0 0 1 -1.3 2.8 5.63 5.63 0 0 1 -3.53 1 8.91 8.91 0 0 1 -3.67-.62v-1.52a9.68 9.68 0 0 0 1.82.55 9.31 9.31 0 0 0 1.95.21 3.91 3.91 0 0 0 2.33-.62 2 2 0 0 0 .8-1.67 2.11 2.11 0 0 0 -.28-1.15 2.64 2.64 0 0 0 -.95-.83 13 13 0 0 0 -2-.87 6.39 6.39 0 0 1 -2.67-1.58 3.56 3.56 0 0 1 -.81-2.42 3 3 0 0 1 1.13-2.48 4.86 4.86 0 0 1 3.11-.92 9.09 9.09 0 0 1 3.72.74l-.49 1.37a8.4 8.4 0 0 0 -3.26-.7 3.22 3.22 0 0 0 -2 .53 1.79 1.79 0 0 0 -.71 1.5 2.3 2.3 0 0 0 .31 1.13 2.53 2.53 0 0 0 .88.83 10.6 10.6 0 0 0 1.89.83 7.48 7.48 0 0 1 2.93 1.63 3.2 3.2 0 0 1 .8 2.26z"/><path d="m67.33 26a4.68 4.68 0 0 1 -3.55-1.37 5.33 5.33 0 0 1 -1.31-3.82 5.91 5.91 0 0 1 1.21-3.9 4 4 0 0 1 3.26-1.45 3.82 3.82 0 0 1 3 1.26 4.82 4.82 0 0 1 1.13 3.28v1h-7a4.05 4.05 0 0 0 .9 2.72 3.16 3.16 0 0 0 2.42.92 8.17 8.17 0 0 0 3.25-.64v1.37a8.48 8.48 0 0 1 -1.55.51 8.81 8.81 0 0 1 -1.76.12zm-.41-9.25a2.54 2.54 0 0 0 -2 .8 3.67 3.67 0 0 0 -.85 2.21h5.31a3.42 3.42 0 0 0 -.65-2.24 2.29 2.29 0 0 0 -1.81-.77z"/><path d="m75.24 25.81h-1.54v-14.43h1.54z"/><path d="m80 25.81h-1.5v-14.43h1.5z"/><path d="m87.6 26a4.68 4.68 0 0 1 -3.55-1.37 5.33 5.33 0 0 1 -1.31-3.82 5.91 5.91 0 0 1 1.26-3.9 4 4 0 0 1 3.26-1.45 3.82 3.82 0 0 1 3 1.26 4.82 4.82 0 0 1 1.08 3.28v1h-7a4.05 4.05 0 0 0 .9 2.72 3.17 3.17 0 0 0 2.42.92 8.14 8.14 0 0 0 3.25-.64v1.37a8.48 8.48 0 0 1 -1.55.51 8.81 8.81 0 0 1 -1.76.12zm-.41-9.25a2.54 2.54 0 0 0 -2 .8 3.67 3.67 0 0 0 -.85 2.21h5.31a3.36 3.36 0 0 0 -.65-2.24 2.29 2.29 0 0 0 -1.81-.77z"/><path d="m98.61 15.46a6.32 6.32 0 0 1 1.21.11l-.21 1.43a5.42 5.42 0 0 0 -1.11-.14 2.68 2.68 0 0 0 -2.11 1 3.64 3.64 0 0 0 -.88 2.5v5.45h-1.51v-10.16h1.27l.18 1.88h.07a4.53 4.53 0 0 1 1.33-1.53 3.09 3.09 0 0 1 1.76-.54z"/><path d="m108.28 23a2.55 2.55 0 0 1 -1 2.19 5 5 0 0 1 -3 .77 6.45 6.45 0 0 1 -3.16-.64v-1.39a7.44 7.44 0 0 0 1.58.58 6.23 6.23 0 0 0 1.61.22 3.63 3.63 0 0 0 1.86-.39 1.32 1.32 0 0 0 .13-2.19 8 8 0 0 0 -2-1 10.78 10.78 0 0 1 -2-.93 2.7 2.7 0 0 1 -.89-.89 2.32 2.32 0 0 1 -.29-1.2 2.26 2.26 0 0 1 1-2 4.7 4.7 0 0 1 2.77-.72 8 8 0 0 1 3.21.67l-.55 1.25a7.35 7.35 0 0 0 -2.77-.63 3.17 3.17 0 0 0 -1.65.34 1.08 1.08 0 0 0 -.56.95 1.13 1.13 0 0 0 .21.69 1.92 1.92 0 0 0 .67.55 13.39 13.39 0 0 0 1.78.75 6.71 6.71 0 0 1 2.45 1.33 2.37 2.37 0 0 1 .6 1.69z"/><path d="m124.5 20.72a5.62 5.62 0 0 1 -1.25 3.88 4.43 4.43 0 0 1 -3.46 1.4 4.53 4.53 0 0 1 -2.42-.64 4.26 4.26 0 0 1 -1.64-1.84 6.45 6.45 0 0 1 -.57-2.8 5.57 5.57 0 0 1 1.24-3.87 4.38 4.38 0 0 1 3.45-1.39 4.27 4.27 0 0 1 3.39 1.42 5.59 5.59 0 0 1 1.26 3.84zm-7.75 0a4.82 4.82 0 0 0 .78 3 3.09 3.09 0 0 0 4.59 0 4.78 4.78 0 0 0 .79-3 4.78 4.78 0 0 0 -.79-2.95 3.16 3.16 0 0 0 -4.6 0 4.8 4.8 0 0 0 -.77 2.95z"/><path d="m134.16 25.81v-6.57a2.65 2.65 0 0 0 -.57-1.86 2.29 2.29 0 0 0 -1.77-.61 3 3 0 0 0 -2.34.86 4.41 4.41 0 0 0 -.74 2.85v5.33h-1.54v-10.16h1.25l.25 1.35h.08a3.2 3.2 0 0 1 1.32-1.17 4.42 4.42 0 0 1 1.91-.41 3.86 3.86 0 0 1 2.76.89 3.75 3.75 0 0 1 .93 2.83v6.63z"/><path d="m147.08 24.73a5.06 5.06 0 0 0 .79-.06 4 4 0 0 0 .6-.13v1.18a2.64 2.64 0 0 1 -.73.2 6 6 0 0 1 -.88.08q-3 0-3-3.11v-6.05h-1.46v-.74l1.46-.64.65-2.17h.89v2.36h3v1.19h-3v6a2 2 0 0 0 .44 1.41 1.52 1.52 0 0 0 1.24.48z"/><path d="m157.46 25.81v-6.57a2.7 2.7 0 0 0 -.56-1.86 2.3 2.3 0 0 0 -1.77-.61 2.92 2.92 0 0 0 -2.35.87 4.42 4.42 0 0 0 -.73 2.86v5.31h-1.54v-14.43h1.54v4.37a9.45 9.45 0 0 1 -.08 1.31h.09a3.19 3.19 0 0 1 1.3-1.16 4.22 4.22 0 0 1 1.91-.42 3.92 3.92 0 0 1 2.8.88 3.76 3.76 0 0 1 .93 2.82v6.63z"/><path d="m166.46 26a4.7 4.7 0 0 1 -3.56-1.37 5.33 5.33 0 0 1 -1.3-3.82 5.85 5.85 0 0 1 1.21-3.9 4 4 0 0 1 3.25-1.45 3.83 3.83 0 0 1 3 1.26 4.82 4.82 0 0 1 1.14 3.28v1h-7a4.05 4.05 0 0 0 .9 2.72 3.16 3.16 0 0 0 2.42.92 8.12 8.12 0 0 0 3.24-.68v1.37a8.15 8.15 0 0 1 -1.54.51 8.88 8.88 0 0 1 -1.76.16zm-.46-9.25a2.53 2.53 0 0 0 -1.95.8 3.74 3.74 0 0 0 -.86 2.21h5.32a3.42 3.42 0 0 0 -.65-2.24 2.3 2.3 0 0 0 -1.86-.77z"/><path d="m172.7 12.89a1 1 0 0 1 .26-.77.88.88 0 0 1 .65-.25.91.91 0 0 1 .64.25 1 1 0 0 1 .27.77 1 1 0 0 1 -.27.78 1 1 0 0 1 -.64.25.92.92 0 0 1 -.65-.25 1 1 0 0 1 -.26-.78zm1.67 12.92h-1.54v-10.16h1.54z"/><path d="m182.27 15.46a6.43 6.43 0 0 1 1.22.11l-.22 1.43a5.42 5.42 0 0 0 -1.11-.14 2.7 2.7 0 0 0 -2.11 1 3.64 3.64 0 0 0 -.88 2.5v5.45h-1.54v-10.16h1.27l.18 1.88h.07a4.56 4.56 0 0 1 1.37-1.53 3 3 0 0 1 1.75-.54z"/><path d="m202.39 25.81h-1.55l-2.74-9.08c-.13-.4-.28-.91-.44-1.52a10 10 0 0 1 -.25-1.1 19.85 19.85 0 0 1 -.65 2.68l-2.65 9h-1.56l-3.61-13.56h1.67l2.14 8.38a28.73 28.73 0 0 1 .65 3.19 23.14 23.14 0 0 1 .75-3.32l2.43-8.25h1.67l2.55 8.32a24.1 24.1 0 0 1 .75 3.25 27.79 27.79 0 0 1 .67-3.21l2.13-8.36h1.65z"/><path d="m212.21 26a4.7 4.7 0 0 1 -3.56-1.37 5.33 5.33 0 0 1 -1.3-3.82 5.85 5.85 0 0 1 1.21-3.9 4 4 0 0 1 3.25-1.45 3.82 3.82 0 0 1 3 1.26 4.78 4.78 0 0 1 1.19 3.28v1h-7a4.05 4.05 0 0 0 .91 2.72 3.16 3.16 0 0 0 2.42.92 8.12 8.12 0 0 0 3.24-.68v1.37a8.39 8.39 0 0 1 -1.54.51 8.88 8.88 0 0 1 -1.82.16zm-.42-9.25a2.52 2.52 0 0 0 -1.95.8 3.67 3.67 0 0 0 -.86 2.21h5.32a3.42 3.42 0 0 0 -.65-2.24 2.31 2.31 0 0 0 -1.86-.77z"/><path d="m223.3 15.48a3.77 3.77 0 0 1 3.12 1.37 6 6 0 0 1 1.11 3.87 6.07 6.07 0 0 1 -1.12 3.89 3.76 3.76 0 0 1 -3.11 1.39 4.31 4.31 0 0 1 -1.81-.37 3.4 3.4 0 0 1 -1.38-1.12h-.11l-.32 1.3h-1.11v-14.43h1.54v3.5c0 .79 0 1.5-.07 2.12h.07a3.67 3.67 0 0 1 3.19-1.52zm-.22 1.29a2.69 2.69 0 0 0 -2.27.9 5.07 5.07 0 0 0 -.7 3 5.08 5.08 0 0 0 .72 3.07 2.72 2.72 0 0 0 2.29.92 2.37 2.37 0 0 0 2.11-1 5.24 5.24 0 0 0 .7-3 5.07 5.07 0 0 0 -.7-3 2.45 2.45 0 0 0 -2.15-.89z"/><path d="m236.77 23a2.55 2.55 0 0 1 -1.05 2.19 5 5 0 0 1 -3 .77 6.38 6.38 0 0 1 -3.15-.64v-1.39a7.16 7.16 0 0 0 1.57.58 6.24 6.24 0 0 0 1.62.22 3.61 3.61 0 0 0 1.85-.39 1.26 1.26 0 0 0 .65-1.17 1.29 1.29 0 0 0 -.51-1 8.34 8.34 0 0 0 -2-1 10.78 10.78 0 0 1 -2-.93 2.7 2.7 0 0 1 -.89-.89 2.32 2.32 0 0 1 -.29-1.2 2.26 2.26 0 0 1 1-2 4.7 4.7 0 0 1 2.77-.72 8 8 0 0 1 3.21.67l-.55 1.28a7.35 7.35 0 0 0 -2.77-.63 3.17 3.17 0 0 0 -1.65.34 1.08 1.08 0 0 0 -.58.91 1.13 1.13 0 0 0 .21.69 1.92 1.92 0 0 0 .67.55 13.39 13.39 0 0 0 1.78.75 6.71 6.71 0 0 1 2.45 1.33 2.37 2.37 0 0 1 .66 1.68z"/><path d="m239.15 12.89a1 1 0 0 1 .26-.77 1 1 0 0 1 1.29 0 1 1 0 0 1 .27.77 1 1 0 0 1 -.27.78.93.93 0 0 1 -.64.25.92.92 0 0 1 -.65-.25 1.08 1.08 0 0 1 -.26-.78zm1.67 12.92h-1.54v-10.16h1.54z"/><path d="m247.37 24.73a5.06 5.06 0 0 0 .79-.06 4 4 0 0 0 .6-.13v1.18a2.73 2.73 0 0 1 -.74.2 5.73 5.73 0 0 1 -.87.08q-3 0-3-3.11v-6.05h-1.46v-.74l1.46-.64.65-2.17h.89v2.36h2.95v1.19h-2.95v6a2.07 2.07 0 0 0 .43 1.41 1.54 1.54 0 0 0 1.25.48z"/><path d="m255.09 26a4.7 4.7 0 0 1 -3.56-1.37 5.33 5.33 0 0 1 -1.3-3.82 5.85 5.85 0 0 1 1.21-3.9 4 4 0 0 1 3.25-1.45 3.82 3.82 0 0 1 3 1.26 4.78 4.78 0 0 1 1.14 3.28v1h-7a4.05 4.05 0 0 0 .91 2.72 3.15 3.15 0 0 0 2.41.92 8.14 8.14 0 0 0 3.25-.68v1.37a8.39 8.39 0 0 1 -1.54.51 8.88 8.88 0 0 1 -1.77.16zm-.42-9.25a2.5 2.5 0 0 0 -1.95.8 3.67 3.67 0 0 0 -.86 2.21h5.32a3.42 3.42 0 0 0 -.65-2.24 2.33 2.33 0 0 0 -1.86-.77z"/></g></svg>