<svg enable-background="new 0 0 47.5 29.5" viewBox="0 0 47.5 29.5" xmlns="http://www.w3.org/2000/svg" xmlns:xlink="http://www.w3.org/1999/xlink"><mask id="a" height="10.9" maskUnits="userSpaceOnUse" width="4.6" x="42.8" y="0"><path clip-rule="evenodd" d="m39.7 2.4 6.4-3.2 4.5 9.4-6.4 3.1z" fill="#fff" fill-rule="evenodd"/></mask><mask id="b" height="8.6" maskUnits="userSpaceOnUse" width="9.5" x="0" y="20.9"><path clip-rule="evenodd" d="m-.8 22.1 6.4-3.1 4.6 9.3-6.4 3.1z" fill="#fff" fill-rule="evenodd"/></mask><g clip-rule="evenodd" fill="#fff" fill-rule="evenodd"><path d="m25.4 16.2c-1.1.5-2.4.1-3-1l-2.9-5.9c-.5-1.1-.1-2.4 1-3s2.4-.1 3 1l2.9 5.9c.5 1.1.1 2.5-1 3"/><path d="m46.2 10.7c-.3.1-.6.2-.9.2-1.2.1-2.3-.9-2.3-2.1l-.2-6.5c0-1.2 1-2.3 2.2-2.3s2.2.9 2.3 2.2l.2 6.5c0 .9-.5 1.7-1.3 2" mask="url(#a)"/><path d="m8.2 29.3c-.8.4-1.7.3-2.4-.3l-5-4.2c-.9-.8-1.1-2.2-.3-3.1s2.2-1.1 3.1-.3l5 4.1c.9.8 1.1 2.2.3 3.1-.2.3-.4.5-.7.7" mask="url(#b)"/></g></svg>