<svg height="61" viewBox="0 0 61 61" width="61" xmlns="http://www.w3.org/2000/svg" xmlns:xlink="http://www.w3.org/1999/xlink"><defs><radialGradient id="a" cx="50%" cy="33.338648%" gradientTransform="matrix(0 1 -1.00495 0 .835036 -.166614)" r="65.059842%"><stop offset="0" stop-opacity="0"/><stop offset="1" stop-opacity=".641078"/></radialGradient><circle id="b" cx="30.5" cy="30.5" r="30.5"/><path id="c" d="m25.9505829 13.8869079c1.3237244-1.8265655 2.8800452-2.8869079 4.5494171-2.8869079 3.549 0 6.5983125 4.7409375 7.9633125 11.5366875.0609375.0121876.4606875 2.58375.41925 2.574.2193751 1.7135625.3461251 3.5173125.3461251 5.3893125s-.12675 3.67575-.3461251 5.3868751c5.46-1.2626251 8.6799375-3.6050626 8.6799375-5.3868751 0-.8543422-.7398376-1.8362921-2.1084473-2.7666053l-1.9140331 1.9133953c-.1952947.1952296-.5118772.1951768-.7071068-.0001179-.0937322-.0937634-.1463877-.2209151-.1463877-.3534944v-5.1056777c0-.5522847.4477152-1 1-1h5.1075462c.2761423 0 .5.2238576.5.5 0 .1326371-.0527013.2598393-.1465056.3536123l-1.9656604 1.9650055c1.7827068 1.3108329 2.8180947 2.8459265 2.8180947 4.4938822 0 3.549-4.7409375 6.5983125-11.5366875 7.9608751-1.365 6.7981874-4.4143125 11.5391249-7.9633125 11.5391249s-6.5983125-4.7409375-7.9633125-11.5391249c-6.79575-1.3625626-11.5366875-4.4118751-11.5366875-7.9608751 0-3.3198749 4.173-6.1839375 10.271625-7.6586249 1.8256875-.3924376 3.4929375-.6508126 4.5361875-.7921876.9977305-.1130115 2.5480287-.2051715 4.6508946-.2764798l.000001.0000308c.67251-.0228049 1.2361741.5038852 1.258979 1.1763952.0228048.67251-.5038852 1.2361741-1.1763952 1.2589789-.0137591.0004666-.027525.0006999-.0412919.0006999-2.1206249 0-4.0779375.160875-5.8621875.429-1.5916875.2364375-3.349125.6946875-3.349125.6946875-4.9408125 1.3016251-7.8511875 3.4783125-7.8511875 5.1675 0 1.7818125 3.2199375 4.12425 8.6799375 5.3868751-.1162561-.9081654-.2414046-2.3929537-.3754454-4.454365l.0000171-.0000011c-.0390073-.5998936.4156807-1.1178251 1.0155742-1.1568324.0433572-.0028193.0868443-.00304.1302279-.0006611.6963175.038183 1.2551416.5890667 1.3032849 1.2847665.1563044 2.2581423.3051972 3.8589451.4467163 4.8024056 1.78425.2681249 3.7415626.429 5.8621875.429 2.1206251 0 4.0779376-.1608751 5.8621876-.429.2681249-1.78425.429-3.7415625.429-5.8621876 0-2.1230625-.1608751-4.0779375-.429-5.8621875-.0170625-.0024374-.3363751-1.857375-.47775-2.520375-.22425-1.038375-.3875625-1.58925-.3875625-1.58925-1.35525-4.485-3.3978751-7.0906875-4.9968751-7.0906875-.8693321 0-1.8670015.772784-2.809225 2.1896l1.9556716 1.9556716c.1952622.1952622.1952622.5118447 0 .7071068-.0937682.0937682-.2209451.1464466-.3535534.1464466h-6.1053932v-6.1053932c0-.2761424.2238576-.5.5-.5.1326083 0 .2597852.0526784.3535534.1464466zm4.5494171 33.6755921c-1.7818125 0-4.12425-3.2199375-5.3893125-8.6799375 1.7135625.2193751 3.5173125.3461251 5.3893125.3461251s3.67575-.12675 5.3893125-.3461251c-1.2650625 5.46-3.6075 8.6799375-5.3893125 8.6799375z"/><filter id="d" height="117.9%" width="117.9%" x="-9%" y="-6.4%"><feOffset dx="0" dy="1" in="SourceAlpha" result="shadowOffsetOuter1"/><feGaussianBlur in="shadowOffsetOuter1" result="shadowBlurOuter1" stdDeviation="1"/><feColorMatrix in="shadowBlurOuter1" type="matrix" values="0 0 0 0 0   0 0 0 0 0   0 0 0 0 0  0 0 0 0.236865942 0"/></filter></defs><g fill="none" fill-rule="evenodd"><g fill-rule="nonzero"><use fill="#13aff0" xlink:href="#b"/><use fill="url(#a)" fill-opacity=".3" xlink:href="#b"/></g><use fill="#000" filter="url(#d)" xlink:href="#c"/><use fill="#fff" fill-rule="evenodd" xlink:href="#c"/></g></svg>