<svg viewBox="0 0 107 107" xmlns="http://www.w3.org/2000/svg" xmlns:xlink="http://www.w3.org/1999/xlink"><linearGradient id="a" gradientTransform="matrix(107 0 0 -107 34880 46757)" gradientUnits="userSpaceOnUse" x1="-325.48" x2="-325.48" y1="436.98" y2="435.98"><stop offset="0" stop-color="#5cb85c"/><stop offset="1" stop-color="#327e32"/></linearGradient><path d="m0 0h97a10 10 0 0 1 10 10v97z" fill="url(#a)"/><g fill="#f1f1f1"><path d="m54.59 16.71a3.1 3.1 0 0 1 -2.46 1 4.32 4.32 0 0 1 -2.63-1.43l-.65-.64-2.51 2.51-1.5-1.49 7.07-7.07 2.26 2.26a4.27 4.27 0 0 1 1.4 2.5 2.87 2.87 0 0 1 -.98 2.36zm-4.51-2.27.5.5a2.33 2.33 0 0 0 1.3.76 1.38 1.38 0 0 0 1.12-.46 1.36 1.36 0 0 0 .49-1.06 1.88 1.88 0 0 0 -.63-1.18l-.68-.69z"/><path d="m61 25.77a5.44 5.44 0 0 1 -3.57 1.83 4.56 4.56 0 0 1 -3.43-1.55 4.58 4.58 0 0 1 -1.55-3.44 5.45 5.45 0 0 1 1.85-3.61 5.38 5.38 0 0 1 3.56-1.82 4.64 4.64 0 0 1 3.44 1.57 4.57 4.57 0 0 1 1.55 3.43 5.44 5.44 0 0 1 -1.85 3.59zm-5.16-5.15a4.15 4.15 0 0 0 -1.34 2.23 2.21 2.21 0 0 0 .75 1.94c1.19 1.2 2.59 1 4.18-.59s1.79-3 .6-4.17a2.26 2.26 0 0 0 -1.95-.75 4.17 4.17 0 0 0 -2.22 1.34z"/><path d="m68.68 30.8a3.06 3.06 0 0 1 -2.46 1 4.3 4.3 0 0 1 -2.63-1.42l-.59-.61-2.51 2.51-1.5-1.5 7.01-7.07 2.26 2.29a4.19 4.19 0 0 1 1.4 2.51 2.85 2.85 0 0 1 -.98 2.29zm-4.5-2.26.49.49a2.29 2.29 0 0 0 1.31.76 1.34 1.34 0 0 0 1.14-.45 1.41 1.41 0 0 0 .49-1.07 2 2 0 0 0 -.61-1.15l-.68-.68z"/><path d="m78 35.68-4.6 4.57a3.7 3.7 0 0 1 -1.72 1 3.25 3.25 0 0 1 -1.92-.11 5.11 5.11 0 0 1 -1.88-1.25 4.26 4.26 0 0 1 -1.42-2.82 3.47 3.47 0 0 1 1.16-2.66l4.55-4.56 1.5 1.5-4.33 4.35a2.51 2.51 0 0 0 -.87 1.53 2.39 2.39 0 0 0 2.15 2.15 2.58 2.58 0 0 0 1.54-.88l4.32-4.31z"/><path d="m72.64 44.48 7.06-7.07 1.5 1.5-5.83 5.83 2.87 2.87-1.24 1.23z"/><path d="m82.55 54.4 1.17-2.2-2.57-2.57-2.15 1.17-1.61-1.62 9.59-4.6 1.83 1.83-4.64 9.59zm2.07-3.81c1-2 1.65-3.13 1.79-3.39s.26-.46.35-.6c-.52.31-1.85 1-4 2.15z"/><path d="m89.27 55.69-2.71 2.71-1.5-1.5 7.07-7.07 2.06 2.06a5 5 0 0 1 1.6 2.66 2.65 2.65 0 0 1 -.9 2.28 2.61 2.61 0 0 1 -1.45.77 3.19 3.19 0 0 1 -1.73-.21q-.79 4-1 5.16l-1.71-1.67 1-4.39zm1.22-1.22.51.53a2.58 2.58 0 0 0 1.29.82 1.21 1.21 0 0 0 1.08-.41 1.1 1.1 0 0 0 .37-1.06 3 3 0 0 0 -.89-1.35l-.45-.46z"/></g></svg>