<svg viewBox="0 0 14.95 16.7" xmlns="http://www.w3.org/2000/svg" xmlns:xlink="http://www.w3.org/1999/xlink"><linearGradient id="a" gradientTransform="matrix(8.37 0 0 -16.22 2771.48 6000.84)" gradientUnits="userSpaceOnUse" x1="-330.47" x2="-330.81" y1="369.84" y2="369.16"><stop offset="0" stop-color="#00a0ff"/><stop offset=".01" stop-color="#00a1ff"/><stop offset=".26" stop-color="#00beff"/><stop offset=".51" stop-color="#00d2ff"/><stop offset=".76" stop-color="#00dfff"/><stop offset="1" stop-color="#00e3ff"/></linearGradient><linearGradient id="b" gradientTransform="matrix(6.54 0 0 -5.54 2093.05 1806.7)" gradientUnits="userSpaceOnUse" x1="-317.46" x2="-319.86" y1="324.78" y2="324.78"><stop offset="0" stop-color="#ffe000"/><stop offset=".41" stop-color="#ffbd00"/><stop offset=".78" stop-color="#ffa500"/><stop offset="1" stop-color="#ff9c00"/></linearGradient><linearGradient id="c" gradientTransform="matrix(10.79 0 0 -8.37 3681.45 2923.85)" gradientUnits="userSpaceOnUse" x1="-340.36" x2="-341.72" y1="347.99" y2="346.93"><stop offset="0" stop-color="#ff3a44"/><stop offset="1" stop-color="#c31162"/></linearGradient><linearGradient id="d" gradientTransform="matrix(10.79 0 0 -8.37 3681.45 2915.53)" gradientUnits="userSpaceOnUse" x1="-341.41" x2="-340.8" y1="348.26" y2="347.78"><stop offset="0" stop-color="#32a071"/><stop offset=".07" stop-color="#2da771"/><stop offset=".48" stop-color="#15cf74"/><stop offset=".8" stop-color="#06e775"/><stop offset="1" stop-color="#00f076"/></linearGradient><path d="m.29.26a1.27 1.27 0 0 0 -.29.92v14.38a1.23 1.23 0 0 0 .29.88h.05l8-8.06v-.15z" fill="url(#a)"/><path d="m11 11.14-2.63-2.67v-.19l2.63-2.68.05.05 3.15 1.8c.92.53.92 1.36 0 1.89l-3.15 1.75z" fill="url(#b)"/><path d="m11.08 11.09-2.76-2.77-8 8.12c.29.34.77.34 1.36 0l9.43-5.39" fill="url(#c)"/><path d="m11.08 5.6-9.43-5.39a1.07 1.07 0 0 0 -1.36.05l8.08 8.11z" fill="url(#d)"/><path d="m11 11-9.35 5.39c-.54.29-1 .29-1.31 0l-.05.05h.05c.29.3.77.3 1.31 0l9.43-5.39z" opacity=".2"/><path d="m.29 16.39a1.46 1.46 0 0 1 -.29-.93v.1a1.23 1.23 0 0 0 .29.88zm14-7.19-3.29 1.8.05.05 3.18-1.75a1.15 1.15 0 0 0 .67-.93 1.11 1.11 0 0 1 -.63.83z" opacity=".12"/><path d="m1.65.31 12.62 7.19a1.32 1.32 0 0 1 .68.82 1.12 1.12 0 0 0 -.68-.92l-12.62-7.19c-.92-.48-1.65-.09-1.65.97v.1c0-1.07.73-1.5 1.65-.97z" fill="#fff" opacity=".25"/></svg>