<svg viewBox="0 0 15.95 16.01" xmlns="http://www.w3.org/2000/svg"><g fill-rule="evenodd" transform="translate(0 -.01)"><path d="m1.93 2.79a8 8 0 0 1 11.28-.85 7.92 7.92 0 0 1 1.91 2.43h-6.19a5.23 5.23 0 0 0 -2.62.38 3.71 3.71 0 0 0 -1.85 2.43z" fill="#ea4335"/><path d="m5.34 8a2.66 2.66 0 1 0 2.66-2.66 2.66 2.66 0 0 0 -2.66 2.66z" fill="#4285f4"/><path d="m9 11.48a3.59 3.59 0 0 1 -4.2-1.7c-.7-1.26-2.63-4.62-3.5-6.15a8 8 0 0 0 5.15 12.22z" fill="#34a853"/><path d="m10.47 5.34a3.65 3.65 0 0 1 .67 4.48l-3.64 6.18a8 8 0 0 0 8-10.64z" fill="#fbbc05"/></g></svg>