<svg height="387" viewBox="0 0 566 387" width="566" xmlns="http://www.w3.org/2000/svg" xmlns:xlink="http://www.w3.org/1999/xlink"><defs><linearGradient id="a" x1="50%" x2="50%" y1="3.373374%" y2="93.766606%"><stop offset="0" stop-color="#333"/><stop offset="1" stop-color="#1d1d1d"/></linearGradient><linearGradient id="b" x1="97.552384%" x2="0%" y1="50%" y2="50%"><stop offset="0" stop-color="#1c1c1c"/><stop offset=".435106575" stop-color="#343434"/><stop offset=".48177836" stop-color="#454545"/><stop offset=".538272218" stop-color="#343434"/><stop offset="1"/></linearGradient><path id="c" d="m177.337846 48.1430574-71.340596-40.43255089c-9.1760501-5.20056086-20.4090252-5.20040296-29.5849291.00041589l-71.34319538 40.4366741c-3.13293223 1.7757175-5.06913413 5.0988031-5.06905618 8.6999747l.00211881 97.8859968c.00007794 3.600976 1.93621613 6.92383 5.06895916 8.699486l71.34059009 40.436249c9.1762112 5.201128 20.4096847 5.201191 29.5859536.000165l71.342519-40.43629c3.132932-1.775718 5.069134-5.098804 5.069056-8.699975l-.002119-97.8904652c-.000078-3.6011173-1.936366-6.9240777-5.069301-8.6996804z"/><linearGradient id="d" x1="50%" x2="50%" y1="340.031187%" y2="0%"><stop offset="0" stop-color="#6f6f6f"/><stop offset="1" stop-color="#393939"/></linearGradient><linearGradient id="e" x1="50%" x2="50%" y1="12.400999%" y2="76.33716%"><stop offset="0" stop-color="#565656"/><stop offset="1" stop-color="#393939"/></linearGradient><linearGradient id="f" x1="54.363359%" x2="57.566202%" y1="-163.144713%" y2="234.994415%"><stop offset="0" stop-color="#333"/><stop offset=".488884394" stop-color="#171717"/><stop offset="1" stop-color="#13aff0"/></linearGradient><linearGradient id="g" x1="54.363359%" x2="57.566202%" y1="-163.144713%" y2="234.994415%"><stop offset="0" stop-color="#333"/><stop offset="1" stop-color="#171717"/></linearGradient><path id="h" d="m50.3179715 46.9621235h90.5372295c.552284 0 1 .4477152 1 1 0 .1735479-.045166.3441083-.131057.4949116l-8.050877 14.135363c-.71141 1.2490608-2.038325 2.0203534-3.475773 2.0203534h-90.5372293c-.5522847 0-1-.4477152-1-1 0-.1735479.0451658-.3441083.1310567-.4949116l8.0508769-14.1353629c.7114097-1.2490609 2.0383252-2.0203535 3.4757732-2.0203535z"/><path id="i" d="m44.696146 109.315353c2.1496951 1.241107 4.0129123 3.709259 4.947852 6.293603l18.1443449 46.976303c.5648132 1.330656.8920051 2.721998.8890441 4.00899-.0044415 1.460169-.2472446 2.069992-1.1274056 3.260033l-4.4674277 6.274362-28.0282049-72.37866zm-14.2802975.866554 12.5287845 32.341307-25.1952561-14.543227zm17.1017724 44.133525 6.424657 16.591756-31.1417096-17.974958c-2.1933701-1.265529-4.0891584-3.806949-5.0041113-6.440138l-4.6672961-12.02549z"/><filter id="j" height="133.2%" width="143.2%" x="-21.6%" y="-16.6%"><feOffset dx="0" dy="0" in="SourceAlpha" result="shadowOffsetOuter1"/><feGaussianBlur in="shadowOffsetOuter1" result="shadowBlurOuter1" stdDeviation="4"/><feColorMatrix in="shadowBlurOuter1" type="matrix" values="0 0 0 0 0.461647727   0 0 0 0 0.841661106   0 0 0 0 1  0 0 0 0.33483356 0"/></filter><filter id="k" height="123.9%" width="131.1%" x="-15.6%" y="-12%"><feMorphology in="SourceAlpha" operator="erode" radius="0.3" result="shadowSpreadInner1"/><feOffset dx="1" dy="-1" in="shadowSpreadInner1" result="shadowOffsetInner1"/><feComposite in="shadowOffsetInner1" in2="SourceAlpha" k2="-1" k3="1" operator="arithmetic" result="shadowInnerInner1"/><feColorMatrix in="shadowInnerInner1" type="matrix" values="0 0 0 0 0.203629889   0 0 0 0 0.203629889   0 0 0 0 0.203629889  0 0 0 0.308112545 0"/></filter><path id="l" d="m141.666863 106.586378c2.150436-1.241847 4.021796-.928795 4.967839.569859l18.351616 25.909309c.569255.677169.904589 1.686632.908291 2.973624.002961 1.460909-.235401 2.349-1.105198 4.547025l-4.417091 11.404566-28.346514-39.839014zm-14.228183 17.322359 12.670913 17.79512-25.195256 14.543227zm17.295496 24.278701 6.497202 9.133273-31.140969 17.974958c-2.19337 1.26627-4.097301.918434-5.024838-.651266l-4.719114-6.608136z"/><filter id="m" height="134.2%" width="143.2%" x="-21.6%" y="-17.1%"><feOffset dx="0" dy="0" in="SourceAlpha" result="shadowOffsetOuter1"/><feGaussianBlur in="shadowOffsetOuter1" result="shadowBlurOuter1" stdDeviation="4"/><feColorMatrix in="shadowBlurOuter1" type="matrix" values="0 0 0 0 0.461647727   0 0 0 0 0.841661106   0 0 0 0 1  0 0 0 0.33483356 0"/></filter><filter id="n" height="124.6%" width="131.1%" x="-15.6%" y="-12.3%"><feMorphology in="SourceAlpha" operator="erode" radius="0.3" result="shadowSpreadInner1"/><feOffset dx="-1" dy="-1" in="shadowSpreadInner1" result="shadowOffsetInner1"/><feComposite in="shadowOffsetInner1" in2="SourceAlpha" k2="-1" k3="1" operator="arithmetic" result="shadowInnerInner1"/><feColorMatrix in="shadowInnerInner1" type="matrix" values="0 0 0 0 0.203629889   0 0 0 0 0.203629889   0 0 0 0 0.203629889  0 0 0 0.308112545 0"/></filter><linearGradient id="o" x1="95.624097%" x2="1.014797%" y1="50%" y2="50%"><stop offset="0" stop-color="#8f8f8f"/><stop offset=".396216859" stop-color="#9b9999"/><stop offset=".487893712" stop-color="#bebebe"/><stop offset=".579359931" stop-color="#9a9a9a"/><stop offset="1" stop-color="#8f8f8f"/></linearGradient><linearGradient id="p"><stop offset="0" stop-color="#707070"/><stop offset="1" stop-color="#c9c9c9"/></linearGradient><linearGradient id="q" x1="50%" x2="50%" xlink:href="#p" y1="334.856399%" y2="6.51839%"/><linearGradient id="r" x1="50%" x2="50%" xlink:href="#p" y1="166.423223%" y2="6.51839%"/><linearGradient id="s" x1="-66.245583%" x2="81.5211%" y1="36.034614%" y2="36.034614%"><stop offset="0" stop-color="#707070"/><stop offset="1" stop-color="#b5b5b5"/></linearGradient><linearGradient id="t"><stop offset="0" stop-color="#707070"/><stop offset="1" stop-color="#a3a3a3"/></linearGradient><linearGradient id="u" x1="-34.313703%" x2="94.996337%" xlink:href="#t" y1="106.328867%" y2="36.034614%"/><ellipse id="v" cx="47.052951" cy="50.071503" rx="29.275591" ry="39.4"/><filter id="w" height="119%" width="127.3%" x="-14.5%" y="-5.7%"><feOffset dx="1" dy="0" in="SourceAlpha" result="shadowOffsetOuter1"/><feColorMatrix in="shadowOffsetOuter1" result="shadowMatrixOuter1" type="matrix" values="0 0 0 0 0   0 0 0 0 0   0 0 0 0 0  0 0 0 0.364215353 0"/><feOffset dx="-1" dy="3" in="SourceAlpha" result="shadowOffsetOuter2"/><feGaussianBlur in="shadowOffsetOuter2" result="shadowBlurOuter2" stdDeviation="2"/><feColorMatrix in="shadowBlurOuter2" result="shadowMatrixOuter2" type="matrix" values="0 0 0 0 0   0 0 0 0 0   0 0 0 0 0  0 0 0 0.332908741 0"/><feMerge><feMergeNode in="shadowMatrixOuter1"/><feMergeNode in="shadowMatrixOuter2"/></feMerge></filter><linearGradient id="x" x1="95.624097%" x2="3.409509%" y1="50%" y2="50%"><stop offset="0" stop-color="#717171"/><stop offset=".396216859" stop-color="#9b9999"/><stop offset=".487893712" stop-color="#ababab"/><stop offset=".579359931" stop-color="#9a9a9a"/><stop offset="1" stop-color="#646464"/></linearGradient><rect id="y" height="27.017143" rx="4.503937" width="9.007874" x="10.259843" y="49.531429"/><filter id="z" height="122.2%" width="166.6%" x="-33.3%" y="-7.4%"><feMorphology in="SourceAlpha" operator="dilate" radius="1" result="shadowSpreadOuter1"/><feOffset dx="0" dy="1" in="shadowSpreadOuter1" result="shadowOffsetOuter1"/><feGaussianBlur in="shadowOffsetOuter1" result="shadowBlurOuter1" stdDeviation=".5"/><feComposite in="shadowBlurOuter1" in2="SourceAlpha" operator="out" result="shadowBlurOuter1"/><feColorMatrix in="shadowBlurOuter1" type="matrix" values="0 0 0 0 0   0 0 0 0 0   0 0 0 0 0  0 0 0 0.128594882 0"/></filter><filter id="A" height="122.2%" width="166.6%" x="-33.3%" y="-7.4%"><feGaussianBlur in="SourceAlpha" result="shadowBlurInner1" stdDeviation=".5"/><feOffset dx="0" dy="1" in="shadowBlurInner1" result="shadowOffsetInner1"/><feComposite in="shadowOffsetInner1" in2="SourceAlpha" k2="-1" k3="1" operator="arithmetic" result="shadowInnerInner1"/><feColorMatrix in="shadowInnerInner1" type="matrix" values="0 0 0 0 1   0 0 0 0 1   0 0 0 0 1  0 0 0 0.40551404 0"/></filter><linearGradient id="B" x1="50%" x2="50%" y1="0%" y2="100%"><stop offset="0" stop-color="#747474"/><stop offset="1" stop-color="#575757"/></linearGradient><path id="C" d="m53.0485826 42.6936261 11.2073805-19.0473586c.6390627-1.0862149.4612006-2.2420414-.1247792-2.7410386-1.1436947-.9759394-2.375631-.6361526-2.8650965-.3018796-.3832997.2625939-1.018226.8815159-1.3374127 1.4246233l-9.9809593 16.9631491s.1730364-14.58602.1730364-16.1905304c0-1.8739965-1.3236249-2.417104-2.8664752-2.2261893s-2.4231988 2.0587082-2.434229 3.1387202l-.1978544 19.0246141-9.7327796-6.972866c-1.2202167-.8380948-2.5452204-.3756264-3.2063435.0055138-.4019132.2315788-.8300231.6113405-1.1498992 1.154448-.6390626 1.0917287-.4977381 2.4102118 1.0885437 3.5784442l10.5042047 7.5242443c.0744539.0537593.0661813.1681703-.0165453.2095237l-16.6997346 8.4629655c-.8941362.4535085-1.6379859 1.7037585-1.6379859 2.7837705 0 2.0497483 2.1274514 1.9346481 3.665476 1.1496234l13.9332206-7.0617757-11.2073805 19.0473585c-.6390627 1.086215-.1868242 2.4336454.4363826 2.8857754.3116033.222619 1.5614638.6347741 2.7410066-.1123433.3922618-.2488094.8307125-.6113405 1.1505886-1.154448l9.9809593-16.9631491-.175794 16.3207936c0 2.0097734 1.7675908 3.4095847 3.6654759 2.2220539.849326-.5320799 1.6262663-1.7030692 1.6379859-2.7892842l.197165-19.5001779 9.7320902 6.9721769c1.0685514.6878442 2.4369865.4066414 3.2063435-.0048246.4101859-.2191728.8307126-.6113405 1.1505886-1.1551372.6390626-1.0910396.4825716-2.3805752-.5866692-3.2179808l-11.1701536-8.0025648 16.8803543-8.5546321c.8941362-.4528194 1.6372965-1.485275 1.6372965-2.5708007 0-1.9580817-2.379078-2.0676681-3.6647866-1.3619041z"/><filter id="D" height="103.6%" width="102.1%" x="-1.1%" y="-.9%"><feOffset dx="0" dy="1" in="SourceAlpha" result="shadowOffsetOuter1"/><feColorMatrix in="shadowOffsetOuter1" type="matrix" values="0 0 0 0 0   0 0 0 0 0   0 0 0 0 0  0 0 0 0.5 0"/></filter><filter id="E" height="103.6%" width="102.1%" x="-1.1%" y="-.9%"><feOffset dx="0" dy="1" in="SourceAlpha" result="shadowOffsetInner1"/><feComposite in="shadowOffsetInner1" in2="SourceAlpha" k2="-1" k3="1" operator="arithmetic" result="shadowInnerInner1"/><feColorMatrix in="shadowInnerInner1" type="matrix" values="0 0 0 0 1   0 0 0 0 1   0 0 0 0 1  0 0 0 0.5 0"/></filter><linearGradient id="F" x1="-4.80581%" x2="65.488443%" xlink:href="#t" y1="6.526721%" y2="135.836761%"/><ellipse id="G" cx="49.000281" cy="51.252714" rx="3.393872" ry="4.567578"/><filter id="H" height="110.9%" width="114.7%" x="-7.4%" y="-5.5%"><feOffset dx="-1" dy="0" in="SourceAlpha" result="shadowOffsetInner1"/><feComposite in="shadowOffsetInner1" in2="SourceAlpha" k2="-1" k3="1" operator="arithmetic" result="shadowInnerInner1"/><feColorMatrix in="shadowInnerInner1" type="matrix" values="0 0 0 0 0   0 0 0 0 0   0 0 0 0 0  0 0 0 0.323709239 0"/></filter><linearGradient id="I" x1="-34.313703%" x2="92.11746%" y1="106.328867%" y2="37.599601%"><stop offset="0" stop-color="#696969"/><stop offset="1" stop-color="#6c6c6c"/></linearGradient><ellipse id="J" cx="4.835411" cy="43.754506" rx="3.377953" ry="4.546154"/><filter id="K" height="122%" width="129.6%" x="-7.4%" y="-16.5%"><feOffset dx="1" dy="-1" in="SourceAlpha" result="shadowOffsetOuter1"/><feColorMatrix in="shadowOffsetOuter1" type="matrix" values="0 0 0 0 1   0 0 0 0 1   0 0 0 0 1  0 0 0 0.259057971 0"/></filter><ellipse id="L" cx="4.835411" cy="113.548792" rx="3.377953" ry="4.546154"/><filter id="M" height="122%" width="129.6%" x="-7.4%" y="-16.5%"><feOffset dx="1" dy="-1" in="SourceAlpha" result="shadowOffsetOuter1"/><feColorMatrix in="shadowOffsetOuter1" type="matrix" values="0 0 0 0 1   0 0 0 0 1   0 0 0 0 1  0 0 0 0.259057971 0"/></filter><ellipse id="N" cx="72.394466" cy="5.48022" rx="3.377953" ry="4.546154"/><filter id="O" height="122%" width="129.6%" x="-7.4%" y="-16.5%"><feOffset dx="1" dy="-1" in="SourceAlpha" result="shadowOffsetOuter1"/><feColorMatrix in="shadowOffsetOuter1" type="matrix" values="0 0 0 0 1   0 0 0 0 1   0 0 0 0 1  0 0 0 0.259057971 0"/></filter><ellipse id="P" cx="72.394466" cy="77.525935" rx="3.377953" ry="4.546154"/><filter id="Q" height="122%" width="129.6%" x="-7.4%" y="-16.5%"><feOffset dx="1" dy="-1" in="SourceAlpha" result="shadowOffsetOuter1"/><feColorMatrix in="shadowOffsetOuter1" type="matrix" values="0 0 0 0 1   0 0 0 0 1   0 0 0 0 1  0 0 0 0.259057971 0"/></filter><ellipse id="R" cx="72.394466" cy="77.525935" rx="3.377953" ry="4.546154"/><filter id="S" height="122%" width="129.6%" x="-7.4%" y="-16.5%"><feOffset dx="1" dy="-1" in="SourceAlpha" result="shadowOffsetOuter1"/><feColorMatrix in="shadowOffsetOuter1" type="matrix" values="0 0 0 0 1   0 0 0 0 1   0 0 0 0 1  0 0 0 0.259057971 0"/></filter><ellipse id="T" cx="72.394466" cy="5.48022" rx="3.377953" ry="4.546154"/><filter id="U" height="122%" width="129.6%" x="-7.4%" y="-16.5%"><feOffset dx="1" dy="-1" in="SourceAlpha" result="shadowOffsetOuter1"/><feColorMatrix in="shadowOffsetOuter1" type="matrix" values="0 0 0 0 1   0 0 0 0 1   0 0 0 0 1  0 0 0 0.259057971 0"/></filter><ellipse id="V" cx="4.835411" cy="113.548792" rx="3.377953" ry="4.546154"/><filter id="W" height="122%" width="129.6%" x="-7.4%" y="-16.5%"><feOffset dx="1" dy="-1" in="SourceAlpha" result="shadowOffsetOuter1"/><feColorMatrix in="shadowOffsetOuter1" type="matrix" values="0 0 0 0 1   0 0 0 0 1   0 0 0 0 1  0 0 0 0.259057971 0"/></filter><ellipse id="X" cx="4.835411" cy="43.754506" rx="3.377953" ry="4.546154"/><filter id="Y" height="122%" width="129.6%" x="-7.4%" y="-16.5%"><feOffset dx="1" dy="-1" in="SourceAlpha" result="shadowOffsetOuter1"/><feColorMatrix in="shadowOffsetOuter1" type="matrix" values="0 0 0 0 1   0 0 0 0 1   0 0 0 0 1  0 0 0 0.259057971 0"/></filter><linearGradient id="Z" x1="54.363359%" x2="57.454325%" y1="-163.144713%" y2="221.087234%"><stop offset="0" stop-color="#a3a3a3"/><stop offset="1" stop-color="#171717"/></linearGradient><path id="aa" d="m54.8219085 44.7106949h90.5372295c.552284 0 1 .4477153 1 1 0 .173548-.045166.3441083-.131057.4949117l-8.050877 14.1353629c-.71141 1.2490609-2.038325 2.0203535-3.475773 2.0203535h-90.5372293c-.5522847 0-1-.4477153-1-1 0-.173548.0451658-.3441083.1310567-.4949117l8.0508769-14.1353629c.7114097-1.2490609 2.0383252-2.0203535 3.4757732-2.0203535z"/><linearGradient id="ab" x1="50%" x2="50%" y1="0%" y2="100%"><stop offset="0" stop-color="#caad74"/><stop offset="1" stop-color="#926f3d"/></linearGradient><linearGradient id="ac" x1="73.696918%" x2="21.511073%" y1="0%" y2="91.08025%"><stop offset="0" stop-color="#f6cf72"/><stop offset="1" stop-color="#f0ad4e"/></linearGradient><linearGradient id="ad" x1="50%" x2="50%" y1="0%" y2="97.001445%"><stop offset="0" stop-color="#fff"/><stop offset="1" stop-color="#fff" stop-opacity="0"/></linearGradient><linearGradient id="ae" x1="50%" x2="50%" y1="0%" y2="90.636403%"><stop offset="0" stop-color="#986e33"/><stop offset="1" stop-color="#986e33"/></linearGradient><path id="af" d="m62.1259985 13.5428571c18.9531903.0649967 33.1152808 29.2379079 33.1439668 64.7234587 0 35.5106112-14.1814777 64.7234592-33.1439668 64.7234592-18.9624892 0-33.1439669-29.212848-33.1439669-64.7234592 0-35.5106113 14.1814777-64.7234587 33.1439669-64.7234587zm-26.409273 64.7234587c0 32.2411902 12.481416 57.9520302 26.409273 57.9520302 13.9278569 0 26.4092729-25.71084 26.4092741-57.9492782-.0260455-32.217815-12.4913875-57.8999665-26.4150176-57.9547806-13.9255447.007067-26.4035295 25.7152702-26.4035295 57.9520286zm43.9771508 14.3343472c-.0162489 10.865633-5.7714678 20.167403-13.7364008 22.15394v5.076387c0 2.052258-1.300965 3.827483-3.1003326 3.827483-1.7993677 0-3.1003327-1.775225-3.1003327-3.827483v-5.07638c-7.9496059-1.982683-13.700177-11.253626-13.736402-22.1016657 0-2.0522577 1.3009649-3.8274835 3.1003326-3.8274835s3.1003327 1.7752258 3.1003319 3.8261543c.007794 6.6532677 3.1599679 12.3613699 7.5357375 14.2486549v-30.0206282c-6.6652279-2.3998902-10.9871408-7.9297148-10.9870653-17.4366585.1015535-8.6368094 4.6538456-16.0130269 10.9870653-17.7543392v-5.1325891c0-2.0522577 1.300965-3.8274836 3.1003327-3.8274836 1.7993676 0 3.1003326 1.7752259 3.1003326 3.8274836v5.1325903c6.3332199 1.7413389 10.8855154 9.1181377 10.9871438 17.7676794 0 2.0522578-1.300965 3.8274836-3.1003327 3.8274836s-3.1003326-1.7752258-3.1002072-3.8106127c-.0654803-4.4036898-2.027263-8.1877414-4.7866039-9.7490178v21.132858c8.0126392 3.0311593 13.736402 11.1892699 13.7364008 21.7436272zm-24.5059774-33.8460554c0 4.5541773 1.5495183 7.5696983 4.7864785 9.3238631v-19.0559149c-2.7675402 1.5654095-4.7355669 5.3613125-4.7864785 9.7320518zm10.8783602 47.8892684c4.372658-1.88593 7.5238543-7.587274 7.5357368-14.2338337 0-6.2529793-2.9750878-11.1165676-7.5357368-13.5993956z"/><filter id="ag" height="103.1%" width="106%" x="-3%" y="-.8%"><feOffset dx="0" dy="1" in="SourceAlpha" result="shadowOffsetOuter1"/><feGaussianBlur in="shadowOffsetOuter1" result="shadowBlurOuter1" stdDeviation=".5"/><feColorMatrix in="shadowBlurOuter1" type="matrix" values="0 0 0 0 1   0 0 0 0 1   0 0 0 0 1  0 0 0 0.5 0"/></filter><linearGradient id="ah" x1="19.186402%" x2="73.532989%" y1="-30.260574%" y2="56.524204%"><stop offset="0" stop-color="#fff" stop-opacity="0"/><stop offset="1" stop-color="#fff"/></linearGradient><linearGradient id="ai" x1="100%" x2="-15.837492%" y1="0%" y2="136.732836%"><stop offset="0" stop-color="#5cb85c"/><stop offset="1" stop-color="#5cb85c" stop-opacity=".55933"/></linearGradient></defs><g fill="none" fill-rule="evenodd" transform="translate(.125984 .204866)"><g transform="translate(.125984 178.90942)"><g fill-rule="nonzero"><use fill="url(#a)" xlink:href="#c"/><use fill="url(#b)" xlink:href="#c"/><path d="m182.62599 58.526753c-.199111 3.3705437-2.091016 6.430404-5.051616 8.1084453l-71.576684 40.5690127c-9.1762689 5.201026-20.4097424 5.200964-29.5859536-.000165l-71.5747494-40.568971c-2.97073342-1.6838284-4.86542644-4.7589654-5.05351574-8.1432209.19979381-3.3696879 2.09152237-6.428596 5.05148787-8.1062775l71.57736077-40.56939696c9.1759039-5.20081885 20.408879-5.20097675 29.5849291-.00041589l71.574756 40.56526155c2.971598 1.6841647 4.866623 4.7604223 5.053985 8.1457277z" fill="url(#d)"/><path d="m182.391051 56.2748497c-.203193 3.3654203-2.09404 6.4195829-5.050841 8.0954707l-71.342519 40.4362906c-9.1762689 5.201026-20.4097424 5.200963-29.5859536-.000165l-71.34059009-40.4362489c-2.96665824-1.6815186-4.86022624-4.7505312-5.05273206-8.1292953.20387359-3.3645649 2.09454354-6.4177769 5.05071027-8.0933053l71.34319538-40.4366741c9.1759039-5.20081885 20.408879-5.20097675 29.5849291-.00041589l71.340596 40.43255089c2.967521 1.6818535 4.861421 4.7519818 5.053205 8.1317923z" fill="url(#e)"/></g><g transform="matrix(-.8660254 .5 .5 .8660254 140.529504 -37.654767)"><use fill="url(#f)" xlink:href="#h"/><use fill="url(#g)" xlink:href="#h"/></g><use fill="#000" filter="url(#j)" xlink:href="#i"/><use fill="#13aff0" fill-rule="evenodd" xlink:href="#i"/><use fill="#000" filter="url(#k)" xlink:href="#i"/><use fill="#000" filter="url(#m)" xlink:href="#l"/><use fill="#13aff0" fill-rule="evenodd" xlink:href="#l"/><use fill="#000" filter="url(#n)" xlink:href="#l"/></g><g transform="translate(378.456693 181.160848)"><g fill-rule="nonzero"><path d="m181.841783 45.8916289-71.340596-40.43255096c-9.17605-5.20056087-20.4090252-5.20040296-29.5849291.00041589l-71.34319537 40.43667407c-3.13293223 1.7757175-5.06913413 5.0988031-5.06905618 8.6999747l.0021188 97.8859964c.00007795 3.600977 1.93621613 6.92383 5.06895916 8.699487l71.34059009 40.436248c9.1762113 5.201129 20.4096846 5.201191 29.5859536.000165l71.342519-40.43629c3.132932-1.775717 5.069134-5.098803 5.069056-8.699975l-.002119-97.8904647c-.000078-3.6011174-1.936366-6.9240778-5.069301-8.6996804z" fill="url(#o)"/><path d="m187.129927 56.2753244c-.199111 3.3705437-2.091016 6.430404-5.051616 8.1084453l-71.576684 40.5690133c-9.176269 5.201026-20.4097424 5.200963-29.5859536-.000165l-71.57474939-40.5689716c-2.97073342-1.6838284-4.86542644-4.7589654-5.05351574-8.1432208.19979381-3.369688 2.09152237-6.4285961 5.05148787-8.1062776l71.57736076-40.56939693c9.1759039-5.20081885 20.4088791-5.20097676 29.5849291-.00041589l71.574756 40.56526162c2.971598 1.6841646 4.866623 4.7604222 5.053985 8.1457276z" fill="url(#q)"/><path d="m186.894988 54.0234212c-.203193 3.3654202-2.09404 6.4195828-5.050841 8.0954706l-71.342519 40.4362902c-9.176269 5.201026-20.4097423 5.200964-29.5859536-.000165l-71.34059009-40.4362484c-2.96665824-1.6815186-4.86022623-4.7505313-5.05273206-8.1292953.2038736-3.3645649 2.09454354-6.4177769 5.05071028-8.0933054l71.34319537-40.43667407c9.1759039-5.20081885 20.4088791-5.20097676 29.5849291-.00041589l71.340596 40.43255096c2.967521 1.6818534 4.861421 4.7519817 5.053205 8.1317923z" fill="url(#r)"/></g><g transform="matrix(-1 0 0 1 89.07874 85.554286)"><ellipse cx="42.549014" cy="47.820074" fill="url(#s)" rx="29.275591" ry="39.4" stroke="#979797" transform="matrix(-.92718385 -.37460659 -.37460659 .92718385 99.913488 19.421215)"/><g transform="matrix(-.92718385 -.37460659 -.37460659 .92718385 109.436803 21.27236)"><use fill="#000" filter="url(#w)" xlink:href="#v"/><use fill="url(#u)" fill-rule="evenodd" xlink:href="#v"/></g><g transform="matrix(-1 0 0 1 29.52756 0)"><use fill="#000" filter="url(#z)" xlink:href="#y"/><use fill="url(#x)" fill-rule="evenodd" xlink:href="#y"/><use fill="#000" filter="url(#A)" xlink:href="#y"/><rect height="28.017143" rx="5.003937" stroke="#838383" width="10.007874" x="9.759843" y="49.031429"/></g><use fill="#000" filter="url(#D)" xlink:href="#C"/><use fill="url(#B)" fill-rule="evenodd" xlink:href="#C"/><use fill="#000" filter="url(#E)" xlink:href="#C"/><ellipse cx="46.748312" cy="51.252714" fill="url(#s)" rx="6.612015" ry="8.898655" transform="matrix(-.92718385 -.37460659 -.37460659 .92718385 109.292197 21.244251)"/><g transform="matrix(-.92718385 -.37460659 -.37460659 .92718385 113.632155 22.087853)"><ellipse cx="49.000281" cy="51.252714" fill="url(#u)" rx="6.612015" ry="8.898655"/><use fill="url(#F)" fill-rule="evenodd" xlink:href="#G"/><use fill="#000" filter="url(#H)" xlink:href="#G"/></g></g><g opacity=".9" transform="translate(4.503937 74.297143)"><g transform="matrix(-.92718385 -.37460659 -.37460659 .92718385 127.048035 4.997411)"><use fill="#000" filter="url(#K)" xlink:href="#J"/><use fill="url(#I)" fill-rule="evenodd" xlink:href="#J"/></g><g transform="matrix(-.92718385 -.37460659 -.37460659 .92718385 153.193435 10.079562)"><use fill="#000" filter="url(#M)" xlink:href="#L"/><use fill="url(#I)" fill-rule="evenodd" xlink:href="#L"/></g><g transform="matrix(-.92718385 -.37460659 -.37460659 .92718385 242.908956 27.518493)"><use fill="#000" filter="url(#O)" xlink:href="#N"/><use fill="url(#I)" fill-rule="evenodd" xlink:href="#N"/></g><g transform="matrix(-.92718385 -.37460659 -.37460659 .92718385 269.897755 32.764584)"><use fill="#000" filter="url(#Q)" xlink:href="#P"/><use fill="url(#I)" fill-rule="evenodd" xlink:href="#P"/></g><g transform="matrix(.92718385 -.37460659 .37460659 .92718385 -87.979132 32.764584)"><use fill="#000" filter="url(#S)" xlink:href="#R"/><use fill="url(#I)" fill-rule="evenodd" xlink:href="#R"/></g><g transform="matrix(.92718385 -.37460659 .37460659 .92718385 -60.990333 27.518493)"><use fill="#000" filter="url(#U)" xlink:href="#T"/><use fill="url(#I)" fill-rule="evenodd" xlink:href="#T"/></g><g transform="matrix(.92718385 -.37460659 .37460659 .92718385 28.725188 10.079562)"><use fill="#000" filter="url(#W)" xlink:href="#V"/><use fill="url(#I)" fill-rule="evenodd" xlink:href="#V"/></g><g transform="matrix(.92718385 -.37460659 .37460659 .92718385 54.870588 4.997411)"><use fill="#000" filter="url(#Y)" xlink:href="#X"/><use fill="url(#I)" fill-rule="evenodd" xlink:href="#X"/></g></g><g transform="matrix(-.8660254 .5 .5 .8660254 150.059679 -40.20837)"><use fill="url(#f)" xlink:href="#aa"/><use fill="url(#Z)" xlink:href="#aa"/></g></g><path d="m354.935054 158.346005c1.936203 0 3.504255 1.57893 3.504255 3.526278 0 1.949635-1.568052 3.528565-3.504255 3.528565-1.936204 0-3.501983-1.57893-3.501983-3.528565 0-1.947348 1.565779-3.526278 3.501983-3.526278zm18.2269-26.538841c2.488431 0 4.504173 2.029726 4.504173 4.535419 0 2.507982-2.015742 4.537708-4.504173 4.537708-2.490703 0-4.506445-2.029726-4.506445-4.537708 0-2.505693 2.015742-4.535419 4.506445-4.535419zm25.313133-25.459677c3.504255 0 6.344929 2.858092 6.344929 6.388946 0 3.526278-2.840674 6.386658-6.344929 6.386658-3.504256 0-6.34493-2.86038-6.34493-6.386658 0-3.530854 2.840674-6.388946 6.34493-6.388946zm31.362859-19.8730104c4.383728 0 7.937979 3.5789084 7.937979 7.993048 0 4.4141395-3.554251 7.9930484-7.937979 7.9930484-4.386001 0-7.93798-3.5789089-7.93798-7.9930484 0-4.4141396 3.551979-7.993048 7.93798-7.993048zm34.254437-11.1307712c4.9405 0 8.946987 4.034281 8.946987 9.0090552 0 4.9724859-4.006487 9.0067669-8.946987 9.0067669-4.942772 0-8.949259-4.034281-8.949259-9.0067669 0-4.9747742 4.006487-9.0090552 8.949259-9.0090552z" fill="#333" transform="matrix(-1 0 0 1 824.47244 0)"/><g transform="translate(228.700787)"><path d="m46.8098226.01166225v-.01166225h13.3425175v.01166251c25.098857.73517247 45.3159129 35.80355269 45.3578639 78.98833749 0 43.630495-20.6324394 79-46.0838432 79-.8885401 0-1.7712069-.043108-2.6473274-.128171h-8.0478627c-.8761205.085063-1.7587873.128171-2.6473274.128171-25.4514039 0-46.0838433-35.369505-46.0838433-79 0-43.6304952 20.6324394-79 46.0838433-79 .2424362.00069209.4844338.00458739.7259794.01166251z" fill="#986e33" fill-rule="nonzero"/><path d="m46.8098226 0h13.3425175c1.6671377.04960691 3.3127369.25064032 4.9323158.59542061v3.9188651h-34.3934738c4.81355-2.92331875 9.9947239-4.51428571 15.3926612-4.51428571.2424362.00069209.4844338.00458739.7259794.01166251zm-22.1396467 9.02857143h31.4348881v4.51428567h-35.8310295c1.4115252-1.6387854 2.8788753-3.1469237 4.3961414-4.51428567zm-7.9122194 9.02857147h34.8573116v4.5142857h-37.783418c.9372199-1.5743856 1.9134961-3.0807031 2.9261064-4.5142857zm-5.4114281 9.0285714h35.7789438v4.5142857h-37.9120786c.67913948-1.5499681 1.390762-3.05572 2.1331348-4.5142857zm-3.9715858 9.0285714h33.0158357v4.5142857h-34.59921836c.49915931-1.5370254 1.02737792-3.0425148 1.58338266-4.5142857zm-2.94015503 9.0285714h35.95599073v4.5142858h-37.10721219c.35700945-1.5289314.74108904-3.0342754 1.15122269-4.5142902zm-2.11280111 9.0285715h38.06879184v4.5142857h-38.16326529v-4.0191719c.03118245-.1652769.06267399-.3303155.09447345-.4951138zm-1.40014263 9.0285714h37.22403657v4.5142857h-37.67919025c.12675672-1.5191321.27872457-3.0243225.45515368-4.5142857zm-.7549242 9.0285714h37.97896077v4.5142857h-38.12743248c.02480794-1.5158352.07452404-3.0209809.14847171-4.5142857zm-.14847171 9.0285715h38.12743248v4.5142857h-37.97896077c-.07394767-1.4933048-.12366377-2.9984505-.14847157-4.5142771zm.44824223 9.0285714h37.67919025v4.5142857h-37.22403657c-.17642911-1.4899632-.32839696-2.9951536-.45515368-4.5142857zm1.07118148 9.0285714h36.60800877v4.5142853h-35.82389394c-.28668388-1.485717-.54834085-2.990968-.78411483-4.5142853zm1.74569034 9.0285713h34.86231843v4.514286h-33.71109283c-.41013232-1.48001-.79421183-2.985354-1.15122121-4.514285zm2.50799797 9.028572h32.35432046v4.514285h-30.7709378c-.55600474-1.471771-1.08422335-2.97726-1.58338266-4.514285zm3.42183366 9.028571h28.9324868v4.514286h-26.799352c-.7423728-1.458566-1.45399532-2.964318-2.1331348-4.514286zm4.6184565 9.028571h28.8038262v4.514286h-25.8777198c-1.0126103-1.433582-1.9888865-2.9399-2.9261064-4.514286zm6.4421844 9.028572h31.3412336v4.514286h-26.9450922c-1.5172661-1.367362-2.9846162-2.875501-4.3961414-4.514286zm7.1142343 6.771428h30.9616932v4.514286h-23.2484178c-2.6698994-1.118961-5.2485573-2.636694-7.7132754-4.514286z" fill="url(#ab)"/><path d="m62.1259985 0c-25.6324812 0-46.4117128 35.3695048-46.4117128 79 0 43.630495 20.7792316 79 46.4117128 79 25.6324811 0 46.4117125-35.369505 46.4117125-79-.042656-43.600385-20.7969208-78.92739305-46.4117125-79z" fill="url(#ac)" fill-rule="nonzero"/><path d="m99.6266298 32.5339112c2.5309162 5.9034853 4.5933422 12.4260121 6.0942242 19.4091907l-78.566881 78.9954281c-2.8318404-5.519995-5.2199382-11.716546-7.069609-18.428486z" fill="url(#ad)" fill-opacity=".5"/><path d="m91.6904036 18.16885c1.7243316 2.4318802 3.3437826 5.0716729 4.8450936 7.8968084l-78.2927276 78.7197786c-.7239248-3.570213-1.3017114-7.256369-1.7211893-11.0377504l75.1688231-75.5788348z" fill="url(#ad)" fill-opacity=".5" fill-rule="nonzero"/><g fill-rule="nonzero"><use fill="#000" filter="url(#ag)" xlink:href="#af"/><use fill="url(#ae)" xlink:href="#af"/></g><path d="m27.3168626 36.4224792 7.8827362 2.1345127c.9583581.2585194.9583581 1.6257688 0 1.8842881l-7.8827362 2.1345127c-.3341191.0912421-.5953645.3525264-.6861129.6884633l-2.1215876 7.9283875c-.2571205.9621896-1.6169716.9621896-1.875467 0l-2.1215876-7.9283875c-.0907484-.3359369-.3519938-.5972212-.686113-.6884633l-7.8827361-2.1345127c-.9583581-.2585193-.9583581-1.6257687 0-1.8842881l7.8827361-2.1345127c.3341192-.0898596.5953646-.3525263.686113-.6884633l2.1215876-7.9256225c.2584954-.9635721 1.6183465-.9635721 1.875467 0l2.1215876 7.9256225c.0907484.335937.3519938.5986037.6861129.6884633zm13.5703547-16.0892475 5.7328991 1.5523728c.6969877.1880141.6969877 1.1823773 0 1.3703913l-5.7328991 1.5523729c-.2429957.0663579-.4329923.2563828-.4989912.5007006l-1.5429728 5.7661c-.1869967.6997743-1.1759793.6997743-1.363976 0l-1.5429728-5.7661c-.0659988-.2443178-.2559955-.4343427-.4989912-.5007006l-5.732899-1.5523729c-.6969878-.188014-.6969878-1.1823772 0-1.3703913l5.732899-1.5523728c.2429957-.0653525.4329924-.2563829.4989912-.5007006l1.5429728-5.7640892c.1879967-.7007797 1.1769793-.7007797 1.363976 0l1.5429728 5.7640892c.0659989.2443177.2559955.4353481.4989912.5007006z" fill="url(#ah)"/></g><path d="m93.7067073 156.094577c1.9362034 0 3.5042554 1.57893 3.5042554 3.526277 0 1.949635-1.568052 3.528566-3.5042554 3.528566s-3.5019829-1.578931-3.5019829-3.528566c0-1.947347 1.5657795-3.526277 3.5019829-3.526277zm18.2269007-26.538842c2.48843 0 4.504173 2.029726 4.504173 4.53542 0 2.507982-2.015743 4.537708-4.504173 4.537708-2.490703 0-4.506445-2.029726-4.506445-4.537708 0-2.505694 2.015742-4.53542 4.506445-4.53542zm25.313132-25.459677c3.504256 0 6.34493 2.858093 6.34493 6.388947 0 3.526277-2.840674 6.386658-6.34493 6.386658-3.504255 0-6.344929-2.860381-6.344929-6.386658 0-3.530854 2.840674-6.388947 6.344929-6.388947zm31.362859-19.87301c4.383728 0 7.937979 3.5789084 7.937979 7.993048s-3.554251 7.993048-7.937979 7.993048c-4.386001 0-7.937979-3.5789084-7.937979-7.993048s3.551978-7.993048 7.937979-7.993048zm34.254438-11.1307712c4.9405 0 8.946987 4.034281 8.946987 9.0090552 0 4.9724859-4.006487 9.0067669-8.946987 9.0067669-4.942773 0-8.94926-4.034281-8.94926-9.0067669 0-4.9747742 4.006487-9.0090552 8.94926-9.0090552z" fill="url(#ai)"/></g></svg>