<svg width="114" height="274" xmlns="http://www.w3.org/2000/svg" xmlns:xlink="http://www.w3.org/1999/xlink"><defs><linearGradient x1="50%" y1="0%" x2="50%" y2="100%" id="a"><stop stop-color="#CAAD74" offset="0%"/><stop stop-color="#926F3D" offset="100%"/></linearGradient><linearGradient x1="58.293%" y1="0%" x2="40.029%" y2="91.08%" id="b"><stop stop-color="#F6CF72" offset="0%"/><stop stop-color="#F0AD4E" offset="100%"/></linearGradient><linearGradient x1="50%" y1="0%" x2="50%" y2="97.001%" id="c"><stop stop-color="#FFF" offset="0%"/><stop stop-color="#FFF" stop-opacity="0" offset="100%"/></linearGradient><linearGradient x1="50%" y1="0%" x2="50%" y2="97.001%" id="d"><stop stop-color="#FFF" offset="0%"/><stop stop-color="#FFF" stop-opacity="0" offset="100%"/></linearGradient><linearGradient x1="50%" y1="0%" x2="50%" y2="90.636%" id="g"><stop stop-color="#986E33" offset="0%"/><stop stop-color="#986E33" offset="100%"/></linearGradient><path d="M45.012 9.744c13.733.047 23.993 21.037 24.014 46.57 0 25.55-10.275 46.569-24.014 46.569-13.739 0-24.014-21.02-24.014-46.57S31.273 9.745 45.012 9.745zm-19.134 46.57c0 23.197 9.043 41.697 19.134 41.697 10.092 0 19.135-18.5 19.135-41.696-.02-23.18-9.05-41.66-19.139-41.699-10.09.005-19.13 18.503-19.13 41.698zM57.74 66.627c-.012 7.818-4.182 14.51-9.953 15.94v3.653c0 1.476-.942 2.754-2.246 2.754s-2.246-1.278-2.246-2.754v-3.653c-5.76-1.426-9.926-8.097-9.953-15.902 0-1.477.943-2.754 2.247-2.754 1.303 0 2.246 1.277 2.246 2.753.006 4.787 2.29 8.894 5.46 10.252v-21.6c-4.83-1.727-7.96-5.706-7.96-12.546.073-6.214 3.371-11.522 7.96-12.775v-3.692c0-1.477.942-2.754 2.246-2.754s2.246 1.277 2.246 2.754v3.692c4.589 1.253 7.887 6.561 7.96 12.785 0 1.476-.942 2.753-2.245 2.753-1.304 0-2.247-1.277-2.247-2.741-.047-3.169-1.468-5.892-3.468-7.015v15.205c5.806 2.181 9.953 8.051 9.953 15.645zM39.985 42.275c0 3.276 1.123 5.446 3.468 6.708v-13.71c-2.005 1.126-3.43 3.857-3.468 7.002zm7.882 34.457c3.168-1.357 5.451-5.46 5.46-10.242 0-4.499-2.155-7.998-5.46-9.785v20.027z" id="f"/><filter x="-4.2%" y="-1.1%" width="108.3%" height="104.3%" filterUnits="objectBoundingBox" id="e"><feOffset dy="1" in="SourceAlpha" result="shadowOffsetOuter1"/><feGaussianBlur stdDeviation=".5" in="shadowOffsetOuter1" result="shadowBlurOuter1"/><feColorMatrix values="0 0 0 0 1 0 0 0 0 1 0 0 0 0 1 0 0 0 0.5 0" in="shadowBlurOuter1"/></filter></defs><g fill="none" fill-rule="evenodd"><path d="M0 240.085v-9.667c.537-18.185 25.77-32.833 56.841-32.864 31.393 0 56.842 14.95 56.842 33.39 0 .643-.031 1.283-.092 1.918v5.83c.06.635.092 1.275.092 1.919 0 18.44-25.449 33.389-56.842 33.389C25.45 274 0 259.051 0 240.61c0-.175.003-.35.008-.525z" fill="#6A6A6A" fill-rule="nonzero"/><path d="M33.915 0h9.667c1.208.036 2.4.18 3.574.428v2.82h-24.92C25.725 1.145 29.479 0 33.39 0c.176 0 .351.003.526.008V0zm-16.04 6.496H40.65v3.248H14.69a36.064 36.064 0 0 1 3.184-3.248zm-5.733 6.496h25.255v3.248H10.022a49.61 49.61 0 0 1 2.12-3.248zM8.22 19.488h25.923v3.249H6.675a61.952 61.952 0 0 1 1.546-3.249zm-2.878 6.497h23.921v3.248H4.196a72.62 72.62 0 0 1 1.147-3.248zm-2.13 6.496h26.051v3.248H2.38c.259-1.1.537-2.183.834-3.248zm-1.53 6.496h27.581v3.248H1.114c.171-1.096.36-2.179.568-3.248zM.667 45.473h26.97v3.248H.338c.092-1.093.202-2.176.33-3.248zM.12 51.97h27.517v3.248H.013c.018-1.09.054-2.173.108-3.248zm-.108 6.496h27.625v3.249H.12a97.472 97.472 0 0 1-.108-3.249zm.325 6.497h27.3v3.248H.668a93.688 93.688 0 0 1-.33-3.248zm.776 6.496h26.524v3.248H1.682a88.412 88.412 0 0 1-.568-3.248zm1.265 6.496h25.259v3.248H3.213a81.436 81.436 0 0 1-.834-3.248zm1.817 6.496h23.442v3.248H5.343a72.62 72.62 0 0 1-1.147-3.248zm2.48 6.496h20.962v3.248H8.22a61.952 61.952 0 0 1-1.546-3.248zm3.346 6.496H30.89v3.249H12.14a49.61 49.61 0 0 1-2.12-3.249zm4.667 6.497h22.708v3.248H17.874a36.064 36.064 0 0 1-3.185-3.248zm5.155 4.872h22.432v3.248H25.432c-1.934-.805-3.803-1.897-5.588-3.248z" fill="url(#a)" style="mix-blend-mode:luminosity" transform="rotate(-90 137 137)"/><path d="M45.012 0C26.441 0 11.386 25.449 11.386 56.841c0 31.393 15.055 56.842 33.626 56.842 18.572 0 33.627-25.449 33.627-56.842C78.61 25.471 63.571.052 45.012 0z" fill="url(#b)" fill-rule="nonzero" style="mix-blend-mode:luminosity" transform="rotate(-90 137 137)"/><path d="M0 227.085v-9.667c.537-18.185 25.77-32.833 56.841-32.864 31.393 0 56.842 14.95 56.842 33.39 0 .643-.031 1.283-.092 1.918v5.83c.06.635.092 1.275.092 1.919 0 18.44-25.449 33.389-56.842 33.389C25.45 261 0 246.051 0 227.61c0-.175.003-.35.008-.525z" fill="#6A6A6A" fill-rule="nonzero"/><path d="M33.915 0h9.667c1.208.036 2.4.18 3.574.428v2.82h-24.92C25.725 1.145 29.479 0 33.39 0c.176 0 .351.003.526.008V0zm-16.04 6.496H40.65v3.248H14.69a36.064 36.064 0 0 1 3.184-3.248zm-5.733 6.496h25.255v3.248H10.022a49.61 49.61 0 0 1 2.12-3.248zM8.22 19.488h25.923v3.249H6.675a61.952 61.952 0 0 1 1.546-3.249zm-2.878 6.497h23.921v3.248H4.196a72.62 72.62 0 0 1 1.147-3.248zm-2.13 6.496h26.051v3.248H2.38c.259-1.1.537-2.183.834-3.248zm-1.53 6.496h27.581v3.248H1.114c.171-1.096.36-2.179.568-3.248zM.667 45.473h26.97v3.248H.338c.092-1.093.202-2.176.33-3.248zM.12 51.97h27.517v3.248H.013c.018-1.09.054-2.173.108-3.248zm-.108 6.496h27.625v3.249H.12a97.472 97.472 0 0 1-.108-3.249zm.325 6.497h27.3v3.248H.668a93.688 93.688 0 0 1-.33-3.248zm.776 6.496h26.524v3.248H1.682a88.412 88.412 0 0 1-.568-3.248zm1.265 6.496h25.259v3.248H3.213a81.436 81.436 0 0 1-.834-3.248zm1.817 6.496h23.442v3.248H5.343a72.62 72.62 0 0 1-1.147-3.248zm2.48 6.496h20.962v3.248H8.22a61.952 61.952 0 0 1-1.546-3.248zm3.346 6.496H30.89v3.249H12.14a49.61 49.61 0 0 1-2.12-3.249zm4.667 6.497h22.708v3.248H17.874a36.064 36.064 0 0 1-3.185-3.248zm5.155 4.872h22.432v3.248H25.432c-1.934-.805-3.803-1.897-5.588-3.248z" fill="url(#a)" style="mix-blend-mode:luminosity" transform="matrix(0 -1 1 0 0 261)"/><path d="M45.012 0C26.441 0 11.386 25.449 11.386 56.841c0 31.393 15.055 56.842 33.626 56.842 18.572 0 33.627-25.449 33.627-56.842C78.61 25.471 63.571.052 45.012 0z" fill="url(#b)" fill-rule="nonzero" style="mix-blend-mode:luminosity" transform="matrix(0 -1 1 0 0 261)"/><path d="M0 214.085v-9.667c.537-18.185 25.77-32.833 56.841-32.864 31.393 0 56.842 14.95 56.842 33.39 0 .643-.031 1.283-.092 1.918v5.83c.06.635.092 1.275.092 1.919 0 18.44-25.449 33.389-56.842 33.389C25.45 248 0 233.051 0 214.61c0-.175.003-.35.008-.525z" fill="#6A6A6A" fill-rule="nonzero"/><path d="M33.915 0h9.667c1.208.036 2.4.18 3.574.428v2.82h-24.92C25.725 1.145 29.479 0 33.39 0c.176 0 .351.003.526.008V0zm-16.04 6.496H40.65v3.248H14.69a36.064 36.064 0 0 1 3.184-3.248zm-5.733 6.496h25.255v3.248H10.022a49.61 49.61 0 0 1 2.12-3.248zM8.22 19.488h25.923v3.249H6.675a61.952 61.952 0 0 1 1.546-3.249zm-2.878 6.497h23.921v3.248H4.196a72.62 72.62 0 0 1 1.147-3.248zm-2.13 6.496h26.051v3.248H2.38c.259-1.1.537-2.183.834-3.248zm-1.53 6.496h27.581v3.248H1.114c.171-1.096.36-2.179.568-3.248zM.667 45.473h26.97v3.248H.338c.092-1.093.202-2.176.33-3.248zM.12 51.97h27.517v3.248H.013c.018-1.09.054-2.173.108-3.248zm-.108 6.496h27.625v3.249H.12a97.472 97.472 0 0 1-.108-3.249zm.325 6.497h27.3v3.248H.668a93.688 93.688 0 0 1-.33-3.248zm.776 6.496h26.524v3.248H1.682a88.412 88.412 0 0 1-.568-3.248zm1.265 6.496h25.259v3.248H3.213a81.436 81.436 0 0 1-.834-3.248zm1.817 6.496h23.442v3.248H5.343a72.62 72.62 0 0 1-1.147-3.248zm2.48 6.496h20.962v3.248H8.22a61.952 61.952 0 0 1-1.546-3.248zm3.346 6.496H30.89v3.249H12.14a49.61 49.61 0 0 1-2.12-3.249zm4.667 6.497h22.708v3.248H17.874a36.064 36.064 0 0 1-3.185-3.248zm5.155 4.872h22.432v3.248H25.432c-1.934-.805-3.803-1.897-5.588-3.248z" fill="url(#a)" style="mix-blend-mode:luminosity" transform="rotate(-90 124 124)"/><path d="M45.012 0C26.441 0 11.386 25.449 11.386 56.841c0 31.393 15.055 56.842 33.626 56.842 18.572 0 33.627-25.449 33.627-56.842C78.61 25.471 63.571.052 45.012 0z" fill="url(#b)" fill-rule="nonzero" style="mix-blend-mode:luminosity" transform="rotate(-90 124 124)"/><path d="M0 201.085v-9.667c.537-18.185 25.77-32.833 56.841-32.864 31.393 0 56.842 14.95 56.842 33.39 0 .643-.031 1.283-.092 1.918v5.83c.06.635.092 1.275.092 1.919 0 18.44-25.449 33.389-56.842 33.389C25.45 235 0 220.051 0 201.61c0-.175.003-.35.008-.525z" fill="#6A6A6A" fill-rule="nonzero"/><path d="M33.915 0h9.667c1.208.036 2.4.18 3.574.428v2.82h-24.92C25.725 1.145 29.479 0 33.39 0c.176 0 .351.003.526.008V0zm-16.04 6.496H40.65v3.248H14.69a36.064 36.064 0 0 1 3.184-3.248zm-5.733 6.496h25.255v3.248H10.022a49.61 49.61 0 0 1 2.12-3.248zM8.22 19.488h25.923v3.249H6.675a61.952 61.952 0 0 1 1.546-3.249zm-2.878 6.497h23.921v3.248H4.196a72.62 72.62 0 0 1 1.147-3.248zm-2.13 6.496h26.051v3.248H2.38c.259-1.1.537-2.183.834-3.248zm-1.53 6.496h27.581v3.248H1.114c.171-1.096.36-2.179.568-3.248zM.667 45.473h26.97v3.248H.338c.092-1.093.202-2.176.33-3.248zM.12 51.97h27.517v3.248H.013c.018-1.09.054-2.173.108-3.248zm-.108 6.496h27.625v3.249H.12a97.472 97.472 0 0 1-.108-3.249zm.325 6.497h27.3v3.248H.668a93.688 93.688 0 0 1-.33-3.248zm.776 6.496h26.524v3.248H1.682a88.412 88.412 0 0 1-.568-3.248zm1.265 6.496h25.259v3.248H3.213a81.436 81.436 0 0 1-.834-3.248zm1.817 6.496h23.442v3.248H5.343a72.62 72.62 0 0 1-1.147-3.248zm2.48 6.496h20.962v3.248H8.22a61.952 61.952 0 0 1-1.546-3.248zm3.346 6.496H30.89v3.249H12.14a49.61 49.61 0 0 1-2.12-3.249zm4.667 6.497h22.708v3.248H17.874a36.064 36.064 0 0 1-3.185-3.248zm5.155 4.872h22.432v3.248H25.432c-1.934-.805-3.803-1.897-5.588-3.248z" fill="url(#a)" style="mix-blend-mode:luminosity" transform="matrix(0 -1 1 0 0 235)"/><path d="M45.012 0C26.441 0 11.386 25.449 11.386 56.841c0 31.393 15.055 56.842 33.626 56.842 18.572 0 33.627-25.449 33.627-56.842C78.61 25.471 63.571.052 45.012 0z" fill="url(#b)" fill-rule="nonzero" style="mix-blend-mode:luminosity" transform="matrix(0 -1 1 0 0 235)"/><path d="M0 188.085v-9.667c.537-18.185 25.77-32.833 56.841-32.864 31.393 0 56.842 14.95 56.842 33.39 0 .643-.031 1.283-.092 1.918v5.83c.06.635.092 1.275.092 1.919 0 18.44-25.449 33.389-56.842 33.389C25.45 222 0 207.051 0 188.61c0-.175.003-.35.008-.525z" fill="#6A6A6A" fill-rule="nonzero"/><path d="M33.915 0h9.667c1.208.036 2.4.18 3.574.428v2.82h-24.92C25.725 1.145 29.479 0 33.39 0c.176 0 .351.003.526.008V0zm-16.04 6.496H40.65v3.248H14.69a36.064 36.064 0 0 1 3.184-3.248zm-5.733 6.496h25.255v3.248H10.022a49.61 49.61 0 0 1 2.12-3.248zM8.22 19.488h25.923v3.249H6.675a61.952 61.952 0 0 1 1.546-3.249zm-2.878 6.497h23.921v3.248H4.196a72.62 72.62 0 0 1 1.147-3.248zm-2.13 6.496h26.051v3.248H2.38c.259-1.1.537-2.183.834-3.248zm-1.53 6.496h27.581v3.248H1.114c.171-1.096.36-2.179.568-3.248zM.667 45.473h26.97v3.248H.338c.092-1.093.202-2.176.33-3.248zM.12 51.97h27.517v3.248H.013c.018-1.09.054-2.173.108-3.248zm-.108 6.496h27.625v3.249H.12a97.472 97.472 0 0 1-.108-3.249zm.325 6.497h27.3v3.248H.668a93.688 93.688 0 0 1-.33-3.248zm.776 6.496h26.524v3.248H1.682a88.412 88.412 0 0 1-.568-3.248zm1.265 6.496h25.259v3.248H3.213a81.436 81.436 0 0 1-.834-3.248zm1.817 6.496h23.442v3.248H5.343a72.62 72.62 0 0 1-1.147-3.248zm2.48 6.496h20.962v3.248H8.22a61.952 61.952 0 0 1-1.546-3.248zm3.346 6.496H30.89v3.249H12.14a49.61 49.61 0 0 1-2.12-3.249zm4.667 6.497h22.708v3.248H17.874a36.064 36.064 0 0 1-3.185-3.248zm5.155 4.872h22.432v3.248H25.432c-1.934-.805-3.803-1.897-5.588-3.248z" fill="url(#a)" style="mix-blend-mode:luminosity" transform="rotate(-90 111 111)"/><path d="M45.012 0C26.441 0 11.386 25.449 11.386 56.841c0 31.393 15.055 56.842 33.626 56.842 18.572 0 33.627-25.449 33.627-56.842C78.61 25.471 63.571.052 45.012 0z" fill="url(#b)" fill-rule="nonzero" style="mix-blend-mode:luminosity" transform="rotate(-90 111 111)"/><path d="M0 175.085v-9.667c.537-18.185 25.77-32.833 56.841-32.864 31.393 0 56.842 14.95 56.842 33.39 0 .643-.031 1.283-.092 1.918v5.83c.06.635.092 1.275.092 1.919 0 18.44-25.449 33.389-56.842 33.389C25.45 209 0 194.051 0 175.61c0-.175.003-.35.008-.525z" fill="#6A6A6A" fill-rule="nonzero"/><path d="M33.915 0h9.667c1.208.036 2.4.18 3.574.428v2.82h-24.92C25.725 1.145 29.479 0 33.39 0c.176 0 .351.003.526.008V0zm-16.04 6.496H40.65v3.248H14.69a36.064 36.064 0 0 1 3.184-3.248zm-5.733 6.496h25.255v3.248H10.022a49.61 49.61 0 0 1 2.12-3.248zM8.22 19.488h25.923v3.249H6.675a61.952 61.952 0 0 1 1.546-3.249zm-2.878 6.497h23.921v3.248H4.196a72.62 72.62 0 0 1 1.147-3.248zm-2.13 6.496h26.051v3.248H2.38c.259-1.1.537-2.183.834-3.248zm-1.53 6.496h27.581v3.248H1.114c.171-1.096.36-2.179.568-3.248zM.667 45.473h26.97v3.248H.338c.092-1.093.202-2.176.33-3.248zM.12 51.97h27.517v3.248H.013c.018-1.09.054-2.173.108-3.248zm-.108 6.496h27.625v3.249H.12a97.472 97.472 0 0 1-.108-3.249zm.325 6.497h27.3v3.248H.668a93.688 93.688 0 0 1-.33-3.248zm.776 6.496h26.524v3.248H1.682a88.412 88.412 0 0 1-.568-3.248zm1.265 6.496h25.259v3.248H3.213a81.436 81.436 0 0 1-.834-3.248zm1.817 6.496h23.442v3.248H5.343a72.62 72.62 0 0 1-1.147-3.248zm2.48 6.496h20.962v3.248H8.22a61.952 61.952 0 0 1-1.546-3.248zm3.346 6.496H30.89v3.249H12.14a49.61 49.61 0 0 1-2.12-3.249zm4.667 6.497h22.708v3.248H17.874a36.064 36.064 0 0 1-3.185-3.248zm5.155 4.872h22.432v3.248H25.432c-1.934-.805-3.803-1.897-5.588-3.248z" fill="url(#a)" style="mix-blend-mode:luminosity" transform="matrix(0 -1 1 0 0 209)"/><path d="M45.012 0C26.441 0 11.386 25.449 11.386 56.841c0 31.393 15.055 56.842 33.626 56.842 18.572 0 33.627-25.449 33.627-56.842C78.61 25.471 63.571.052 45.012 0z" fill="url(#b)" fill-rule="nonzero" style="mix-blend-mode:luminosity" transform="matrix(0 -1 1 0 0 209)"/><g><path d="M0 162.085v-9.667c.537-18.185 25.77-32.833 56.841-32.864 31.393 0 56.842 14.95 56.842 33.39 0 .643-.031 1.283-.092 1.918v5.83c.06.635.092 1.275.092 1.919 0 18.44-25.449 33.389-56.842 33.389C25.45 196 0 181.051 0 162.61c0-.175.003-.35.008-.525z" fill="#6A6A6A" fill-rule="nonzero"/><path d="M33.915 0h9.667c1.208.036 2.4.18 3.574.428v2.82h-24.92C25.725 1.145 29.479 0 33.39 0c.176 0 .351.003.526.008V0zm-16.04 6.496H40.65v3.248H14.69a36.064 36.064 0 0 1 3.184-3.248zm-5.733 6.496h25.255v3.248H10.022a49.61 49.61 0 0 1 2.12-3.248zM8.22 19.488h25.923v3.249H6.675a61.952 61.952 0 0 1 1.546-3.249zm-2.878 6.497h23.921v3.248H4.196a72.62 72.62 0 0 1 1.147-3.248zm-2.13 6.496h26.051v3.248H2.38c.259-1.1.537-2.183.834-3.248zm-1.53 6.496h27.581v3.248H1.114c.171-1.096.36-2.179.568-3.248zM.667 45.473h26.97v3.248H.338c.092-1.093.202-2.176.33-3.248zM.12 51.97h27.517v3.248H.013c.018-1.09.054-2.173.108-3.248zm-.108 6.496h27.625v3.249H.12a97.472 97.472 0 0 1-.108-3.249zm.325 6.497h27.3v3.248H.668a93.688 93.688 0 0 1-.33-3.248zm.776 6.496h26.524v3.248H1.682a88.412 88.412 0 0 1-.568-3.248zm1.265 6.496h25.259v3.248H3.213a81.436 81.436 0 0 1-.834-3.248zm1.817 6.496h23.442v3.248H5.343a72.62 72.62 0 0 1-1.147-3.248zm2.48 6.496h20.962v3.248H8.22a61.952 61.952 0 0 1-1.546-3.248zm3.346 6.496H30.89v3.249H12.14a49.61 49.61 0 0 1-2.12-3.249zm4.667 6.497h22.708v3.248H17.874a36.064 36.064 0 0 1-3.185-3.248zm5.155 4.872h22.432v3.248H25.432c-1.934-.805-3.803-1.897-5.588-3.248z" fill="url(#a)" style="mix-blend-mode:luminosity" transform="rotate(-90 98 98)"/><path d="M45.012 0C26.441 0 11.386 25.449 11.386 56.841c0 31.393 15.055 56.842 33.626 56.842 18.572 0 33.627-25.449 33.627-56.842C78.61 25.471 63.571.052 45.012 0z" fill="url(#b)" fill-rule="nonzero" style="mix-blend-mode:luminosity" transform="rotate(-90 98 98)"/></g><g><path d="M0 149.085v-9.667c.537-18.185 25.77-32.833 56.841-32.864 31.393 0 56.842 14.95 56.842 33.39 0 .643-.031 1.283-.092 1.918v5.83c.06.635.092 1.275.092 1.919 0 18.44-25.449 33.389-56.842 33.389C25.45 183 0 168.051 0 149.61c0-.175.003-.35.008-.525z" fill="#6A6A6A" fill-rule="nonzero"/><path d="M33.915 0h9.667c1.208.036 2.4.18 3.574.428v2.82h-24.92C25.725 1.145 29.479 0 33.39 0c.176 0 .351.003.526.008V0zm-16.04 6.496H40.65v3.248H14.69a36.064 36.064 0 0 1 3.184-3.248zm-5.733 6.496h25.255v3.248H10.022a49.61 49.61 0 0 1 2.12-3.248zM8.22 19.488h25.923v3.249H6.675a61.952 61.952 0 0 1 1.546-3.249zm-2.878 6.497h23.921v3.248H4.196a72.62 72.62 0 0 1 1.147-3.248zm-2.13 6.496h26.051v3.248H2.38c.259-1.1.537-2.183.834-3.248zm-1.53 6.496h27.581v3.248H1.114c.171-1.096.36-2.179.568-3.248zM.667 45.473h26.97v3.248H.338c.092-1.093.202-2.176.33-3.248zM.12 51.97h27.517v3.248H.013c.018-1.09.054-2.173.108-3.248zm-.108 6.496h27.625v3.249H.12a97.472 97.472 0 0 1-.108-3.249zm.325 6.497h27.3v3.248H.668a93.688 93.688 0 0 1-.33-3.248zm.776 6.496h26.524v3.248H1.682a88.412 88.412 0 0 1-.568-3.248zm1.265 6.496h25.259v3.248H3.213a81.436 81.436 0 0 1-.834-3.248zm1.817 6.496h23.442v3.248H5.343a72.62 72.62 0 0 1-1.147-3.248zm2.48 6.496h20.962v3.248H8.22a61.952 61.952 0 0 1-1.546-3.248zm3.346 6.496H30.89v3.249H12.14a49.61 49.61 0 0 1-2.12-3.249zm4.667 6.497h22.708v3.248H17.874a36.064 36.064 0 0 1-3.185-3.248zm5.155 4.872h22.432v3.248H25.432c-1.934-.805-3.803-1.897-5.588-3.248z" fill="url(#a)" style="mix-blend-mode:luminosity" transform="rotate(-90 91.5 91.5)"/><path d="M45.012 0C26.441 0 11.386 25.449 11.386 56.841c0 31.393 15.055 56.842 33.626 56.842 18.572 0 33.627-25.449 33.627-56.842C78.61 25.471 63.571.052 45.012 0z" fill="url(#b)" fill-rule="nonzero" style="mix-blend-mode:luminosity" transform="rotate(-90 91.5 91.5)"/></g><g><path d="M0 136.085v-9.667c.537-18.185 25.77-32.833 56.841-32.864 31.393 0 56.842 14.95 56.842 33.39 0 .643-.031 1.283-.092 1.918v5.83c.06.635.092 1.275.092 1.919 0 18.44-25.449 33.389-56.842 33.389C25.45 170 0 155.051 0 136.61c0-.175.003-.35.008-.525z" fill="#6A6A6A" fill-rule="nonzero"/><path d="M33.915 0h9.667c1.208.036 2.4.18 3.574.428v2.82h-24.92C25.725 1.145 29.479 0 33.39 0c.176 0 .351.003.526.008V0zm-16.04 6.496H40.65v3.248H14.69a36.064 36.064 0 0 1 3.184-3.248zm-5.733 6.496h25.255v3.248H10.022a49.61 49.61 0 0 1 2.12-3.248zM8.22 19.488h25.923v3.249H6.675a61.952 61.952 0 0 1 1.546-3.249zm-2.878 6.497h23.921v3.248H4.196a72.62 72.62 0 0 1 1.147-3.248zm-2.13 6.496h26.051v3.248H2.38c.259-1.1.537-2.183.834-3.248zm-1.53 6.496h27.581v3.248H1.114c.171-1.096.36-2.179.568-3.248zM.667 45.473h26.97v3.248H.338c.092-1.093.202-2.176.33-3.248zM.12 51.97h27.517v3.248H.013c.018-1.09.054-2.173.108-3.248zm-.108 6.496h27.625v3.249H.12a97.472 97.472 0 0 1-.108-3.249zm.325 6.497h27.3v3.248H.668a93.688 93.688 0 0 1-.33-3.248zm.776 6.496h26.524v3.248H1.682a88.412 88.412 0 0 1-.568-3.248zm1.265 6.496h25.259v3.248H3.213a81.436 81.436 0 0 1-.834-3.248zm1.817 6.496h23.442v3.248H5.343a72.62 72.62 0 0 1-1.147-3.248zm2.48 6.496h20.962v3.248H8.22a61.952 61.952 0 0 1-1.546-3.248zm3.346 6.496H30.89v3.249H12.14a49.61 49.61 0 0 1-2.12-3.249zm4.667 6.497h22.708v3.248H17.874a36.064 36.064 0 0 1-3.185-3.248zm5.155 4.872h22.432v3.248H25.432c-1.934-.805-3.803-1.897-5.588-3.248z" fill="url(#a)" style="mix-blend-mode:luminosity" transform="rotate(-90 85 85)"/><path d="M45.012 0C26.441 0 11.386 25.449 11.386 56.841c0 31.393 15.055 56.842 33.626 56.842 18.572 0 33.627-25.449 33.627-56.842C78.61 25.471 63.571.052 45.012 0z" fill="url(#b)" fill-rule="nonzero" style="mix-blend-mode:luminosity" transform="rotate(-90 85 85)"/></g><g><path d="M0 123.085v-9.667c.537-18.185 25.77-32.833 56.841-32.864 31.393 0 56.842 14.95 56.842 33.39 0 .643-.031 1.283-.092 1.918v5.83c.06.635.092 1.275.092 1.919 0 18.44-25.449 33.389-56.842 33.389C25.45 157 0 142.051 0 123.61c0-.175.003-.35.008-.525z" fill="#6A6A6A" fill-rule="nonzero"/><path d="M33.915 0h9.667c1.208.036 2.4.18 3.574.428v2.82h-24.92C25.725 1.145 29.479 0 33.39 0c.176 0 .351.003.526.008V0zm-16.04 6.496H40.65v3.248H14.69a36.064 36.064 0 0 1 3.184-3.248zm-5.733 6.496h25.255v3.248H10.022a49.61 49.61 0 0 1 2.12-3.248zM8.22 19.488h25.923v3.249H6.675a61.952 61.952 0 0 1 1.546-3.249zm-2.878 6.497h23.921v3.248H4.196a72.62 72.62 0 0 1 1.147-3.248zm-2.13 6.496h26.051v3.248H2.38c.259-1.1.537-2.183.834-3.248zm-1.53 6.496h27.581v3.248H1.114c.171-1.096.36-2.179.568-3.248zM.667 45.473h26.97v3.248H.338c.092-1.093.202-2.176.33-3.248zM.12 51.97h27.517v3.248H.013c.018-1.09.054-2.173.108-3.248zm-.108 6.496h27.625v3.249H.12a97.472 97.472 0 0 1-.108-3.249zm.325 6.497h27.3v3.248H.668a93.688 93.688 0 0 1-.33-3.248zm.776 6.496h26.524v3.248H1.682a88.412 88.412 0 0 1-.568-3.248zm1.265 6.496h25.259v3.248H3.213a81.436 81.436 0 0 1-.834-3.248zm1.817 6.496h23.442v3.248H5.343a72.62 72.62 0 0 1-1.147-3.248zm2.48 6.496h20.962v3.248H8.22a61.952 61.952 0 0 1-1.546-3.248zm3.346 6.496H30.89v3.249H12.14a49.61 49.61 0 0 1-2.12-3.249zm4.667 6.497h22.708v3.248H17.874a36.064 36.064 0 0 1-3.185-3.248zm5.155 4.872h22.432v3.248H25.432c-1.934-.805-3.803-1.897-5.588-3.248z" fill="url(#a)" style="mix-blend-mode:luminosity" transform="rotate(-90 78.5 78.5)"/><path d="M45.012 0C26.441 0 11.386 25.449 11.386 56.841c0 31.393 15.055 56.842 33.626 56.842 18.572 0 33.627-25.449 33.627-56.842C78.61 25.471 63.571.052 45.012 0z" fill="url(#b)" fill-rule="nonzero" style="mix-blend-mode:luminosity" transform="rotate(-90 78.5 78.5)"/></g><g><path d="M0 110.085v-9.667c.537-18.185 25.77-32.833 56.841-32.864 31.393 0 56.842 14.95 56.842 33.39 0 .643-.031 1.283-.092 1.918v5.83c.06.635.092 1.275.092 1.919 0 18.44-25.449 33.389-56.842 33.389C25.45 144 0 129.051 0 110.61c0-.175.003-.35.008-.525z" fill="#6A6A6A" fill-rule="nonzero"/><path d="M33.915 0h9.667c1.208.036 2.4.18 3.574.428v2.82h-24.92C25.725 1.145 29.479 0 33.39 0c.176 0 .351.003.526.008V0zm-16.04 6.496H40.65v3.248H14.69a36.064 36.064 0 0 1 3.184-3.248zm-5.733 6.496h25.255v3.248H10.022a49.61 49.61 0 0 1 2.12-3.248zM8.22 19.488h25.923v3.249H6.675a61.952 61.952 0 0 1 1.546-3.249zm-2.878 6.497h23.921v3.248H4.196a72.62 72.62 0 0 1 1.147-3.248zm-2.13 6.496h26.051v3.248H2.38c.259-1.1.537-2.183.834-3.248zm-1.53 6.496h27.581v3.248H1.114c.171-1.096.36-2.179.568-3.248zM.667 45.473h26.97v3.248H.338c.092-1.093.202-2.176.33-3.248zM.12 51.97h27.517v3.248H.013c.018-1.09.054-2.173.108-3.248zm-.108 6.496h27.625v3.249H.12a97.472 97.472 0 0 1-.108-3.249zm.325 6.497h27.3v3.248H.668a93.688 93.688 0 0 1-.33-3.248zm.776 6.496h26.524v3.248H1.682a88.412 88.412 0 0 1-.568-3.248zm1.265 6.496h25.259v3.248H3.213a81.436 81.436 0 0 1-.834-3.248zm1.817 6.496h23.442v3.248H5.343a72.62 72.62 0 0 1-1.147-3.248zm2.48 6.496h20.962v3.248H8.22a61.952 61.952 0 0 1-1.546-3.248zm3.346 6.496H30.89v3.249H12.14a49.61 49.61 0 0 1-2.12-3.249zm4.667 6.497h22.708v3.248H17.874a36.064 36.064 0 0 1-3.185-3.248zm5.155 4.872h22.432v3.248H25.432c-1.934-.805-3.803-1.897-5.588-3.248z" fill="url(#a)" style="mix-blend-mode:luminosity" transform="rotate(-90 72 72)"/><path d="M45.012 0C26.441 0 11.386 25.449 11.386 56.841c0 31.393 15.055 56.842 33.626 56.842 18.572 0 33.627-25.449 33.627-56.842C78.61 25.471 63.571.052 45.012 0z" fill="url(#b)" fill-rule="nonzero" style="mix-blend-mode:luminosity" transform="rotate(-90 72 72)"/></g><g><path d="M0 97.085v-9.667c.537-18.185 25.77-32.833 56.841-32.864 31.393 0 56.842 14.95 56.842 33.39 0 .643-.031 1.283-.092 1.918v5.83c.06.635.092 1.275.092 1.919 0 18.44-25.449 33.389-56.842 33.389C25.45 131 0 116.051 0 97.61c0-.175.003-.35.008-.525z" fill="#986E33" fill-rule="nonzero"/><path d="M33.915 0h9.667c1.208.036 2.4.18 3.574.428v2.82h-24.92C25.725 1.145 29.479 0 33.39 0c.176 0 .351.003.526.008V0zm-16.04 6.496H40.65v3.248H14.69a36.064 36.064 0 0 1 3.184-3.248zm-5.733 6.496h25.255v3.248H10.022a49.61 49.61 0 0 1 2.12-3.248zM8.22 19.488h25.923v3.249H6.675a61.952 61.952 0 0 1 1.546-3.249zm-2.878 6.497h23.921v3.248H4.196a72.62 72.62 0 0 1 1.147-3.248zm-2.13 6.496h26.051v3.248H2.38c.259-1.1.537-2.183.834-3.248zm-1.53 6.496h17.581v3.248H1.114c.171-1.096.36-2.179.568-3.248zM.667 45.473h26.97v3.248H.338c.092-1.093.202-2.176.33-3.248zM.12 51.97h27.517v3.248H.013c.018-1.09.054-2.173.108-3.248zm-.108 6.496h27.625v3.249H.12a97.472 97.472 0 0 1-.108-3.249zm.325 6.497h27.3v3.248H.668a93.688 93.688 0 0 1-.33-3.248zm.776 6.496h26.524v3.248H1.682a88.412 88.412 0 0 1-.568-3.248zm1.265 6.496h25.259v3.248H3.213a81.436 81.436 0 0 1-.834-3.248zm1.817 6.496h23.442v3.248H5.343a72.62 72.62 0 0 1-1.147-3.248zm2.48 6.496h20.962v3.248H8.22a61.952 61.952 0 0 1-1.546-3.248zm3.346 6.496H30.89v3.249H12.14a49.61 49.61 0 0 1-2.12-3.249zm4.667 6.497h22.708v3.248H17.874a36.064 36.064 0 0 1-3.185-3.248zm5.155 4.872h22.432v3.248H25.432c-1.934-.805-3.803-1.897-5.588-3.248z" fill="url(#a)" transform="rotate(-90 65.5 65.5)"/><path d="M45.012 0C26.441 0 11.386 25.449 11.386 56.841c0 31.393 15.055 56.842 33.626 56.842 18.572 0 33.627-25.449 33.627-56.842C78.61 25.471 63.571.052 45.012 0z" fill="url(#b)" fill-rule="nonzero" transform="rotate(-90 65.5 65.5)"/></g><g><path d="M0 84.085v-9.667c.537-18.185 25.77-32.833 56.841-32.864 31.393 0 56.842 14.95 56.842 33.39 0 .643-.031 1.283-.092 1.918v5.83c.06.635.092 1.275.092 1.919 0 18.44-25.449 33.389-56.842 33.389C25.45 118 0 103.051 0 84.61c0-.175.003-.35.008-.525z" fill="#986E33" fill-rule="nonzero"/><path d="M33.915 0h9.667c1.208.036 2.4.18 3.574.428v2.82h-24.92C25.725 1.145 29.479 0 33.39 0c.176 0 .351.003.526.008V0zm-16.04 6.496H40.65v3.248H14.69a36.064 36.064 0 0 1 3.184-3.248zm-5.733 6.496h25.255v3.248H10.022a49.61 49.61 0 0 1 2.12-3.248zM8.22 19.488h25.923v3.249H6.675a61.952 61.952 0 0 1 1.546-3.249zm-2.878 6.497h23.921v3.248H4.196a72.62 72.62 0 0 1 1.147-3.248zm-2.13 6.496h26.051v3.248H2.38c.259-1.1.537-2.183.834-3.248zm-1.53 6.496h17.581v3.248H1.114c.171-1.096.36-2.179.568-3.248zM.667 45.473h26.97v3.248H.338c.092-1.093.202-2.176.33-3.248zM.12 51.97h27.517v3.248H.013c.018-1.09.054-2.173.108-3.248zm-.108 6.496h27.625v3.249H.12a97.472 97.472 0 0 1-.108-3.249zm.325 6.497h27.3v3.248H.668a93.688 93.688 0 0 1-.33-3.248zm.776 6.496h26.524v3.248H1.682a88.412 88.412 0 0 1-.568-3.248zm1.265 6.496h25.259v3.248H3.213a81.436 81.436 0 0 1-.834-3.248zm1.817 6.496h23.442v3.248H5.343a72.62 72.62 0 0 1-1.147-3.248zm2.48 6.496h20.962v3.248H8.22a61.952 61.952 0 0 1-1.546-3.248zm3.346 6.496H30.89v3.249H12.14a49.61 49.61 0 0 1-2.12-3.249zm4.667 6.497h22.708v3.248H17.874a36.064 36.064 0 0 1-3.185-3.248zm5.155 4.872h22.432v3.248H25.432c-1.934-.805-3.803-1.897-5.588-3.248z" fill="url(#a)" transform="rotate(-90 59 59)"/><path d="M45.012 0C26.441 0 11.386 25.449 11.386 56.841c0 31.393 15.055 56.842 33.626 56.842 18.572 0 33.627-25.449 33.627-56.842C78.61 25.471 63.571.052 45.012 0z" fill="url(#b)" fill-rule="nonzero" transform="rotate(-90 59 59)"/></g><g><path d="M0 71.085v-9.667c.537-18.185 25.77-32.833 56.841-32.864 31.393 0 56.842 14.95 56.842 33.39 0 .643-.031 1.283-.092 1.918v5.83c.06.635.092 1.275.092 1.919C113.683 90.05 88.234 105 56.84 105 25.45 105 0 90.051 0 71.61c0-.175.003-.35.008-.525z" fill="#986E33" fill-rule="nonzero"/><path d="M33.915 0h9.667c1.208.036 2.4.18 3.574.428v2.82h-24.92C25.725 1.145 29.479 0 33.39 0c.176 0 .351.003.526.008V0zm-16.04 6.496H40.65v3.248H14.69a36.064 36.064 0 0 1 3.184-3.248zm-5.733 6.496h25.255v3.248H10.022a49.61 49.61 0 0 1 2.12-3.248zM8.22 19.488h25.923v3.249H6.675a61.952 61.952 0 0 1 1.546-3.249zm-2.878 6.497h23.921v3.248H4.196a72.62 72.62 0 0 1 1.147-3.248zm-2.13 6.496h26.051v3.248H2.38c.259-1.1.537-2.183.834-3.248zm-1.53 6.496h17.581v3.248H1.114c.171-1.096.36-2.179.568-3.248zM.667 45.473h26.97v3.248H.338c.092-1.093.202-2.176.33-3.248zM.12 51.97h27.517v3.248H.013c.018-1.09.054-2.173.108-3.248zm-.108 6.496h27.625v3.249H.12a97.472 97.472 0 0 1-.108-3.249zm.325 6.497h27.3v3.248H.668a93.688 93.688 0 0 1-.33-3.248zm.776 6.496h26.524v3.248H1.682a88.412 88.412 0 0 1-.568-3.248zm1.265 6.496h25.259v3.248H3.213a81.436 81.436 0 0 1-.834-3.248zm1.817 6.496h23.442v3.248H5.343a72.62 72.62 0 0 1-1.147-3.248zm2.48 6.496h20.962v3.248H8.22a61.952 61.952 0 0 1-1.546-3.248zm3.346 6.496H30.89v3.249H12.14a49.61 49.61 0 0 1-2.12-3.249zm4.667 6.497h22.708v3.248H17.874a36.064 36.064 0 0 1-3.185-3.248zm5.155 4.872h22.432v3.248H25.432c-1.934-.805-3.803-1.897-5.588-3.248z" fill="url(#a)" transform="rotate(-90 52.5 52.5)"/><path d="M45.012 0C26.441 0 11.386 25.449 11.386 56.841c0 31.393 15.055 56.842 33.626 56.842 18.572 0 33.627-25.449 33.627-56.842C78.61 25.471 63.571.052 45.012 0z" fill="url(#b)" fill-rule="nonzero" transform="rotate(-90 52.5 52.5)"/></g><g><path d="M0 58.085v-9.667c.537-18.185 25.77-32.833 56.841-32.864 31.393 0 56.842 14.95 56.842 33.39 0 .643-.031 1.283-.092 1.918v5.83c.06.635.092 1.275.092 1.919C113.683 77.05 88.234 92 56.84 92 25.45 92 0 77.051 0 58.61c0-.175.003-.35.008-.525z" fill="#986E33" fill-rule="nonzero"/><path d="M33.915 0h9.667c1.208.036 2.4.18 3.574.428v2.82h-24.92C25.725 1.145 29.479 0 33.39 0c.176 0 .351.003.526.008V0zm-16.04 6.496H40.65v3.248H14.69a36.064 36.064 0 0 1 3.184-3.248zm-5.733 6.496h25.255v3.248H10.022a49.61 49.61 0 0 1 2.12-3.248zM8.22 19.488h25.923v3.249H6.675a61.952 61.952 0 0 1 1.546-3.249zm-2.878 6.497h23.921v3.248H4.196a72.62 72.62 0 0 1 1.147-3.248zm-2.13 6.496h26.051v3.248H2.38c.259-1.1.537-2.183.834-3.248zm-1.53 6.496h17.581v3.248H1.114c.171-1.096.36-2.179.568-3.248zM.667 45.473h26.97v3.248H.338c.092-1.093.202-2.176.33-3.248zM.12 51.97h27.517v3.248H.013c.018-1.09.054-2.173.108-3.248zm-.108 6.496h27.625v3.249H.12a97.472 97.472 0 0 1-.108-3.249zm.325 6.497h27.3v3.248H.668a93.688 93.688 0 0 1-.33-3.248zm.776 6.496h26.524v3.248H1.682a88.412 88.412 0 0 1-.568-3.248zm1.265 6.496h25.259v3.248H3.213a81.436 81.436 0 0 1-.834-3.248zm1.817 6.496h23.442v3.248H5.343a72.62 72.62 0 0 1-1.147-3.248zm2.48 6.496h20.962v3.248H8.22a61.952 61.952 0 0 1-1.546-3.248zm3.346 6.496H30.89v3.249H12.14a49.61 49.61 0 0 1-2.12-3.249zm4.667 6.497h22.708v3.248H17.874a36.064 36.064 0 0 1-3.185-3.248zm5.155 4.872h22.432v3.248H25.432c-1.934-.805-3.803-1.897-5.588-3.248z" fill="url(#a)" transform="rotate(-90 46 46)"/><path d="M45.012 0C26.441 0 11.386 25.449 11.386 56.841c0 31.393 15.055 56.842 33.626 56.842 18.572 0 33.627-25.449 33.627-56.842C78.61 25.471 63.571.052 45.012 0z" fill="url(#b)" fill-rule="nonzero" transform="rotate(-90 46 46)"/></g><g><path d="M0 45.085v-9.667C.537 17.233 25.77 2.585 56.841 2.554c31.393 0 56.842 14.95 56.842 33.39 0 .643-.031 1.283-.092 1.918v5.83c.06.635.092 1.275.092 1.919C113.683 64.05 88.234 79 56.84 79 25.45 79 0 64.051 0 45.61c0-.175.003-.35.008-.525z" fill="#986E33" fill-rule="nonzero"/><path d="M33.915 0h9.667c1.208.036 2.4.18 3.574.428v2.82h-24.92C25.725 1.145 29.479 0 33.39 0c.176 0 .351.003.526.008V0zm-16.04 6.496H40.65v3.248H14.69a36.064 36.064 0 0 1 3.184-3.248zm-5.733 6.496h25.255v3.248H10.022a49.61 49.61 0 0 1 2.12-3.248zM8.22 19.488h25.923v3.249H6.675a61.952 61.952 0 0 1 1.546-3.249zm-2.878 6.497h23.921v3.248H4.196a72.62 72.62 0 0 1 1.147-3.248zm-2.13 6.496h26.051v3.248H2.38c.259-1.1.537-2.183.834-3.248zm-1.53 6.496h17.581v3.248H1.114c.171-1.096.36-2.179.568-3.248zM.667 45.473h26.97v3.248H.338c.092-1.093.202-2.176.33-3.248zM.12 51.97h27.517v3.248H.013c.018-1.09.054-2.173.108-3.248zm-.108 6.496h27.625v3.249H.12a97.472 97.472 0 0 1-.108-3.249zm.325 6.497h27.3v3.248H.668a93.688 93.688 0 0 1-.33-3.248zm.776 6.496h26.524v3.248H1.682a88.412 88.412 0 0 1-.568-3.248zm1.265 6.496h25.259v3.248H3.213a81.436 81.436 0 0 1-.834-3.248zm1.817 6.496h23.442v3.248H5.343a72.62 72.62 0 0 1-1.147-3.248zm2.48 6.496h20.962v3.248H8.22a61.952 61.952 0 0 1-1.546-3.248zm3.346 6.496H30.89v3.249H12.14a49.61 49.61 0 0 1-2.12-3.249zm4.667 6.497h22.708v3.248H17.874a36.064 36.064 0 0 1-3.185-3.248zm5.155 4.872h22.432v3.248H25.432c-1.934-.805-3.803-1.897-5.588-3.248z" fill="url(#a)" transform="rotate(-90 39.5 39.5)"/><path d="M45.012 0C26.441 0 11.386 25.449 11.386 56.841c0 31.393 15.055 56.842 33.626 56.842 18.572 0 33.627-25.449 33.627-56.842C78.61 25.471 63.571.052 45.012 0z" fill="url(#b)" fill-rule="nonzero" transform="rotate(-90 39.5 39.5)"/><path d="M72.183 23.409c1.833 4.247 3.328 8.94 4.415 13.965L19.674 94.212c-2.052-3.972-3.782-8.43-5.122-13.26l57.63-57.543z" fill-opacity=".5" fill="url(#c)" transform="rotate(-90 39.5 39.5)"/><path d="M66.433 13.073a51.993 51.993 0 0 1 3.51 5.682l-56.726 56.64a89.244 89.244 0 0 1-1.247-7.942l54.463-54.38z" fill-opacity=".5" fill="url(#d)" fill-rule="nonzero" transform="rotate(-90 39.5 39.5)"/><g fill-rule="nonzero" transform="rotate(-90 39.5 39.5)"><use fill="#000" filter="url(#e)" xlink:href="#f"/><use fill="url(#g)" xlink:href="#f"/></g></g></g></svg>