<svg enable-background="new 0 0 121 78" viewBox="0 0 121 78" xmlns="http://www.w3.org/2000/svg" xmlns:xlink="http://www.w3.org/1999/xlink"><linearGradient id="a"><stop offset="0" stop-color="#caad74"/><stop offset="1" stop-color="#926f3d"/></linearGradient><linearGradient id="b" gradientTransform="matrix(0 -32.925 -78.563 0 34009.2891 -8348.251)" gradientUnits="userSpaceOnUse" x1="-255.3125" x2="-255.3125" xlink:href="#a" y1="432.8815" y2="431.8815"/><linearGradient id="c"><stop offset="0" stop-color="#f6cf72"/><stop offset="1" stop-color="#f0ad4e"/></linearGradient><linearGradient id="d" gradientTransform="matrix(0 -46.9708 -79.7015 0 34505.7148 -11797.4121)" gradientUnits="userSpaceOnUse" x1="-251.9803" x2="-252.1616" xlink:href="#c" y1="432.9227" y2="432.0119"/><linearGradient id="e"><stop offset="0" stop-color="#fff"/><stop offset="1" stop-color="#fff" stop-opacity="0"/></linearGradient><linearGradient id="f" gradientTransform="matrix(0 -43.334 -49.6392 0 21414.9609 -10908.6182)" gradientUnits="userSpaceOnUse" x1="-252.7153" x2="-252.7153" xlink:href="#e" y1="431.0644" y2="430.0944"/><linearGradient id="g" gradientTransform="matrix(0 -40.4889 -43.6929 0 18815.1055 -10209.7529)" gradientUnits="userSpaceOnUse" x1="-253.2925" x2="-253.2925" xlink:href="#e" y1="430.3927" y2="429.4227"/><linearGradient id="h"><stop offset="0" stop-color="#986e33"/><stop offset="1" stop-color="#986e33"/></linearGradient><linearGradient id="i" gradientTransform="matrix(0 -33.5432 -65.2982 0 28232.6992 -8514.3721)" gradientUnits="userSpaceOnUse" x1="-255.1132" x2="-255.1132" xlink:href="#h" y1="432.248" y2="431.3416"/><linearGradient id="j" gradientTransform="matrix(16.4625 -28.5139 -68.0375 -39.2815 33485.1133 9828.6797)" gradientUnits="userSpaceOnUse" x1="-250.1433" x2="-250.1433" xlink:href="#a" y1="431.0336" y2="430.0336"/><linearGradient id="k" gradientTransform="matrix(23.4854 -40.6779 -69.0236 -39.8508 35639.6133 7089.833)" gradientUnits="userSpaceOnUse" x1="-248.3569" x2="-248.5382" xlink:href="#c" y1="431.1012" y2="430.1904"/><linearGradient id="l" gradientTransform="matrix(21.667 -37.5284 -42.9888 -24.8196 23858.291 1314.1737)" gradientUnits="userSpaceOnUse" x1="-248.7877" x2="-248.7877" xlink:href="#e" y1="428.1398" y2="427.1697"/><linearGradient id="m" gradientTransform="matrix(20.2444 -35.0644 -37.8391 -21.8464 21257.3164 619.4807)" gradientUnits="userSpaceOnUse" x1="-249.089" x2="-249.089" xlink:href="#e" y1="427.07" y2="426.1"/><linearGradient id="n" gradientTransform="matrix(16.7716 -29.0493 -56.5499 -32.6491 28565.502 6796.521)" gradientUnits="userSpaceOnUse" x1="-250.0393" x2="-250.0393" xlink:href="#h" y1="430.0247" y2="429.1183"/><path d="m.8 50.7v-6.8c.4-12.7 18.1-22.9 39.9-22.9 22 0 39.9 10.4 39.9 23.3 0 .4 0 .9-.1 1.3v4.1c0 .4.1.9.1 1.3 0 12.9-17.8 23.3-39.9 23.3s-39.9-10.4-39.9-23.2c0-.2 0-.3 0-.4z" fill="#986e33"/><path clip-rule="evenodd" d="m.8 50.7v-6.8c0-.8.1-1.7.3-2.5h2v17.4c-1.5-2.4-2.3-5.1-2.3-7.8 0-.1 0-.2 0-.3zm4.6 11.2v-15.9h2.3v18.1c-.9-.7-1.6-1.4-2.3-2.2zm4.6 4v-17.6h2.3v19.1c-.9-.5-1.6-1-2.3-1.5zm4.5 2.7v-18.1h2.3v19.2c-.8-.3-1.6-.7-2.3-1.1zm4.6 2v-16.7h2.3v17.5c-.8-.2-1.6-.5-2.3-.8zm4.5 1.5v-18.2h2.3v18.8c-.8-.2-1.5-.4-2.3-.6zm4.6 1.1v-19.3h2.3v19.3h-2c-.2 0-.2 0-.3 0zm4.5.7v-18.8h2.3v19.1c-.8-.1-1.5-.2-2.3-.3zm4.6.4v-19.2h2.3v19.3c-.8 0-1.6-.1-2.3-.1zm4.5.1v-19.3h2.3v19.2c-.7 0-1.5.1-2.3.1zm4.6-.3v-19h2.3v18.8c-.8.1-1.5.2-2.3.2zm4.5-.5v-18.5h2.3v18.1c-.7.2-1.5.3-2.3.4zm4.6-.9v-17.6h2.3v17.1c-.8.1-1.5.3-2.3.5zm4.5-1.2v-16.4h2.3v15.6c-.7.2-1.5.5-2.3.8zm4.6-1.8v-14.6h2.3v13.6c-.8.3-1.5.7-2.3 1zm4.6-2.3v-14.6h2.3v13.1c-.8.5-1.5 1-2.3 1.5zm4.5-3.3v-15.8h2.3v13.6c-.7.8-1.5 1.5-2.3 2.2zm3.4-3.6v-15.6h2.3v11.8c-.6 1.3-1.3 2.6-2.3 3.8z" fill="url(#b)" fill-rule="evenodd"/><path d="m.8 42.9c0 13 17.8 23.5 39.9 23.5s39.9-10.5 39.9-23.5-17.9-23.4-39.9-23.4-39.8 10.5-39.9 23.4z" fill="url(#d)"/><path clip-rule="evenodd" d="m17.3 24c3-1.3 6.3-2.3 9.8-3.1l39.8 39.8c-2.8 1.4-5.9 2.6-9.3 3.6z" fill="url(#f)" fill-opacity=".5" fill-rule="evenodd"/><path d="m10 28c1.2-.9 2.6-1.7 4-2.5l39.7 39.6c-1.8.4-3.7.7-5.6.9z" fill="url(#g)" fill-opacity=".5"/><path d="m7.7 42.9c0-9.6 14.7-16.8 32.6-16.8s32.6 7.2 32.6 16.8-14.7 16.8-32.6 16.8-32.6-7.2-32.6-16.8zm32.6 13.4c16.3 0 29.2-6.3 29.2-13.4s-13-13.4-29.2-13.4c-16.3 0-29.2 6.3-29.2 13.4s13 13.4 29.2 13.4zm7.3-22.2c5.5 0 10.2 2.9 11.2 7h2.6c1 0 1.9.7 1.9 1.6s-.9 1.6-1.9 1.6h-2.6c-1 4-5.7 6.9-11.1 7-1 0-1.9-.7-1.9-1.6s.9-1.6 1.9-1.6c3.4 0 6.2-1.6 7.2-3.8h-15.3c-1.2 3.4-4 5.6-8.8 5.6-4.4-.1-8.1-2.4-9-5.6h-2.6c-1 0-1.9-.7-1.9-1.6s.9-1.6 1.9-1.6h2.6c.9-3.2 4.6-5.5 9-5.6 1 0 1.9.7 1.9 1.6s-.9 1.6-1.9 1.6c-2.2 0-4.1 1-4.9 2.4h10.7c1.5-4.1 5.6-7 11-7zm-17.1 12.4c2.3 0 3.8-.8 4.7-2.4h-9.6c.8 1.3 2.7 2.3 4.9 2.4zm24.1-5.6c-1-2.2-3.8-3.8-7.2-3.8-3.2 0-5.6 1.5-6.9 3.8z"/><path d="m7.7 42.9c0-9.6 14.7-16.8 32.6-16.8s32.6 7.2 32.6 16.8-14.7 16.8-32.6 16.8-32.6-7.2-32.6-16.8zm32.6 13.4c16.3 0 29.2-6.3 29.2-13.4s-13-13.4-29.2-13.4c-16.3 0-29.2 6.3-29.2 13.4s13 13.4 29.2 13.4zm7.3-22.2c5.5 0 10.2 2.9 11.2 7h2.6c1 0 1.9.7 1.9 1.6s-.9 1.6-1.9 1.6h-2.6c-1 4-5.7 6.9-11.1 7-1 0-1.9-.7-1.9-1.6s.9-1.6 1.9-1.6c3.4 0 6.2-1.6 7.2-3.8h-15.3c-1.2 3.4-4 5.6-8.8 5.6-4.4-.1-8.1-2.4-9-5.6h-2.6c-1 0-1.9-.7-1.9-1.6s.9-1.6 1.9-1.6h2.6c.9-3.2 4.6-5.5 9-5.6 1 0 1.9.7 1.9 1.6s-.9 1.6-1.9 1.6c-2.2 0-4.1 1-4.9 2.4h10.7c1.5-4.1 5.6-7 11-7zm-17.1 12.4c2.3 0 3.8-.8 4.7-2.4h-9.6c.8 1.3 2.7 2.3 4.9 2.4zm24.1-5.6c-1-2.2-3.8-3.8-7.2-3.8-3.2 0-5.6 1.5-6.9 3.8z" fill="url(#i)"/><path d="m44.3 23.4 3.4-5.8c6.7-10.8 27.1-10.8 46 0 19.1 11 29.3 29 22.9 40.1-.2.4-.5.8-.7 1.1l-2 3.5c-.2.4-.4.8-.6 1.2-6.6 11.2-27.3 11.3-46.3.3s-29.3-29-22.9-40.1c.1-.1.1-.2.2-.3z" fill="#986e33"/><path clip-rule="evenodd" d="m44.3 23.4 3.4-5.8c.4-.7.9-1.4 1.5-2l1.7 1-8.7 15.1c-.1-2.8.6-5.5 1.9-7.9.1-.2.1-.3.2-.4zm-1.7 11.9 8-13.8 2 1.1-9.1 15.7c-.4-.9-.7-2-.9-3zm2 5.8 8.8-15.3 2 1.1-9.6 16.6c-.4-.8-.9-1.6-1.2-2.4zm2.5 4.6 9.1-15.7 2 1.1-9.6 16.6c-.5-.6-1-1.3-1.5-2zm3 4 8.4-14.5 2 1.1-8.8 15.2c-.6-.5-1.1-1.1-1.6-1.8zm3.2 3.6 9.1-15.8 2 1.1-9.4 16.4c-.6-.6-1.2-1.1-1.7-1.7zm3.4 3.2 9.6-16.7 2 1.1-9.7 16.7-1.8-1s0 0-.1-.1zm3.6 2.9 9.4-16.3 2 1.1-9.5 16.5c-.7-.4-1.3-.8-1.9-1.3zm3.7 2.6 9.6-16.6 2 1.1-9.6 16.7c-.7-.4-1.3-.8-2-1.2zm3.9 2.4 9.6-16.7 2 1.1-9.5 16.6c-.7-.3-1.4-.7-2.1-1zm4.1 2 9.5-16.5 2 1.1-9.4 16.3c-.7-.2-1.4-.5-2.1-.9zm4.2 1.8 9.3-16 2 1.1-9.1 15.7c-.7-.2-1.5-.5-2.2-.8zm4.4 1.6 8.8-15.3 2 1.1-8.5 14.8c-.8-.2-1.5-.4-2.3-.6zm4.6 1.1 8.2-14.2 2 1.1-7.8 13.5c-.8-.1-1.6-.2-2.4-.4zm4.8.8 7.3-12.7 2 1.1-6.8 11.7c-.8.1-1.7 0-2.5-.1zm5.1.3 7.3-12.6 2 1.1-6.5 11.3c-1 .1-1.9.1-2.8.2zm5.6-.6 7.9-13.7 2 1.1-6.8 11.8c-1 .3-2 .6-3.1.8zm4.7-1.4 7.8-13.6 2 1.1-5.9 10.2c-1.1 1-2.4 1.7-3.9 2.3z" fill="url(#j)" fill-rule="evenodd"/><path d="m48.2 16.6c-6.5 11.2 3.7 29.3 22.8 40.3s39.8 10.8 46.3-.4-3.7-29.3-22.8-40.3c-19.1-11-39.8-10.8-46.3.4z" fill="url(#k)"/><path clip-rule="evenodd" d="m71.9 8.4c3.2.4 6.6 1.1 10 2.2l14.6 54.4c-3.1-.2-6.4-.7-9.8-1.5z" fill="url(#l)" fill-opacity=".5" fill-rule="evenodd"/><path d="m63.6 8.3c1.5-.1 3.1-.2 4.7-.1l14.6 54.2c-1.7-.6-3.5-1.3-5.3-2z" fill="url(#m)" fill-opacity=".5"/><path d="m54.1 20.1c4.8-8.3 21.2-7.1 36.7 1.8 15.5 9 24.7 22.5 19.9 30.8s-21.1 7.2-36.7-1.8-24.7-22.5-19.9-30.8zm21.6 27.9c14.1 8.1 28.5 9.1 32 3s-4.6-18.1-18.6-26.2c-14.1-8.1-28.5-9.1-32-3-3.6 6.1 4.5 18 18.6 26.2zm17.4-15.7c4.7 2.7 7.4 7.6 6.2 11.6l2.2 1.3c.9.5 1.3 1.5.9 2.3-.5.8-1.6.9-2.5.4l-2.2-1.3c-2.9 3-8.4 3.2-13.1.4-.9-.5-1.3-1.5-.9-2.3.5-.8 1.6-.9 2.5-.4 2.9 1.7 6.2 1.7 8.1.3l-13.1-7.6c-2.7 2.3-6.2 2.8-10.4.4-3.7-2.2-5.8-6.1-5-9.3l-2.2-1.3c-.9-.5-1.3-1.5-.9-2.3.5-.8 1.6-.9 2.5-.4l2.2 1.3c2.4-2.3 6.7-2.5 10.5-.3.9.5 1.3 1.5.9 2.3-.5.8-1.6.9-2.4.4-1.9-1.1-4.1-1.2-5.5-.4l9.2 5.3c3.3-2.6 8.3-3.1 13-.4zm-21 2.2c2 1.1 3.7 1.2 5.3.3l-8.4-4.9c0 1.7 1.2 3.5 3.1 4.6zm23.6 7.3c.3-2.4-1.4-5.2-4.3-6.9-2.7-1.6-5.6-1.5-7.8-.1z"/><path d="m54.1 20.1c4.8-8.3 21.2-7.1 36.7 1.8 15.5 9 24.7 22.5 19.9 30.8s-21.1 7.2-36.7-1.8-24.7-22.5-19.9-30.8zm21.6 27.9c14.1 8.1 28.5 9.1 32 3s-4.6-18.1-18.6-26.2c-14.1-8.1-28.5-9.1-32-3-3.6 6.1 4.5 18 18.6 26.2zm17.4-15.7c4.7 2.7 7.4 7.6 6.2 11.6l2.2 1.3c.9.5 1.3 1.5.9 2.3-.5.8-1.6.9-2.5.4l-2.2-1.3c-2.9 3-8.4 3.2-13.1.4-.9-.5-1.3-1.5-.9-2.3.5-.8 1.6-.9 2.5-.4 2.9 1.7 6.2 1.7 8.1.3l-13.1-7.6c-2.7 2.3-6.2 2.8-10.4.4-3.7-2.2-5.8-6.1-5-9.3l-2.2-1.3c-.9-.5-1.3-1.5-.9-2.3.5-.8 1.6-.9 2.5-.4l2.2 1.3c2.4-2.3 6.7-2.5 10.5-.3.9.5 1.3 1.5.9 2.3-.5.8-1.6.9-2.4.4-1.9-1.1-4.1-1.2-5.5-.4l9.2 5.3c3.3-2.6 8.3-3.1 13-.4zm-21 2.2c2 1.1 3.7 1.2 5.3.3l-8.4-4.9c0 1.7 1.2 3.5 3.1 4.6zm23.6 7.3c.3-2.4-1.4-5.2-4.3-6.9-2.7-1.6-5.6-1.5-7.8-.1z" fill="url(#n)"/></svg>