<svg enable-background="new 0 0 494 148" viewBox="0 0 494 148" xmlns="http://www.w3.org/2000/svg" xmlns:xlink="http://www.w3.org/1999/xlink"><clipPath id="a"><path d="m22.9 26.6v87.7c0 4.1 3.4 7.5 7.5 7.5h95.2c4.1 0 7.5-3.4 7.5-7.5v-87.7zm67.6 20h-25c-2.8 0-5-2.2-5-5s2.2-5 5-5h25c2.8 0 5 2.2 5 5s-2.2 5-5 5z"/></clipPath><clipPath id="b"><path d="m22.9 26.6v87.7c0 4.1 3.4 7.5 7.5 7.5h95.2c4.1 0 7.5-3.4 7.5-7.5v-87.7zm67.6 20h-25c-2.8 0-5-2.2-5-5s2.2-5 5-5h25c2.8 0 5 2.2 5 5s-2.2 5-5 5z"/></clipPath><clipPath id="c"><path d="m22.9 26.6v87.7c0 4.1 3.4 7.5 7.5 7.5h95.2c4.1 0 7.5-3.4 7.5-7.5v-87.7zm67.6 20h-25c-2.8 0-5-2.2-5-5s2.2-5 5-5h25c2.8 0 5 2.2 5 5s-2.2 5-5 5z"/></clipPath><clipPath id="d"><circle cx="78" cy="114.2" r="47.6"/></clipPath><clipPath id="e" clip-path="url(#d)"><circle cx="78" cy="114.2" r="47.6"/></clipPath><clipPath id="f" clip-path="url(#e)"><circle cx="78" cy="114.2" r="47.6"/></clipPath><clipPath id="g" clip-path="url(#f)"><circle cx="78" cy="114.2" r="47.6"/></clipPath><clipPath id="h" clip-path="url(#g)"><circle cx="78" cy="114.2" r="47.6"/></clipPath><clipPath id="i" clip-path="url(#h)"><circle cx="78" cy="114.2" r="47.6"/></clipPath><clipPath id="j" clip-path="url(#i)"><circle cx="78" cy="114.2" r="47.6"/></clipPath><clipPath id="k" clip-path="url(#j)"><circle cx="78" cy="114.2" r="47.6"/></clipPath><clipPath id="l" clip-path="url(#k)"><circle cx="78" cy="114.2" r="47.6"/></clipPath><clipPath id="m" clip-path="url(#l)"><circle cx="78" cy="114.2" r="47.6"/></clipPath><clipPath id="n" clip-path="url(#m)"><circle cx="78" cy="114.2" r="47.6"/></clipPath><clipPath id="o" clip-path="url(#n)"><circle cx="78" cy="114.2" r="47.6"/></clipPath><clipPath id="p" clip-path="url(#o)"><circle cx="78" cy="114.2" r="47.6"/></clipPath><clipPath id="q" clip-path="url(#p)"><circle cx="78" cy="114.2" r="47.6"/></clipPath><clipPath id="r" clip-path="url(#q)"><circle cx="78" cy="114.2" r="47.6"/></clipPath><clipPath id="s" clip-path="url(#r)"><circle cx="78" cy="114.2" r="47.6"/></clipPath><clipPath id="t" clip-path="url(#s)"><path d="m22.9 26.6v87.7c0 4.1 3.4 7.5 7.5 7.5h95.2c4.1 0 7.5-3.4 7.5-7.5v-87.7zm67.6 20h-25c-2.8 0-5-2.2-5-5s2.2-5 5-5h25c2.8 0 5 2.2 5 5s-2.2 5-5 5z"/></clipPath><radialGradient id="u" cx="22.5829" cy="26.161525" gradientUnits="userSpaceOnUse" r="142.51975"><stop offset="0" stop-color="#fff" stop-opacity=".1"/><stop offset="1" stop-color="#fff" stop-opacity="0"/></radialGradient><g fill="#bbb"><path d="m172.1 105.2c-3.9 0-7.2-1.3-9.8-4-2.6-2.6-4-5.9-4-9.9 0-3.9 1.3-7.2 4-9.9 2.6-2.6 5.9-4 9.8-4 4 0 7.2 1.4 9.7 4.3l-2.4 2.3c-1.8-2.2-4.3-3.4-7.4-3.4-2.9 0-5.3 1-7.3 2.9s-3 4.5-3 7.7 1 5.7 3 7.7c2 1.9 4.4 2.9 7.3 2.9 3.2 0 5.9-1.3 8.1-3.8l2.4 2.4c-1.2 1.5-2.7 2.6-4.6 3.5-1.6.8-3.6 1.3-5.8 1.3z"/><path d="m189.1 78.1v8.4l-.1 2.5h.1c.5-.9 1.3-1.6 2.3-2.2 1.1-.6 2.2-.9 3.4-.9 2.2 0 4 .7 5.1 2.1 1.2 1.4 1.8 3.2 1.8 5.6v11.1h-3.4v-10.7c0-3.4-1.5-5-4.5-5-1.4 0-2.6.6-3.4 1.7-.9 1.1-1.3 2.4-1.3 3.9v10h-3.4v-26.5z"/><path d="m209.1 104.6h-3.4v-18.2h3.3v3h.1c.3-1 1.1-1.8 2.1-2.4 1.1-.6 2.1-1 3.1-1s1.9.1 2.6.4l-1.3 3.2c-.4-.2-1-.3-1.8-.3-1.2 0-2.3.5-3.3 1.5-.9 1-1.4 2.3-1.4 3.8z"/><path d="m219.6 88.6c1.8-1.8 4-2.8 6.7-2.8s4.9.9 6.7 2.8c1.8 1.8 2.6 4.1 2.6 6.9s-.9 5.1-2.6 6.9c-1.8 1.8-4 2.8-6.7 2.8s-4.9-.9-6.7-2.8c-1.8-1.8-2.6-4.1-2.6-6.9s.9-5.1 2.6-6.9zm2.6 11.7c1.2 1.2 2.6 1.8 4.2 1.8s3-.6 4.2-1.8 1.8-2.8 1.8-4.8-.6-3.6-1.8-4.8-2.6-1.8-4.2-1.8-3 .6-4.2 1.8-1.8 2.8-1.8 4.8.6 3.6 1.8 4.8z"/><path d="m238.4 104.6v-18.2h3.3v2.6h.1c.5-.9 1.3-1.6 2.4-2.2s2.1-.9 3.2-.9c2.8 0 4.7 1.2 5.7 3.5 1.5-2.3 3.6-3.5 6.3-3.5 2.1 0 3.8.7 4.8 2.1 1.1 1.4 1.6 3.2 1.6 5.6v11.1h-3.4v-10.7c0-1.8-.3-3.1-1-3.9s-1.7-1.1-3-1.1-2.4.6-3.3 1.7-1.3 2.4-1.3 3.9v10h-3.4v-10.6c0-1.8-.3-3.1-1-3.9s-1.7-1.1-3-1.1-2.4.6-3.3 1.7-1.3 2.4-1.3 3.9v10z"/><path d="m278.1 105.2c-2.7 0-5-.9-6.7-2.7s-2.6-4.1-2.6-6.9c0-2.6.8-4.9 2.5-6.8s3.8-2.8 6.4-2.8c2.7 0 4.8.9 6.5 2.6s2.4 4.1 2.4 7v.6h-14.3c.1 1.8.7 3.3 1.8 4.3 1.1 1.1 2.4 1.6 3.9 1.6 2.4 0 4.1-1 5-3.1l3 1.3c-.6 1.4-1.6 2.6-2.9 3.5s-3 1.4-5 1.4zm4.9-11.9c-.1-1-.5-2-1.4-3-.9-.9-2.2-1.4-3.9-1.4-1.3 0-2.3.4-3.3 1.2s-1.6 1.8-1.9 3.2z"/><path d="m327.9 78.1-7.1 26.5h-3.5l-5.7-17.5h-.1l-5.7 17.5h-3.5l-7.4-26.5h3.6l5.6 20.8h.1l5.7-17.3h3.2l5.7 17.3h.1l5.3-20.8z"/><path d="m336.7 105.2c-2.7 0-5-.9-6.7-2.7s-2.6-4.1-2.6-6.9c0-2.6.8-4.9 2.5-6.8s3.8-2.8 6.4-2.8c2.7 0 4.8.9 6.5 2.6s2.4 4.1 2.4 7v.6h-14.3c.1 1.8.7 3.3 1.8 4.3 1.1 1.1 2.4 1.6 3.9 1.6 2.4 0 4.1-1 5-3.1l3 1.3c-.6 1.4-1.6 2.6-2.9 3.5-1.4.9-3 1.4-5 1.4zm4.9-11.9c-.1-1-.5-2-1.4-3-.9-.9-2.2-1.4-3.9-1.4-1.3 0-2.3.4-3.3 1.2s-1.6 1.8-1.9 3.2z"/><path d="m357.9 105.2c-1.4 0-2.6-.3-3.7-.9s-1.9-1.3-2.5-2.2h-.1v2.5h-3.3v-26.5h3.4v8.4l-.1 2.5h.1c.5-.9 1.4-1.6 2.5-2.2s2.3-.9 3.7-.9c2.3 0 4.4.9 6.1 2.8s2.6 4.1 2.6 6.9c0 2.7-.9 5-2.6 6.9-1.7 1.7-3.7 2.7-6.1 2.7zm-.5-3.1c1.6 0 2.9-.6 4.1-1.8s1.7-2.8 1.7-4.8-.6-3.6-1.7-4.8-2.5-1.8-4.1-1.8-3 .6-4.1 1.8-1.7 2.8-1.7 4.8.6 3.6 1.7 4.8 2.5 1.8 4.1 1.8z"/><path d="m384.7 105.2c-1.9 0-3.8-.6-5.6-1.9s-3-3-3.6-5.3l3.1-1.3c.4 1.5 1.1 2.7 2.3 3.7s2.4 1.5 3.9 1.5 2.7-.4 3.8-1.2c1-.8 1.6-1.8 1.6-3.2 0-1.5-.5-2.6-1.6-3.4-1-.8-2.7-1.5-5-2.2s-4.1-1.7-5.3-2.9-1.8-2.7-1.8-4.5c0-1.9.8-3.6 2.3-5s3.5-2.1 5.9-2.1c2.2 0 4.1.6 5.5 1.7s2.3 2.3 2.7 3.7l-3.1 1.3c-.2-.8-.8-1.6-1.6-2.3-.9-.7-2-1.1-3.4-1.1-1.3 0-2.4.4-3.3 1.1s-1.4 1.6-1.4 2.7c0 1 .4 1.8 1.3 2.5s2.1 1.3 3.8 1.8c1.3.4 2.4.8 3.3 1.2s1.8.9 2.7 1.6 1.6 1.5 2 2.4c.5 1 .7 2.1.7 3.4s-.3 2.4-.8 3.4-1.2 1.8-2.1 2.4-1.8 1-2.8 1.4c-1.4.4-2.4.6-3.5.6z"/><path d="m404 104.9c-1.9 0-3.3-.5-4.3-1.5s-1.5-2.4-1.5-4.3v-9.5h-3.2v-3.1h3.2v-5.5h3.4v5.5h4.4v3.1h-4.4v9.2c0 2 .8 3 2.4 3 .6 0 1.1-.1 1.6-.3l1.2 2.9c-.8.3-1.7.5-2.8.5z"/><path d="m410.7 88.6c1.8-1.8 4-2.8 6.7-2.8s4.9.9 6.7 2.8c1.8 1.8 2.6 4.1 2.6 6.9s-.9 5.1-2.6 6.9c-1.8 1.8-4 2.8-6.7 2.8s-4.9-.9-6.7-2.8c-1.8-1.8-2.6-4.1-2.6-6.9s.9-5.1 2.6-6.9zm2.5 11.7c1.2 1.2 2.6 1.8 4.2 1.8s3-.6 4.2-1.8 1.8-2.8 1.8-4.8-.6-3.6-1.8-4.8-2.6-1.8-4.2-1.8-3 .6-4.2 1.8-1.8 2.8-1.8 4.8c.1 2 .7 3.6 1.8 4.8z"/><path d="m432.9 104.6h-3.4v-18.2h3.3v3h.1c.3-1 1.1-1.8 2.1-2.4 1.1-.6 2.1-1 3.1-1s1.9.1 2.6.4l-1.3 3.2c-.4-.2-1-.3-1.8-.3-1.2 0-2.3.5-3.3 1.5s-1.4 2.3-1.4 3.8z"/><path d="m450 105.2c-2.7 0-5-.9-6.7-2.7s-2.6-4.1-2.6-6.9c0-2.6.8-4.9 2.5-6.8s3.8-2.8 6.4-2.8c2.7 0 4.8.9 6.5 2.6s2.4 4.1 2.4 7v.6h-14.3c.1 1.8.7 3.3 1.8 4.3 1.1 1.1 2.4 1.6 3.9 1.6 2.4 0 4.1-1 5-3.1l3 1.3c-.6 1.4-1.6 2.6-2.9 3.5-1.4.9-3 1.4-5 1.4zm4.9-11.9c-.1-1-.5-2-1.4-3-.9-.9-2.2-1.4-3.9-1.4-1.3 0-2.3.4-3.3 1.2s-1.6 1.8-1.9 3.2z"/><path d="m160.3 63.4 7.6-20h2.9l7.6 20h-2.9l-1.9-5.4h-8.4l-2 5.4zm5.7-7.8h6.7l-3.3-9h-.1z"/><path d="m183 63.4-5.5-13.7h2.8l4 10.6h.1l4.1-10.6h2.7l-5.6 13.7z"/><path d="m196.9 63.9c-1.5 0-2.7-.4-3.7-1.3-1-.8-1.5-2-1.5-3.3 0-1.5.6-2.7 1.7-3.5 1.2-.8 2.6-1.3 4.3-1.3 1.5 0 2.8.3 3.7.8v-.3c0-1-.3-1.8-1-2.4s-1.5-.9-2.5-.9c-.7 0-1.4.2-2 .5-.6.4-1 .8-1.2 1.5l-2.4-1c.3-.8.9-1.6 1.9-2.3.9-.7 2.2-1 3.7-1 1.8 0 3.2.5 4.4 1.5s1.7 2.5 1.7 4.3v8.3h-2.5v-1.9h-.1c-1 1.5-2.5 2.3-4.5 2.3zm.4-2.4c1.1 0 2-.4 2.9-1.2s1.3-1.7 1.3-2.8c-.7-.6-1.8-.9-3.3-.9-1.3 0-2.2.3-2.8.8s-1 1.2-1 1.9.3 1.2.9 1.6 1.2.6 2 .6z"/><path d="m209.7 46.3c-.4.4-.8.5-1.3.5s-.9-.2-1.3-.5c-.4-.4-.5-.8-.5-1.3s.2-.9.5-1.3c.4-.4.8-.5 1.3-.5s.9.2 1.3.5c.4.4.5.8.5 1.3s-.2.9-.5 1.3zm0 17.1h-2.6v-13.7h2.6z"/><path d="m215.6 63.4h-2.6v-20h2.6z"/><path d="m222.9 63.9c-1.5 0-2.7-.4-3.7-1.3-1-.8-1.5-2-1.5-3.3 0-1.5.6-2.7 1.7-3.5 1.2-.8 2.6-1.3 4.3-1.3 1.5 0 2.8.3 3.7.8v-.3c0-1-.3-1.8-1-2.4s-1.5-.9-2.5-.9c-.7 0-1.4.2-2 .5-.6.4-1 .8-1.2 1.5l-2.4-1c.3-.8.9-1.6 1.9-2.3.9-.7 2.2-1 3.7-1 1.8 0 3.2.5 4.4 1.5s1.7 2.5 1.7 4.3v8.3h-2.5v-1.9h-.1c-1 1.5-2.5 2.3-4.5 2.3zm.5-2.4c1.1 0 2-.4 2.9-1.2s1.3-1.7 1.3-2.8c-.7-.6-1.8-.9-3.3-.9-1.3 0-2.2.3-2.8.8s-1 1.2-1 1.9.3 1.2.9 1.6 1.2.6 2 .6z"/><path d="m240.2 63.9c-1 0-2-.2-2.8-.7-.8-.4-1.5-1-1.9-1.7h-.1v1.9h-2.5v-20h2.6v6.3l-.1 1.9h.1c.4-.7 1-1.2 1.9-1.7s1.8-.7 2.8-.7c1.8 0 3.3.7 4.6 2.1s1.9 3.1 1.9 5.2-.6 3.8-1.9 5.2c-1.3 1.5-2.8 2.2-4.6 2.2zm-.4-2.4c1.2 0 2.2-.5 3.1-1.4s1.3-2.1 1.3-3.6-.4-2.7-1.3-3.6-1.9-1.4-3.1-1.4-2.2.4-3.1 1.3c-.8.9-1.3 2.1-1.3 3.6s.4 2.7 1.3 3.6c.8 1.1 1.9 1.5 3.1 1.5z"/><path d="m251.5 63.4h-2.6v-20h2.6z"/><path d="m260.7 63.9c-2.1 0-3.8-.7-5.1-2.1s-1.9-3.1-1.9-5.2c0-2 .6-3.7 1.9-5.2s2.9-2.2 4.8-2.2c2 0 3.7.7 4.9 2s1.8 3.1 1.8 5.3v.5h-10.8c.1 1.4.5 2.5 1.4 3.3.8.8 1.8 1.2 3 1.2 1.8 0 3.1-.8 3.8-2.4l2.3 1c-.4 1.1-1.2 2-2.2 2.7-1.1.7-2.4 1.1-3.9 1.1zm3.7-9c-.1-.8-.4-1.5-1.1-2.2s-1.6-1.1-3-1.1c-1 0-1.8.3-2.5.9s-1.2 1.4-1.4 2.4z"/><path d="m278.5 46.3c-.4.4-.8.5-1.3.5s-.9-.2-1.3-.5-.5-.8-.5-1.3.2-.9.5-1.3c.4-.4.8-.5 1.3-.5s.9.2 1.3.5c.4.4.5.8.5 1.3s-.2.9-.5 1.3zm0 17.1h-2.6v-13.7h2.6z"/><path d="m284.3 49.7v1.9h.1c.4-.7 1-1.2 1.8-1.7s1.7-.7 2.6-.7c1.7 0 3 .5 3.9 1.6.9 1 1.3 2.4 1.3 4.2v8.4h-2.6v-8c0-2.5-1.1-3.8-3.4-3.8-1.1 0-1.9.4-2.6 1.3s-1 1.8-1 3v7.6h-2.6v-13.8z"/><path d="m309.1 63.7c-1.4 0-2.5-.4-3.3-1.1-.8-.8-1.1-1.8-1.1-3.2v-7.2h-2.4v-2.4h2.4v-4.2h2.6v4.2h3.4v2.4h-3.4v7c0 1.5.6 2.2 1.8 2.2.5 0 .9-.1 1.2-.2l.9 2.2c-.6.1-1.3.3-2.1.3z"/><path d="m315.8 43.4v6.3l-.1 1.9h.1c.4-.7 1-1.2 1.8-1.7s1.7-.7 2.6-.7c1.7 0 3 .5 3.9 1.6.9 1 1.3 2.4 1.3 4.2v8.4h-2.6v-8c0-2.5-1.1-3.8-3.4-3.8-1.1 0-1.9.4-2.6 1.3s-1 1.8-1 3v7.6h-2.6v-20z"/><path d="m334.6 63.9c-2.1 0-3.8-.7-5.1-2.1s-1.9-3.1-1.9-5.2c0-2 .6-3.7 1.9-5.2s2.9-2.2 4.8-2.2c2 0 3.7.7 4.9 2s1.8 3.1 1.8 5.3v.5h-10.8c.1 1.4.5 2.5 1.4 3.3.8.8 1.8 1.2 3 1.2 1.8 0 3.1-.8 3.8-2.4l2.3 1c-.4 1.1-1.2 2-2.2 2.7-1.1.7-2.4 1.1-3.9 1.1zm3.7-9c-.1-.8-.4-1.5-1.1-2.2s-1.6-1.1-3-1.1c-1 0-1.8.3-2.5.9s-1.2 1.4-1.4 2.4z"/></g><path clip-path="url(#a)" d="m22.9 26.6h110.2v95.2h-110.2z" fill="#eee"/><path clip-path="url(#b)" d="m90.5 36.6h-25c-2.8 0-5 2.2-5 5s2.2 5 5 5h25c2.8 0 5-2.2 5-5s-2.2-5-5-5z" fill="#fff"/><g clip-path="url(#c)"><path clip-path="url(#t)" d="m38 66.6v58.4h21.3l18.7-32.4h47.6v-26zm0 0v58.4h21.3l18.7-32.4h47.6v-26z" fill="#db4437"/><path clip-path="url(#t)" d="m30.4 161.8h45.3l21-21v-15.7h-37.5l-28.8-49.5zm0 0h45.3l21-21v-15.7h-37.5l-28.8-49.5z" fill="#0f9d58"/><path clip-path="url(#t)" d="m78 92.6 18.7 32.4-21 36.8h49.9v-69.2zm0 0 18.7 32.4-21 36.8h49.9v-69.2z" fill="#ffcd40"/><g clip-path="url(#t)"><circle cx="78" cy="114.2" fill="#f1f1f1" r="21.6"/><circle cx="78" cy="114.2" fill="#4285f4" r="17.3"/></g><path clip-path="url(#t)" d="m22.9 26.6h110.2v47.6h-110.2z" fill="#212121" fill-opacity=".05"/><path clip-path="url(#t)" d="m22.9 73.5h110.2v.6h-110.2z" fill="#212121" fill-opacity=".02"/><path clip-path="url(#t)" d="m22.9 74.2h110.2v.6h-110.2z" fill="#fff" fill-opacity=".05"/><path clip-path="url(#t)" d="m65.5 36.6h25c2.7 0 4.8 2.1 5 4.7 0-.1 0-.2 0-.3 0-2.8-2.2-5-5-5h-25c-2.8 0-5 2.2-5 5v.3c.1-2.6 2.3-4.7 5-4.7zm60.1 84.5h-95.2c-4.1 0-7.5-3.4-7.5-7.5v.6c0 4.1 3.4 7.5 7.5 7.5h95.2c4.1 0 7.5-3.4 7.5-7.5v-.6c0 4.1-3.4 7.5-7.5 7.5z" fill="#231f20" fill-opacity=".1"/><path clip-path="url(#t)" d="m22.9 26.6v87.7c0 4.1 3.4 7.5 7.5 7.5h95.2c4.1 0 7.5-3.4 7.5-7.5v-87.7zm67.6 20h-25c-2.8 0-5-2.2-5-5s2.2-5 5-5h25c2.8 0 5 2.2 5 5s-2.2 5-5 5z" fill="url(#u)"/><path clip-path="url(#t)" d="m17.9 14h120.2v120.2h-120.2z" fill="none"/><path clip-path="url(#t)" d="m90.5 46.6h-25c-2.7 0-4.8-2.1-5-4.7v.3c0 2.8 2.2 5 5 5h25c2.8 0 5-2.2 5-5 0-.1 0-.2 0-.3-.1 2.6-2.3 4.7-5 4.7zm-67.6-20v.6h110.2v-.6z" fill="#212121" fill-opacity=".02"/></g></svg>