<svg id="Layer_1" data-name="Layer 1" xmlns="http://www.w3.org/2000/svg" viewBox="0 0 247 25.68"><defs><style>.cls-1{fill:#fff;fill-rule:evenodd;}</style></defs><title>book-logo-dim</title><path id="Shape" d="M0,19.09H4.6v1H2.79v5.58h-1V20.09H0Zm13.11,0h1v6.58h-1V22.85H10.38v2.82h-1V19.09h1v2.76h2.73Zm6.1,0H23v1H20.2v1.76h2.15v1H20.2v1.83H23v1H19.21Zm19.86,0h1l2.28,6.58h-1l-.54-1.6H38.38l-.56,1.6h-1Zm.51,1.44-.9,2.62h1.8Zm9.77-.44H47.79v1.79h1.56c.61,0,1-.31,1-.89S50,20.09,49.35,20.09Zm-1.56,2.75v2.83h-1V19.09h2.54a1.78,1.78,0,0,1,2,1.87,1.69,1.69,0,0,1-1.46,1.83l1.68,2.88H50.45l-1.64-2.83Zm10.84-2.75v5.58h-1V20.09h-1.8v-1h4.6v1Zm19.51,1.15a1.37,1.37,0,0,0-2.73,0v2.12a1.37,1.37,0,0,0,2.73,0Zm-3.74,0a2.38,2.38,0,0,1,4.76,0v2.12a2.38,2.38,0,0,1-4.76,0Zm11,.61h2.15v1H85.4v2.82h-1V19.09h3.78v1H85.4Zm21.68,3.82h-1L103.33,21v4.72h-1V19.09h1l2.73,4.72V19.09h1Zm7.47-5.58v4.59H116v1h-3.78v-1h1.39V20.09h-1.39v-1H116v1Zm9.29,5.58h-1l-2.29-6.58h1l1.78,5.13,1.77-5.13h1Zm9.6-2.52-.91-2.62-.9,2.62Zm.31.92H131.3l-.54,1.6h-1L132,19.09h1l2.28,6.58h-1Zm10.44,1.6h-1L140.45,21v4.72h-1V19.09h1l2.72,4.72V19.09h1Zm8.35-6.58h1v6.58h-1V22.85h-2.73v2.82h-1V19.09h1v2.76h2.73Zm19.57,4.45a2.3,2.3,0,0,1-4.6-.19V21.22a2.17,2.17,0,0,1,2.3-2.32,2.15,2.15,0,0,1,2.3,2.13h-1a1.27,1.27,0,0,0-1.32-1.14,1.25,1.25,0,0,0-1.31,1.32v2.12a1.25,1.25,0,0,0,1.31,1.32,1.27,1.27,0,0,0,1.32-1.14Zm8.34-4.45h1v6.58h-1V22.85h-2.72v2.82h-1V19.09h1v2.76h2.72Zm8.82,4.06-.9-2.62-.9,2.62Zm.32.92h-2.45l-.54,1.6h-1l2.28-6.58h1l2.28,6.58h-1ZM200,25.67h-1L196.29,21v4.72h-1V19.09h1L199,23.81V19.09h1Zm7.39-5.58v5.58h-1V20.09h-1.81v-1h4.6v1Zm10.15-1h1v6.58h-1V22.85h-2.73v2.82h-1V19.09h1v2.76h2.73Zm9,4.06-.9-2.62-.9,2.62Zm.32.92h-2.44l-.54,1.6h-1l2.29-6.58h1l2.28,6.58h-1Zm8.39-4H233.7v1.79h1.56c.61,0,1-.31,1-.89S235.87,20.09,235.26,20.09Zm-1.56,2.75v2.83h-1V19.09h2.55a1.78,1.78,0,0,1,2,1.87,1.7,1.7,0,0,1-1.46,1.83l1.67,2.88h-1.11l-1.64-2.83Zm11.41.31-.9-2.62-.91,2.62Zm.31.92H243l-.55,1.6h-1l2.28-6.58h1L247,25.67h-1ZM52.55,13.16H36.79V0H52.55V3.29H40.1V4.92H52.55V8.21H40.1V9.87H52.55Zm158.32,0H195.1V0h15.77V3.29H198.42V4.92h12.45V8.21H198.42V9.87h12.45Zm-116.27,0V0h3.28V13.16Zm48.61,0V0h3.28V13.16Zm103.79,0h-3.32V8.21h-10v4.95h-3.32V0h3.32V4.92h10V0H247ZM72.92,0H91.13l1.66,1.65V13.16H89.47V3.29h-5v9.87H81.19V3.29h-5v9.87h-3.3ZM173.43,0h18.21l1.66,1.65V13.16H190V3.29h-5v9.87H181.7V3.29h-5v9.87h-3.3ZM57.68,6.58h9.95V3.29H57.68ZM56,0H69.29L71,1.65V13.16H67.63V9.87H57.68v3.29H54.36V1.65ZM99.69,0h14.93l1.65,1.65V13.16H113V3.29H103v9.87H99.69Zm48.77,0h14.93l1.66,1.65V13.16h-3.32V3.29h-9.95v9.87h-3.32ZM21.71,6.58h10V3.29H21.71Zm-3.32,6.58V0H35V8.23L33.32,9.87H31.66L35,13.16H31L27.72,9.87h-6v3.29ZM134.83,3.29H121.56V9.87h9.95V8.21h-5V4.92h8.28v8.24H119.9l-1.66-1.64V0h16.59Zm93.61,0H216V9.87h12.45v3.29H214.33l-1.65-1.64V0h15.76ZM0,13.16V0H14.93l1.66,1.65v9.87l-1.66,1.64ZM3.32,9.87h10V3.29H3.32Z"/><path id="Shape-2" data-name="Shape" class="cls-1" d="M0,19.09H4.6v1H2.79v5.58h-1V20.09H0Zm13.11,0h1v6.58h-1V22.85H10.38v2.82h-1V19.09h1v2.76h2.73Zm6.1,0H23v1H20.2v1.76h2.15v1H20.2v1.83H23v1H19.21Zm19.86,0h1l2.28,6.58h-1l-.54-1.6H38.38l-.56,1.6h-1Zm.51,1.44-.9,2.62h1.8Zm9.77-.44H47.79v1.79h1.56c.61,0,1-.31,1-.89S50,20.09,49.35,20.09Zm-1.56,2.75v2.83h-1V19.09h2.54a1.78,1.78,0,0,1,2,1.87,1.69,1.69,0,0,1-1.46,1.83l1.68,2.88H50.45l-1.64-2.83Zm10.84-2.75v5.58h-1V20.09h-1.8v-1h4.6v1Zm19.51,1.15a1.37,1.37,0,0,0-2.73,0v2.12a1.37,1.37,0,0,0,2.73,0Zm-3.74,0a2.38,2.38,0,0,1,4.76,0v2.12a2.38,2.38,0,0,1-4.76,0Zm11,.61h2.15v1H85.4v2.82h-1V19.09h3.78v1H85.4Zm21.68,3.82h-1L103.33,21v4.72h-1V19.09h1l2.73,4.72V19.09h1Zm7.47-5.58v4.59H116v1h-3.78v-1h1.39V20.09h-1.39v-1H116v1Zm9.29,5.58h-1l-2.29-6.58h1l1.78,5.13,1.77-5.13h1Zm9.6-2.52-.91-2.62-.9,2.62Zm.31.92H131.3l-.54,1.6h-1L132,19.09h1l2.28,6.58h-1Zm10.44,1.6h-1L140.45,21v4.72h-1V19.09h1l2.72,4.72V19.09h1Zm8.35-6.58h1v6.58h-1V22.85h-2.73v2.82h-1V19.09h1v2.76h2.73Zm19.57,4.45a2.3,2.3,0,0,1-4.6-.19V21.22a2.17,2.17,0,0,1,2.3-2.32,2.15,2.15,0,0,1,2.3,2.13h-1a1.27,1.27,0,0,0-1.32-1.14,1.25,1.25,0,0,0-1.31,1.32v2.12a1.25,1.25,0,0,0,1.31,1.32,1.27,1.27,0,0,0,1.32-1.14Zm8.34-4.45h1v6.58h-1V22.85h-2.72v2.82h-1V19.09h1v2.76h2.72Zm8.82,4.06-.9-2.62-.9,2.62Zm.32.92h-2.45l-.54,1.6h-1l2.28-6.58h1l2.28,6.58h-1ZM200,25.67h-1L196.29,21v4.72h-1V19.09h1L199,23.81V19.09h1Zm7.39-5.58v5.58h-1V20.09h-1.81v-1h4.6v1Zm10.15-1h1v6.58h-1V22.85h-2.73v2.82h-1V19.09h1v2.76h2.73Zm9,4.06-.9-2.62-.9,2.62Zm.32.92h-2.44l-.54,1.6h-1l2.29-6.58h1l2.28,6.58h-1Zm8.39-4H233.7v1.79h1.56c.61,0,1-.31,1-.89S235.87,20.09,235.26,20.09Zm-1.56,2.75v2.83h-1V19.09h2.55a1.78,1.78,0,0,1,2,1.87,1.7,1.7,0,0,1-1.46,1.83l1.67,2.88h-1.11l-1.64-2.83Zm11.41.31-.9-2.62-.91,2.62Zm.31.92H243l-.55,1.6h-1l2.28-6.58h1L247,25.67h-1ZM52.55,13.16H36.79V0H52.55V3.29H40.1V4.92H52.55V8.21H40.1V9.87H52.55Zm158.32,0H195.1V0h15.77V3.29H198.42V4.92h12.45V8.21H198.42V9.87h12.45Zm-116.27,0V0h3.28V13.16Zm48.61,0V0h3.28V13.16Zm103.79,0h-3.32V8.21h-10v4.95h-3.32V0h3.32V4.92h10V0H247ZM72.92,0H91.13l1.66,1.65V13.16H89.47V3.29h-5v9.87H81.19V3.29h-5v9.87h-3.3ZM173.43,0h18.21l1.66,1.65V13.16H190V3.29h-5v9.87H181.7V3.29h-5v9.87h-3.3ZM57.68,6.58h9.95V3.29H57.68ZM56,0H69.29L71,1.65V13.16H67.63V9.87H57.68v3.29H54.36V1.65ZM99.69,0h14.93l1.65,1.65V13.16H113V3.29H103v9.87H99.69Zm48.77,0h14.93l1.66,1.65V13.16h-3.32V3.29h-9.95v9.87h-3.32ZM21.71,6.58h10V3.29H21.71Zm-3.32,6.58V0H35V8.23L33.32,9.87H31.66L35,13.16H31L27.72,9.87h-6v3.29ZM134.83,3.29H121.56V9.87h9.95V8.21h-5V4.92h8.28v8.24H119.9l-1.66-1.64V0h16.59Zm93.61,0H216V9.87h12.45v3.29H214.33l-1.65-1.64V0h15.76ZM0,13.16V0H14.93l1.66,1.65v9.87l-1.66,1.64ZM3.32,9.87h10V3.29H3.32Z"/></svg>