<svg viewBox="0 0 110 29" xmlns="http://www.w3.org/2000/svg"><path d="m17.41 13.42a5.69 5.69 0 0 1 2.77-4.82 6.23 6.23 0 0 0 -4.69-2.52c-2-.21-3.91 1.19-4.9 1.19s-2.59-1.12-4.26-1.12a6.17 6.17 0 0 0 -5.25 3.14c-2.28 3.92-.57 9.58 1.63 12.71 1.06 1.54 2.34 3.29 4.05 3.22s2.24-1.04 4.24-1.04 2.55 1.05 4.26 1 2.84-1.54 3.9-3.08a11.47 11.47 0 0 0 1.78-3.56 5.33 5.33 0 0 1 -3.53-5.12zm-3.27-9.37a5.87 5.87 0 0 0 1.35-4 5.66 5.66 0 0 0 -3.76 2 5.26 5.26 0 0 0 -1.35 3.91 5 5 0 0 0 3.76-1.82zm26.91 21h-2.27l-1.28-3.81h-4.33l-1.17 3.85h-2.2l4.2-13.21h2.7zm-3.9-5.52-1.15-3.39c-.14-.35-.35-1.19-.71-2.51h-.07l-.64 2.51-1.14 3.43zm15 .63a5.33 5.33 0 0 1 -1.37 3.84 3.88 3.88 0 0 1 -3 1.26 3 3 0 0 1 -2.78-1.26v5h-2.17v-10.34c0-1.05 0-2-.07-3.15h1.91l.15 1.54h.07a3.86 3.86 0 0 1 6.11-.35 5 5 0 0 1 1.13 3.5zm-2.2.07a4 4 0 0 0 -.66-2.23 2.19 2.19 0 0 0 -1.85-.91 2.21 2.21 0 0 0 -1.42.49 2.44 2.44 0 0 0 -.85 1.33 2.41 2.41 0 0 0 -.07.63v1.6a2.52 2.52 0 0 0 .64 1.75 2.1 2.1 0 0 0 1.7.7 2.31 2.31 0 0 0 1.92-.91 4.49 4.49 0 0 0 .57-2.41zm13.35-.07a5.33 5.33 0 0 1 -1.37 3.84 3.9 3.9 0 0 1 -3 1.26 3 3 0 0 1 -2.75-1.26h-.07v5h-2.11v-10.34c0-1.05 0-2-.08-3.15h1.92l.16 1.54a3.58 3.58 0 0 1 3.27-1.68 3.54 3.54 0 0 1 2.84 1.33 5.32 5.32 0 0 1 1.14 3.5zm-2.2.07a4.07 4.07 0 0 0 -.66-2.23 2.32 2.32 0 0 0 -3.27-.42 2.45 2.45 0 0 0 -.92 2v1.6a2.52 2.52 0 0 0 .64 1.75 2.1 2.1 0 0 0 1.7.7 2.31 2.31 0 0 0 1.92-.91 4.58 4.58 0 0 0 .57-2.37zm14.6 1.15a3.52 3.52 0 0 1 -1.2 2.73 5.24 5.24 0 0 1 -3.62 1.19 6.38 6.38 0 0 1 -3.48-.84l.49-1.75a6 6 0 0 0 3.13.84 3.23 3.23 0 0 0 1.91-.55 1.79 1.79 0 0 0 .64-1.47 1.75 1.75 0 0 0 -.57-1.33 6.14 6.14 0 0 0 -1.85-1.05c-2.34-.84-3.55-2.1-3.55-3.78a3.38 3.38 0 0 1 1.21-2.65 4.91 4.91 0 0 1 3.26-1.05 6.82 6.82 0 0 1 3.06.63l-.57 1.75a5.33 5.33 0 0 0 -2.56-.63 2.66 2.66 0 0 0 -1.77.56 1.56 1.56 0 0 0 -.57 1.18 1.48 1.48 0 0 0 .64 1.26 10.06 10.06 0 0 0 1.91 1 7.23 7.23 0 0 1 2.56 1.61 3.06 3.06 0 0 1 .92 2.3zm7-4.26h-2.31v4.61c0 1.19.43 1.75 1.28 1.75a3.5 3.5 0 0 0 .92-.07l.07 1.59a5.56 5.56 0 0 1 -1.7.21 2.7 2.7 0 0 1 -2-.77 3.65 3.65 0 0 1 -.71-2.59v-4.8h-1.41v-1.61h1.42v-1.74l2.13-.63v2.37h2.34v1.68zm10.76 3.08a5.31 5.31 0 0 1 -1.28 3.63 4.6 4.6 0 0 1 -3.55 1.47 4.47 4.47 0 0 1 -3.41-1.4 5 5 0 0 1 -1.28-3.5 5.31 5.31 0 0 1 1.28-3.63 4.63 4.63 0 0 1 3.48-1.4 4.7 4.7 0 0 1 4.76 4.83zm-2.28.07a4.42 4.42 0 0 0 -.56-2.27 2 2 0 0 0 -1.92-1.12 2.22 2.22 0 0 0 -2 1.12 4.58 4.58 0 0 0 -.57 2.3 4.33 4.33 0 0 0 .57 2.24 2.19 2.19 0 0 0 1.92 1.12 2.08 2.08 0 0 0 1.91-1.19 3.22 3.22 0 0 0 .64-2.23zm9.23-2.87a2.19 2.19 0 0 0 -.71-.07 2.06 2.06 0 0 0 -1.77.84 3.12 3.12 0 0 0 -.57 1.89v5h-2.13v-6.5c0-1.12 0-2.1-.07-3h1.84l.07 1.82h.07a3.4 3.4 0 0 1 1.06-1.54 2.61 2.61 0 0 1 1.57-.49 1.54 1.54 0 0 1 .56.07 19.67 19.67 0 0 1 .07 2zm9.59 2.45a4.22 4.22 0 0 1 -.07 1h-6.46a2.81 2.81 0 0 0 .92 2.17 3.53 3.53 0 0 0 2.13.7 8 8 0 0 0 2.63-.42l.35 1.47a7.77 7.77 0 0 1 -3.26.56 4.64 4.64 0 0 1 -3.55-1.33 4.7 4.7 0 0 1 -1.28-3.5 5.25 5.25 0 0 1 1.21-3.56 4.12 4.12 0 0 1 3.4-1.54 3.66 3.66 0 0 1 3.2 1.54 5.31 5.31 0 0 1 .78 2.94zm-2.06-.56a2.82 2.82 0 0 0 -.43-1.61 1.91 1.91 0 0 0 -1.7-.91 2 2 0 0 0 -1.7.84 3.18 3.18 0 0 0 -.64 1.68zm-71.5-15.52a3.31 3.31 0 0 1 -1.07 2.66 4.08 4.08 0 0 1 -2.77.84 10.63 10.63 0 0 1 -1.6-.07v-6.43a14.25 14.25 0 0 1 1.89-.14 4.17 4.17 0 0 1 2.62.77 3.18 3.18 0 0 1 .93 2.37zm-1.14 0a2.27 2.27 0 0 0 -.64-1.77 2.36 2.36 0 0 0 -1.77-.63 3 3 0 0 0 -.86.07v4.85h.71a2.56 2.56 0 0 0 1.85-.63 2.55 2.55 0 0 0 .71-1.89zm7 1a2.4 2.4 0 0 1 -.64 1.75 2.1 2.1 0 0 1 -1.7.7 1.91 1.91 0 0 1 -1.64-.7 2.56 2.56 0 0 1 -.63-1.75 2.44 2.44 0 0 1 .66-1.77 2.42 2.42 0 0 1 1.71-.69 2.13 2.13 0 0 1 1.7.69 2.84 2.84 0 0 1 .57 1.75zm-1.14.07a2.05 2.05 0 0 0 -.28-1.12 1.11 1.11 0 0 0 -.88-.58 1.15 1.15 0 0 0 -1 .56 1.91 1.91 0 0 0 -.28 1.12 2.05 2.05 0 0 0 .28 1.12 1.12 1.12 0 0 0 .93.56 1 1 0 0 0 .92-.56 1.65 1.65 0 0 0 .34-1.12zm9-2.3-1.44 4.66h-1l-.64-2a9.92 9.92 0 0 1 -.36-1.54 12.19 12.19 0 0 1 -.35 1.54l-.64 2h-1l-1.41-4.68h1.07l.61 2.16c.14.56.21 1.05.35 1.47a13.72 13.72 0 0 1 .43-1.47l.64-2.23h.85l.64 2.23a15.75 15.75 0 0 1 .35 1.54c.08-.49.22-1 .36-1.54l.57-2.16zm5.47 4.61h-1.02v-2.68c0-.84-.28-1.26-.92-1.26a1.15 1.15 0 0 0 -.78.35 1.05 1.05 0 0 0 -.28.77v2.8h-1.07v-3.29a8.73 8.73 0 0 0 -.07-1.32h1l.08.69a1.41 1.41 0 0 1 .56-.55 2.37 2.37 0 0 1 .93-.28 1.74 1.74 0 0 1 1.13.42 2 2 0 0 1 .57 1.53v2.8zm2.91 0h-1.01v-6.8h1.06zm6.25-2.38a2.4 2.4 0 0 1 -.59 1.73 2.12 2.12 0 0 1 -1.7.7 1.91 1.91 0 0 1 -1.64-.7 2.57 2.57 0 0 1 -.64-1.75 2.45 2.45 0 0 1 .64-1.75 2.42 2.42 0 0 1 1.71-.69 2.13 2.13 0 0 1 1.7.69 2.84 2.84 0 0 1 .57 1.75zm-1.14.07a2.05 2.05 0 0 0 -.28-1.12 1.11 1.11 0 0 0 -.92-.56 1.15 1.15 0 0 0 -1 .56 1.91 1.91 0 0 0 -.28 1.12 2.05 2.05 0 0 0 .28 1.12 1.12 1.12 0 0 0 .93.56 1 1 0 0 0 .92-.56 1.65 1.65 0 0 0 .35-1.12zm6.35 2.29h-1v-.56a1.71 1.71 0 0 1 -1.42.63 1.47 1.47 0 0 1 -1.07-.42 1.52 1.52 0 0 1 -.35-1 1.5 1.5 0 0 1 .71-1.33 4.06 4.06 0 0 1 2.06-.42c0-.63-.36-.91-1-.91a2.2 2.2 0 0 0 -1.2.35l-.22-.69a3 3 0 0 1 1.64-.42c1.2 0 1.84.62 1.84 2v1.72a2.63 2.63 0 0 0 .01 1.05zm-1.18-1.61v-.7c-1.14 0-1.78.28-1.78.91a.79.79 0 0 0 .21.56.67.67 0 0 0 .5.21 1.16 1.16 0 0 0 .64-.21.73.73 0 0 0 .36-.56.26.26 0 0 0 .07-.21zm7.1 1.61h-.92l-.07-.77a1.52 1.52 0 0 1 -1.49.84 1.8 1.8 0 0 1 -1.44-.63 2.76 2.76 0 0 1 -.57-1.75 2.51 2.51 0 0 1 .65-1.82 2 2 0 0 1 1.49-.62 1.5 1.5 0 0 1 1.35.62v-2.65h1.08v5.52a4 4 0 0 0 -.07 1.26zm-1.07-2v-1.08a1.35 1.35 0 0 0 -.35-.63 1.3 1.3 0 0 0 -.71-.28 1 1 0 0 0 -.93.49 2 2 0 0 0 -.35 1.19 1.78 1.78 0 0 0 .35 1.12 1.24 1.24 0 0 0 .93.49 1 1 0 0 0 .85-.43 2.45 2.45 0 0 0 .21-.84zm10.08-.42a2.44 2.44 0 0 1 -.63 1.79 2.14 2.14 0 0 1 -1.71.7 1.88 1.88 0 0 1 -1.59-.7 2.52 2.52 0 0 1 -.64-1.75 2.4 2.4 0 0 1 .64-1.75 2.13 2.13 0 0 1 1.7-.69 2.16 2.16 0 0 1 1.67.69 2.9 2.9 0 0 1 .56 1.75zm-1.06.07a2.05 2.05 0 0 0 -.28-1.12 1.12 1.12 0 0 0 -.93-.56 1.22 1.22 0 0 0 -1 .56 1.91 1.91 0 0 0 -.29 1.12 2.06 2.06 0 0 0 .29 1.12 1.11 1.11 0 0 0 .92.56 1 1 0 0 0 .92-.56 2 2 0 0 0 .36-1.12zm6.75 2.31h-1.07v-2.62c0-.84-.28-1.26-.92-1.26a1.13 1.13 0 0 0 -.78.35 1 1 0 0 0 -.29.77v2.8h-1.06v-3.29a8.73 8.73 0 0 0 -.07-1.32h.92l.07.69a1.38 1.38 0 0 1 .58-.55 2.32 2.32 0 0 1 .92-.28 1.77 1.77 0 0 1 1.14.42 2 2 0 0 1 .57 1.53v2.8zm7.1-3.85h-1.14v2.28c0 .56.21.84.64.84a1.1 1.1 0 0 0 .5-.07v.77a2.75 2.75 0 0 1 -.86.14 1.55 1.55 0 0 1 -1-.35 2.08 2.08 0 0 1 -.36-1.26v-2.31h-.7v-.76h.71v-.91l1.07-.28v1.19h1.14zm5.61 3.85h-1.07v-2.62c0-.84-.28-1.26-.92-1.26a.94.94 0 0 0 -1 .7 3 3 0 0 0 -.07.35v2.8h-1.06v-6.71h1.06v2.79a1.66 1.66 0 0 1 1.42-.76 1.47 1.47 0 0 1 1.07.42 2.14 2.14 0 0 1 .57 1.53zm5.75-2.52a1 1 0 0 1 -.07.49h-3.2a1.21 1.21 0 0 0 .43 1.05 1.75 1.75 0 0 0 1.06.35 3.5 3.5 0 0 0 1.28-.21l.14.7a3.62 3.62 0 0 1 -1.56.28 2.3 2.3 0 0 1 -1.7-.63 2.3 2.3 0 0 1 -.64-1.75 2.9 2.9 0 0 1 .56-1.75 2.18 2.18 0 0 1 1.62-.72 1.82 1.82 0 0 1 1.56.76 2 2 0 0 1 .52 1.47zm-1-.28a1.41 1.41 0 0 0 -.21-.77 1 1 0 0 0 -.85-.42 1 1 0 0 0 -.85.42 1.43 1.43 0 0 0 -.29.84c0-.07 2.2-.07 2.2-.07z" fill="#fff"/></svg>