<svg viewBox="0 0 55 62.07" xmlns="http://www.w3.org/2000/svg" xmlns:xlink="http://www.w3.org/1999/xlink"><linearGradient id="a" gradientTransform="matrix(55 0 0 -62.07 19224 25467.35)" gradientUnits="userSpaceOnUse" x1="-349.03" x2="-349.03" y1="410.33" y2="409.33"><stop offset="0" stop-color="#fad961"/><stop offset="1" stop-color="#f76b1c"/></linearGradient><path d="m53.52 32a1.48 1.48 0 0 1 1.48 1.48v11a2.23 2.23 0 0 1 -2.24 2.23 2.19 2.19 0 0 1 -1.56-.71l-4-4-12.28 12.21a1.45 1.45 0 0 1 -2.07 0l-11.43-11.43-19.13 19.07a.73.73 0 0 1 -1 0l-1-1a.74.74 0 0 1 0-1l20.1-20.18a1.48 1.48 0 0 1 2.07 0l11.43 11.43 11.2-11.2-4.09-4.1a2.23 2.23 0 0 1 1.56-3.8h11zm-28.18-32c10.83 0 18.5 10.59 19.35 11.8a5.39 5.39 0 0 1 0 6.25c-.85 1.2-8.52 11.66-19.35 11.66s-18.49-10.46-19.34-11.66a5.39 5.39 0 0 1 0-6.25c.85-1.21 8.52-11.8 19.34-11.8zm0 5.51a9.36 9.36 0 1 0 9.35 9.36 9.36 9.36 0 0 0 -9.33-9.36zm0 4.39a5 5 0 1 1 -4.95 5 5 5 0 0 1 4.97-5z" fill="url(#a)" fill-rule="evenodd"/></svg>