<svg viewBox="0 0 178.75 21" xmlns="http://www.w3.org/2000/svg"><g fill="#fff"><path d="m126.51 16.05v-11.37h4.3c1.74 0 2.92 1.07 2.92 2.35v2.36a2.61 2.61 0 0 1 -2.73 2.47h-3.22v4.19zm1.24-10.25v4.94h3.09a1.62 1.62 0 0 0 1.17-.45 1.64 1.64 0 0 0 .5-1.14v-1.89c0-.89-.81-1.46-1.81-1.46z"/><path d="m136.67 16.05v-11.37h4.51c1.72 0 2.91 1.07 2.91 2.35v2.36a2.48 2.48 0 0 1 -2.09 2.24l2.14 4.43h-1.3l-2.13-4.36h-2.81v4.36zm1.24-10.25v4.78h3.3a1.56 1.56 0 0 0 1.66-1.42v-1.9c0-.89-.81-1.46-1.82-1.46z"/><path d="m147.32 16.05v-11.37h1.23v11.37z"/><path d="m151.94 16.05v-11.37h1.27l5.28 9.19v-9.19h1.22v11.37h-1.26l-5.27-9.15v9.15z"/><path d="m165.11 16.05v-10.26h-3.1v-1.11h7.24v1.11h-2.92v10.26z"/><path d="m172.24 12.77v.67a1.77 1.77 0 0 0 2 1.61h1.32c1.13 0 2-.54 2-1.51v-.7c0-1.62-6.16-1.95-6.16-5v-1a2.44 2.44 0 0 1 2.6-2.24h1.48a2.63 2.63 0 0 1 2.95 2.4v1.07h-1.22v-.86a1.65 1.65 0 0 0 -1.82-1.51h-1.18a1.46 1.46 0 0 0 -1.61 1.35v.73c0 2 6.15 2.35 6.15 4.88v1.1c0 1.43-1.28 2.38-3.11 2.38h-1.51c-1.85 0-3.13-1.15-3.13-2.48v-.89z"/><path d="m35.33 4.9 3.77 11.24h-2.1l-.8-2.5h-3.86l-.77 2.5h-2.06l3.77-11.24zm-2.41 6.9h2.73l-1.39-4.34z"/><path d="m40.68 16.13v-11.19h4.74c1.95 0 3.12 1.18 3.12 2.46v2.38a2.43 2.43 0 0 1 -1.67 2.22l1.89 4.17h-2.17l-1.78-3.97h-2.06v3.93zm2.07-9.34v3.58h2.51a1.09 1.09 0 0 0 1.21-1v-1.53c0-.68-.57-1-1.29-1z"/><path d="m52.63 16.13v-9.36h-2.77v-1.83h7.4v1.83h-2.56v9.36z"/><path d="m59.76 12.94v.71a1.93 1.93 0 0 0 2.13 1.74h1.32c1.23 0 2.19-.59 2.19-1.63v-.76c0-1.72-6.19-2-6.19-5v-1a2.33 2.33 0 0 1 2.51-2.12h1.48a2.57 2.57 0 0 1 2.8 2.28v1h-.93v-.84a1.78 1.78 0 0 0 -1.95-1.63h-1.27a1.57 1.57 0 0 0 -1.71 1.43v.82c0 2.2 6.18 2.49 6.18 4.92v1.07c0 1.4-1.3 2.3-3 2.3h-1.47c-1.75 0-3-1.12-3-2.42v-.87z"/><path d="m70.94 16.13v-10.36h-3.13v-.77h7v.82h-3v10.31z"/><path d="m79.85 4.87 4 11.26h-1l-1.24-3.59h-4.47l-1.23 3.59h-.91l4-11.26zm-2.42 6.83h3.9l-2-5.64z"/><path d="m87.07 16.13v-10.36h-3.13v-.77h7v.82h-2.94v10.31z"/><path d="m93.06 16.13v-11.13h.94v11.13z"/><path d="m99.73 16.23a2.51 2.51 0 0 1 -2.64-2.42v-6.53a2.52 2.52 0 0 1 2.64-2.42h2.27a2.5 2.5 0 0 1 2.62 2.42v6.52a2.49 2.49 0 0 1 -2.62 2.42zm2.14-.83a1.75 1.75 0 0 0 1.78-1.69v-6.28a1.73 1.73 0 0 0 -1.72-1.74h-2.15a1.73 1.73 0 0 0 -1.78 1.69v6.27a1.72 1.72 0 0 0 1.72 1.74h2.14z"/><path d="m107.67 16.13v-11.13h1l5.61 9.55v-9.61h.93v11.19h-1l-5.6-9.56v9.56z"/></g><path d="m0 16.19 2 3.49a2.43 2.43 0 0 0 2.17 1.32h13.38l-2.78-4.81z" fill="#13aff0"/><path d="m23.87 16.22a2.45 2.45 0 0 0 -.39-1.31l-7.84-13.63a2.43 2.43 0 0 0 -2.13-1.28h-4.14l12.11 21 1.91-3.3a2.47 2.47 0 0 0 .48-1.48z" fill="#13aff0"/><path d="m12.8 12.78-5.41-9.38-5.39 9.38z" fill="#13aff0"/></svg>