<svg viewBox="0 0 180 22" xmlns="http://www.w3.org/2000/svg"><path d="m175 4.7 4.2 12h-1l-1.3-3.8h-4.8l-1.3 3.8h-1l4.2-12zm-2.6 7.2h4.2l-2.1-6zm-6.2 4.8v-12h1v11.9h-1zm-11.3-12h5.2c1.6 0 2.8 1.2 2.8 2.6v6.7c0 1.4-1.2 2.6-2.8 2.6h-5.2zm.9.9v10.1h4.1c1.1 0 1.9-.8 1.9-1.9v-6.3c0-1.1-.8-1.9-1.9-1.9zm-11-.9h6.6v.9h-5.7v4.4h5.3v.9h-5.3v4.9h5.8v.9h-6.8v-12zm-4.5 0h1v11.9h-1v-10l-3.7 7.5h-.9l-3.7-7.5v10h-1v-11.9h1.1l4.1 8.3zm-105.8 7.5h2.9l-1.5-4.6zm2.5-7.3 4 11.9h-2.2l-.8-2.6h-4.2l-.8 2.6h-2.2l4-11.9zm7.9 2v3.8h2.7c.7 0 1.3-.4 1.3-1.1v-1.6c0-.7-.6-1.1-1.4-1.1zm-2.2 9.9v-11.9h5c2.1 0 3.3 1.3 3.3 2.6v2.5c0 1-.6 1.9-1.8 2.3l2 4.4h-2.2l-1.9-4.2h-2.2v4.2h-2.2zm12.7 0v-9.9h-2.9v-2h7.8v2h-2.7v9.9m5.4-3.4v.8c0 1.1 1 1.9 2.3 1.9h1.4c1.3 0 2.3-.6 2.3-1.7v-.9c0-1.8-6.6-2.2-6.6-5.3v-1.1c0-1.2 1.1-2.3 2.7-2.3h1.6c1.7 0 3 1.1 3 2.4v1.1h-1v-.9c0-1-.9-1.7-2.1-1.7h-1.4c-1 0-1.8.7-1.8 1.5v.9c0 2.3 6.6 2.6 6.6 5.2v1.1c0 1.5-1.4 2.4-3.2 2.4h-1.5c-1.9 0-3.2-1.2-3.2-2.6v-.8zm11.9 3.4v-11h-3.4v-.9h7.5v.9h-3.2v11m6-4.7h4.1l-2.1-6zm2.5-7.3 4.2 12h-1l-1.3-3.8h-4.8l-1.3 3.8h-1l4.2-12zm7.7 12v-11h-3.3v-.9h7.5v.9h-3.2v11m5.4 0h1v-11.9h-1m9.3 11.1c1.1 0 1.9-.8 1.9-1.9v-6.6c0-1.1-.8-1.9-1.9-1.9h-2.2c-1.1 0-1.9.8-1.9 1.9v6.6c0 1.1.8 1.9 1.9 1.9zm-2.2.9c-1.6 0-2.8-1.2-2.8-2.6v-6.9c0-1.4 1.2-2.6 2.8-2.6h2.4c1.6 0 2.8 1.2 2.8 2.6v6.9c0 1.4-1.2 2.6-2.8 2.6zm8.4-.1v-11.9h1l6 10.2v-10.2h1v11.9h-1.1l-5.9-10.2v10.2" fill="#fff"/><path d="m0 16.8 2.1 3.6c.4.8 1.3 1.4 2.2 1.4h13.9l-2.9-5zm24.8 0c0-.5-.1-1-.4-1.4l-8.2-14.1c-.4-.8-1.2-1.3-2.2-1.3h-4.3l12.6 21.8 2-3.4c.3-.7.5-1 .5-1.6m-11.5-3.5-5.6-9.8-5.7 9.8" fill="#13aff0"/></svg>