<svg viewBox="0 0 1057.49 93.09" xmlns="http://www.w3.org/2000/svg"><path d="m0 71.77 8.93 15.45a10.69 10.69 0 0 0 9.54 5.87h59.32l-12.31-21.32z" fill="#13aff0"/><path d="m105.78 71.88a10.61 10.61 0 0 0 -1.71-5.79l-34.75-60.41a10.69 10.69 0 0 0 -9.44-5.68h-18.37l53.68 93 8.46-14.65c1.67-2.81 2.13-4.05 2.13-6.47z" fill="#13aff0"/><path d="m56.73 56.62-23.99-41.55-23.99 41.55z" fill="#13aff0"/><g fill="#fff"><path d="m565.58 71.75v-50.82h5.8l16.31 33.85 16.31-33.85h5.66v50.82h-5.51v-40.24l-14.15 29.36h-4.86l-14.05-29.36v40.24z"/><path d="m644.38 20.71 17.76 51h-5.58l-5.07-15.08h-19.65l-5.07 15.08h-5.58l17.76-51zm-10.87 31h16.31l-8.19-24.21z"/><path d="m673.68 71.75v-50.82h20.15c7.68 0 13 4.78 13 10.51v10.56c0 4.35-3.7 8.77-9.28 10l9.57 19.79h-5.8l-9.5-19.5h-12.63v19.5zm5.51-45.82v21.39h14.81c4.06 0 7.4-2.9 7.4-6.38v-8.48c0-4-3.63-6.53-8.12-6.53z"/><path d="m721.31 71.75v-50.75h5.51v22.55h7.54l13.19-22.55h6.16l-14.71 24.72 17.91 26h-6.23l-15.74-23.24h-8.12v23.27z"/><path d="m797.36 71.75h-29.66v-50.82h28.93v4.93h-23.42v17.14h21.61v4.9h-21.61v18.92h24.15z"/><path d="m820.12 71.75v-45.89h-13.84v-4.93h32.33v4.93h-13.05v45.89z"/><path d="m848.83 71.75v-50.82h19.17c7.76 0 13.05 4.78 13.05 10.51v10.56c0 5.66-5 11-12.32 11h-14.39v18.75zm5.51-45.82v22.07h13.85a7.25 7.25 0 0 0 7.47-7.1v-8.44c0-4-3.63-6.53-8.12-6.53z"/><path d="m921.4 71.75h-27.18v-50.82h5.51v45.89h21.67z"/><path d="m951.49 20.71 17.76 51h-5.58l-5.07-15.04h-19.6l-5.08 15.08h-5.58l17.76-51zm-10.87 31h16.31l-8.19-24.21z"/><path d="m1013.62 55.44v5.65c0 6-5.14 11.09-12.39 11.09h-8.63c-7.47 0-12.69-5.14-12.69-11.09v-29.43c0-5.95 5.22-11.09 12.69-11.09h8.63c7.25 0 12.39 5.14 12.39 11.09v5.34h-5.51v-4.33a7.16 7.16 0 0 0 -7.46-7.17h-7.76a7.17 7.17 0 0 0 -7.47 7.17v27.41a7.17 7.17 0 0 0 7.47 7.17h7.76a7.16 7.16 0 0 0 7.46-7.17v-4.64z"/><path d="m1057.49 71.75h-29.65v-50.82h28.92v4.93h-23.41v17.14h21.65v4.9h-21.6v18.92h24.14z"/><path d="m158.35 20.78 17.11 51h-9.46l-3.62-11.31h-17.59l-3.48 11.31h-9.42l17.11-51zm-10.95 31.32h12.4l-6.31-19.72z"/><path d="m182.64 71.75v-50.82h21.53c8.84 0 14.13 5.36 14.13 11.16v10.8c0 4.06-2.75 8-7.54 9.94l8.56 18.92h-9.86l-8.05-17.84h-9.35v17.84zm9.42-42.41v16.24h11.38c3.05 0 5.51-1.74 5.51-4.72v-6.74c0-3.11-2.61-4.78-5.87-4.78z"/><path d="m236.94 71.75v-42.48h-12.62v-8.34h33.57v8.34h-11.6v42.48z"/><path d="m270.22 57.1v3c0 4.2 3.84 7.17 8.77 7.17h5.87c5.07 0 9.06-2.39 9.06-6.74v-3.14c0-7.25-27.55-8.7-27.55-22.25v-4.64c0-5.22 4.86-9.93 11.89-9.93h6.6c7.76 0 13.05 4.93 13.05 10.65v4.86h-5.44v-3.84c0-3.92-3.62-6.74-8.12-6.74h-5.29c-4 0-7.18 2.46-7.18 6v3.26c0 9.14 27.48 10.52 27.48 21.83v4.93c0 6.38-5.73 10.65-13.92 10.65h-6.74c-8.27 0-14-5.14-14-11.09v-4z"/><path d="m319.59 71.75v-45.89h-13.85v-4.93h32.33v4.93h-13.07v45.89z"/><path d="m361.13 20.71 17.76 51h-5.58l-5.08-15.08h-19.64l-5.08 15.08h-5.58l17.76-51zm-10.88 31h16.32l-8.2-24.21z"/><path d="m392.67 71.75v-45.89h-13.85v-4.93h32.33v4.93h-13v45.89z"/><path d="m419.93 71.75v-50.82h5.51v50.82z"/><path d="m451 72.18c-7.47 0-12.69-5.14-12.69-11.09v-29.43c0-5.95 5.22-11.09 12.69-11.09h9.64c7.32 0 12.4 5.14 12.4 11.09v29.43c0 6-5.08 11.09-12.4 11.09zm9.13-4.93a7.17 7.17 0 0 0 7.47-7.17v-27.41a7.17 7.17 0 0 0 -7.47-7.17h-8.84a7.17 7.17 0 0 0 -7.47 7.17v27.41a7.17 7.17 0 0 0 7.47 7.17z"/><path d="m485.83 71.75v-50.82h5.66l23.63 41.07v-41.07h5.44v50.82h-5.66l-23.56-40.89v40.89z"/></g></svg>