<svg height="19" viewBox="0 0 73 19" width="73" xmlns="http://www.w3.org/2000/svg"><g fill="#fff"><path d="m53.9672667 3.37816877c-.0746203-.85195046-.4253358-1.60388934-1.0782635-2.19284639-.7088929-.63711078-1.5707575-.91862485-2.4923183-1.07790254-.235054-.04074546-.47757-.02963306-.7051619-.10741984-.0261171 0-.0485032 0-.0746203 0-.0746203.04074546-.1529717.0111124-.231323.01852066-.0970064-.0111124-.1977438.0222248-.2910192-.01852066-2.0408654 0-4.0779999 0-6.1188654 0-.3283293.11853224-.5671143.32225952-.6305416.68156037-.0783513.47412895-.1529716.9482579-.2275919 1.42238685-.227592 1.44831577-.4551839 2.89663155-.6865069 4.34494733-.2313229 1.44831578-.4626459 2.89663155-.6939688 4.34494735-.242516 1.5261025-.485032 3.0559092-.727548 4.5820118-.0559653.3444843.1380475.614886.485032.6185901.981257.0074083 1.9662451.0074083 2.9475022 0 .3171363-.0037041.5260732-.2000231.5745764-.503762.0522342-.3222595.1007374-.644519.1529716-.9667786.1641647-1.0408612.3245983-2.0817224.4962251-3.1225836.0820823-.4963537.3768325-.7334182.8879816-.7371224.473839 0 .9439469-.0037041 1.4177859 0 .8096304.0037042 1.6155297-.0370413 2.406505-.2185438 1.443903-.3259636 2.649021-1.02974878 3.4549203-2.29285794.9252918-1.45942817 1.2834693-3.06702164 1.1342287-4.77462669zm-4.827934 3.22629934c-.3507155.46301655-.8469405.6630397-1.4028618.76305128-.473839.08519504-.951409.08519504-1.4289789.08149091-.2910192 0-.5857695-.00370413-.8767887 0-.1081994.00370413-.1343165-.02222479-.1156615-.1370529.1753578-1.07049427.3432535-2.14098854.5111492-3.21148281.0261171-.17039009.0485032-.34078018.0858133-.51117027.0522342-.24817687.2126679-.4000463.4626459-.40375044.6715828-.00740826 1.3431656-.02963306 2.0035553.10001158.8618646.16668596 1.2760073.65933557 1.2722763 1.53351082.003731.64451904-.1156615 1.25940503-.5111491 1.78539183z"/><path d="m13.9698049 3.41108044c-.0745852-.89628824-.4400526-1.67776269-1.137424-2.2777573-.7011008-.5999946-1.5401841-.87036254-2.4352063-1.0259167-.2200263-.0370367-.45124034-.01851835-.66380811-.10740644-.08577296 0-.17527518 0-.26104814 0-.07458519.04074037-.15289963.01111101-.23121407.01851835-.09696074-.01111101-.19765074.02222202-.29088222-.01851835-1.98769515 0-3.97911956 0-5.96681471 0-.44005258.10370277-.61905702.29258996-.69737147.74814142-.0820437.47406981-.15289962.9518433-.22748481 1.42591311-.53328406 3.31848868-1.05538035 6.64068103-1.58120589 9.96287337-.16781667 1.0370277-.35427963 2.0740554-.47734518 3.1221942v.4074037c.16035815.2703679.40275999.337034.70482999.3333303.82043702-.0148146 1.64087404-.0037036 2.46131106-.0037036.51836703 0 .82043703-.270368.89875147-.7740671.19765074-1.2777663.39903073-2.5555326.60413999-3.8332989.07458518-.4703661.38038443-.7222157.86145887-.7259194.57803518 0 1.15607035.0037037 1.73410552 0 .70855925-.0037037 1.41338924-.0592587 2.10703145-.2148129 1.45814035-.3296267 2.67014955-1.04073137 3.47566955-2.31479399.9099393-1.44443146 1.2642189-3.03330606 1.122507-4.72217977zm-4.56088396 2.72590142c-.30579925.74443775-.90248072 1.09628644-1.6632496 1.22961857-.48107444.08518442-.96214887.08518442-1.44695257.08518442-.29088221 0-.58549369-.00370367-.87637591 0-.09696073 0-.12306555-.01851835-.10814851-.12592479.19765073-1.22221123.38784295-2.44442247.58176443-3.67033737.04475111-.27407161.19765074-.45555146.45496962-.45925513.7309348-.01111101 1.46932812-.04814772 2.18534589.13333213.73466406.18518352 1.10758998.66666068 1.11877776 1.4148021.01118777.48147715-.06339741.94813962-.24613111 1.39258007z"/><path d="m27.3492108 19c-.2817262-.2495435-.3070093-.4629213-.086685-.77033.8776854-1.2441011 1.7589827-2.4882021 2.6402799-3.72507.0758494-.1048807.086685-.1916784.0469544-.3110253-.9607585-2.8100771-1.9179051-5.62015419-2.8750517-8.43023129-.0433425-.13019662-.1011325-.25677667-.0614019-.40143958.0541781-.20614466.2131006-.35442414.4225893-.35442414.9138041-.00361658 1.8312201-.00723315 2.7450242.00361657.3359043.00361657.5959593.23507724.7079273.59673452.23116.76671344.458708 1.52981031.6862561 2.29652375.2889499.96562495.5778999 1.93486647.8704616 2.90410797.0722375-.0325491.0939088-.0976474.1300275-.1482795 1.1774709-1.73233836 2.3549419-3.46467674 3.525189-5.20063171.2094887-.31464183.4731555-.46653789.8560142-.45930475.8379548.01446629 1.6722977.00723315 2.5102524.00361657.2131006 0 .3792468.06148174.4803793.2531601.0975206.19167836.0505662.36889043-.0686256.54248593-2.9761842 4.28202226-5.9451447 8.57127766-8.9141051 12.86053306-.0975206.1410463-.2275481.2423103-.3647993.3399578-1.0835622 0-2.1671244 0-3.2506866 0z"/><path d="m72.6725756 0c.2982826.15926319.3653961.39260228.3094682.72594384-.3579391 2.18153532-.700964 4.36677443-1.0477175 6.55201354-.3542105 2.22598086-.7046925 4.45566552-1.0551745 6.68164642-.0708421.4444554-.1416842.8889108-.2162549 1.3333662-.0708421.414825-.3691246.6926097-.7904487.7000173-.7941773.0111114-1.5920831.0074076-2.3862604 0-.3169252-.0037038-.5219945-.2296353-.4809806-.5481617.0671136-.5259389.1565983-1.048174.238626-1.5704091.2050693-1.3074397.4138671-2.6148794.6226648-3.92602285.2199834-1.37410798.4399668-2.74821596.6562217-4.12602774.2274404-1.4407763.4548808-2.88525639.6823213-4.32603269.0521994-.34074915.1081274-.6814983.1565983-1.02224745.0335568-.22963529.167784-.3740833.3653961-.47038197.9806039-.0037038 1.9649363-.0037038 2.9455402-.0037038z"/><path d="m49.4857571.21257582c-.161919-.07085861-.3358321.23619535-.4857571-.21257582h.4797601c.017991.04723907.023988.09447814.017991.14171721 0 .04723907-.005997.07085861-.011994.07085861z"/><path d="m9.48575712.21257582c-.16191904-.07085861-.33583208.23619535-.48575712-.21257582h.47976012c.017991.04723907.02398801.09447814.017991.14171721 0 .04723907-.005997.07085861-.011994.07085861z"/><path d="m50.0083333.20459524c0-.06819841-.0083333-.13639683-.0083333-.20459524h.5c-.1416667.45465609-.325.13639683-.4916667.20459524z"/><path d="m9.00833333.20459524c0-.06819841-.00833333-.13639683-.00833333-.20459524h.5c-.14166667.45465609-.33333333.13639683-.49166667.20459524z"/><path d="m65.4899185 5.2666755c-.830114 0-1.6637908 0-2.4939048 0-.3812112 0-.5272828.13817834-.5807236.53089574-.0249391.18908615-.0605663.37453603-.0926308.57089473-.0320645-.01818137-.0427526-.02181764-.0498781-.02909018-.0213763-.02909018-.0463153-.05454408-.0641289-.08727053-.2636414-.42544385-.6377271-.71270935-1.0937555-.88725041-1.0260637-.39635367-2.0877546-.45089775-3.1530083-.25453905-1.4571529.26908414-2.6542273 1.0181562-3.5484703 2.21085347-1.239827 1.65086757-1.7207944 3.50536633-1.214888 5.55622383.2957059 1.1999699.9654975 2.1526732 2.0948801 2.6726601 1.2505152.574531 2.543783.574531 3.8370508.1381783.7232324-.2436302 1.3609595-.6472564 1.9452458-1.2399688-.0356272.2472665-.0605663.4436252-.0961935.6399839-.0676917.4072625.1211326.6472565.5237201.6472565h2.2267007c.473842 0 .7731105-.2545391.8479277-.7308907.1710106-1.0872454.3384585-2.1744908.5059064-3.2617362.3028313-1.95267813.6020999-3.90899255.9049312-5.8616707.0605663-.38180858-.1246952-.61453-.498781-.61453zm-3.6981046 5.5271337c-.3847739 1.523598-1.6887299 2.4508474-3.2278255 2.3017603-.8586158-.0836343-1.5177192-.4581703-1.827676-1.3236031-.1959496-.5490771-.153197-1.109063 0-1.6617764.3776485-1.35996577 1.5141566-2.22903481 2.9036178-2.22539854 1.0118129 0 1.7599843.46180656 2.0806292 1.28724034.2102006.53089574.2102006 1.0763366.0712545 1.6217774z"/><path d="m25.4767183 5.2693979c-.8305128 0-1.6645901 0-2.4951029 0-.3564433 0-.5097139.13811157-.559616.49429404-.0285154.20353284-.0641598.40706568-.106933.66875076-.2994123-.53790822-.6986288-.88318714-1.2119071-1.06854741-1.2404226-.45067986-2.5022318-.48339049-3.7604766-.09449739-3.2792782 1.00676065-4.826242 4.57948889-4.2095951 7.3926035.2566391 1.1739483.8340772 2.1589019 1.8962782 2.7513278 1.2725025.7087305 2.6234225.726903 3.9886003.3125683.7734819-.2362434 1.4471597-.6614817 2.0602422-1.2793492-.0392088.2435125-.0641598.4397763-.0998042.6360401-.0712886.4143347.1211908.6542127.534665.6542127h2.1386596c.5988247 0 .8554639-.2435125.9481391-.846842.2245593-1.4937857.4598119-2.9875713.6915-4.481357.2352526-1.51195824.4705051-3.02391647.6986288-4.53587471.057031-.3888931-.131884-.60332949-.5132783-.60332949zm-3.6963168 5.5789805c-.4918917 1.8390646-2.2348993 2.5659676-3.73909 2.1516329-.8412061-.232609-1.3580489-.9158978-1.4222087-1.813623-.0891108-1.26844572.5988247-2.4751047 1.7180566-3.01664744.4063454-.19626381.823384-.28712668 1.3117113-.28712668 1.0051701.00363451 1.7465721.45794889 2.0744999 1.27208025.213866.55608079.2067371 1.12306517.0570309 1.69368397z"/></g></svg>