<svg xmlns="http://www.w3.org/2000/svg" viewBox="0 0 799.1 93.1"><defs><style>  .cls-1{fill:#13aff0;}.cls-2{fill:#fff;}</style></defs><title>  AS Prints</title><g data-name="Layer 2"><g data-name="Layer 1"><path class="cls-1" d="M0 71.8 8.9 87.2h0a10.7 10.7 0 0 0 9.5 5.9H77.8L65.5 71.8Z"/><path class="cls-1" d="M105.8 71.9a10.6 10.6 0 0 0-1.7-5.8L69.3 5.7A10.7 10.7 0 0 0 59.9 0H41.5L95.2 93l8.5-14.6C105.3 75.5 105.8 74.3 105.8 71.9Z"/><polygon class="cls-1" points="56.7 56.6 32.7 15.1 8.8 56.6 56.7 56.6"/><path class="cls-2" d="M565.6 71.8V20.9h19.2c7.8 0 13.1 4.8 13.1 10.5V42c0 5.7-5 11-12.3 11H571.1V71.8Zm5.5-45.8V48h13.9a7.2 7.2 0 0 0 7.5-7.1V32.5c0-4-3.6-6.5-8.1-6.5Z"/><path class="cls-2" d="M611 71.8V20.9h20.2c7.7 0 13 4.8 13 10.5V42c0 4.4-3.7 8.8-9.3 10l9.6 19.8h-5.8l-9.5-19.5H616.5v19.5Zm5.5-45.8V47.3h14.8c4.1 0 7.4-2.9 7.4-6.4V32.5c0-4-3.6-6.5-8.1-6.5Z"/><path class="cls-2" d="M658.6 71.8V20.9h5.5V71.8Z"/><path class="cls-2" d="M679.3 71.8V20.9h5.7L708.5 62V20.9H714V71.8h-5.6L684.8 30.9V71.8Z"/><path class="cls-2" d="M738.1 71.8V25.9H724.3V20.9h32.3v4.9H743.6V71.8Z"/><path class="cls-2" d="M770 57.1v3c0 4.2 3.9 7.2 8.8 7.2h5.9c5.1 0 9.1-2.4 9.1-6.7V57.4c0-7.2-27.5-8.7-27.5-22.2V30.5c0-5.2 4.9-9.9 11.9-9.9h6.6c7.8 0 13 4.9 13 10.7v4.9h-5.4V32.2c0-3.9-3.6-6.7-8.1-6.7H778.8c-4 0-7.2 2.5-7.2 6v3.3c0 9.1 27.5 10.5 27.5 21.8v4.9c0 6.4-5.7 10.7-13.9 10.7h-6.7c-8.3 0-14-5.1-14-11.1v-4Z"/><path class="cls-2" d="M158.4 20.8l17.1 51H166l-3.6-11.3H144.8l-3.5 11.3h-9.4l17.1-51ZM147.4 52.1h12.4l-6.3-19.7Z"/><path class="cls-2" d="M182.6 71.8V20.9h21.5c8.8 0 14.1 5.4 14.1 11.2v10.8c0 4.1-2.7 8-7.5 9.9l8.6 18.9h-9.9l-8-17.8h-9.3V71.8Zm9.4-42.4V45.6h11.4c3.1 0 5.5-1.7 5.5-4.7V34.1c0-3.1-2.6-4.8-5.9-4.8Z"/><path class="cls-2" d="M236.9 71.8V29.3H224.3V20.9h33.6v8.3h-11.6V71.8Z"/><path class="cls-2" d="M270.2 57.1v3c0 4.2 3.8 7.2 8.8 7.2h5.9c5.1 0 9.1-2.4 9.1-6.7V57.4c0-7.2-27.5-8.7-27.5-22.2V30.5c0-5.2 4.9-9.9 11.9-9.9h6.6c7.8 0 13.1 4.9 13.1 10.7v4.9h-5.4V32.2c0-3.9-3.6-6.7-8.1-6.7h-5.3c-4 0-7.2 2.5-7.2 6v3.3c0 9.1 27.5 10.5 27.5 21.8v4.9c0 6.4-5.7 10.7-13.9 10.7H278.7c-8.3 0-14-5.1-14-11.1v-4Z"/><path class="cls-2" d="M319.6 71.8V25.9H305.7V20.9h32.3v4.9H325V71.8Z"/><path class="cls-2" d="M361.1 20.7l17.8 51h-5.6l-5.1-15.1H348.6l-5.1 15.1h-5.6l17.8-51Zm-10.9 31h16.3l-8.2-24.2Z"/><path class="cls-2" d="M392.7 71.8V25.9H378.8V20.9h32.3v4.9h-13V71.8Z"/><path class="cls-2" d="M419.9 71.8V20.9h5.5V71.8Z"/><path class="cls-2" d="M451 72.2c-7.5 0-12.7-5.1-12.7-11.1V31.7c0-5.9 5.2-11.1 12.7-11.1h9.6c7.3 0 12.4 5.1 12.4 11.1V61.1c0 6-5.1 11.1-12.4 11.1Zm9.1-4.9a7.2 7.2 0 0 0 7.5-7.2V32.7a7.2 7.2 0 0 0-7.5-7.2h-8.8a7.2 7.2 0 0 0-7.5 7.2V60.1a7.2 7.2 0 0 0 7.5 7.2Z"/><path class="cls-2" d="M485.8 71.8V20.9h5.7L515.1 62V20.9h5.4V71.8H514.9L491.3 30.9V71.8Z"/></g></g></svg>