<svg viewBox="0 0 119 26" xmlns="http://www.w3.org/2000/svg"><g fill="#fff" fill-rule="evenodd"><path d="m113 26h-107a6 6 0 0 1 -6-6v-14a6 6 0 0 1 6-6h107a6 6 0 0 1 6 6v14a6 6 0 0 1 -6 6zm5-20a5 5 0 0 0 -5-5h-107a5 5 0 0 0 -5 5v14a5 5 0 0 0 5 5h107a5 5 0 0 0 5-5z"/><path d="m60.7 18.44h-1.3l1-2.5-2-5.07h1.37l1.23 3.45 1.27-3.45h1.38zm-5-2.18a2.19 2.19 0 0 1 -1.34-.5v.37h-1.36v-7.56h1.34v2.66a2.24 2.24 0 0 1 1.34-.49 2.48 2.48 0 0 1 2.38 2.76 2.48 2.48 0 0 1 -2.37 2.76zm-.28-4.36a1.5 1.5 0 0 0 -1.06.48v2.25a1.53 1.53 0 0 0 1.06.47c.75 0 1.28-.65 1.28-1.6s-.54-1.6-1.29-1.6zm-7.86 3.86a2.12 2.12 0 0 1 -1.33.5 2.48 2.48 0 0 1 -2.38-2.76 2.48 2.48 0 0 1 2.38-2.76 2.17 2.17 0 0 1 1.33.49v-2.66h1.36v7.56h-1.37zm0-3.38a1.42 1.42 0 0 0 -1-.48c-.77 0-1.29.66-1.29 1.6s.52 1.6 1.29 1.6a1.45 1.45 0 0 0 1-.47zm-8 1.49a1.51 1.51 0 0 0 1.6 1.35 3.2 3.2 0 0 0 1.57-.5v1.13a4.35 4.35 0 0 1 -1.79.41 2.64 2.64 0 0 1 -2.7-2.8 2.56 2.56 0 0 1 2.6-2.72 2.37 2.37 0 0 1 2.31 2.64 4.35 4.35 0 0 1 0 .49zm1.23-2.08a1.24 1.24 0 0 0 -1.26 1.21h2.3a1.13 1.13 0 0 0 -1.07-1.21zm-4.79.83v3.51h-1.36v-5.26h1.36v.53a1.79 1.79 0 0 1 1.29-.66 1.61 1.61 0 0 1 .44.06v1.2a1.45 1.45 0 0 0 -.47-.07 1.66 1.66 0 0 0 -1.26.69zm-6 1.25a1.5 1.5 0 0 0 1.6 1.35 3.23 3.23 0 0 0 1.57-.5v1.13a4.35 4.35 0 0 1 -1.79.41 2.64 2.64 0 0 1 -2.71-2.8 2.57 2.57 0 0 1 2.6-2.72 2.38 2.38 0 0 1 2.32 2.64 4.35 4.35 0 0 1 0 .49zm1.22-2.08a1.23 1.23 0 0 0 -1.22 1.21h2.29a1.13 1.13 0 0 0 -1.09-1.21zm-5.93 4.34-1.09-3.57-1.06 3.57h-1.21l-1.81-5.26h1.34l1.07 3.58 1.06-3.58h1.22l1.06 3.58 1.07-3.58h1.34l-1.8 5.26zm-8.29.13a2.63 2.63 0 0 1 -2.71-2.76 2.62 2.62 0 0 1 2.71-2.76 2.62 2.62 0 0 1 2.71 2.76 2.63 2.63 0 0 1 -2.71 2.76zm0-4.39c-.79 0-1.33.66-1.33 1.63s.54 1.63 1.33 1.63 1.33-.66 1.33-1.63-.51-1.63-1.33-1.63zm-5.91 1.66h-1.17v2.6h-1.35v-7.24h2.56a2.33 2.33 0 1 1 0 4.64zm-.15-3.53h-1v2.45h1a1.23 1.23 0 1 0 0-2.45z"/><path d="m111.12 14.05h-5.56c.12 1.33 1.1 1.72 2.21 1.72a6.05 6.05 0 0 0 2.79-.62v2.28a6.39 6.39 0 0 1 -3.15.74c-2.77 0-4.71-1.73-4.71-5.16 0-2.89 1.65-5.19 4.35-5.19s4.1 2.3 4.1 5.21c0 .27-.02.87-.03 1.02zm-4.12-3.91c-.71 0-1.5.54-1.5 1.81h2.94c.03-1.27-.71-1.81-1.44-1.81zm-8.92 8a3.17 3.17 0 0 1 -2-.72v3.21l-2.84.61v-13.24h2.5l.15.71a3.15 3.15 0 0 1 2.22-.9c2 0 3.88 1.8 3.88 5.11.01 3.61-1.85 5.25-3.88 5.25zm-.66-7.83a1.73 1.73 0 0 0 -1.36.56v4.22a1.68 1.68 0 0 0 1.34.54c1 0 1.75-1.14 1.75-2.67s-.66-2.62-1.7-2.62zm-8.27-2.31h2.85v10h-2.85zm0-3.17 2.85-.6v2.31l-2.85.61zm-3 6.38v6.79h-2.88v-10h2.46l.17.84a1.94 1.94 0 0 1 2.38-.84v2.6a2 2 0 0 0 -2.17.62zm-6.15 3.27c0 1.67 1.8 1.15 2.16 1v2.31a4.36 4.36 0 0 1 -2 .38 2.86 2.86 0 0 1 -3-2.92v-9.11l2.84-.59v2.45h2.16v2.43h-2.16zm-3.51.52c0 2-1.63 3.21-4 3.21a7.82 7.82 0 0 1 -3.11-.65v-2.75a7.18 7.18 0 0 0 3.11.91c.63 0 1.09-.17 1.09-.69 0-1.36-4.32-.85-4.32-4 0-2 1.54-3.22 3.84-3.22a7.6 7.6 0 0 1 2.82.52v2.67a6.3 6.3 0 0 0 -2.82-.73c-.6 0-1 .17-1 .61.04 1.3 4.39.69 4.39 4.12z"/></g></svg>