<svg enable-background="new 0 0 113.2 363.5" viewBox="0 0 113.2 363.5" xmlns="http://www.w3.org/2000/svg" xmlns:xlink="http://www.w3.org/1999/xlink"><filter id="a" height="104.3%" width="108.3%" x="-4.2%" y="-1.1%"><feOffset dx="0" dy="1" in="SourceAlpha" result="shadowOffsetOuter1"/><feGaussianBlur in="shadowOffsetOuter1" result="shadowBlurOuter1" stdDeviation=".5"/><feColorMatrix in="shadowBlurOuter1" type="matrix" values="0 0 0 0 1   0 0 0 0 1   0 0 0 0 1  0 0 0 0.5 0"/></filter><filter id="b" height="104.3%" width="108.3%" x="-4.2%" y="-1.1%"><feOffset dx="0" dy="1" in="SourceAlpha" result="shadowOffsetOuter1"/><feGaussianBlur in="shadowOffsetOuter1" result="shadowBlurOuter1" stdDeviation=".5"/><feColorMatrix in="shadowBlurOuter1" type="matrix" values="0 0 0 0 1   0 0 0 0 1   0 0 0 0 1  0 0 0 0.5 0"/></filter><filter id="c" height="104.3%" width="108.3%" x="-4.2%" y="-1.1%"><feOffset dx="0" dy="1" in="SourceAlpha" result="shadowOffsetOuter1"/><feGaussianBlur in="shadowOffsetOuter1" result="shadowBlurOuter1" stdDeviation=".5"/><feColorMatrix in="shadowBlurOuter1" type="matrix" values="0 0 0 0 1   0 0 0 0 1   0 0 0 0 1  0 0 0 0.5 0"/></filter><filter id="d" height="104.3%" width="108.3%" x="-4.2%" y="-1.1%"><feOffset dx="0" dy="1" in="SourceAlpha" result="shadowOffsetOuter1"/><feGaussianBlur in="shadowOffsetOuter1" result="shadowBlurOuter1" stdDeviation=".5"/><feColorMatrix in="shadowBlurOuter1" type="matrix" values="0 0 0 0 1   0 0 0 0 1   0 0 0 0 1  0 0 0 0.5 0"/></filter><filter id="e" height="104.3%" width="108.3%" x="-4.2%" y="-1.1%"><feOffset dx="0" dy="1" in="SourceAlpha" result="shadowOffsetOuter1"/><feGaussianBlur in="shadowOffsetOuter1" result="shadowBlurOuter1" stdDeviation=".5"/><feColorMatrix in="shadowBlurOuter1" type="matrix" values="0 0 0 0 1   0 0 0 0 1   0 0 0 0 1  0 0 0 0.5 0"/></filter><filter id="f" height="104.3%" width="108.3%" x="-4.2%" y="-1.1%"><feOffset dx="0" dy="1" in="SourceAlpha" result="shadowOffsetOuter1"/><feGaussianBlur in="shadowOffsetOuter1" result="shadowBlurOuter1" stdDeviation=".5"/><feColorMatrix in="shadowBlurOuter1" type="matrix" values="0 0 0 0 1   0 0 0 0 1   0 0 0 0 1  0 0 0 0.5 0"/></filter><filter id="g" height="104.3%" width="108.3%" x="-4.2%" y="-1.1%"><feOffset dx="0" dy="1" in="SourceAlpha" result="shadowOffsetOuter1"/><feGaussianBlur in="shadowOffsetOuter1" result="shadowBlurOuter1" stdDeviation=".5"/><feColorMatrix in="shadowBlurOuter1" type="matrix" values="0 0 0 0 1   0 0 0 0 1   0 0 0 0 1  0 0 0 0.5 0"/></filter><filter id="h" height="104.3%" width="108.3%" x="-4.2%" y="-1.1%"><feOffset dx="0" dy="1" in="SourceAlpha" result="shadowOffsetOuter1"/><feGaussianBlur in="shadowOffsetOuter1" result="shadowBlurOuter1" stdDeviation=".5"/><feColorMatrix in="shadowBlurOuter1" type="matrix" values="0 0 0 0 1   0 0 0 0 1   0 0 0 0 1  0 0 0 0.5 0"/></filter><filter id="i" height="104.3%" width="108.3%" x="-4.2%" y="-1.1%"><feOffset dx="0" dy="1" in="SourceAlpha" result="shadowOffsetOuter1"/><feGaussianBlur in="shadowOffsetOuter1" result="shadowBlurOuter1" stdDeviation=".5"/><feColorMatrix in="shadowBlurOuter1" type="matrix" values="0 0 0 0 1   0 0 0 0 1   0 0 0 0 1  0 0 0 0.5 0"/></filter><filter id="j" height="104.3%" width="108.3%" x="-4.2%" y="-1.1%"><feOffset dx="0" dy="1" in="SourceAlpha" result="shadowOffsetOuter1"/><feGaussianBlur in="shadowOffsetOuter1" result="shadowBlurOuter1" stdDeviation=".5"/><feColorMatrix in="shadowBlurOuter1" type="matrix" values="0 0 0 0 1   0 0 0 0 1   0 0 0 0 1  0 0 0 0.5 0"/></filter><filter id="k" height="104.3%" width="108.3%" x="-4.2%" y="-1.1%"><feOffset dx="0" dy="1" in="SourceAlpha" result="shadowOffsetOuter1"/><feGaussianBlur in="shadowOffsetOuter1" result="shadowBlurOuter1" stdDeviation=".5"/><feColorMatrix in="shadowBlurOuter1" type="matrix" values="0 0 0 0 1   0 0 0 0 1   0 0 0 0 1  0 0 0 0.5 0"/></filter><filter id="l" height="104.3%" width="108.3%" x="-4.2%" y="-1.1%"><feOffset dx="0" dy="1" in="SourceAlpha" result="shadowOffsetOuter1"/><feGaussianBlur in="shadowOffsetOuter1" result="shadowBlurOuter1" stdDeviation=".5"/><feColorMatrix in="shadowBlurOuter1" type="matrix" values="0 0 0 0 1   0 0 0 0 1   0 0 0 0 1  0 0 0 0.5 0"/></filter><filter id="m" height="104.3%" width="108.3%" x="-4.2%" y="-1.1%"><feOffset dx="0" dy="1" in="SourceAlpha" result="shadowOffsetOuter1"/><feGaussianBlur in="shadowOffsetOuter1" result="shadowBlurOuter1" stdDeviation=".5"/><feColorMatrix in="shadowBlurOuter1" type="matrix" values="0 0 0 0 1   0 0 0 0 1   0 0 0 0 1  0 0 0 0.5 0"/></filter><filter id="n" height="104.3%" width="108.3%" x="-4.2%" y="-1.1%"><feOffset dx="0" dy="1" in="SourceAlpha" result="shadowOffsetOuter1"/><feGaussianBlur in="shadowOffsetOuter1" result="shadowBlurOuter1" stdDeviation=".5"/><feColorMatrix in="shadowBlurOuter1" type="matrix" values="0 0 0 0 1   0 0 0 0 1   0 0 0 0 1  0 0 0 0.5 0"/></filter><filter id="o" height="104.3%" width="108.3%" x="-4.2%" y="-1.1%"><feOffset dx="0" dy="1" in="SourceAlpha" result="shadowOffsetOuter1"/><feGaussianBlur in="shadowOffsetOuter1" result="shadowBlurOuter1" stdDeviation=".5"/><feColorMatrix in="shadowBlurOuter1" type="matrix" values="0 0 0 0 1   0 0 0 0 1   0 0 0 0 1  0 0 0 0.5 0"/></filter><filter id="p" height="104.3%" width="108.3%" x="-4.2%" y="-1.1%"><feOffset dx="0" dy="1" in="SourceAlpha" result="shadowOffsetOuter1"/><feGaussianBlur in="shadowOffsetOuter1" result="shadowBlurOuter1" stdDeviation=".5"/><feColorMatrix in="shadowBlurOuter1" type="matrix" values="0 0 0 0 1   0 0 0 0 1   0 0 0 0 1  0 0 0 0.5 0"/></filter><filter id="q" height="104.3%" width="108.3%" x="-4.2%" y="-1.1%"><feOffset dx="0" dy="1" in="SourceAlpha" result="shadowOffsetOuter1"/><feGaussianBlur in="shadowOffsetOuter1" result="shadowBlurOuter1" stdDeviation=".5"/><feColorMatrix in="shadowBlurOuter1" type="matrix" values="0 0 0 0 1   0 0 0 0 1   0 0 0 0 1  0 0 0 0.5 0"/></filter><filter id="r" height="104.3%" width="108.3%" x="-4.2%" y="-1.1%"><feOffset dx="0" dy="1" in="SourceAlpha" result="shadowOffsetOuter1"/><feGaussianBlur in="shadowOffsetOuter1" result="shadowBlurOuter1" stdDeviation=".5"/><feColorMatrix in="shadowBlurOuter1" type="matrix" values="0 0 0 0 1   0 0 0 0 1   0 0 0 0 1  0 0 0 0.5 0"/></filter><filter id="s" height="104.3%" width="108.3%" x="-4.2%" y="-1.1%"><feOffset dx="0" dy="1" in="SourceAlpha" result="shadowOffsetOuter1"/><feGaussianBlur in="shadowOffsetOuter1" result="shadowBlurOuter1" stdDeviation=".5"/><feColorMatrix in="shadowBlurOuter1" type="matrix" values="0 0 0 0 1   0 0 0 0 1   0 0 0 0 1  0 0 0 0.5 0"/></filter><filter id="t" height="104.3%" width="108.3%" x="-4.2%" y="-1.1%"><feOffset dx="0" dy="1" in="SourceAlpha" result="shadowOffsetOuter1"/><feGaussianBlur in="shadowOffsetOuter1" result="shadowBlurOuter1" stdDeviation=".5"/><feColorMatrix in="shadowBlurOuter1" type="matrix" values="0 0 0 0 1   0 0 0 0 1   0 0 0 0 1  0 0 0 0.5 0"/></filter><filter id="u" height="104.3%" width="108.3%" x="-4.2%" y="-1.1%"><feOffset dx="0" dy="1" in="SourceAlpha" result="shadowOffsetOuter1"/><feGaussianBlur in="shadowOffsetOuter1" result="shadowBlurOuter1" stdDeviation=".5"/><feColorMatrix in="shadowBlurOuter1" type="matrix" values="0 0 0 0 1   0 0 0 0 1   0 0 0 0 1  0 0 0 0.5 0"/></filter><filter id="v" height="104.3%" width="108.3%" x="-4.2%" y="-1.1%"><feOffset dx="0" dy="1" in="SourceAlpha" result="shadowOffsetOuter1"/><feGaussianBlur in="shadowOffsetOuter1" result="shadowBlurOuter1" stdDeviation=".5"/><feColorMatrix in="shadowBlurOuter1" type="matrix" values="0 0 0 0 1   0 0 0 0 1   0 0 0 0 1  0 0 0 0.5 0"/></filter><linearGradient id="w"><stop offset="0" stop-color="#caad74"/><stop offset="1" stop-color="#926f3d"/></linearGradient><linearGradient id="x" gradientTransform="matrix(0 -47.0471 111.9744 0 1538.9224 18736.1875)" gradientUnits="userSpaceOnUse" x1="391.009" x2="391.009" xlink:href="#w" y1="-13.7436" y2="-12.7442"/><linearGradient id="y"><stop offset="0" stop-color="#f6cf72"/><stop offset="1" stop-color="#f0ad4e"/></linearGradient><linearGradient id="z" gradientTransform="matrix(0 -67.1173 113.5972 0 1555.3236 26632.4102)" gradientUnits="userSpaceOnUse" x1="392.3256" x2="391.8037" xlink:href="#y" y1="-13.6704" y2="-12.7595"/><linearGradient id="A"><stop offset="0" stop-color="#fff"/><stop offset="1" stop-color="#fff" stop-opacity="0"/></linearGradient><linearGradient id="B" gradientTransform="matrix(0 -61.9207 70.7499 0 1145.9723 24581.8105)" gradientUnits="userSpaceOnUse" x1="391.8473" x2="391.8473" xlink:href="#A" y1="-15.8668" y2="-14.8968"/><linearGradient id="C" gradientTransform="matrix(0 -57.8552 62.2747 0 1050.0265 22982.6055)" gradientUnits="userSpaceOnUse" x1="391.6606" x2="391.6606" xlink:href="#A" y1="-16.6509" y2="-15.6809"/><linearGradient id="D"><stop offset="0" stop-color="#986e33"/><stop offset="1" stop-color="#986e33"/></linearGradient><linearGradient id="E" gradientTransform="matrix(0 -47.9305 93.0684 0 1357.722 19063.2988)" gradientUnits="userSpaceOnUse" x1="391.0724" x2="391.0724" xlink:href="#D" y1="-14.4843" y2="-13.578"/><linearGradient id="F" gradientTransform="matrix(0 -47.0471 111.9744 0 1525.3403 17444.5918)" gradientUnits="userSpaceOnUse" x1="363.8437" x2="363.8437" xlink:href="#w" y1="-13.7437" y2="-12.7444"/><linearGradient id="G" gradientTransform="matrix(0 -67.1173 113.5972 0 1541.7416 24795.6152)" gradientUnits="userSpaceOnUse" x1="365.1621" x2="364.6403" xlink:href="#y" y1="-13.6698" y2="-12.7589"/><linearGradient id="H" gradientTransform="matrix(0 -61.9207 70.7499 0 1132.3903 22886.1797)" gradientUnits="userSpaceOnUse" x1="364.6814" x2="364.6814" xlink:href="#A" y1="-15.8671" y2="-14.8971"/><linearGradient id="I" gradientTransform="matrix(0 -57.8552 62.2747 0 1036.4445 21397.4121)" gradientUnits="userSpaceOnUse" x1="364.4964" x2="364.4964" xlink:href="#A" y1="-16.6512" y2="-15.6812"/><linearGradient id="J" gradientTransform="matrix(0 -47.9305 93.0684 0 1344.14 17747.7051)" gradientUnits="userSpaceOnUse" x1="363.9083" x2="363.9083" xlink:href="#D" y1="-14.4834" y2="-13.5771"/><linearGradient id="K" gradientTransform="matrix(0 -47.0471 111.9744 0 1511.7583 16152.998)" gradientUnits="userSpaceOnUse" x1="336.6796" x2="336.6796" xlink:href="#w" y1="-13.7439" y2="-12.7437"/><linearGradient id="L" gradientTransform="matrix(0 -67.1173 113.5972 0 1528.1595 22958.8223)" gradientUnits="userSpaceOnUse" x1="337.9967" x2="337.4749" xlink:href="#y" y1="-13.6703" y2="-12.7594"/><linearGradient id="M" gradientTransform="matrix(0 -61.9207 70.7499 0 1118.8082 21190.5508)" gradientUnits="userSpaceOnUse" x1="337.5172" x2="337.5172" xlink:href="#A" y1="-15.8673" y2="-14.8973"/><linearGradient id="N" gradientTransform="matrix(0 -57.8552 62.2747 0 1022.8624 19812.2188)" gradientUnits="userSpaceOnUse" x1="337.3322" x2="337.3322" xlink:href="#A" y1="-16.6515" y2="-15.6815"/><linearGradient id="O" gradientTransform="matrix(0 -47.9305 93.0684 0 1330.558 16432.1133)" gradientUnits="userSpaceOnUse" x1="336.7441" x2="336.7441" xlink:href="#D" y1="-14.4836" y2="-13.5773"/><linearGradient id="P" gradientTransform="matrix(0 -47.0471 111.9744 0 1498.1763 14861.4023)" gradientUnits="userSpaceOnUse" x1="309.5154" x2="309.5154" xlink:href="#w" y1="-13.7432" y2="-12.7438"/><linearGradient id="Q" gradientTransform="matrix(0 -67.1173 113.5972 0 1514.5775 21122.0293)" gradientUnits="userSpaceOnUse" x1="310.8327" x2="310.3108" xlink:href="#y" y1="-13.67" y2="-12.7591"/><linearGradient id="R" gradientTransform="matrix(0 -61.9207 70.7499 0 1105.2262 19494.9199)" gradientUnits="userSpaceOnUse" x1="310.3529" x2="310.3529" xlink:href="#A" y1="-15.8676" y2="-14.8976"/><linearGradient id="S" gradientTransform="matrix(0 -57.8552 62.2747 0 1009.2803 18227.0254)" gradientUnits="userSpaceOnUse" x1="310.1679" x2="310.1679" xlink:href="#A" y1="-16.6518" y2="-15.6818"/><linearGradient id="T" gradientTransform="matrix(0 -47.9305 93.0684 0 1316.976 15116.5215)" gradientUnits="userSpaceOnUse" x1="309.58" x2="309.58" xlink:href="#D" y1="-14.4838" y2="-13.5775"/><linearGradient id="U" gradientTransform="matrix(0 -47.0471 111.9744 0 1484.5942 13569.8076)" gradientUnits="userSpaceOnUse" x1="282.3513" x2="282.3513" xlink:href="#w" y1="-13.7433" y2="-12.744"/><linearGradient id="V" gradientTransform="matrix(0 -67.1173 113.5972 0 1500.9955 19285.2344)" gradientUnits="userSpaceOnUse" x1="283.6681" x2="283.1463" xlink:href="#y" y1="-13.67" y2="-12.7591"/><linearGradient id="W" gradientTransform="matrix(0 -61.9207 70.7499 0 1091.6403 17799.291)" gradientUnits="userSpaceOnUse" x1="283.1887" x2="283.1887" xlink:href="#A" y1="-15.8664" y2="-14.8964"/><linearGradient id="X" gradientTransform="matrix(0 -57.8552 62.2747 0 995.6983 16641.832)" gradientUnits="userSpaceOnUse" x1="283.0019" x2="283.0019" xlink:href="#A" y1="-16.6521" y2="-15.6821"/><linearGradient id="Y" gradientTransform="matrix(0 -47.9305 93.0684 0 1303.3939 13800.9307)" gradientUnits="userSpaceOnUse" x1="282.4158" x2="282.4158" xlink:href="#D" y1="-14.484" y2="-13.5777"/><linearGradient id="Z" gradientTransform="matrix(0 -47.0471 111.9744 0 1471.0122 12278.2129)" gradientUnits="userSpaceOnUse" x1="255.186" x2="255.186" xlink:href="#w" y1="-13.7435" y2="-12.7441"/><linearGradient id="aa" gradientTransform="matrix(0 -67.1173 113.5972 0 1487.4135 17448.4414)" gradientUnits="userSpaceOnUse" x1="256.5027" x2="255.9809" xlink:href="#y" y1="-13.6705" y2="-12.7596"/><linearGradient id="ab" gradientTransform="matrix(0 -61.9207 70.7499 0 1078.0582 16103.6602)" gradientUnits="userSpaceOnUse" x1="256.0244" x2="256.0244" xlink:href="#A" y1="-15.8666" y2="-14.8966"/><linearGradient id="ac" gradientTransform="matrix(0 -57.8552 62.2747 0 982.1163 15056.6396)" gradientUnits="userSpaceOnUse" x1="255.8377" x2="255.8377" xlink:href="#A" y1="-16.6508" y2="-15.6808"/><linearGradient id="ad" gradientTransform="matrix(0 -47.9305 93.0684 0 1289.8119 12485.3379)" gradientUnits="userSpaceOnUse" x1="255.2495" x2="255.2495" xlink:href="#D" y1="-14.4842" y2="-13.5779"/><linearGradient id="ae" gradientTransform="matrix(0 -47.0471 111.9744 0 1457.4302 10986.6182)" gradientUnits="userSpaceOnUse" x1="228.0219" x2="228.0219" xlink:href="#w" y1="-13.7436" y2="-12.7443"/><linearGradient id="af" gradientTransform="matrix(0 -67.1173 113.5972 0 1473.8314 15611.6484)" gradientUnits="userSpaceOnUse" x1="229.3383" x2="228.8164" xlink:href="#y" y1="-13.6704" y2="-12.7595"/><linearGradient id="ag" gradientTransform="matrix(0 -61.9207 70.7499 0 1064.4762 14408.0303)" gradientUnits="userSpaceOnUse" x1="228.8585" x2="228.8585" xlink:href="#A" y1="-15.8669" y2="-14.8969"/><linearGradient id="ah" gradientTransform="matrix(0 -57.8552 62.2747 0 968.5342 13471.4463)" gradientUnits="userSpaceOnUse" x1="228.6734" x2="228.6734" xlink:href="#A" y1="-16.6511" y2="-15.6811"/><linearGradient id="ai" gradientTransform="matrix(0 -47.9305 93.0684 0 1276.2299 11169.7461)" gradientUnits="userSpaceOnUse" x1="228.0854" x2="228.0854" xlink:href="#D" y1="-14.4843" y2="-13.5781"/><linearGradient id="aj" gradientTransform="matrix(0 -47.0471 111.9744 0 1443.8481 9695.0225)" gradientUnits="userSpaceOnUse" x1="200.8566" x2="200.8566" xlink:href="#w" y1="-13.7438" y2="-12.7436"/><linearGradient id="ak" gradientTransform="matrix(0 -67.1173 113.5972 0 1460.2494 13774.8535)" gradientUnits="userSpaceOnUse" x1="202.1739" x2="201.652" xlink:href="#y" y1="-13.6704" y2="-12.7594"/><linearGradient id="al" gradientTransform="matrix(0 -61.9207 70.7499 0 1050.8942 12712.3994)" gradientUnits="userSpaceOnUse" x1="201.6943" x2="201.6943" xlink:href="#A" y1="-15.8671" y2="-14.8971"/><linearGradient id="am" gradientTransform="matrix(0 -57.8552 62.2747 0 954.9522 11886.2539)" gradientUnits="userSpaceOnUse" x1="201.5092" x2="201.5092" xlink:href="#A" y1="-16.6513" y2="-15.6813"/><linearGradient id="an" gradientTransform="matrix(0 -47.9305 93.0684 0 1262.6478 9854.1543)" gradientUnits="userSpaceOnUse" x1="200.9212" x2="200.9212" xlink:href="#D" y1="-14.4835" y2="-13.5772"/><linearGradient id="ao" gradientTransform="matrix(0 -47.0471 111.9744 0 1430.2661 8403.4277)" gradientUnits="userSpaceOnUse" x1="173.6925" x2="173.6925" xlink:href="#w" y1="-13.744" y2="-12.7437"/><linearGradient id="ap" gradientTransform="matrix(0 -67.1173 113.5972 0 1446.6674 11938.0605)" gradientUnits="userSpaceOnUse" x1="175.0094" x2="174.4876" xlink:href="#y" y1="-13.6703" y2="-12.7594"/><linearGradient id="aq" gradientTransform="matrix(0 -61.9207 70.7499 0 1037.3121 11016.7705)" gradientUnits="userSpaceOnUse" x1="174.53" x2="174.53" xlink:href="#A" y1="-15.8674" y2="-14.8974"/><linearGradient id="ar" gradientTransform="matrix(0 -57.8552 62.2747 0 941.3682 10301.0615)" gradientUnits="userSpaceOnUse" x1="174.3449" x2="174.3449" xlink:href="#A" y1="-16.6516" y2="-15.6816"/><linearGradient id="as" gradientTransform="matrix(0 -47.9305 93.0684 0 1249.0658 8538.5625)" gradientUnits="userSpaceOnUse" x1="173.757" x2="173.757" xlink:href="#D" y1="-14.4837" y2="-13.5774"/><linearGradient id="at" gradientTransform="matrix(0 -47.0471 111.9744 0 1416.6841 7111.833)" gradientUnits="userSpaceOnUse" x1="146.5283" x2="146.5283" xlink:href="#w" y1="-13.7432" y2="-12.7439"/><linearGradient id="au" gradientTransform="matrix(0 -67.1173 113.5972 0 1433.0814 10101.2666)" gradientUnits="userSpaceOnUse" x1="147.8454" x2="147.3236" xlink:href="#y" y1="-13.67" y2="-12.7591"/><linearGradient id="av" gradientTransform="matrix(0 -61.9207 70.7499 0 1023.7301 9321.1396)" gradientUnits="userSpaceOnUse" x1="147.3657" x2="147.3657" xlink:href="#A" y1="-15.8662" y2="-14.8962"/><linearGradient id="aw" gradientTransform="matrix(0 -57.8552 62.2747 0 927.7862 8715.8682)" gradientUnits="userSpaceOnUse" x1="147.1807" x2="147.1807" xlink:href="#A" y1="-16.6519" y2="-15.6819"/><linearGradient id="ax" gradientTransform="matrix(0 -47.9305 93.0684 0 1235.4838 7222.9697)" gradientUnits="userSpaceOnUse" x1="146.5929" x2="146.5929" xlink:href="#D" y1="-14.4839" y2="-13.5776"/><linearGradient id="ay" gradientTransform="matrix(0 -47.0471 111.9744 0 1403.0981 5820.2383)" gradientUnits="userSpaceOnUse" x1="119.3642" x2="119.3642" xlink:href="#w" y1="-13.7433" y2="-12.744"/><linearGradient id="az" gradientTransform="matrix(0 -67.1173 113.5972 0 1419.4994 8264.4736)" gradientUnits="userSpaceOnUse" x1="120.681" x2="120.1591" xlink:href="#y" y1="-13.6699" y2="-12.759"/><linearGradient id="aA" gradientTransform="matrix(0 -61.9207 70.7499 0 1010.1481 7625.5103)" gradientUnits="userSpaceOnUse" x1="120.2015" x2="120.2015" xlink:href="#A" y1="-15.8665" y2="-14.8965"/><linearGradient id="aB" gradientTransform="matrix(0 -57.8552 62.2747 0 914.2042 7130.6758)" gradientUnits="userSpaceOnUse" x1="120.0147" x2="120.0147" xlink:href="#A" y1="-16.6522" y2="-15.6822"/><linearGradient id="aC" gradientTransform="matrix(0 -47.9305 93.0684 0 1221.9017 5907.3789)" gradientUnits="userSpaceOnUse" x1="119.4287" x2="119.4287" xlink:href="#D" y1="-14.484" y2="-13.5778"/><linearGradient id="aD" gradientTransform="matrix(0 -47.0471 111.9744 0 1389.5161 4528.6431)" gradientUnits="userSpaceOnUse" x1="92.199" x2="92.199" xlink:href="#w" y1="-13.7435" y2="-12.7442"/><linearGradient id="aE" gradientTransform="matrix(0 -67.1173 113.5972 0 1405.9174 6427.6797)" gradientUnits="userSpaceOnUse" x1="93.5155" x2="92.9936" xlink:href="#y" y1="-13.6705" y2="-12.7596"/><linearGradient id="aF" gradientTransform="matrix(0 -61.9207 70.7499 0 996.566 5929.8799)" gradientUnits="userSpaceOnUse" x1="93.0372" x2="93.0372" xlink:href="#A" y1="-15.8668" y2="-14.8967"/><linearGradient id="aG" gradientTransform="matrix(0 -57.8552 62.2747 0 900.6221 5545.4824)" gradientUnits="userSpaceOnUse" x1="92.8505" x2="92.8505" xlink:href="#A" y1="-16.6509" y2="-15.6809"/><linearGradient id="aH" gradientTransform="matrix(0 -47.9305 93.0684 0 1208.3197 4591.7866)" gradientUnits="userSpaceOnUse" x1="92.2625" x2="92.2625" xlink:href="#D" y1="-14.4842" y2="-13.578"/><linearGradient id="aI" gradientTransform="matrix(0 -47.0471 111.9744 0 1375.9341 3237.0479)" gradientUnits="userSpaceOnUse" x1="65.0337" x2="65.0337" xlink:href="#w" y1="-13.7437" y2="-12.7443"/><linearGradient id="aJ" gradientTransform="matrix(0 -67.1173 113.5972 0 1392.3353 4590.8853)" gradientUnits="userSpaceOnUse" x1="66.351" x2="65.8292" xlink:href="#y" y1="-13.6704" y2="-12.7595"/><linearGradient id="aK" gradientTransform="matrix(0 -61.9207 70.7499 0 982.984 4234.2495)" gradientUnits="userSpaceOnUse" x1="65.8713" x2="65.8713" xlink:href="#A" y1="-15.867" y2="-14.897"/><linearGradient id="aL" gradientTransform="matrix(0 -57.8552 62.2747 0 887.0401 3960.2896)" gradientUnits="userSpaceOnUse" x1="65.6862" x2="65.6862" xlink:href="#A" y1="-16.6511" y2="-15.6811"/><linearGradient id="aM" gradientTransform="matrix(0 -47.9305 93.0684 0 1194.7377 3276.1943)" gradientUnits="userSpaceOnUse" x1="65.0983" x2="65.0983" xlink:href="#D" y1="-14.4844" y2="-13.5781"/><linearGradient id="aN" gradientTransform="matrix(0 -47.0471 111.9744 0 1362.3521 1945.4526)" gradientUnits="userSpaceOnUse" x1="37.8696" x2="37.8696" xlink:href="#w" y1="-13.7438" y2="-12.7436"/><linearGradient id="aO" gradientTransform="matrix(0 -67.1173 113.5972 0 1378.7533 2754.0913)" gradientUnits="userSpaceOnUse" x1="39.1865" x2="38.6646" xlink:href="#y" y1="-13.6704" y2="-12.7595"/><linearGradient id="aP" gradientTransform="matrix(0 -61.9207 70.7499 0 969.402 2538.6191)" gradientUnits="userSpaceOnUse" x1="38.7071" x2="38.7071" xlink:href="#A" y1="-15.8673" y2="-14.8973"/><linearGradient id="aQ" gradientTransform="matrix(0 -57.8552 62.2747 0 873.4581 2375.0962)" gradientUnits="userSpaceOnUse" x1="38.522" x2="38.522" xlink:href="#A" y1="-16.6514" y2="-15.6814"/><linearGradient id="aR" gradientTransform="matrix(0 -47.9305 93.0684 0 1181.1556 1960.6019)" gradientUnits="userSpaceOnUse" x1="37.9341" x2="37.9341" xlink:href="#D" y1="-14.4835" y2="-13.5773"/><linearGradient id="aS" gradientTransform="matrix(0 -47.0471 111.9744 0 1348.77 653.8575)" gradientUnits="userSpaceOnUse" x1="10.7054" x2="10.7054" xlink:href="#w" y1="-13.744" y2="-12.7438"/><linearGradient id="aT" gradientTransform="matrix(0 -67.1173 113.5972 0 1365.1713 917.2974)" gradientUnits="userSpaceOnUse" x1="12.0222" x2="11.5003" xlink:href="#y" y1="-13.6703" y2="-12.7594"/><linearGradient id="aU" gradientTransform="matrix(0 -61.9207 70.7499 0 955.8199 842.9886)" gradientUnits="userSpaceOnUse" x1="11.5428" x2="11.5428" xlink:href="#A" y1="-15.8675" y2="-14.8975"/><linearGradient id="aV" gradientTransform="matrix(0 -57.8552 62.2747 0 859.876 789.903)" gradientUnits="userSpaceOnUse" x1="11.3577" x2="11.3577" xlink:href="#A" y1="-16.6517" y2="-15.6817"/><linearGradient id="aW" gradientTransform="matrix(0 -47.9305 93.0684 0 1167.5697 645.0098)" gradientUnits="userSpaceOnUse" x1="10.77" x2="10.77" xlink:href="#D" y1="-14.4837" y2="-13.5774"/><linearGradient id="aX" gradientTransform="matrix(0 -47.0471 111.9744 0 1335.188 -637.7361)" gradientUnits="userSpaceOnUse" x1="-16.4587" x2="-16.4587" xlink:href="#w" y1="-13.7433" y2="-12.7439"/><linearGradient id="aY" gradientTransform="matrix(0 -67.1173 113.5972 0 1351.5892 -919.4946)" gradientUnits="userSpaceOnUse" x1="-15.1418" x2="-15.6636" xlink:href="#y" y1="-13.67" y2="-12.7591"/><linearGradient id="aZ" gradientTransform="matrix(0 -61.9207 70.7499 0 942.2379 -852.6398)" gradientUnits="userSpaceOnUse" x1="-15.6214" x2="-15.6214" xlink:href="#A" y1="-15.8664" y2="-14.8964"/><linearGradient id="a0" gradientTransform="matrix(0 -57.8552 62.2747 0 846.294 -795.2885)" gradientUnits="userSpaceOnUse" x1="-15.8082" x2="-15.8082" xlink:href="#A" y1="-16.652" y2="-15.682"/><linearGradient id="a1" gradientTransform="matrix(0 -47.9305 93.0684 0 1153.9877 -670.5809)" gradientUnits="userSpaceOnUse" x1="-16.3942" x2="-16.3942" xlink:href="#D" y1="-14.4839" y2="-13.5776"/><linearGradient id="a2" gradientTransform="matrix(0 -47.0471 111.9744 0 1321.606 -1929.3313)" gradientUnits="userSpaceOnUse" x1="-43.624" x2="-43.624" xlink:href="#w" y1="-13.7434" y2="-12.7441"/><linearGradient id="a3" gradientTransform="matrix(0 -67.1173 113.5972 0 1338.0072 -2756.2886)" gradientUnits="userSpaceOnUse" x1="-42.3063" x2="-42.8281" xlink:href="#y" y1="-13.6699" y2="-12.759"/><linearGradient id="a4" gradientTransform="matrix(0 -61.9207 70.7499 0 928.6559 -2548.27)" gradientUnits="userSpaceOnUse" x1="-42.7857" x2="-42.7857" xlink:href="#A" y1="-15.8666" y2="-14.8966"/><linearGradient id="a5" gradientTransform="matrix(0 -57.8552 62.2747 0 832.71 -2380.4817)" gradientUnits="userSpaceOnUse" x1="-42.9725" x2="-42.9725" xlink:href="#A" y1="-16.6523" y2="-15.6823"/><linearGradient id="a6" gradientTransform="matrix(0 -47.9305 93.0684 0 1140.4056 -1986.1731)" gradientUnits="userSpaceOnUse" x1="-43.5583" x2="-43.5583" xlink:href="#D" y1="-14.4841" y2="-13.5778"/><linearGradient id="a7" gradientTransform="matrix(0 -47.0471 111.9744 0 1308.0239 -3220.9268)" gradientUnits="userSpaceOnUse" x1="-70.7881" x2="-70.7881" xlink:href="#w" y1="-13.7436" y2="-12.7442"/><linearGradient id="a8" gradientTransform="matrix(0 -67.1173 113.5972 0 1324.4252 -4593.083)" gradientUnits="userSpaceOnUse" x1="-69.4718" x2="-69.9937" xlink:href="#y" y1="-13.6705" y2="-12.7596"/><linearGradient id="a9" gradientTransform="matrix(0 -61.9207 70.7499 0 915.0739 -4243.9004)" gradientUnits="userSpaceOnUse" x1="-69.95" x2="-69.95" xlink:href="#A" y1="-15.8669" y2="-14.8969"/><linearGradient id="ba" gradientTransform="matrix(0 -57.8552 62.2747 0 819.128 -3965.6748)" gradientUnits="userSpaceOnUse" x1="-70.1367" x2="-70.1367" xlink:href="#A" y1="-16.651" y2="-15.681"/><linearGradient id="bb" gradientTransform="matrix(0 -47.9305 93.0684 0 1126.8236 -3301.7654)" gradientUnits="userSpaceOnUse" x1="-70.7246" x2="-70.7246" xlink:href="#D" y1="-14.4843" y2="-13.578"/><linearGradient id="bc" gradientTransform="matrix(0 -47.0471 111.9744 0 1294.4419 -4512.522)" gradientUnits="userSpaceOnUse" x1="-97.9523" x2="-97.9523" xlink:href="#w" y1="-13.7437" y2="-12.7444"/><linearGradient id="bd" gradientTransform="matrix(0 -67.1173 113.5972 0 1310.8431 -6429.877)" gradientUnits="userSpaceOnUse" x1="-96.6362" x2="-97.1581" xlink:href="#y" y1="-13.6704" y2="-12.7595"/><linearGradient id="be" gradientTransform="matrix(0 -61.9207 70.7499 0 901.4918 -5939.5308)" gradientUnits="userSpaceOnUse" x1="-97.1158" x2="-97.1158" xlink:href="#A" y1="-15.8671" y2="-14.8971"/><linearGradient id="bf" gradientTransform="matrix(0 -57.8552 62.2747 0 805.546 -5550.8682)" gradientUnits="userSpaceOnUse" x1="-97.301" x2="-97.301" xlink:href="#A" y1="-16.6512" y2="-15.6812"/><linearGradient id="bg" gradientTransform="matrix(0 -47.9305 93.0684 0 1113.2416 -4617.3574)" gradientUnits="userSpaceOnUse" x1="-97.8888" x2="-97.8888" xlink:href="#D" y1="-14.4834" y2="-13.5771"/><linearGradient id="bh" gradientTransform="matrix(0 -47.0471 111.9744 0 1280.7427 -5815.4014)" gradientUnits="userSpaceOnUse" x1="-125.3553" x2="-125.3553" xlink:href="#w" y1="-13.7437" y2="-12.7444"/><linearGradient id="bi" gradientTransform="matrix(0 -67.1173 113.5972 0 1297.14 -8282.7188)" gradientUnits="userSpaceOnUse" x1="-124.0381" x2="-124.56" xlink:href="#y" y1="-13.6704" y2="-12.7595"/><linearGradient id="bj" gradientTransform="matrix(0 -61.9207 70.7499 0 887.7887 -7649.9756)" gradientUnits="userSpaceOnUse" x1="-124.5177" x2="-124.5177" xlink:href="#A" y1="-15.8671" y2="-14.8971"/><linearGradient id="bk" gradientTransform="matrix(0 -57.8552 62.2747 0 791.8448 -7149.9111)" gradientUnits="userSpaceOnUse" x1="-124.7029" x2="-124.7029" xlink:href="#A" y1="-16.6512" y2="-15.6812"/><linearGradient id="bl" gradientTransform="matrix(0 -47.9305 93.0684 0 1099.5424 -5944.4438)" gradientUnits="userSpaceOnUse" x1="-125.2907" x2="-125.2907" xlink:href="#D" y1="-14.4834" y2="-13.5771"/><linearGradient id="bm" gradientTransform="matrix(0 -47.0471 111.9744 0 1267.1567 -7106.9971)" gradientUnits="userSpaceOnUse" x1="-152.5194" x2="-152.5194" xlink:href="#w" y1="-13.7439" y2="-12.7436"/><linearGradient id="bn" gradientTransform="matrix(0 -67.1173 113.5972 0 1283.558 -10119.5127)" gradientUnits="userSpaceOnUse" x1="-151.2025" x2="-151.7244" xlink:href="#y" y1="-13.6703" y2="-12.7594"/><linearGradient id="bo" gradientTransform="matrix(0 -61.9207 70.7499 0 874.2067 -9345.6064)" gradientUnits="userSpaceOnUse" x1="-151.682" x2="-151.682" xlink:href="#A" y1="-15.8673" y2="-14.8973"/><linearGradient id="bp" gradientTransform="matrix(0 -57.8552 62.2747 0 778.2628 -8735.1045)" gradientUnits="userSpaceOnUse" x1="-151.8671" x2="-151.8671" xlink:href="#A" y1="-16.6515" y2="-15.6815"/><linearGradient id="bq" gradientTransform="matrix(0 -47.9305 93.0684 0 1085.9603 -7260.0361)" gradientUnits="userSpaceOnUse" x1="-152.4548" x2="-152.4548" xlink:href="#D" y1="-14.4836" y2="-13.5773"/><linearGradient id="br" gradientTransform="matrix(0 -47.0471 111.9744 0 1538.9224 18450.8418)" gradientUnits="userSpaceOnUse" x1="391.008" x2="391.008" xlink:href="#w" y1="-13.7436" y2="-12.7442"/><linearGradient id="bs" gradientTransform="matrix(0 -67.1173 113.5972 0 1555.3236 26347.0625)" gradientUnits="userSpaceOnUse" x1="392.3262" x2="391.8043" xlink:href="#y" y1="-13.6701" y2="-12.7592"/><linearGradient id="bt" gradientTransform="matrix(0 -61.9207 70.7499 0 1145.9723 24296.4629)" gradientUnits="userSpaceOnUse" x1="391.8466" x2="391.8466" xlink:href="#A" y1="-15.8668" y2="-14.8968"/><linearGradient id="bu" gradientTransform="matrix(0 -57.8552 62.2747 0 1050.0265 22697.2578)" gradientUnits="userSpaceOnUse" x1="391.6616" x2="391.6616" xlink:href="#A" y1="-16.6509" y2="-15.6809"/><linearGradient id="bv" gradientTransform="matrix(0 -47.9305 93.0684 0 1357.722 18777.9512)" gradientUnits="userSpaceOnUse" x1="391.0735" x2="391.0735" xlink:href="#D" y1="-14.4843" y2="-13.578"/><linearGradient id="bw" gradientTransform="matrix(0 -47.9305 93.0684 0 1357.722 18777.9512)" gradientUnits="userSpaceOnUse" x1="391.0735" x2="391.0735" xlink:href="#D" y1="-14.4843" y2="-13.5779"/><path d="m0 330v-9.6c.5-18.1 25.8-32.8 56.8-32.8 31.4 0 56.8 14.9 56.8 33.3 0 .6 0 1.3-.1 1.9v5.8c.1.6.1 1.3.1 1.9 0 18.4-25.4 33.3-56.8 33.3s-56.8-14.8-56.8-33.2c0-.2 0-.4 0-.6z" fill="#986e33"/><path d="m0 330v-9.6c0-1.2.2-2.4.4-3.6h2.8v24.9c-2.1-3.5-3.2-7.2-3.2-11.1 0-.2 0-.4 0-.6zm6.5 16v-22.7h3.2v25.9c-1.1-1-2.2-2.1-3.2-3.2zm6.5 5.8v-25.2h3.2v27.3c-1.1-.7-2.2-1.4-3.2-2.1zm6.5 3.9v-25.9h3.2v27.4c-1.1-.5-2.2-1-3.2-1.5zm6.5 2.9v-23.9h3.2v25c-1.1-.4-2.2-.7-3.2-1.1zm6.5 2.1v-26h3.2v26.8c-1.1-.2-2.2-.5-3.2-.8zm6.4 1.5v-27.5h3.2v27.6h-2.9s-.1-.1-.3-.1zm6.5 1v-26.9h3.2v27.2c-1 0-2.1-.2-3.2-.3zm6.5.6v-27.5h3.2v27.6c-1 0-2.1-.1-3.2-.1zm6.5.1v-27.6h3.2v27.5c-1 0-2.1.1-3.2.1zm6.5-.4v-27.2h3.2v26.9c-1 .1-2.1.3-3.2.3zm6.5-.7v-26.5h3.2v25.9c-1 .2-2.1.4-3.2.6zm6.5-1.3v-25.2h3.2v24.4c-1 .3-2.1.6-3.2.8zm6.5-1.8v-23.4h3.2v22.2c-1 .5-2.1.8-3.2 1.2zm6.5-2.5v-20.9h3.2v19.4c-1 .5-2.1 1-3.2 1.5zm6.5-3.3v-20.8h3.2v18.7c-1 .7-2.1 1.4-3.2 2.1zm6.5-4.7v-22.7h3.2v19.5c-1 1.1-2.1 2.2-3.2 3.2zm4.8-5.1v-22.4h3.2v16.8c-.7 1.9-1.8 3.8-3.2 5.6z" fill="url(#x)"/><path d="m0 319c0 18.5 25.4 33.6 56.8 33.6s56.8-15 56.8-33.6-25.4-33.6-56.8-33.6c-31.3 0-56.7 15-56.8 33.6z" fill="url(#z)"/><path d="m23.4 291.8c4.2-1.8 8.9-3.3 14-4.4l56.8 56.8c-4 2-8.4 3.8-13.2 5.1z" fill="url(#B)" fill-opacity=".5"/><path d="m13.1 297.6c1.7-1.2 3.6-2.4 5.7-3.5l56.6 56.6c-2.6.5-5.2.9-7.9 1.2z" fill="url(#C)" fill-opacity=".5"/><g filter="url(#a)"><path d="m9.7 319c0-13.7 21-23.9 46.5-24 25.5 0 46.5 10.3 46.5 24s-21 24-46.5 24-46.5-10.3-46.5-24zm46.6 19.1c23.2 0 41.7-9 41.7-19.1s-18.5-19.1-41.7-19.1-41.6 9-41.7 19.1c0 10 18.5 19.1 41.7 19.1zm10.3-31.8c7.8 0 14.5 4.2 15.9 9.9h3.6c1.5 0 2.8.9 2.8 2.2s-1.3 2.2-2.8 2.2h-3.6c-1.4 5.7-8.1 9.9-15.9 9.9-1.5 0-2.8-.9-2.8-2.2s1.3-2.2 2.8-2.2c4.8 0 8.9-2.3 10.2-5.4h-21.5c-1.7 4.8-5.7 7.9-12.5 7.9-6.2-.1-11.5-3.4-12.8-7.9h-3.7c-1.5 0-2.8-.9-2.8-2.2s1.3-2.2 2.8-2.2h3.7c1.3-4.6 6.6-7.9 12.8-7.9 1.5 0 2.8.9 2.8 2.2s-1.3 2.2-2.7 2.2c-3.2 0-5.9 1.5-7 3.5h15.2c2-5.9 7.9-10 15.5-10zm-24.4 17.7c3.3 0 5.4-1.1 6.7-3.5h-13.7c1.2 2 3.9 3.4 7 3.5zm34.5-7.9c-1.4-3.2-5.5-5.4-10.2-5.4-4.5 0-8 2.2-9.8 5.4z"/></g><path d="m9.7 319c0-13.7 21-23.9 46.5-24 25.5 0 46.5 10.3 46.5 24s-21 24-46.5 24-46.5-10.3-46.5-24zm46.6 19.1c23.2 0 41.7-9 41.7-19.1s-18.5-19.1-41.7-19.1-41.6 9-41.7 19.1c0 10 18.5 19.1 41.7 19.1zm10.3-31.8c7.8 0 14.5 4.2 15.9 9.9h3.6c1.5 0 2.8.9 2.8 2.2s-1.3 2.2-2.8 2.2h-3.6c-1.4 5.7-8.1 9.9-15.9 9.9-1.5 0-2.8-.9-2.8-2.2s1.3-2.2 2.8-2.2c4.8 0 8.9-2.3 10.2-5.4h-21.5c-1.7 4.8-5.7 7.9-12.5 7.9-6.2-.1-11.5-3.4-12.8-7.9h-3.7c-1.5 0-2.8-.9-2.8-2.2s1.3-2.2 2.8-2.2h3.7c1.3-4.6 6.6-7.9 12.8-7.9 1.5 0 2.8.9 2.8 2.2s-1.3 2.2-2.7 2.2c-3.2 0-5.9 1.5-7 3.5h15.2c2-5.9 7.9-10 15.5-10zm-24.4 17.7c3.3 0 5.4-1.1 6.7-3.5h-13.7c1.2 2 3.9 3.4 7 3.5zm34.5-7.9c-1.4-3.2-5.5-5.4-10.2-5.4-4.5 0-8 2.2-9.8 5.4z" fill="url(#E)"/><g transform="translate(13.582273)"><path d="m-13.6 316.5v-9.6c.5-18.1 25.8-32.8 56.8-32.8 31.4 0 56.8 14.9 56.8 33.3 0 .6 0 1.3-.1 1.9v5.8c.1.6.1 1.3.1 1.9 0 18.4-25.4 33.3-56.8 33.3s-56.8-14.9-56.8-33.3c0-.2 0-.4 0-.5z" fill="#986e33"/><path d="m-13.6 316.5v-9.6c0-1.2.2-2.4.4-3.6h2.8v24.9c-2.1-3.5-3.2-7.2-3.2-11.1 0-.3 0-.5 0-.6zm6.5 16v-22.7h3.2v25.9c-1.1-1.1-2.2-2.1-3.2-3.2zm6.5 5.7v-25.2h3.2v27.3c-1.1-.7-2.2-1.4-3.2-2.1zm6.5 3.9v-25.9h3.2v27.4c-1.1-.5-2.2-1-3.2-1.5zm6.5 2.9v-23.9h3.2v25c-1.1-.3-2.2-.7-3.2-1.1zm6.5 2.1v-26h3.2v26.8c-1.1-.2-2.2-.5-3.2-.8zm6.5 1.5v-27.5h3.2v27.6h-2.9c-.1 0-.2-.1-.3-.1zm6.5 1v-26.9h3.2v27.2c-1.1 0-2.2-.1-3.2-.3zm6.4.6v-27.5h3.2v27.6c-1 0-2.1-.1-3.2-.1zm6.5.1v-27.6h3.2v27.5c-1 0-2.1.1-3.2.1zm6.5-.3v-27.2h3.2v26.9c-1 .1-2.1.2-3.2.3zm6.5-.8v-26.5h3.2v25.9c-1 .2-2.1.4-3.2.6zm6.5-1.3v-25.2h3.2v24.4c-1 .3-2.1.6-3.2.8zm6.5-1.8v-23.4h3.2v22.2c-1 .5-2.1.9-3.2 1.2zm6.5-2.5v-20.9h3.2v19.4c-1 .5-2.1 1-3.2 1.5zm6.5-3.3v-20.8h3.2v18.7c-1 .7-2.1 1.4-3.2 2.1zm6.5-4.7v-22.7h3.2v19.5c-1 1.2-2 2.2-3.2 3.2zm4.8-5.1v-22.4h3.2v16.8c-.7 2-1.8 3.8-3.2 5.6z" fill="url(#F)"/><path d="m-13.6 305.4c0 18.5 25.4 33.5 56.8 33.5s56.8-15 56.8-33.6-25.4-33.6-56.8-33.6c-31.3.2-56.7 15.2-56.8 33.7z" fill="url(#G)"/><path d="m9.8 278.3c4.2-1.8 8.9-3.3 14-4.4l56.8 56.8c-4 2-8.4 3.8-13.2 5.1z" fill="url(#H)" fill-opacity=".5"/><path d="m-.5 284c1.7-1.2 3.6-2.4 5.7-3.5l56.6 56.6c-2.6.5-5.2.9-7.9 1.2z" fill="url(#I)" fill-opacity=".5"/><g filter="url(#b)"><path d="m-3.8 305.4c0-13.7 21-23.9 46.5-24 25.5 0 46.5 10.3 46.5 24s-21 24-46.5 24-46.5-10.3-46.5-24zm46.5 19.1c23.2 0 41.7-9 41.7-19.1s-18.5-19.1-41.7-19.1-41.6 9-41.7 19.1c0 10.1 18.5 19.1 41.7 19.1zm10.3-31.8c7.8 0 14.5 4.2 15.9 9.9h3.6c1.5 0 2.8.9 2.8 2.2s-1.3 2.2-2.8 2.2h-3.6c-1.4 5.7-8.1 9.9-15.9 9.9-1.5 0-2.8-.9-2.8-2.2s1.3-2.2 2.8-2.2c4.8 0 8.9-2.3 10.2-5.4h-21.5c-1.7 4.8-5.7 7.9-12.5 7.9-6.2-.1-11.5-3.4-12.8-7.9h-3.7c-1.5 0-2.8-.9-2.8-2.2s1.3-2.2 2.8-2.2h3.7c1.3-4.6 6.6-7.9 12.8-7.9 1.5 0 2.8.9 2.8 2.2s-1.3 2.2-2.7 2.2c-3.2 0-5.9 1.5-7 3.5h15.2c2-5.9 7.9-10 15.5-10zm-24.3 17.7c3.3 0 5.4-1.1 6.7-3.5h-13.7c1.1 2 3.8 3.5 7 3.5zm34.4-7.9c-1.4-3.2-5.5-5.4-10.2-5.4-4.5 0-8 2.2-9.8 5.4z"/></g><path d="m-3.8 305.4c0-13.7 21-23.9 46.5-24 25.5 0 46.5 10.3 46.5 24s-21 24-46.5 24-46.5-10.3-46.5-24zm46.5 19.1c23.2 0 41.7-9 41.7-19.1s-18.5-19.1-41.7-19.1-41.6 9-41.7 19.1c0 10.1 18.5 19.1 41.7 19.1zm10.3-31.8c7.8 0 14.5 4.2 15.9 9.9h3.6c1.5 0 2.8.9 2.8 2.2s-1.3 2.2-2.8 2.2h-3.6c-1.4 5.7-8.1 9.9-15.9 9.9-1.5 0-2.8-.9-2.8-2.2s1.3-2.2 2.8-2.2c4.8 0 8.9-2.3 10.2-5.4h-21.5c-1.7 4.8-5.7 7.9-12.5 7.9-6.2-.1-11.5-3.4-12.8-7.9h-3.7c-1.5 0-2.8-.9-2.8-2.2s1.3-2.2 2.8-2.2h3.7c1.3-4.6 6.6-7.9 12.8-7.9 1.5 0 2.8.9 2.8 2.2s-1.3 2.2-2.7 2.2c-3.2 0-5.9 1.5-7 3.5h15.2c2-5.9 7.9-10 15.5-10zm-24.3 17.7c3.3 0 5.4-1.1 6.7-3.5h-13.7c1.1 2 3.8 3.5 7 3.5zm34.4-7.9c-1.4-3.2-5.5-5.4-10.2-5.4-4.5 0-8 2.2-9.8 5.4z" fill="url(#J)"/></g><g transform="translate(27.164546)"><path d="m-27.2 302.9v-9.6c.5-18.1 25.8-32.8 56.8-32.8 31.4 0 56.8 14.9 56.8 33.3 0 .6 0 1.3-.1 1.9v5.8c.1.6.1 1.3.1 1.9 0 18.4-25.4 33.3-56.8 33.3s-56.8-14.9-56.8-33.3c0-.2 0-.4 0-.5z" fill="#986e33"/><path d="m-27.2 302.9v-9.6c0-1.2.2-2.4.4-3.6h2.8v24.9c-2.1-3.5-3.2-7.2-3.2-11.1 0-.3 0-.5 0-.6zm6.5 16v-22.7h3.2v25.9c-1.1-1.1-2.2-2.1-3.2-3.2zm6.5 5.7v-25.2h3.2v27.3c-1.1-.7-2.2-1.4-3.2-2.1zm6.5 3.9v-25.9h3.2v27.4c-1.1-.4-2.1-.9-3.2-1.5zm6.5 2.9v-23.9h3.2v25c-1.1-.3-2.1-.7-3.2-1.1zm6.5 2.1v-26h3.2v26.8c-1.1-.2-2.1-.5-3.2-.8zm6.5 1.5v-27.5h3.2v27.6h-2.9c-.1 0-.2 0-.3-.1zm6.5 1.1v-26.9h3.2v27.2c-1.1-.1-2.2-.2-3.2-.3zm6.5.5v-27.5h3.2v27.6c-1.1 0-2.2 0-3.2-.1zm6.5.1v-27.6h3.2v27.5c-1.1.1-2.2.1-3.2.1zm6.4-.3v-27.2h3.3v26.9c-1.1.1-2.2.2-3.3.3zm6.5-.8v-26.5h3.2v25.9c-1 .2-2.1.4-3.2.6zm6.5-1.3v-25.2h3.3v24.4c-1.1.3-2.2.6-3.3.8zm6.5-1.8v-23.4h3.2v22.2c-1 .5-2.1.9-3.2 1.2zm6.5-2.4v-20.9h3.3v19.4c-1.1.5-2.2 1-3.3 1.5zm6.5-3.4v-20.8h3.2v18.7c-1 .7-2.1 1.4-3.2 2.1zm6.5-4.6v-22.7h3.2v19.5c-.9 1.1-2 2.1-3.2 3.2zm4.9-5.2v-22.4h3.2v16.8c-.8 2-1.9 3.8-3.2 5.6z" fill="url(#K)"/><path d="m-27.2 291.8c0 18.5 25.4 33.6 56.8 33.6s56.8-15 56.8-33.6-25.4-33.6-56.8-33.6c-31.3.1-56.7 15.1-56.8 33.6z" fill="url(#L)"/><path d="m-3.8 264.7c4.2-1.8 8.9-3.3 14-4.4l56.8 56.8c-4 2-8.4 3.8-13.2 5.1z" fill="url(#M)" fill-opacity=".5"/><path d="m-14.1 270.4c1.7-1.2 3.6-2.4 5.7-3.5l56.6 56.6c-2.6.5-5.2.9-7.9 1.2z" fill="url(#N)" fill-opacity=".5"/><g filter="url(#c)"><path d="m-17.4 291.8c0-13.7 21-23.9 46.5-24 25.5 0 46.5 10.3 46.5 24s-21 24-46.5 24-46.5-10.3-46.5-24zm46.5 19.1c23.2 0 41.7-9 41.7-19.1s-18.5-19.1-41.7-19.1-41.6 9-41.7 19.1c0 10.1 18.5 19.1 41.7 19.1zm10.3-31.8c7.8 0 14.5 4.2 15.9 9.9h3.7c1.5 0 2.8.9 2.8 2.2s-1.3 2.2-2.8 2.2h-3.6c-1.4 5.7-8.1 9.9-15.9 9.9-1.5 0-2.8-.9-2.8-2.2s1.3-2.2 2.8-2.2c4.8 0 8.9-2.3 10.2-5.4h-21.6c-1.7 4.8-5.7 7.9-12.5 7.9-6.2-.1-11.5-3.4-12.8-7.9h-3.7c-1.5 0-2.8-.9-2.8-2.2s1.3-2.2 2.8-2.2h3.7c1.3-4.6 6.6-7.9 12.8-7.9 1.5 0 2.8.9 2.8 2.2s-1.3 2.2-2.7 2.2c-3.2 0-5.9 1.5-7 3.5h15.2c2.1-5.9 7.9-10 15.5-10zm-24.3 17.7c3.3 0 5.4-1.1 6.7-3.5h-13.7c1.1 2.1 3.8 3.5 7 3.5zm34.4-7.8c-1.4-3.2-5.5-5.4-10.2-5.4-4.5 0-8 2.2-9.8 5.4z"/></g><path d="m-17.4 291.8c0-13.7 21-23.9 46.5-24 25.5 0 46.5 10.3 46.5 24s-21 24-46.5 24-46.5-10.3-46.5-24zm46.5 19.1c23.2 0 41.7-9 41.7-19.1s-18.5-19.1-41.7-19.1-41.6 9-41.7 19.1c0 10.1 18.5 19.1 41.7 19.1zm10.3-31.8c7.8 0 14.5 4.2 15.9 9.9h3.7c1.5 0 2.8.9 2.8 2.2s-1.3 2.2-2.8 2.2h-3.6c-1.4 5.7-8.1 9.9-15.9 9.9-1.5 0-2.8-.9-2.8-2.2s1.3-2.2 2.8-2.2c4.8 0 8.9-2.3 10.2-5.4h-21.6c-1.7 4.8-5.7 7.9-12.5 7.9-6.2-.1-11.5-3.4-12.8-7.9h-3.7c-1.5 0-2.8-.9-2.8-2.2s1.3-2.2 2.8-2.2h3.7c1.3-4.6 6.6-7.9 12.8-7.9 1.5 0 2.8.9 2.8 2.2s-1.3 2.2-2.7 2.2c-3.2 0-5.9 1.5-7 3.5h15.2c2.1-5.9 7.9-10 15.5-10zm-24.3 17.7c3.3 0 5.4-1.1 6.7-3.5h-13.7c1.1 2.1 3.8 3.5 7 3.5zm34.4-7.8c-1.4-3.2-5.5-5.4-10.2-5.4-4.5 0-8 2.2-9.8 5.4z" fill="url(#O)"/></g><g transform="translate(40.746818)"><path d="m-40.7 289.3v-9.6c.5-18.1 25.8-32.8 56.8-32.8 31.4 0 56.8 14.9 56.8 33.3 0 .6 0 1.3-.1 1.9v5.8c.1.6.1 1.3.1 1.9 0 18.4-25.4 33.3-56.8 33.3s-56.8-14.9-56.8-33.3c0-.2 0-.3 0-.5z" fill="#986e33"/><path d="m-40.7 289.3v-9.6c0-1.2.2-2.4.4-3.6h2.8v24.8c-2.1-3.5-3.2-7.2-3.2-11.1 0-.2 0-.3 0-.5zm6.4 16v-22.7h3.2v25.9c-1.1-1-2.2-2.1-3.2-3.2zm6.5 5.7v-25.2h3.2v27.3c-1.1-.6-2.1-1.3-3.2-2.1zm6.5 3.9v-25.9h3.3v27.4c-1.1-.4-2.2-.9-3.3-1.5zm6.5 2.9v-23.9h3.2v25c-1-.3-2.1-.7-3.2-1.1zm6.5 2.1v-26h3.3v26.8c-1.1-.2-2.2-.5-3.3-.8zm6.5 1.6v-27.6h3.2v27.6h-2.9c-.1 0-.2 0-.3 0zm6.5 1v-26.9h3.2v27.2c-1.1-.1-2.1-.2-3.2-.3zm6.5.5v-27.5h3.2v27.6c-1.1 0-2.1 0-3.2-.1zm6.5.1v-27.6h3.2v27.5c-1.1.1-2.1.1-3.2.1zm6.5-.3v-27.2h3.2v26.9c-1.1.1-2.1.2-3.2.3zm6.5-.8v-26.5h3.2v25.9c-1.1.3-2.1.5-3.2.6zm6.4-1.2v-25.2h3.2v24.3c-1 .3-2.1.6-3.2.9zm6.5-1.8v-23.4h3.2v22.2c-1 .4-2.1.8-3.2 1.2zm6.5-2.5v-20.9h3.2v19.3c-1 .6-2.1 1.1-3.2 1.6zm6.5-3.4v-20.8h3.2v18.7c-1 .8-2 1.5-3.2 2.1zm6.5-4.6v-22.7h3.2v19.5c-.9 1.1-2 2.2-3.2 3.2zm4.9-5.2v-22.4h3.2v16.8c-.8 2-1.9 3.9-3.2 5.6z" fill="url(#P)"/><path d="m-40.7 278.2c0 18.5 25.4 33.6 56.8 33.6s56.8-15 56.8-33.6-25.4-33.6-56.8-33.6c-31.4.1-56.8 15.1-56.8 33.6z" fill="url(#Q)"/><path d="m-17.4 251.1c4.2-1.8 8.9-3.3 14-4.4l56.8 56.8c-4 2-8.4 3.8-13.2 5.1z" fill="url(#R)" fill-opacity=".5"/><path d="m-27.7 256.8c1.7-1.2 3.6-2.4 5.7-3.5l56.6 56.6c-2.6.5-5.2.9-7.9 1.2z" fill="url(#S)" fill-opacity=".5"/><g filter="url(#d)"><path d="m-31 278.2c0-13.7 21-23.9 46.5-24 25.5 0 46.5 10.3 46.5 24s-21 24-46.5 24-46.5-10.3-46.5-24zm46.5 19.1c23.2 0 41.7-9 41.7-19.1s-18.5-19.1-41.7-19.1-41.6 9-41.7 19.1c.1 10.1 18.5 19.1 41.7 19.1zm10.3-31.8c7.8 0 14.5 4.2 15.9 9.9h3.6c1.5 0 2.8.9 2.8 2.2s-1.3 2.2-2.8 2.2h-3.6c-1.4 5.7-8.1 9.9-15.9 9.9-1.5 0-2.8-.9-2.8-2.2s1.3-2.2 2.8-2.2c4.8 0 8.9-2.3 10.2-5.4h-21.5c-1.7 4.8-5.7 7.9-12.5 7.9-6.2-.1-11.5-3.4-12.8-7.9h-3.7c-1.5 0-2.8-.9-2.8-2.2s1.3-2.2 2.8-2.2h3.7c1.3-4.6 6.6-7.9 12.8-7.9 1.5 0 2.8.9 2.8 2.2s-1.3 2.2-2.7 2.2c-3.2 0-5.9 1.5-7 3.5h15.2c2.1-5.8 7.9-10 15.5-10zm-24.3 17.7c3.3 0 5.4-1.1 6.7-3.5h-13.7c1.1 2.1 3.9 3.5 7 3.5zm34.4-7.8c-1.4-3.2-5.5-5.4-10.2-5.4-4.5 0-8 2.2-9.8 5.4z"/></g><path d="m-31 278.2c0-13.7 21-23.9 46.5-24 25.5 0 46.5 10.3 46.5 24s-21 24-46.5 24-46.5-10.3-46.5-24zm46.5 19.1c23.2 0 41.7-9 41.7-19.1s-18.5-19.1-41.7-19.1-41.6 9-41.7 19.1c.1 10.1 18.5 19.1 41.7 19.1zm10.3-31.8c7.8 0 14.5 4.2 15.9 9.9h3.6c1.5 0 2.8.9 2.8 2.2s-1.3 2.2-2.8 2.2h-3.6c-1.4 5.7-8.1 9.9-15.9 9.9-1.5 0-2.8-.9-2.8-2.2s1.3-2.2 2.8-2.2c4.8 0 8.9-2.3 10.2-5.4h-21.5c-1.7 4.8-5.7 7.9-12.5 7.9-6.2-.1-11.5-3.4-12.8-7.9h-3.7c-1.5 0-2.8-.9-2.8-2.2s1.3-2.2 2.8-2.2h3.7c1.3-4.6 6.6-7.9 12.8-7.9 1.5 0 2.8.9 2.8 2.2s-1.3 2.2-2.7 2.2c-3.2 0-5.9 1.5-7 3.5h15.2c2.1-5.8 7.9-10 15.5-10zm-24.3 17.7c3.3 0 5.4-1.1 6.7-3.5h-13.7c1.1 2.1 3.9 3.5 7 3.5zm34.4-7.8c-1.4-3.2-5.5-5.4-10.2-5.4-4.5 0-8 2.2-9.8 5.4z" fill="url(#T)"/></g><g transform="translate(54.329091)"><path d="m-54.3 275.7v-9.6c.5-18.1 25.8-32.8 56.8-32.8 31.4 0 56.8 14.9 56.8 33.3 0 .6 0 1.3-.1 1.9v5.8c.1.6.1 1.3.1 1.9 0 18.4-25.4 33.3-56.8 33.3s-56.8-14.9-56.8-33.3c0-.1 0-.3 0-.5z" fill="#986e33"/><path d="m-54.3 275.7v-9.6c0-1.2.2-2.4.4-3.6h2.8v24.9c-2.1-3.5-3.2-7.2-3.2-11.1 0-.2 0-.4 0-.6zm6.5 16v-22.7h3.2v25.9c-1.2-1-2.3-2.1-3.2-3.2zm6.5 5.7v-25.2h3.2v27.3c-1.1-.6-2.2-1.3-3.2-2.1zm6.4 4v-25.9h3.2v27.4c-1-.5-2.1-1-3.2-1.5zm6.5 2.8v-23.9h3.2v25c-1-.3-2.1-.7-3.2-1.1zm6.5 2.1v-26h3.2v26.8c-1-.2-2.1-.5-3.2-.8zm6.5 1.6v-27.5h3.2v27.5h-2.8c-.1 0-.3 0-.4 0zm6.5 1v-26.9h3.2v27.2c-1-.1-2.1-.2-3.2-.3zm6.5.5v-27.5h3.2v27.6c-1 0-2.1 0-3.2-.1zm6.5.1v-27.6h3.2v27.5c-1 .1-2.1.1-3.2.1zm6.5-.3v-27.2h3.2v26.9c-1 .1-2.1.2-3.2.3zm6.5-.8v-26.5h3.2v26c-1 .2-2.1.4-3.2.5zm6.5-1.2v-25.2h3.2v24.4c-1.1.2-2.1.5-3.2.8zm6.5-1.8v-23.4h3.2v22.2c-1.1.4-2.1.8-3.2 1.2zm6.4-2.5v-20.9h3.2v19.4c-1 .5-2 1-3.2 1.5zm6.5-3.3v-20.8h3.2v18.7c-.9.7-2 1.4-3.2 2.1zm6.5-4.7v-22.7h3.2v19.5c-.9 1.1-2 2.2-3.2 3.2zm4.9-5.1v-22.4h3.2v16.8c-.8 1.9-1.9 3.8-3.2 5.6z" fill="url(#U)"/><path d="m-54.3 264.6c0 18.5 25.4 33.6 56.8 33.6s56.8-15 56.8-33.6c0-18.5-25.4-33.6-56.8-33.6-31.4.1-56.8 15.1-56.8 33.6z" fill="url(#V)"/><path d="m-30.9 237.5c4.2-1.8 8.9-3.3 14-4.4l56.7 56.8c-4 2-8.4 3.8-13.2 5.1z" fill="url(#W)" fill-opacity=".5"/><path d="m-41.3 243.3c1.7-1.2 3.6-2.4 5.7-3.5l56.6 56.6c-2.6.5-5.2.9-7.9 1.2z" fill="url(#X)" fill-opacity=".5"/><g filter="url(#e)"><path d="m-44.6 264.6c0-13.7 21-23.9 46.5-24 25.5 0 46.5 10.3 46.5 24s-21 24-46.5 24-46.5-10.3-46.5-24zm46.5 19.1c23.2 0 41.7-9 41.7-19.1s-18.5-19.1-41.7-19.1-41.6 9-41.7 19.1c.1 10.1 18.6 19.1 41.7 19.1zm10.3-31.8c7.8 0 14.5 4.2 15.9 9.9h3.6c1.5 0 2.8.9 2.8 2.2s-1.3 2.2-2.8 2.2h-3.6c-1.4 5.7-8.1 9.9-15.9 9.9-1.5 0-2.8-.9-2.8-2.2s1.3-2.2 2.8-2.2c4.8 0 8.9-2.3 10.2-5.4h-21.5c-1.7 4.8-5.7 7.9-12.5 7.9-6.2-.1-11.5-3.4-12.8-7.9h-3.6c-1.5 0-2.8-.9-2.8-2.2s1.3-2.2 2.8-2.2h3.7c1.3-4.6 6.6-7.9 12.8-7.9 1.5 0 2.8.9 2.8 2.2s-1.3 2.2-2.7 2.2c-3.2 0-5.9 1.5-7 3.5h15.2c2-5.8 7.9-10 15.4-10zm-24.3 17.8c3.3 0 5.4-1.1 6.7-3.5h-13.7c1.1 2 3.9 3.4 7 3.5zm34.4-7.9c-1.4-3.2-5.5-5.4-10.2-5.4-4.5 0-8 2.2-9.8 5.4z"/></g><path d="m-44.6 264.6c0-13.7 21-23.9 46.5-24 25.5 0 46.5 10.3 46.5 24s-21 24-46.5 24-46.5-10.3-46.5-24zm46.5 19.1c23.2 0 41.7-9 41.7-19.1s-18.5-19.1-41.7-19.1-41.6 9-41.7 19.1c.1 10.1 18.6 19.1 41.7 19.1zm10.3-31.8c7.8 0 14.5 4.2 15.9 9.9h3.6c1.5 0 2.8.9 2.8 2.2s-1.3 2.2-2.8 2.2h-3.6c-1.4 5.7-8.1 9.9-15.9 9.9-1.5 0-2.8-.9-2.8-2.2s1.3-2.2 2.8-2.2c4.8 0 8.9-2.3 10.2-5.4h-21.5c-1.7 4.8-5.7 7.9-12.5 7.9-6.2-.1-11.5-3.4-12.8-7.9h-3.6c-1.5 0-2.8-.9-2.8-2.2s1.3-2.2 2.8-2.2h3.7c1.3-4.6 6.6-7.9 12.8-7.9 1.5 0 2.8.9 2.8 2.2s-1.3 2.2-2.7 2.2c-3.2 0-5.9 1.5-7 3.5h15.2c2-5.8 7.9-10 15.4-10zm-24.3 17.8c3.3 0 5.4-1.1 6.7-3.5h-13.7c1.1 2 3.9 3.4 7 3.5zm34.4-7.9c-1.4-3.2-5.5-5.4-10.2-5.4-4.5 0-8 2.2-9.8 5.4z" fill="url(#Y)"/></g><g transform="translate(67.911364)"><path d="m-67.9 262.1v-9.6c.5-18.1 25.8-32.8 56.8-32.8 31.4 0 56.8 14.9 56.8 33.3 0 .6 0 1.3-.1 1.9v5.8c.1.6.1 1.3.1 1.9 0 18.4-25.4 33.3-56.8 33.3s-56.8-14.9-56.8-33.3c0-.1 0-.3 0-.5z" fill="#986e33"/><path d="m-67.9 262.1v-9.6c0-1.2.2-2.4.4-3.6h2.8v24.9c-2.1-3.5-3.2-7.2-3.2-11.1 0-.2 0-.4 0-.6zm6.5 16v-22.7h3.2v25.9c-1.2-1-2.2-2.1-3.2-3.2zm6.5 5.8v-25.2h3.2v27.3c-1.1-.7-2.2-1.4-3.2-2.1zm6.5 3.9v-25.9h3.2v27.4c-1.1-.5-2.2-1-3.2-1.5zm6.5 2.8v-23.9h3.2v25c-1.1-.3-2.2-.7-3.2-1.1zm6.4 2.2v-26h3.2v26.8c-1-.3-2.1-.5-3.2-.8zm6.5 1.5v-27.5h3.2v27.6h-2.9c0-.1-.1-.1-.3-.1zm6.5 1v-26.9h3.2v27.2c-1-.1-2.1-.2-3.2-.3zm6.5.6v-27.5h3.2v27.6c-1-.1-2.1-.1-3.2-.1zm6.5.1v-27.6h3.2v27.5c-1 0-2.1 0-3.2.1zm6.5-.4v-27.2h3.2v26.9c-1 .1-2.1.2-3.2.3zm6.5-.7v-26.5h3.2v25.9c-1 .2-2.1.4-3.2.6zm6.5-1.3v-25.2h3.2v24.4c-1 .3-2.1.5-3.2.8zm6.5-1.8v-23.4h3.2v22.2c-1 .4-2.1.8-3.2 1.2zm6.5-2.5v-20.9h3.2v19.4c-1 .5-2.1 1-3.2 1.5zm6.5-3.3v-20.8h3.2v18.7c-1 .7-2.1 1.4-3.2 2.1zm6.4-4.7v-22.7h3.2v19.5c-.9 1.1-2 2.2-3.2 3.2zm4.9-5.1v-22.4h3.2v16.8c-.7 1.9-1.8 3.8-3.2 5.6z" fill="url(#Z)"/><path d="m-67.9 251.1c0 18.5 25.4 33.6 56.8 33.6s56.8-15 56.8-33.6-25.4-33.6-56.8-33.6-56.8 15-56.8 33.6z" fill="url(#aa)"/><path d="m-44.5 223.9c4.2-1.8 8.9-3.3 14-4.4l56.8 56.8c-4 2-8.4 3.8-13.2 5.1z" fill="url(#ab)" fill-opacity=".5"/><path d="m-54.8 229.7c1.7-1.2 3.6-2.4 5.7-3.5l56.6 56.6c-2.6.5-5.2.9-7.9 1.2z" fill="url(#ac)" fill-opacity=".5"/><g filter="url(#f)"><path d="m-58.2 251.1c0-13.7 21-23.9 46.5-24 25.5 0 46.5 10.3 46.5 24s-21 24-46.5 24-46.5-10.3-46.5-24zm46.6 19c23.2 0 41.7-9 41.7-19.1s-18.5-19.1-41.7-19.1-41.6 9-41.7 19.1c0 10.1 18.5 19.1 41.7 19.1zm10.3-31.8c7.8 0 14.5 4.2 15.9 9.9h3.6c1.5 0 2.8.9 2.8 2.2s-1.3 2.2-2.8 2.2h-3.6c-1.4 5.7-8.1 9.9-15.9 9.9-1.5 0-2.8-.9-2.8-2.2s1.3-2.2 2.8-2.2c4.8 0 8.9-2.3 10.2-5.4h-21.5c-1.7 4.8-5.7 7.9-12.5 7.9-6.2-.1-11.5-3.4-12.8-7.9h-3.7c-1.5 0-2.8-.9-2.8-2.2s1.3-2.2 2.8-2.2h3.7c1.3-4.6 6.6-7.9 12.8-7.9 1.5 0 2.8.9 2.8 2.2s-1.3 2.2-2.7 2.2c-3.2 0-5.9 1.5-7 3.5h15c2.2-5.8 8.1-10 15.7-10zm-24.4 17.8c3.3 0 5.4-1.1 6.7-3.5h-13.7c1.2 2 3.9 3.4 7 3.5zm34.5-7.9c-1.4-3.2-5.5-5.4-10.2-5.4-4.5 0-8 2.2-9.8 5.4z"/></g><path d="m-58.2 251.1c0-13.7 21-23.9 46.5-24 25.5 0 46.5 10.3 46.5 24s-21 24-46.5 24-46.5-10.3-46.5-24zm46.6 19c23.2 0 41.7-9 41.7-19.1s-18.5-19.1-41.7-19.1-41.6 9-41.7 19.1c0 10.1 18.5 19.1 41.7 19.1zm10.3-31.8c7.8 0 14.5 4.2 15.9 9.9h3.6c1.5 0 2.8.9 2.8 2.2s-1.3 2.2-2.8 2.2h-3.6c-1.4 5.7-8.1 9.9-15.9 9.9-1.5 0-2.8-.9-2.8-2.2s1.3-2.2 2.8-2.2c4.8 0 8.9-2.3 10.2-5.4h-21.5c-1.7 4.8-5.7 7.9-12.5 7.9-6.2-.1-11.5-3.4-12.8-7.9h-3.7c-1.5 0-2.8-.9-2.8-2.2s1.3-2.2 2.8-2.2h3.7c1.3-4.6 6.6-7.9 12.8-7.9 1.5 0 2.8.9 2.8 2.2s-1.3 2.2-2.7 2.2c-3.2 0-5.9 1.5-7 3.5h15c2.2-5.8 8.1-10 15.7-10zm-24.4 17.8c3.3 0 5.4-1.1 6.7-3.5h-13.7c1.2 2 3.9 3.4 7 3.5zm34.5-7.9c-1.4-3.2-5.5-5.4-10.2-5.4-4.5 0-8 2.2-9.8 5.4z" fill="url(#ad)"/></g><g transform="translate(81.493637)"><path d="m-81.5 248.5v-9.6c.5-18.1 25.8-32.8 56.8-32.8 31.4 0 56.8 14.9 56.8 33.3 0 .6 0 1.3-.1 1.9v5.8c.1.6.1 1.3.1 1.9 0 18.4-25.4 33.3-56.8 33.3s-56.8-14.9-56.8-33.3c0-.1 0-.3 0-.5z" fill="#986e33"/><path d="m-81.5 248.5v-9.6c0-1.2.2-2.4.4-3.6h2.8v24.9c-2.1-3.5-3.2-7.2-3.2-11.1 0-.2 0-.4 0-.6zm6.5 16.1v-22.7h3.2v25.9c-1.1-1.1-2.2-2.1-3.2-3.2zm6.5 5.7v-25.2h3.2v27.3c-1.1-.7-2.2-1.4-3.2-2.1zm6.5 3.9v-25.9h3.2v27.4c-1.1-.5-2.2-1-3.2-1.5zm6.5 2.9v-23.9h3.2v25c-1.1-.4-2.2-.7-3.2-1.1zm6.5 2.1v-26h3.2v26.8c-1.1-.2-2.2-.5-3.2-.8zm6.5 1.5v-27.5h3.2v27.6h-2.9c-.1 0-.2-.1-.3-.1zm6.4 1v-26.9h3.2v27.2c-1 0-2.1-.1-3.2-.3zm6.5.6v-27.5h3.2v27.6c-1 0-2.1-.1-3.2-.1zm6.5.1v-27.6h3.2v27.5c-1 0-2.1.1-3.2.1zm6.5-.3v-27.2h3.2v26.9c-1 .1-2.1.2-3.2.3zm6.5-.8v-26.5h3.2v25.9c-1 .2-2.1.4-3.2.6zm6.5-1.3v-25.2h3.2v24.4c-1 .3-2.1.6-3.2.8zm6.5-1.8v-23.4h3.2v22.2c-1 .5-2.1.8-3.2 1.2zm6.5-2.5v-20.9h3.2v19.4c-1 .5-2.1 1-3.2 1.5zm6.5-3.3v-20.8h3.2v18.7c-1 .7-2.1 1.4-3.2 2.1zm6.5-4.7v-22.7h3.2v19.5c-1 1.2-2.1 2.2-3.2 3.2zm4.8-5.1v-22.4h3.2v16.8c-.7 1.9-1.8 3.8-3.2 5.6z" fill="url(#ae)"/><path d="m-81.5 237.5c0 18.5 25.4 33.6 56.8 33.6s56.8-15 56.8-33.6-25.4-33.6-56.8-33.6c-31.3 0-56.7 15-56.8 33.6z" fill="url(#af)"/><path d="m-58.1 210.4c4.2-1.8 8.9-3.3 14-4.4l56.8 56.8c-4 2-8.4 3.8-13.2 5.1z" fill="url(#ag)" fill-opacity=".5"/><path d="m-68.4 216.1c1.7-1.2 3.6-2.4 5.7-3.5l56.6 56.6c-2.6.5-5.2.9-7.9 1.2z" fill="url(#ah)" fill-opacity=".5"/><g filter="url(#g)"><path d="m-71.8 237.5c0-13.7 21-23.9 46.5-24 25.5 0 46.5 10.3 46.5 24s-21 24-46.5 24-46.5-10.3-46.5-24zm46.6 19.1c23.2 0 41.7-9 41.7-19.1s-18.5-19.1-41.7-19.1-41.6 9-41.7 19.1c0 10 18.5 19.1 41.7 19.1zm10.3-31.8c7.8 0 14.5 4.2 15.9 9.9h3.6c1.5 0 2.8.9 2.8 2.2s-1.3 2.2-2.8 2.2h-3.6c-1.4 5.7-8.1 9.9-15.9 9.9-1.5 0-2.8-.9-2.8-2.2s1.3-2.2 2.8-2.2c4.8 0 8.9-2.3 10.2-5.4h-21.6c-1.7 4.8-5.7 7.9-12.5 7.9-6.2-.1-11.5-3.4-12.8-7.9h-3.7c-1.5 0-2.8-.9-2.8-2.2s1.3-2.2 2.8-2.2h3.7c1.3-4.6 6.6-7.9 12.8-7.9 1.5 0 2.8.9 2.8 2.2s-1.3 2.2-2.7 2.2c-3.2 0-5.9 1.5-7 3.5h15.2c2.1-5.9 8-10 15.6-10zm-24.4 17.7c3.3 0 5.4-1.1 6.7-3.5h-13.7c1.2 2 3.9 3.5 7 3.5zm34.5-7.9c-1.4-3.2-5.5-5.4-10.2-5.4-4.5 0-8 2.2-9.8 5.4z"/></g><path d="m-71.8 237.5c0-13.7 21-23.9 46.5-24 25.5 0 46.5 10.3 46.5 24s-21 24-46.5 24-46.5-10.3-46.5-24zm46.6 19.1c23.2 0 41.7-9 41.7-19.1s-18.5-19.1-41.7-19.1-41.6 9-41.7 19.1c0 10 18.5 19.1 41.7 19.1zm10.3-31.8c7.8 0 14.5 4.2 15.9 9.9h3.6c1.5 0 2.8.9 2.8 2.2s-1.3 2.2-2.8 2.2h-3.6c-1.4 5.7-8.1 9.9-15.9 9.9-1.5 0-2.8-.9-2.8-2.2s1.3-2.2 2.8-2.2c4.8 0 8.9-2.3 10.2-5.4h-21.6c-1.7 4.8-5.7 7.9-12.5 7.9-6.2-.1-11.5-3.4-12.8-7.9h-3.7c-1.5 0-2.8-.9-2.8-2.2s1.3-2.2 2.8-2.2h3.7c1.3-4.6 6.6-7.9 12.8-7.9 1.5 0 2.8.9 2.8 2.2s-1.3 2.2-2.7 2.2c-3.2 0-5.9 1.5-7 3.5h15.2c2.1-5.9 8-10 15.6-10zm-24.4 17.7c3.3 0 5.4-1.1 6.7-3.5h-13.7c1.2 2 3.9 3.5 7 3.5zm34.5-7.9c-1.4-3.2-5.5-5.4-10.2-5.4-4.5 0-8 2.2-9.8 5.4z" fill="url(#ai)"/></g><g transform="translate(95.07591)"><path d="m-95.1 235v-9.6c.5-18.1 25.8-32.8 56.8-32.8 31.4 0 56.8 14.9 56.8 33.3 0 .6 0 1.3-.1 1.9v5.8c.1.6.1 1.3.1 1.9 0 18.4-25.4 33.3-56.8 33.3s-56.8-14.9-56.8-33.3c0-.2 0-.4 0-.5z" fill="#986e33"/><path d="m-95.1 235v-9.6c0-1.2.2-2.4.4-3.6h2.8v24.9c-2.1-3.5-3.2-7.2-3.2-11.1 0-.3 0-.5 0-.6zm6.5 16v-22.7h3.2v25.9c-1.1-1.1-2.2-2.1-3.2-3.2zm6.5 5.7v-25.2h3.2v27.3c-1.1-.7-2.2-1.4-3.2-2.1zm6.5 3.9v-25.9h3.2v27.4c-1.1-.4-2.2-1-3.2-1.5zm6.5 2.9v-23.9h3.2v25c-1.1-.3-2.2-.7-3.2-1.1zm6.5 2.1v-26h3.2v26.8c-1.1-.2-2.2-.5-3.2-.8zm6.5 1.5v-27.5h3.2v27.6h-2.9c-.1 0-.2 0-.3-.1zm6.5 1v-26.9h3.2v27.2c-1.1 0-2.2-.1-3.2-.3zm6.5.6v-27.5h3.2v27.6c-1.1 0-2.2-.1-3.2-.1zm6.4.1v-27.6h3.2v27.5c-1 0-2.1.1-3.2.1zm6.5-.3v-27.2h3.2v26.9c-1 .1-2.1.2-3.2.3zm6.5-.8v-26.5h3.2v25.9c-1 .2-2.1.4-3.2.6zm6.5-1.3v-25.2h3.2v24.4c-1 .3-2.1.6-3.2.8zm6.5-1.8v-23.4h3.2v22.2c-1 .5-2.1.9-3.2 1.2zm6.5-2.5v-20.9h3.2v19.4c-1 .5-2.1 1.1-3.2 1.5zm6.5-3.3v-20.8h3.2v18.7c-1 .7-2.1 1.4-3.2 2.1zm6.5-4.7v-22.7h3.2v19.5c-1 1.2-2 2.2-3.2 3.2zm4.9-5.1v-22.4h3.2v16.8c-.8 2-1.9 3.8-3.2 5.6z" fill="url(#aj)"/><path d="m-95.1 223.9c0 18.5 25.4 33.6 56.8 33.6s56.8-15 56.8-33.6-25.4-33.6-56.8-33.6c-31.3.1-56.7 15.1-56.8 33.6z" fill="url(#ak)"/><path d="m-71.7 196.8c4.2-1.8 8.9-3.3 14-4.4l56.8 56.8c-4 2-8.4 3.8-13.2 5.1z" fill="url(#al)" fill-opacity=".5"/><path d="m-82 202.5c1.7-1.2 3.6-2.4 5.7-3.5l56.6 56.6c-2.6.5-5.2.9-7.9 1.2z" fill="url(#am)" fill-opacity=".5"/><g filter="url(#h)"><path d="m-85.3 223.9c0-13.7 21-23.9 46.5-24 25.5 0 46.5 10.3 46.5 24s-21 24-46.5 24-46.5-10.3-46.5-24zm46.5 19.1c23.2 0 41.7-9 41.7-19.1s-18.5-19.1-41.7-19.1-41.6 9-41.7 19.1c0 10.1 18.5 19.1 41.7 19.1zm10.3-31.8c7.8 0 14.5 4.2 15.9 9.9h3.6c1.5 0 2.8.9 2.8 2.2s-1.3 2.2-2.8 2.2h-3.6c-1.4 5.7-8.1 9.9-15.9 9.9-1.5 0-2.8-.9-2.8-2.2s1.3-2.2 2.8-2.2c4.8 0 8.9-2.3 10.2-5.4h-21.6c-1.7 4.8-5.7 7.9-12.5 7.9-6.2-.1-11.5-3.4-12.8-7.9h-3.7c-1.5 0-2.8-.9-2.8-2.2s1.3-2.2 2.8-2.2h3.7c1.3-4.6 6.6-7.9 12.8-7.9 1.5 0 2.8.9 2.8 2.2s-1.3 2.2-2.7 2.2c-3.2 0-5.9 1.5-7 3.5h15.2c2.1-5.9 8-10 15.6-10zm-24.3 17.7c3.3 0 5.4-1.1 6.7-3.5h-13.7c1.1 2 3.8 3.5 7 3.5zm34.4-7.9c-1.4-3.2-5.5-5.4-10.2-5.4-4.5 0-8 2.2-9.8 5.4z"/></g><path d="m-85.3 223.9c0-13.7 21-23.9 46.5-24 25.5 0 46.5 10.3 46.5 24s-21 24-46.5 24-46.5-10.3-46.5-24zm46.5 19.1c23.2 0 41.7-9 41.7-19.1s-18.5-19.1-41.7-19.1-41.6 9-41.7 19.1c0 10.1 18.5 19.1 41.7 19.1zm10.3-31.8c7.8 0 14.5 4.2 15.9 9.9h3.6c1.5 0 2.8.9 2.8 2.2s-1.3 2.2-2.8 2.2h-3.6c-1.4 5.7-8.1 9.9-15.9 9.9-1.5 0-2.8-.9-2.8-2.2s1.3-2.2 2.8-2.2c4.8 0 8.9-2.3 10.2-5.4h-21.6c-1.7 4.8-5.7 7.9-12.5 7.9-6.2-.1-11.5-3.4-12.8-7.9h-3.7c-1.5 0-2.8-.9-2.8-2.2s1.3-2.2 2.8-2.2h3.7c1.3-4.6 6.6-7.9 12.8-7.9 1.5 0 2.8.9 2.8 2.2s-1.3 2.2-2.7 2.2c-3.2 0-5.9 1.5-7 3.5h15.2c2.1-5.9 8-10 15.6-10zm-24.3 17.7c3.3 0 5.4-1.1 6.7-3.5h-13.7c1.1 2 3.8 3.5 7 3.5zm34.4-7.9c-1.4-3.2-5.5-5.4-10.2-5.4-4.5 0-8 2.2-9.8 5.4z" fill="url(#an)"/></g><g transform="translate(108.658182)"><path d="m-108.7 221.4v-9.6c.5-18.1 25.8-32.8 56.8-32.8 31.4 0 56.8 14.9 56.8 33.3 0 .6 0 1.3-.1 1.9v5.8c.1.6.1 1.3.1 1.9 0 18.4-25.4 33.3-56.8 33.3s-56.8-14.9-56.8-33.3c0-.2 0-.3 0-.5z" fill="#986e33"/><path d="m-108.7 221.4v-9.6c0-1.2.2-2.4.4-3.6h2.8v24.9c-2.1-3.5-3.2-7.2-3.2-11.1 0-.3 0-.4 0-.6zm6.5 16v-22.7h3.2v25.9c-1.1-1.1-2.2-2.1-3.2-3.2zm6.5 5.7v-25.2h3.2v27.3c-1.1-.7-2.1-1.4-3.2-2.1zm6.5 3.9v-25.9h3.2v27.4c-1.1-.4-2.1-.9-3.2-1.5zm6.5 2.9v-23.9h3.2v25c-1.1-.3-2.1-.7-3.2-1.1zm6.5 2.1v-26h3.2v26.9c-1.1-.3-2.1-.6-3.2-.9zm6.5 1.5v-27.5h3.2v27.6h-2.9c-.1 0-.2 0-.3-.1zm6.5 1.1v-26.9h3.2v27.2c-1.1-.1-2.1-.2-3.2-.3zm6.5.5v-27.5h3.2v27.6c-1.1 0-2.2 0-3.2-.1zm6.5.1v-27.6h3.2v27.5c-1.1.1-2.1.1-3.2.1zm6.5-.3v-27.2h3.2v26.9c-1.1.1-2.2.2-3.2.3zm6.4-.8v-26.5h3.2v25.9c-1 .3-2.1.4-3.2.6zm6.5-1.2v-25.2h3.2v24.4c-1 .2-2.1.5-3.2.8zm6.5-1.9v-23.4h3.3v22.3c-1.1.4-2.2.8-3.3 1.1zm6.5-2.4v-20.9h3.2v19.4c-1 .5-2.1 1-3.2 1.5zm6.5-3.4v-20.8h3.3v18.7c-1.1.7-2.2 1.4-3.3 2.1zm6.5-4.6v-22.7h3.2v19.5c-.9 1.1-2 2.1-3.2 3.2zm4.9-5.2v-22.4h3.2v16.8c-.8 2-1.9 3.8-3.2 5.6z" fill="url(#ao)"/><path d="m-108.7 210.3c0 18.5 25.4 33.6 56.8 33.6s56.8-15 56.8-33.6-25.4-33.6-56.8-33.6c-31.3.1-56.7 15.1-56.8 33.6z" fill="url(#ap)"/><path d="m-85.3 183.2c4.2-1.8 8.9-3.3 14-4.4l56.8 56.8c-4 2-8.4 3.8-13.2 5.1z" fill="url(#aq)" fill-opacity=".5"/><path d="m-95.6 188.9c1.7-1.2 3.6-2.4 5.7-3.5l56.6 56.6c-2.6.5-5.2.9-7.9 1.2z" fill="url(#ar)" fill-opacity=".5"/><g filter="url(#i)"><path d="m-98.9 210.3c0-13.7 21-23.9 46.5-24 25.5 0 46.5 10.3 46.5 24s-21 24-46.5 24-46.5-10.3-46.5-24zm46.5 19.1c23.2 0 41.7-9 41.7-19.1s-18.5-19.1-41.7-19.1-41.6 9-41.7 19.1c.1 10.1 18.5 19.1 41.7 19.1zm10.3-31.8c7.8 0 14.5 4.2 15.9 9.9h3.6c1.5 0 2.8.9 2.8 2.2s-1.3 2.2-2.8 2.2h-3.6c-1.4 5.7-8.1 9.9-15.9 9.9-1.5 0-2.8-.9-2.8-2.2s1.3-2.2 2.8-2.2c4.8 0 8.9-2.3 10.2-5.4h-21.6c-1.7 4.8-5.7 7.9-12.5 7.9-6.2-.1-11.5-3.4-12.8-7.9h-3.7c-1.5 0-2.8-.9-2.8-2.2s1.3-2.2 2.8-2.2h3.7c1.3-4.6 6.6-7.9 12.8-7.9 1.5 0 2.8.9 2.8 2.2s-1.3 2.2-2.7 2.2c-3.2 0-5.9 1.5-7 3.5h15.2c2.2-5.9 8-10 15.6-10zm-24.3 17.7c3.3 0 5.4-1.1 6.7-3.5h-13.7c1.1 2.1 3.8 3.5 7 3.5zm34.4-7.8c-1.4-3.2-5.5-5.4-10.2-5.4-4.5 0-8 2.2-9.8 5.4z"/></g><path d="m-98.9 210.3c0-13.7 21-23.9 46.5-24 25.5 0 46.5 10.3 46.5 24s-21 24-46.5 24-46.5-10.3-46.5-24zm46.5 19.1c23.2 0 41.7-9 41.7-19.1s-18.5-19.1-41.7-19.1-41.6 9-41.7 19.1c.1 10.1 18.5 19.1 41.7 19.1zm10.3-31.8c7.8 0 14.5 4.2 15.9 9.9h3.6c1.5 0 2.8.9 2.8 2.2s-1.3 2.2-2.8 2.2h-3.6c-1.4 5.7-8.1 9.9-15.9 9.9-1.5 0-2.8-.9-2.8-2.2s1.3-2.2 2.8-2.2c4.8 0 8.9-2.3 10.2-5.4h-21.6c-1.7 4.8-5.7 7.9-12.5 7.9-6.2-.1-11.5-3.4-12.8-7.9h-3.7c-1.5 0-2.8-.9-2.8-2.2s1.3-2.2 2.8-2.2h3.7c1.3-4.6 6.6-7.9 12.8-7.9 1.5 0 2.8.9 2.8 2.2s-1.3 2.2-2.7 2.2c-3.2 0-5.9 1.5-7 3.5h15.2c2.2-5.9 8-10 15.6-10zm-24.3 17.7c3.3 0 5.4-1.1 6.7-3.5h-13.7c1.1 2.1 3.8 3.5 7 3.5zm34.4-7.8c-1.4-3.2-5.5-5.4-10.2-5.4-4.5 0-8 2.2-9.8 5.4z" fill="url(#as)"/></g><g transform="translate(122.240455)"><path d="m-122.2 207.8v-9.6c.5-18.1 25.8-32.8 56.8-32.8 31.4 0 56.8 14.9 56.8 33.3 0 .6 0 1.3-.1 1.9v5.8c.1.6.1 1.3.1 1.9 0 18.4-25.4 33.3-56.8 33.3s-56.8-14.9-56.8-33.3c0-.2 0-.3 0-.5z" fill="#986e33"/><path d="m-122.2 207.8v-9.6c0-1.2.2-2.4.4-3.6h2.8v24.9c-2.1-3.5-3.2-7.2-3.2-11.1 0-.3 0-.4 0-.6zm6.5 16v-22.7h3.2v25.9c-1.2-1-2.3-2.1-3.2-3.2zm6.4 5.7v-25.2h3.2v27.3c-1-.6-2.1-1.3-3.2-2.1zm6.5 3.9v-25.9h3.2v27.4c-1-.4-2.1-.9-3.2-1.5zm6.5 2.9v-23.9h3.2v25c-1-.3-2.1-.7-3.2-1.1zm6.5 2.1v-26h3.2v26.8c-1-.2-2.1-.5-3.2-.8zm6.5 1.6v-27.5h3.2v27.6h-2.9c-.1-.1-.2-.1-.3-.1zm6.5 1v-26.9h3.2v27.2c-1-.1-2.1-.2-3.2-.3zm6.5.5v-27.5h3.2v27.6c-1.1 0-2.1 0-3.2-.1zm6.5.1v-27.6h3.2v27.5c-1 .1-2.1.1-3.2.1zm6.5-.3v-27.2h3.2v26.9c-1.1.1-2.1.2-3.2.3zm6.5-.8v-26.5h3.2v25.9c-1.1.3-2.1.5-3.2.6zm6.5-1.2v-25.2h3.2v24.4c-1.1.2-2.1.5-3.2.8zm6.4-1.8v-23.4h3.2v22.2c-1 .4-2 .8-3.2 1.2zm6.5-2.5v-20.9h3.2v19.4c-1 .5-2 1-3.2 1.5zm6.5-3.4v-20.8h3.2v18.7c-1 .8-2 1.5-3.2 2.1zm6.5-4.6v-22.7h3.2v19.5c-.9 1.1-2 2.2-3.2 3.2zm4.9-5.2v-22.4h3.2v16.8c-.8 2-1.9 3.9-3.2 5.6z" fill="url(#at)"/><path d="m-122.2 196.7c0 18.5 25.4 33.6 56.8 33.6s56.8-15 56.8-33.6-25.4-33.6-56.8-33.6c-31.4.1-56.8 15.1-56.8 33.6z" fill="url(#au)"/><path d="m-98.8 169.6c4.2-1.8 8.9-3.3 14-4.4l56.8 56.8c-4 2-8.4 3.8-13.2 5.1z" fill="url(#av)" fill-opacity=".5"/><path d="m-109.2 175.3c1.7-1.2 3.6-2.4 5.7-3.5l56.6 56.6c-2.6.5-5.2.9-7.9 1.2z" fill="url(#aw)" fill-opacity=".5"/><g filter="url(#j)"><path d="m-112.5 196.7c0-13.7 21-23.9 46.5-24 25.5 0 46.5 10.3 46.5 24s-21 24-46.5 24-46.5-10.3-46.5-24zm46.5 19.1c23.2 0 41.7-9 41.7-19.1s-18.5-19.1-41.7-19.1-41.6 9-41.7 19.1c.1 10.1 18.6 19.1 41.7 19.1zm10.3-31.8c7.8 0 14.5 4.2 15.9 9.9h3.6c1.5 0 2.8.9 2.8 2.2s-1.3 2.2-2.8 2.2h-3.6c-1.4 5.7-8.1 9.9-15.9 9.9-1.5 0-2.8-.9-2.8-2.2s1.3-2.2 2.8-2.2c4.8 0 8.9-2.3 10.2-5.4h-21.5c-1.7 4.8-5.7 7.9-12.5 7.9-6.2-.1-11.5-3.4-12.8-7.9h-3.7c-1.5 0-2.8-.9-2.8-2.2s1.3-2.2 2.8-2.2h3.7c1.3-4.6 6.6-7.9 12.8-7.9 1.5 0 2.8.9 2.8 2.2s-1.3 2.2-2.7 2.2c-3.2 0-5.9 1.5-7 3.5h15.2c2.1-5.8 7.9-10 15.5-10zm-24.3 17.7c3.3 0 5.4-1.1 6.7-3.5h-13.7c1.1 2.1 3.9 3.5 7 3.5zm34.4-7.8c-1.4-3.2-5.5-5.4-10.2-5.4-4.5 0-8 2.2-9.8 5.4z"/></g><path d="m-112.5 196.7c0-13.7 21-23.9 46.5-24 25.5 0 46.5 10.3 46.5 24s-21 24-46.5 24-46.5-10.3-46.5-24zm46.5 19.1c23.2 0 41.7-9 41.7-19.1s-18.5-19.1-41.7-19.1-41.6 9-41.7 19.1c.1 10.1 18.6 19.1 41.7 19.1zm10.3-31.8c7.8 0 14.5 4.2 15.9 9.9h3.6c1.5 0 2.8.9 2.8 2.2s-1.3 2.2-2.8 2.2h-3.6c-1.4 5.7-8.1 9.9-15.9 9.9-1.5 0-2.8-.9-2.8-2.2s1.3-2.2 2.8-2.2c4.8 0 8.9-2.3 10.2-5.4h-21.5c-1.7 4.8-5.7 7.9-12.5 7.9-6.2-.1-11.5-3.4-12.8-7.9h-3.7c-1.5 0-2.8-.9-2.8-2.2s1.3-2.2 2.8-2.2h3.7c1.3-4.6 6.6-7.9 12.8-7.9 1.5 0 2.8.9 2.8 2.2s-1.3 2.2-2.7 2.2c-3.2 0-5.9 1.5-7 3.5h15.2c2.1-5.8 7.9-10 15.5-10zm-24.3 17.7c3.3 0 5.4-1.1 6.7-3.5h-13.7c1.1 2.1 3.9 3.5 7 3.5zm34.4-7.8c-1.4-3.2-5.5-5.4-10.2-5.4-4.5 0-8 2.2-9.8 5.4z" fill="url(#ax)"/></g><g transform="translate(135.822728)"><path d="m-135.8 194.2v-9.6c.5-18.1 25.8-32.8 56.8-32.8 31.4 0 56.8 14.9 56.8 33.3 0 .6 0 1.3-.1 1.9v5.8c.1.6.1 1.3.1 1.9 0 18.4-25.4 33.3-56.8 33.3s-56.8-14.9-56.8-33.3c0-.1 0-.3 0-.5z" fill="#986e33"/><path d="m-135.8 194.2v-9.6c0-1.2.2-2.4.4-3.6h2.8v24.9c-2.1-3.5-3.2-7.2-3.2-11.1 0-.2 0-.4 0-.6zm6.5 16v-22.7h3.2v25.9c-1.2-1-2.2-2.1-3.2-3.2zm6.5 5.7v-25.2h3.2v27.3c-1.1-.6-2.2-1.3-3.2-2.1zm6.5 4v-25.9h3.2v27.4c-1.1-.5-2.2-1-3.2-1.5zm6.4 2.8v-23.8h3.2v25c-1-.4-2.1-.8-3.2-1.2zm6.5 2.2v-26h3.2v26.8c-1-.3-2.1-.5-3.2-.8zm6.5 1.5v-27.5h3.2v27.6h-2.9c0-.1-.2-.1-.3-.1zm6.5 1v-26.9h3.2v27.2c-1-.1-2.1-.2-3.2-.3zm6.5.5v-27.5h3.2v27.6c-1 0-2.1 0-3.2-.1zm6.5.1v-27.6h3.2v27.5c-1 .1-2.1.1-3.2.1zm6.5-.3v-27.2h3.2v26.9c-1 .1-2.1.2-3.2.3zm6.5-.7v-26.5h3.2v25.9c-1 .2-2.1.4-3.2.6zm6.5-1.3v-25.2h3.2v24.4c-1 .3-2.1.5-3.2.8zm6.5-1.8v-23.4h3.2v22.2c-1 .4-2.1.8-3.2 1.2zm6.5-2.5v-20.9h3.2v19.4c-1 .5-2.1 1-3.2 1.5zm6.4-3.3v-20.8h3.2v18.6c-.9.8-2 1.5-3.2 2.2zm6.5-4.7v-22.7h3.2v19.5c-.9 1.1-2 2.2-3.2 3.2zm4.9-5.1v-22.4h3.2v16.8c-.8 1.9-1.8 3.8-3.2 5.6z" fill="url(#ay)"/><path d="m-135.8 183.1c0 18.5 25.4 33.6 56.8 33.6s56.8-15 56.8-33.6-25.4-33.6-56.8-33.6c-31.4.1-56.8 15.1-56.8 33.6z" fill="url(#az)"/><path d="m-112.4 156c4.2-1.8 8.9-3.3 14-4.4l56.8 56.8c-4 2-8.4 3.8-13.2 5.1z" fill="url(#aA)" fill-opacity=".5"/><path d="m-122.8 161.8c1.7-1.2 3.6-2.4 5.7-3.5l56.6 56.6c-2.6.5-5.2.9-7.9 1.2z" fill="url(#aB)" fill-opacity=".5"/><g filter="url(#k)"><path d="m-126.1 183.1c0-13.7 21-23.9 46.5-24 25.5 0 46.5 10.3 46.5 24s-21 24-46.5 24-46.5-10.2-46.5-24zm46.5 19.1c23.2 0 41.7-9 41.7-19.1s-18.5-19.1-41.7-19.1-41.6 9-41.7 19.1c.1 10.1 18.6 19.1 41.7 19.1zm10.4-31.8c7.8 0 14.5 4.2 15.9 9.9h3.6c1.5 0 2.8.9 2.8 2.2s-1.3 2.2-2.8 2.2h-3.6c-1.4 5.7-8.1 9.9-15.9 9.9-1.5 0-2.8-.9-2.8-2.2s1.3-2.2 2.8-2.2c4.8 0 8.9-2.3 10.2-5.4h-21.6c-1.7 4.8-5.7 7.9-12.5 7.9-6.2-.1-11.5-3.4-12.8-7.9h-3.7c-1.5 0-2.8-.9-2.8-2.2s1.3-2.2 2.8-2.2h3.7c1.3-4.6 6.6-7.9 12.8-7.9 1.5 0 2.8.9 2.8 2.2s-1.3 2.2-2.7 2.2c-3.2 0-5.9 1.5-7 3.5h15.2c2.1-5.8 8-10 15.6-10zm-24.4 17.8c3.3 0 5.4-1.1 6.7-3.5h-13.7c1.1 2 3.9 3.4 7 3.5zm34.5-7.9c-1.4-3.2-5.5-5.4-10.2-5.4-4.5 0-8 2.2-9.8 5.4z"/></g><path d="m-126.1 183.1c0-13.7 21-23.9 46.5-24 25.5 0 46.5 10.3 46.5 24s-21 24-46.5 24-46.5-10.2-46.5-24zm46.5 19.1c23.2 0 41.7-9 41.7-19.1s-18.5-19.1-41.7-19.1-41.6 9-41.7 19.1c.1 10.1 18.6 19.1 41.7 19.1zm10.4-31.8c7.8 0 14.5 4.2 15.9 9.9h3.6c1.5 0 2.8.9 2.8 2.2s-1.3 2.2-2.8 2.2h-3.6c-1.4 5.7-8.1 9.9-15.9 9.9-1.5 0-2.8-.9-2.8-2.2s1.3-2.2 2.8-2.2c4.8 0 8.9-2.3 10.2-5.4h-21.6c-1.7 4.8-5.7 7.9-12.5 7.9-6.2-.1-11.5-3.4-12.8-7.9h-3.7c-1.5 0-2.8-.9-2.8-2.2s1.3-2.2 2.8-2.2h3.7c1.3-4.6 6.6-7.9 12.8-7.9 1.5 0 2.8.9 2.8 2.2s-1.3 2.2-2.7 2.2c-3.2 0-5.9 1.5-7 3.5h15.2c2.1-5.8 8-10 15.6-10zm-24.4 17.8c3.3 0 5.4-1.1 6.7-3.5h-13.7c1.1 2 3.9 3.4 7 3.5zm34.5-7.9c-1.4-3.2-5.5-5.4-10.2-5.4-4.5 0-8 2.2-9.8 5.4z" fill="url(#aC)"/></g><g transform="translate(149.405001)"><path d="m-149.4 180.6v-9.6c.5-18.1 25.8-32.8 56.8-32.8 31.4 0 56.8 14.9 56.8 33.3 0 .6 0 1.3-.1 1.9v5.8c.1.6.1 1.3.1 1.9 0 18.4-25.4 33.3-56.8 33.3s-56.8-14.9-56.8-33.3c0-.1 0-.3 0-.5z" fill="#986e33"/><path d="m-149.4 180.6v-9.6c0-1.2.2-2.4.4-3.6h2.8v24.9c-2.1-3.5-3.2-7.2-3.2-11.1 0-.2 0-.4 0-.6zm6.5 16v-22.7h3.2v25.9c-1.1-1-2.2-2.1-3.2-3.2zm6.5 5.8v-25.2h3.2v27.3c-1.1-.7-2.2-1.4-3.2-2.1zm6.5 3.9v-25.9h3.2v27.4c-1.1-.5-2.2-1-3.2-1.5zm6.5 2.8v-23.9h3.2v25c-1.1-.3-2.2-.7-3.2-1.1zm6.5 2.2v-26h3.2v26.8c-1.1-.3-2.2-.5-3.2-.8zm6.4 1.5v-27.5h3.2v27.6h-2.9c0-.1-.1-.1-.3-.1zm6.5 1v-26.9h3.2v27.2c-1 0-2.1-.2-3.2-.3zm6.5.6v-27.5h3.2v27.6c-1-.1-2.1-.1-3.2-.1zm6.5.1v-27.6h3.2v27.5c-1 0-2.1 0-3.2.1zm6.5-.4v-27.2h3.2v26.9c-1 .1-2.1.3-3.2.3zm6.5-.7v-26.5h3.2v25.9c-1 .2-2.1.4-3.2.6zm6.5-1.3v-25.2h3.2v24.4c-1 .3-2.1.5-3.2.8zm6.5-1.8v-23.4h3.2v22.2c-1 .4-2.1.8-3.2 1.2zm6.5-2.5v-20.9h3.2v19.4c-1 .5-2.1 1-3.2 1.5zm6.5-3.3v-20.8h3.2v18.7c-1 .7-2.1 1.4-3.2 2.1zm6.5-4.7v-22.7h3.2v19.5c-1 1.1-2.1 2.2-3.2 3.2zm4.8-5.1v-22.4h3.2v16.8c-.7 1.9-1.8 3.8-3.2 5.6z" fill="url(#aD)"/><path d="m-149.4 169.6c0 18.5 25.4 33.6 56.8 33.6s56.8-15 56.8-33.6-25.4-33.6-56.8-33.6-56.8 15-56.8 33.6z" fill="url(#aE)"/><path d="m-126 142.4c4.2-1.8 8.9-3.3 14-4.4l56.8 56.8c-4 2-8.4 3.8-13.2 5.1z" fill="url(#aF)" fill-opacity=".5"/><path d="m-136.3 148.2c1.7-1.2 3.6-2.4 5.7-3.5l56.6 56.6c-2.6.5-5.2.9-7.9 1.2z" fill="url(#aG)" fill-opacity=".5"/><g filter="url(#l)"><path d="m-139.7 169.6c0-13.7 21-23.9 46.5-24 25.5 0 46.5 10.3 46.5 24s-21 24-46.5 24-46.5-10.3-46.5-24zm46.6 19.1c23.2 0 41.7-9 41.7-19.1s-18.5-19.1-41.7-19.1-41.6 9-41.7 19.1c0 10 18.5 19.1 41.7 19.1zm10.3-31.8c7.8 0 14.5 4.2 15.9 9.9h3.6c1.5 0 2.8.9 2.8 2.2s-1.3 2.2-2.8 2.2h-3.6c-1.4 5.7-8.1 9.9-15.9 9.9-1.5 0-2.8-.9-2.8-2.2s1.3-2.2 2.8-2.2c4.8 0 8.9-2.3 10.2-5.4h-21.6c-1.7 4.8-5.7 7.9-12.5 7.9-6.2-.1-11.5-3.4-12.8-7.9h-3.7c-1.5 0-2.8-.9-2.8-2.2s1.3-2.2 2.8-2.2h3.7c1.3-4.6 6.6-7.9 12.8-7.9 1.5 0 2.8.9 2.8 2.2s-1.3 2.2-2.7 2.2c-3.2 0-5.9 1.5-7 3.5h15.2c2.1-5.9 8-10 15.6-10zm-24.4 17.7c3.3 0 5.4-1.1 6.7-3.5h-13.7c1.2 2 3.9 3.4 7 3.5zm34.5-7.9c-1.4-3.2-5.5-5.4-10.2-5.4-4.5 0-8 2.2-9.8 5.4z"/></g><path d="m-139.7 169.6c0-13.7 21-23.9 46.5-24 25.5 0 46.5 10.3 46.5 24s-21 24-46.5 24-46.5-10.3-46.5-24zm46.6 19.1c23.2 0 41.7-9 41.7-19.1s-18.5-19.1-41.7-19.1-41.6 9-41.7 19.1c0 10 18.5 19.1 41.7 19.1zm10.3-31.8c7.8 0 14.5 4.2 15.9 9.9h3.6c1.5 0 2.8.9 2.8 2.2s-1.3 2.2-2.8 2.2h-3.6c-1.4 5.7-8.1 9.9-15.9 9.9-1.5 0-2.8-.9-2.8-2.2s1.3-2.2 2.8-2.2c4.8 0 8.9-2.3 10.2-5.4h-21.6c-1.7 4.8-5.7 7.9-12.5 7.9-6.2-.1-11.5-3.4-12.8-7.9h-3.7c-1.5 0-2.8-.9-2.8-2.2s1.3-2.2 2.8-2.2h3.7c1.3-4.6 6.6-7.9 12.8-7.9 1.5 0 2.8.9 2.8 2.2s-1.3 2.2-2.7 2.2c-3.2 0-5.9 1.5-7 3.5h15.2c2.1-5.9 8-10 15.6-10zm-24.4 17.7c3.3 0 5.4-1.1 6.7-3.5h-13.7c1.2 2 3.9 3.4 7 3.5zm34.5-7.9c-1.4-3.2-5.5-5.4-10.2-5.4-4.5 0-8 2.2-9.8 5.4z" fill="url(#aH)"/></g><g transform="translate(162.987274)"><path d="m-163 167.1v-9.6c.5-18.1 25.8-32.8 56.8-32.8 31.4 0 56.8 14.9 56.8 33.3 0 .6 0 1.3-.1 1.9v5.8c.1.6.1 1.3.1 1.9 0 18.4-25.4 33.3-56.8 33.3s-56.8-14.9-56.8-33.3c0-.2 0-.4 0-.5z" fill="#986e33"/><path d="m-163 167.1v-9.6c0-1.2.2-2.4.4-3.6h2.8v24.9c-2.1-3.5-3.2-7.2-3.2-11.1 0-.3 0-.5 0-.6zm6.5 16v-22.7h3.2v25.9c-1.1-1.1-2.2-2.1-3.2-3.2zm6.5 5.7v-25.2h3.2v27.3c-1.1-.7-2.2-1.4-3.2-2.1zm6.5 3.9v-25.9h3.2v27.4c-1.1-.5-2.2-1-3.2-1.5zm6.5 2.9v-23.9h3.2v25c-1.1-.4-2.2-.7-3.2-1.1zm6.5 2.1v-26h3.2v26.8c-1.1-.2-2.2-.5-3.2-.8zm6.5 1.5v-27.5h3.2v27.6h-2.9c-.1 0-.2-.1-.3-.1zm6.5 1v-26.9h3.2v27.2c-1.1 0-2.2-.1-3.2-.3zm6.4.6v-27.5h3.2v27.6c-1 0-2.1-.1-3.2-.1zm6.5.1v-27.6h3.2v27.5c-1 0-2.1.1-3.2.1zm6.5-.3v-27.2h3.2v26.9c-1 .1-2.1.2-3.2.3zm6.5-.8v-26.5h3.2v25.9c-1 .2-2.1.4-3.2.6zm6.5-1.3v-25.2h3.2v24.4c-1 .3-2.1.6-3.2.8zm6.5-1.8v-23.4h3.2v22.2c-1 .5-2.1.8-3.2 1.2zm6.5-2.5v-20.9h3.2v19.4c-1 .5-2.1 1-3.2 1.5zm6.5-3.3v-20.8h3.2v18.7c-1 .7-2.1 1.4-3.2 2.1zm6.5-4.7v-22.7h3.2v19.5c-1 1.2-2 2.2-3.2 3.2zm4.8-5.1v-22.4h3.2v16.8c-.7 1.9-1.8 3.8-3.2 5.6z" fill="url(#aI)"/><path d="m-163 156c0 18.5 25.4 33.6 56.8 33.6s56.8-15 56.8-33.6-25.4-33.6-56.8-33.6c-31.3 0-56.7 15.1-56.8 33.6z" fill="url(#aJ)"/><path d="m-139.6 128.9c4.2-1.8 8.9-3.3 14-4.4l56.8 56.8c-4 2-8.4 3.8-13.2 5.1z" fill="url(#aK)" fill-opacity=".5"/><path d="m-149.9 134.6c1.7-1.2 3.6-2.4 5.7-3.5l56.6 56.6c-2.6.5-5.2.9-7.9 1.2z" fill="url(#aL)" fill-opacity=".5"/><g filter="url(#m)"><path d="m-153.3 156c0-13.7 21-23.9 46.5-24 25.5 0 46.5 10.3 46.5 24s-21 24-46.5 24-46.5-10.3-46.5-24zm46.6 19.1c23.2 0 41.7-9 41.7-19.1s-18.5-19.1-41.7-19.1-41.6 9-41.7 19.1c0 10 18.5 19.1 41.7 19.1zm10.3-31.8c7.8 0 14.5 4.2 15.9 9.9h3.6c1.5 0 2.8.9 2.8 2.2s-1.3 2.2-2.8 2.2h-3.6c-1.4 5.7-8.1 9.9-15.9 9.9-1.5 0-2.8-.9-2.8-2.2s1.3-2.2 2.8-2.2c4.8 0 8.9-2.3 10.2-5.4h-21.6c-1.7 4.8-5.7 7.9-12.5 7.9-6.2-.1-11.5-3.4-12.8-7.9h-3.7c-1.5 0-2.8-.9-2.8-2.2s1.3-2.2 2.8-2.2h3.7c1.3-4.6 6.6-7.9 12.8-7.9 1.5 0 2.8.9 2.8 2.2s-1.3 2.2-2.7 2.2c-3.2 0-5.9 1.5-7 3.5h15.2c2.1-5.9 8-10 15.6-10zm-24.3 17.7c3.3 0 5.4-1.1 6.7-3.5h-13.7c1.1 2 3.8 3.5 7 3.5zm34.4-7.9c-1.4-3.2-5.5-5.4-10.2-5.4-4.5 0-8 2.2-9.8 5.4z"/></g><path d="m-153.3 156c0-13.7 21-23.9 46.5-24 25.5 0 46.5 10.3 46.5 24s-21 24-46.5 24-46.5-10.3-46.5-24zm46.6 19.1c23.2 0 41.7-9 41.7-19.1s-18.5-19.1-41.7-19.1-41.6 9-41.7 19.1c0 10 18.5 19.1 41.7 19.1zm10.3-31.8c7.8 0 14.5 4.2 15.9 9.9h3.6c1.5 0 2.8.9 2.8 2.2s-1.3 2.2-2.8 2.2h-3.6c-1.4 5.7-8.1 9.9-15.9 9.9-1.5 0-2.8-.9-2.8-2.2s1.3-2.2 2.8-2.2c4.8 0 8.9-2.3 10.2-5.4h-21.6c-1.7 4.8-5.7 7.9-12.5 7.9-6.2-.1-11.5-3.4-12.8-7.9h-3.7c-1.5 0-2.8-.9-2.8-2.2s1.3-2.2 2.8-2.2h3.7c1.3-4.6 6.6-7.9 12.8-7.9 1.5 0 2.8.9 2.8 2.2s-1.3 2.2-2.7 2.2c-3.2 0-5.9 1.5-7 3.5h15.2c2.1-5.9 8-10 15.6-10zm-24.3 17.7c3.3 0 5.4-1.1 6.7-3.5h-13.7c1.1 2 3.8 3.5 7 3.5zm34.4-7.9c-1.4-3.2-5.5-5.4-10.2-5.4-4.5 0-8 2.2-9.8 5.4z" fill="url(#aM)"/></g><g transform="translate(176.569547)"><path d="m-176.6 153.5v-9.6c.5-18.1 25.8-32.8 56.8-32.8 31.4 0 56.8 14.9 56.8 33.3 0 .6 0 1.3-.1 1.9v5.8c.1.6.1 1.3.1 1.9 0 18.4-25.4 33.3-56.8 33.3s-56.8-14.9-56.8-33.3c0-.2 0-.4 0-.5z" fill="#986e33"/><path d="m-176.6 153.5v-9.6c0-1.2.2-2.4.4-3.6h2.8v24.9c-2.1-3.5-3.2-7.2-3.2-11.1 0-.3 0-.5 0-.6zm6.5 16v-22.7h3.2v25.9c-1.1-1.1-2.2-2.1-3.2-3.2zm6.5 5.7v-25.2h3.2v27.3c-1.1-.7-2.2-1.4-3.2-2.1zm6.5 3.9v-25.9h3.2v27.4c-1.1-.4-2.1-1-3.2-1.5zm6.5 2.9v-23.9h3.2v25c-1.1-.3-2.1-.7-3.2-1.1zm6.5 2.1v-26h3.2v26.8c-1.1-.2-2.1-.5-3.2-.8zm6.5 1.5v-27.5h3.2v27.6h-2.9c-.1 0-.2 0-.3-.1zm6.5 1v-26.9h3.2v27.2c-1.1 0-2.2-.1-3.2-.3zm6.5.6v-27.5h3.2v27.6c-1.1 0-2.2-.1-3.2-.1zm6.5.1v-27.6h3.2v27.5c-1.1 0-2.2.1-3.2.1zm6.4-.3v-27.2h3.2v26.9c-1 .1-2.1.2-3.2.3zm6.5-.8v-26.5h3.2v25.9c-1 .2-2.1.4-3.2.6zm6.5-1.3v-25.2h3.2v24.4c-1 .3-2.1.6-3.2.8zm6.5-1.8v-23.4h3.2v22.2c-1 .5-2.1.9-3.2 1.2zm6.5-2.4v-20.9h3.2v19.4c-1 .4-2.1 1-3.2 1.5zm6.5-3.4v-20.8h3.2v18.7c-1 .7-2.1 1.4-3.2 2.1zm6.5-4.6v-22.7h3.2v19.5c-.9 1.1-2 2.1-3.2 3.2zm4.9-5.2v-22.4h3.2v16.8c-.8 2-1.9 3.8-3.2 5.6z" fill="url(#aN)"/><path d="m-176.6 142.4c0 18.5 25.4 33.6 56.8 33.6s56.8-15.1 56.8-33.6-25.4-33.6-56.8-33.6c-31.3.1-56.7 15.1-56.8 33.6z" fill="url(#aO)"/><path d="m-153.2 115.3c4.2-1.8 8.9-3.3 14-4.4l56.8 56.8c-4 2-8.4 3.8-13.2 5.1z" fill="url(#aP)" fill-opacity=".5"/><path d="m-163.5 121c1.7-1.2 3.6-2.4 5.7-3.5l56.6 56.6c-2.6.5-5.2.9-7.9 1.2z" fill="url(#aQ)" fill-opacity=".5"/><g filter="url(#n)"><path d="m-166.8 142.4c0-13.7 21-23.9 46.5-24 25.5 0 46.5 10.3 46.5 24s-21 24-46.5 24-46.5-10.3-46.5-24zm46.5 19.1c23.2 0 41.7-9 41.7-19.1s-18.5-19.1-41.7-19.1-41.6 9-41.7 19.1c0 10.1 18.5 19.1 41.7 19.1zm10.3-31.8c7.8 0 14.5 4.2 15.9 9.9h3.6c1.5 0 2.8.9 2.8 2.2s-1.3 2.2-2.8 2.2h-3.6c-1.4 5.7-8.1 9.9-15.9 9.9-1.5 0-2.8-.9-2.8-2.2s1.3-2.2 2.8-2.2c4.8 0 8.9-2.3 10.2-5.4h-21.6c-1.7 4.8-5.7 7.9-12.5 7.9-6.2-.1-11.5-3.4-12.8-7.9h-3.7c-1.5 0-2.8-.9-2.8-2.2s1.3-2.2 2.8-2.2h3.7c1.3-4.6 6.6-7.9 12.8-7.9 1.5 0 2.8.9 2.8 2.2s-1.3 2.2-2.7 2.2c-3.2 0-5.9 1.5-7 3.5h15.2c2.2-5.9 8-10 15.6-10zm-24.3 17.7c3.3 0 5.4-1.1 6.7-3.5h-13.7c1.1 2.1 3.8 3.5 7 3.5zm34.4-7.9c-1.4-3.2-5.5-5.4-10.2-5.4-4.5 0-8 2.2-9.8 5.4z"/></g><path d="m-166.8 142.4c0-13.7 21-23.9 46.5-24 25.5 0 46.5 10.3 46.5 24s-21 24-46.5 24-46.5-10.3-46.5-24zm46.5 19.1c23.2 0 41.7-9 41.7-19.1s-18.5-19.1-41.7-19.1-41.6 9-41.7 19.1c0 10.1 18.5 19.1 41.7 19.1zm10.3-31.8c7.8 0 14.5 4.2 15.9 9.9h3.6c1.5 0 2.8.9 2.8 2.2s-1.3 2.2-2.8 2.2h-3.6c-1.4 5.7-8.1 9.9-15.9 9.9-1.5 0-2.8-.9-2.8-2.2s1.3-2.2 2.8-2.2c4.8 0 8.9-2.3 10.2-5.4h-21.6c-1.7 4.8-5.7 7.9-12.5 7.9-6.2-.1-11.5-3.4-12.8-7.9h-3.7c-1.5 0-2.8-.9-2.8-2.2s1.3-2.2 2.8-2.2h3.7c1.3-4.6 6.6-7.9 12.8-7.9 1.5 0 2.8.9 2.8 2.2s-1.3 2.2-2.7 2.2c-3.2 0-5.9 1.5-7 3.5h15.2c2.2-5.9 8-10 15.6-10zm-24.3 17.7c3.3 0 5.4-1.1 6.7-3.5h-13.7c1.1 2.1 3.8 3.5 7 3.5zm34.4-7.9c-1.4-3.2-5.5-5.4-10.2-5.4-4.5 0-8 2.2-9.8 5.4z" fill="url(#aR)"/></g><g transform="translate(190.151819)"><path d="m-190.2 139.9v-9.6c.5-18.1 25.8-32.8 56.8-32.8 31.4 0 56.8 14.9 56.8 33.3 0 .6 0 1.3-.1 1.9v5.8c.1.6.1 1.3.1 1.9 0 18.4-25.4 33.3-56.8 33.3s-56.8-14.9-56.8-33.3c0-.2.1-.3 0-.5z" fill="#986e33"/><path d="m-190.2 139.9v-9.6c0-1.2.2-2.4.4-3.6h2.8v24.9c-2.1-3.5-3.2-7.2-3.2-11.1 0-.3.1-.4 0-.6zm6.5 16v-22.7h3.2v25.9c-1.1-1-2.2-2.1-3.2-3.2zm6.5 5.7v-25.2h3.2v27.3c-1.1-.6-2.1-1.4-3.2-2.1zm6.5 3.9v-25.9h3.2v27.4c-1-.4-2.1-.9-3.2-1.5zm6.5 2.9v-23.9h3.2v25c-1-.3-2.1-.7-3.2-1.1zm6.5 2.1v-26h3.2v26.8c-1-.2-2.1-.5-3.2-.8zm6.5 1.6v-27.5h3.2v27.6h-2.9c-.1-.1-.2-.1-.3-.1zm6.5 1v-26.9h3.2v27.2c-1.1-.1-2.1-.2-3.2-.3zm6.5.5v-27.5h3.2v27.6c-1.1 0-2.1 0-3.2-.1zm6.5.1v-27.6h3.2v27.5c-1.1.1-2.1.1-3.2.1zm6.5-.3v-27.2h3.2v26.9c-1.1.1-2.1.2-3.2.3zm6.5-.8v-26.5h3.2v25.9c-1.1.3-2.2.5-3.2.6zm6.4-1.2v-25.2h3.2v24.4c-1 .2-2.1.5-3.2.8zm6.5-1.9v-23.4h3.2v22.2c-1 .5-2.1.9-3.2 1.2zm6.5-2.4v-20.9h3.2v19.4c-1 .5-2.1 1-3.2 1.5zm6.5-3.4v-20.8h3.2v18.7c-1 .7-2.1 1.5-3.2 2.1zm6.5-4.6v-22.7h3.2v19.5c-.9 1.1-2 2.2-3.2 3.2zm4.9-5.2v-22.4h3.2v16.8c-.8 2-1.9 3.8-3.2 5.6z" fill="url(#aS)"/><path d="m-190.2 128.8c0 18.5 25.4 33.6 56.8 33.6s56.8-15 56.8-33.6-25.4-33.6-56.8-33.6c-31.3.1-56.7 15.1-56.8 33.6z" fill="url(#aT)"/><path d="m-166.8 101.7c4.2-1.8 8.9-3.3 14-4.4l56.8 56.8c-4 2-8.4 3.8-13.2 5.1z" fill="url(#aU)" fill-opacity=".5"/><path d="m-177.1 107.4c1.7-1.2 3.6-2.4 5.7-3.5l56.6 56.6c-2.6.5-5.2.9-7.9 1.2z" fill="url(#aV)" fill-opacity=".5"/><g filter="url(#o)"><path d="m-180.4 128.8c0-13.7 21-23.9 46.5-24 25.5 0 46.5 10.3 46.5 24s-21 24-46.5 24-46.5-10.3-46.5-24zm46.5 19.1c23.2 0 41.7-9 41.7-19.1s-18.5-19.1-41.7-19.1-41.6 9-41.7 19.1c.1 10.1 18.5 19.1 41.7 19.1zm10.3-31.8c7.8 0 14.5 4.2 15.9 9.9h3.6c1.5 0 2.8.9 2.8 2.2s-1.3 2.2-2.8 2.2h-3.6c-1.4 5.7-8.1 9.9-15.9 9.9-1.5 0-2.8-.9-2.8-2.2s1.3-2.2 2.8-2.2c4.8 0 8.9-2.3 10.2-5.4h-21.6c-1.7 4.8-5.7 7.9-12.5 7.9-6.2-.1-11.5-3.4-12.8-7.9h-3.7c-1.5 0-2.8-.9-2.8-2.2s1.3-2.2 2.8-2.2h3.7c1.3-4.6 6.6-7.9 12.8-7.9 1.5 0 2.8.9 2.8 2.2s-1.3 2.2-2.7 2.2c-3.2 0-5.9 1.5-7 3.5h15.2c2.2-5.9 8-10 15.6-10zm-24.3 17.7c3.3 0 5.4-1.1 6.7-3.5h-13.7c1.1 2.1 3.8 3.5 7 3.5zm34.4-7.8c-1.4-3.2-5.5-5.4-10.2-5.4-4.5 0-8 2.2-9.8 5.4z"/></g><path d="m-180.4 128.8c0-13.7 21-23.9 46.5-24 25.5 0 46.5 10.3 46.5 24s-21 24-46.5 24-46.5-10.3-46.5-24zm46.5 19.1c23.2 0 41.7-9 41.7-19.1s-18.5-19.1-41.7-19.1-41.6 9-41.7 19.1c.1 10.1 18.5 19.1 41.7 19.1zm10.3-31.8c7.8 0 14.5 4.2 15.9 9.9h3.6c1.5 0 2.8.9 2.8 2.2s-1.3 2.2-2.8 2.2h-3.6c-1.4 5.7-8.1 9.9-15.9 9.9-1.5 0-2.8-.9-2.8-2.2s1.3-2.2 2.8-2.2c4.8 0 8.9-2.3 10.2-5.4h-21.6c-1.7 4.8-5.7 7.9-12.5 7.9-6.2-.1-11.5-3.4-12.8-7.9h-3.7c-1.5 0-2.8-.9-2.8-2.2s1.3-2.2 2.8-2.2h3.7c1.3-4.6 6.6-7.9 12.8-7.9 1.5 0 2.8.9 2.8 2.2s-1.3 2.2-2.7 2.2c-3.2 0-5.9 1.5-7 3.5h15.2c2.2-5.9 8-10 15.6-10zm-24.3 17.7c3.3 0 5.4-1.1 6.7-3.5h-13.7c1.1 2.1 3.8 3.5 7 3.5zm34.4-7.8c-1.4-3.2-5.5-5.4-10.2-5.4-4.5 0-8 2.2-9.8 5.4z" fill="url(#aW)"/></g><g transform="translate(203.734092)"><path d="m-203.7 126.3v-9.6c.5-18.1 25.8-32.8 56.8-32.8 31.4 0 56.8 14.9 56.8 33.3 0 .6 0 1.3-.1 1.9v5.8c.1.6.1 1.3.1 1.9 0 18.4-25.4 33.3-56.8 33.3s-56.8-14.9-56.8-33.3c0-.1 0-.3 0-.5z" fill="#986e33"/><path d="m-203.7 126.3v-9.6c0-1.2.2-2.4.4-3.6h2.8v24.9c-2.1-3.5-3.2-7.2-3.2-11.1 0-.2 0-.4 0-.6zm6.5 16v-22.7h3.2v25.9c-1.2-1-2.3-2.1-3.2-3.2zm6.4 5.7v-25.2h3.2v27.3c-1-.6-2.1-1.3-3.2-2.1zm6.5 3.9v-25.9h3.2v27.4c-1-.4-2.1-.9-3.2-1.5zm6.5 2.9v-23.9h3.2v25c-1-.3-2.1-.7-3.2-1.1zm6.5 2.1v-26h3.2v26.8c-1-.2-2.1-.5-3.2-.8zm6.5 1.6v-27.6h3.2v27.6h-2.9s-.2 0-.3 0zm6.5 1v-26.9h3.2v27.2c-1-.1-2.1-.2-3.2-.3zm6.5.5v-27.5h3.2v27.6c-1 0-2.1 0-3.2-.1zm6.5.1v-27.6h3.2v27.5c-1 .1-2.1.1-3.2.1zm6.5-.3v-27.2h3.2v26.9c-1 .1-2.1.2-3.2.3zm6.5-.8v-26.5h3.2v25.9c-1.1.3-2.1.5-3.2.6zm6.5-1.2v-25.2h3.2v24.3c-1.1.3-2.1.6-3.2.9zm6.5-1.8v-23.4h3.2v22.2c-1.1.4-2.1.8-3.2 1.2zm6.4-2.5v-20.9h3.2v19.3c-1 .6-2 1.1-3.2 1.6zm6.5-3.4v-20.8h3.2v18.7c-1 .8-2 1.5-3.2 2.1zm6.5-4.6v-22.7h3.2v19.5c-.9 1.1-2 2.2-3.2 3.2zm4.9-5.2v-22.4h3.2v16.8c-.8 2-1.9 3.9-3.2 5.6z" fill="url(#aX)"/><path d="m-203.7 115.2c0 18.5 25.4 33.6 56.8 33.6s56.8-15 56.8-33.6-25.4-33.6-56.8-33.6c-31.4.1-56.8 15.1-56.8 33.6z" fill="url(#aY)"/><path d="m-180.3 88.1c4.2-1.8 8.9-3.3 14-4.4l56.8 56.8c-4 2-8.4 3.8-13.2 5.1z" fill="url(#aZ)" fill-opacity=".5"/><path d="m-190.7 93.9c1.7-1.2 3.6-2.4 5.7-3.5l56.6 56.6c-2.6.5-5.2.9-7.9 1.2z" fill="url(#a0)" fill-opacity=".5"/><g filter="url(#p)"><path d="m-194 115.2c0-13.7 21-23.9 46.5-24 25.5 0 46.5 10.3 46.5 24s-21 24-46.5 24-46.5-10.3-46.5-24zm46.5 19.1c23.2 0 41.7-9 41.7-19.1s-18.5-19.1-41.7-19.1-41.6 9-41.7 19.1c.1 10.1 18.6 19.1 41.7 19.1zm10.3-31.8c7.8 0 14.5 4.2 15.9 9.9h3.6c1.5 0 2.8.9 2.8 2.2s-1.3 2.2-2.8 2.2h-3.6c-1.4 5.7-8.1 9.9-15.9 9.9-1.5 0-2.8-.9-2.8-2.2s1.3-2.2 2.8-2.2c4.8 0 8.9-2.3 10.2-5.4h-21.6c-1.7 4.8-5.7 7.9-12.5 7.9-6.2-.1-11.5-3.4-12.8-7.9h-3.7c-1.5 0-2.8-.9-2.8-2.2s1.3-2.2 2.8-2.2h3.7c1.3-4.6 6.6-7.9 12.8-7.9 1.5 0 2.8.9 2.8 2.2s-1.3 2.2-2.7 2.2c-3.2 0-5.9 1.5-7 3.5h15.2c2.2-5.8 8.1-10 15.6-10zm-24.3 17.7c3.3 0 5.4-1.1 6.7-3.5h-13.7c1.1 2.1 3.9 3.5 7 3.5zm34.4-7.8c-1.4-3.2-5.5-5.4-10.2-5.4-4.5 0-8 2.2-9.8 5.4z"/></g><path d="m-194 115.2c0-13.7 21-23.9 46.5-24 25.5 0 46.5 10.3 46.5 24s-21 24-46.5 24-46.5-10.3-46.5-24zm46.5 19.1c23.2 0 41.7-9 41.7-19.1s-18.5-19.1-41.7-19.1-41.6 9-41.7 19.1c.1 10.1 18.6 19.1 41.7 19.1zm10.3-31.8c7.8 0 14.5 4.2 15.9 9.9h3.6c1.5 0 2.8.9 2.8 2.2s-1.3 2.2-2.8 2.2h-3.6c-1.4 5.7-8.1 9.9-15.9 9.9-1.5 0-2.8-.9-2.8-2.2s1.3-2.2 2.8-2.2c4.8 0 8.9-2.3 10.2-5.4h-21.6c-1.7 4.8-5.7 7.9-12.5 7.9-6.2-.1-11.5-3.4-12.8-7.9h-3.7c-1.5 0-2.8-.9-2.8-2.2s1.3-2.2 2.8-2.2h3.7c1.3-4.6 6.6-7.9 12.8-7.9 1.5 0 2.8.9 2.8 2.2s-1.3 2.2-2.7 2.2c-3.2 0-5.9 1.5-7 3.5h15.2c2.2-5.8 8.1-10 15.6-10zm-24.3 17.7c3.3 0 5.4-1.1 6.7-3.5h-13.7c1.1 2.1 3.9 3.5 7 3.5zm34.4-7.8c-1.4-3.2-5.5-5.4-10.2-5.4-4.5 0-8 2.2-9.8 5.4z" fill="url(#a1)"/></g><g transform="translate(217.316365)"><path d="m-217.3 112.7v-9.6c.5-18.1 25.8-32.8 56.8-32.8 31.4 0 56.8 14.9 56.8 33.3 0 .6 0 1.3-.1 1.9v5.8c.1.6.1 1.3.1 1.9 0 18.4-25.4 33.3-56.8 33.3s-56.8-14.9-56.8-33.3c0-.1 0-.3 0-.5z" fill="#986e33"/><path d="m-217.3 112.7v-9.6c0-1.2.2-2.4.4-3.6h2.8v24.9c-2.1-3.5-3.2-7.2-3.2-11.1 0-.2 0-.4 0-.6zm6.5 16v-22.7h3.2v25.9c-1.2-1-2.2-2.1-3.2-3.2zm6.5 5.8v-25.2h3.2v27.3c-1.1-.7-2.2-1.4-3.2-2.1zm6.5 3.9v-25.9h3.2v27.4c-1.1-.5-2.2-1-3.2-1.5zm6.4 2.8v-23.9h3.2v25c-1-.3-2.1-.7-3.2-1.1zm6.5 2.2v-26h3.2v26.8c-1-.3-2.1-.5-3.2-.8zm6.5 1.5v-27.5h3.2v27.6h-2.9c0-.1-.2-.1-.3-.1zm6.5 1v-26.9h3.2v27.2c-1-.1-2.1-.2-3.2-.3zm6.5.5v-27.5h3.2v27.6c-1 0-2.1 0-3.2-.1zm6.5.2v-27.6h3.2v27.5c-1 0-2.1 0-3.2.1zm6.5-.4v-27.2h3.2v26.9c-1 .1-2.1.2-3.2.3zm6.5-.7v-26.5h3.2v25.9c-1 .2-2.1.4-3.2.6zm6.5-1.3v-25.2h3.2v24.4c-1 .3-2.1.5-3.2.8zm6.5-1.8v-23.4h3.2v22.2c-1 .4-2.1.8-3.2 1.2zm6.5-2.5v-20.9h3.2v19.4c-1 .5-2.1 1-3.2 1.5zm6.5-3.3v-20.8h3.2v18.7c-1 .7-2.1 1.4-3.2 2.1zm6.4-4.7v-22.7h3.2v19.5c-.9 1.1-2 2.2-3.2 3.2zm4.9-5.1v-22.4h3.2v16.8c-.7 1.9-1.8 3.8-3.2 5.6z" fill="url(#a2)"/><path d="m-217.3 101.6c0 18.5 25.4 33.6 56.8 33.6s56.8-15 56.8-33.6-25.4-33.6-56.8-33.6c-31.4.1-56.8 15.1-56.8 33.6z" fill="url(#a3)"/><path d="m-193.9 74.5c4.2-1.8 8.9-3.3 14-4.4l56.8 56.8c-4 2-8.4 3.8-13.2 5.1z" fill="url(#a4)" fill-opacity=".5"/><path d="m-204.3 80.3c1.7-1.2 3.6-2.4 5.7-3.5l56.6 56.6c-2.6.5-5.2.9-7.9 1.2z" fill="url(#a5)" fill-opacity=".5"/><g filter="url(#q)"><path d="m-207.6 101.6c0-13.7 21-23.9 46.5-24 25.5 0 46.5 10.3 46.5 24s-21 24-46.5 24-46.5-10.2-46.5-24zm46.6 19.1c23.2 0 41.7-9 41.7-19.1s-18.5-19.1-41.7-19.1-41.6 9-41.7 19.1c0 10.1 18.5 19.1 41.7 19.1zm10.3-31.8c7.8 0 14.5 4.2 15.9 9.9h3.6c1.5 0 2.8.9 2.8 2.2s-1.3 2.2-2.8 2.2h-3.6c-1.4 5.7-8.1 9.9-15.9 9.9-1.5 0-2.8-.9-2.8-2.2s1.3-2.2 2.8-2.2c4.8 0 8.9-2.3 10.2-5.4h-21.5c-1.7 4.8-5.7 7.9-12.5 7.9-6.2-.1-11.5-3.4-12.8-7.9h-3.7c-1.5 0-2.8-.9-2.8-2.2s1.3-2.2 2.8-2.2h3.7c1.3-4.6 6.6-7.9 12.8-7.9 1.5 0 2.8.9 2.8 2.2s-1.3 2.2-2.7 2.2c-3.2 0-5.9 1.5-7 3.5h15.2c2-5.8 7.9-10 15.5-10zm-24.4 17.8c3.3 0 5.4-1.1 6.7-3.5h-13.7c1.2 2 3.9 3.4 7 3.5zm34.5-7.9c-1.4-3.2-5.5-5.4-10.2-5.4-4.5 0-8 2.2-9.8 5.4z"/></g><path d="m-207.6 101.6c0-13.7 21-23.9 46.5-24 25.5 0 46.5 10.3 46.5 24s-21 24-46.5 24-46.5-10.2-46.5-24zm46.6 19.1c23.2 0 41.7-9 41.7-19.1s-18.5-19.1-41.7-19.1-41.6 9-41.7 19.1c0 10.1 18.5 19.1 41.7 19.1zm10.3-31.8c7.8 0 14.5 4.2 15.9 9.9h3.6c1.5 0 2.8.9 2.8 2.2s-1.3 2.2-2.8 2.2h-3.6c-1.4 5.7-8.1 9.9-15.9 9.9-1.5 0-2.8-.9-2.8-2.2s1.3-2.2 2.8-2.2c4.8 0 8.9-2.3 10.2-5.4h-21.5c-1.7 4.8-5.7 7.9-12.5 7.9-6.2-.1-11.5-3.4-12.8-7.9h-3.7c-1.5 0-2.8-.9-2.8-2.2s1.3-2.2 2.8-2.2h3.7c1.3-4.6 6.6-7.9 12.8-7.9 1.5 0 2.8.9 2.8 2.2s-1.3 2.2-2.7 2.2c-3.2 0-5.9 1.5-7 3.5h15.2c2-5.8 7.9-10 15.5-10zm-24.4 17.8c3.3 0 5.4-1.1 6.7-3.5h-13.7c1.2 2 3.9 3.4 7 3.5zm34.5-7.9c-1.4-3.2-5.5-5.4-10.2-5.4-4.5 0-8 2.2-9.8 5.4z" fill="url(#a6)"/></g><g transform="translate(230.898638)"><path d="m-230.9 99.1v-9.6c.5-18.1 25.8-32.8 56.8-32.8 31.4 0 56.8 14.9 56.8 33.3 0 .6 0 1.3-.1 1.9v5.8c.1.6.1 1.3.1 1.9 0 18.4-25.4 33.3-56.8 33.3s-56.8-14.9-56.8-33.3c0-.1 0-.3 0-.5z" fill="#986e33"/><path d="m-230.9 99.1v-9.6c0-1.2.2-2.4.4-3.6h2.8v24.9c-2.1-3.5-3.2-7.2-3.2-11.1 0-.2 0-.4 0-.6zm6.5 16v-22.7h3.2v25.9c-1.1-1-2.2-2.1-3.2-3.2zm6.5 5.8v-25.2h3.2v27.3c-1.1-.7-2.2-1.4-3.2-2.1zm6.5 3.9v-25.9h3.2v27.4c-1.1-.5-2.2-1-3.2-1.5zm6.5 2.9v-23.9h3.2v25c-1.1-.4-2.2-.7-3.2-1.1zm6.5 2.1v-26h3.2v26.8c-1.1-.2-2.2-.5-3.2-.8zm6.4 1.5v-27.5h3.2v27.6h-2.9s-.1-.1-.3-.1zm6.5 1v-26.9h3.2v27.2c-1 0-2.1-.2-3.2-.3zm6.5.6v-27.5h3.2v27.6c-1 0-2.1-.1-3.2-.1zm6.5.1v-27.6h3.2v27.5c-1 0-2.1.1-3.2.1zm6.5-.4v-27.2h3.2v26.9c-1 .1-2.1.3-3.2.3zm6.5-.7v-26.5h3.2v25.9c-1 .2-2.1.4-3.2.6zm6.5-1.3v-25.2h3.2v24.4c-1 .3-2.1.6-3.2.8zm6.5-1.8v-23.4h3.2v22.2c-1 .5-2.1.8-3.2 1.2zm6.5-2.5v-20.9h3.2v19.4c-1 .5-2.1 1-3.2 1.5zm6.5-3.3v-20.8h3.2v18.7c-1 .7-2.1 1.4-3.2 2.1zm6.5-4.7v-22.7h3.2v19.5c-1 1.1-2.1 2.2-3.2 3.2zm4.8-5.1v-22.4h3.2v16.8c-.7 1.9-1.8 3.8-3.2 5.6z" fill="url(#a7)"/><path d="m-230.9 88.1c0 18.5 25.4 33.6 56.8 33.6s56.8-15 56.8-33.6-25.4-33.6-56.8-33.6c-31.3 0-56.7 15-56.8 33.6z" fill="url(#a8)"/><path d="m-207.5 60.9c4.2-1.8 8.9-3.3 14-4.4l56.8 56.8c-4 2-8.4 3.8-13.2 5.1z" fill="url(#a9)" fill-opacity=".5"/><path d="m-217.8 66.7c1.7-1.2 3.6-2.4 5.7-3.5l56.6 56.6c-2.6.5-5.2.9-7.9 1.2z" fill="url(#ba)" fill-opacity=".5"/><g filter="url(#r)"><path d="m-221.2 88.1c0-13.7 21-23.9 46.5-24 25.5 0 46.5 10.3 46.5 24s-21 24-46.5 24-46.5-10.3-46.5-24zm46.6 19.1c23.2 0 41.7-9 41.7-19.1s-18.5-19.1-41.7-19.1-41.6 9-41.7 19.1c0 10 18.5 19.1 41.7 19.1zm10.3-31.8c7.8 0 14.5 4.2 15.9 9.9h3.6c1.5 0 2.8.9 2.8 2.2s-1.3 2.2-2.8 2.2h-3.6c-1.4 5.7-8.1 9.9-15.9 9.9-1.5 0-2.8-.9-2.8-2.2s1.3-2.2 2.8-2.2c4.8 0 8.9-2.3 10.2-5.4h-21.6c-1.7 4.8-5.7 7.9-12.5 7.9-6.2-.1-11.5-3.4-12.8-7.9h-3.7c-1.5 0-2.8-.9-2.8-2.2s1.3-2.2 2.8-2.2h3.7c1.3-4.6 6.6-7.9 12.8-7.9 1.5 0 2.8.9 2.8 2.2s-1.3 2.2-2.7 2.2c-3.2 0-5.9 1.5-7 3.5h15.2c2.1-5.9 8-10 15.6-10zm-24.4 17.7c3.3 0 5.4-1.1 6.7-3.5h-13.7c1.2 2 3.9 3.4 7 3.5zm34.5-7.9c-1.4-3.2-5.5-5.4-10.2-5.4-4.5 0-8 2.2-9.8 5.4z"/></g><path d="m-221.2 88.1c0-13.7 21-23.9 46.5-24 25.5 0 46.5 10.3 46.5 24s-21 24-46.5 24-46.5-10.3-46.5-24zm46.6 19.1c23.2 0 41.7-9 41.7-19.1s-18.5-19.1-41.7-19.1-41.6 9-41.7 19.1c0 10 18.5 19.1 41.7 19.1zm10.3-31.8c7.8 0 14.5 4.2 15.9 9.9h3.6c1.5 0 2.8.9 2.8 2.2s-1.3 2.2-2.8 2.2h-3.6c-1.4 5.7-8.1 9.9-15.9 9.9-1.5 0-2.8-.9-2.8-2.2s1.3-2.2 2.8-2.2c4.8 0 8.9-2.3 10.2-5.4h-21.6c-1.7 4.8-5.7 7.9-12.5 7.9-6.2-.1-11.5-3.4-12.8-7.9h-3.7c-1.5 0-2.8-.9-2.8-2.2s1.3-2.2 2.8-2.2h3.7c1.3-4.6 6.6-7.9 12.8-7.9 1.5 0 2.8.9 2.8 2.2s-1.3 2.2-2.7 2.2c-3.2 0-5.9 1.5-7 3.5h15.2c2.1-5.9 8-10 15.6-10zm-24.4 17.7c3.3 0 5.4-1.1 6.7-3.5h-13.7c1.2 2 3.9 3.4 7 3.5zm34.5-7.9c-1.4-3.2-5.5-5.4-10.2-5.4-4.5 0-8 2.2-9.8 5.4z" fill="url(#bb)"/></g><g transform="translate(244.480911)"><path d="m-244.5 85.6v-9.7c.5-18.1 25.8-32.8 56.8-32.8 31.4 0 56.8 14.9 56.8 33.3 0 .6 0 1.3-.1 1.9v5.8c.1.6.1 1.3.1 1.9 0 18.4-25.4 33.3-56.8 33.3s-56.8-14.9-56.8-33.3c0-.1 0-.3 0-.4z" fill="#986e33"/><path d="m-244.5 85.6v-9.7c0-1.2.2-2.4.4-3.6h2.8v24.9c-2.1-3.5-3.2-7.2-3.2-11.1 0-.2 0-.4 0-.5zm6.5 16v-22.8h3.2v25.9c-1.1-1-2.2-2-3.2-3.1zm6.5 5.7v-25.2h3.2v27.3c-1.1-.7-2.2-1.4-3.2-2.1zm6.5 3.9v-25.9h3.2v27.4c-1.1-.4-2.2-1-3.2-1.5zm6.5 2.9v-23.9h3.2v25c-1.1-.3-2.2-.7-3.2-1.1zm6.5 2.1v-26h3.2v26.8c-1.1-.2-2.2-.5-3.2-.8zm6.5 1.5v-27.5h3.2v27.6h-2.9c-.1 0-.2-.1-.3-.1zm6.5 1v-26.9h3.2v27.2c-1.1 0-2.2-.1-3.2-.3zm6.4.6v-27.5h3.2v27.6c-1 0-2.1-.1-3.2-.1zm6.5.1v-27.6h3.2v27.5c-1 0-2.1.1-3.2.1zm6.5-.3v-27.2h3.2v26.9c-1 .1-2.1.2-3.2.3zm6.5-.8v-26.5h3.2v25.9c-1 .2-2.1.4-3.2.6zm6.5-1.3v-25.2h3.2v24.4c-1 .3-2.1.6-3.2.8zm6.5-1.8v-23.4h3.2v22.2c-1 .5-2.1.9-3.2 1.2zm6.5-2.5v-20.9h3.2v19.4c-1 .5-2.1 1.1-3.2 1.5zm6.5-3.3v-20.8h3.2v18.7c-1 .7-2.1 1.4-3.2 2.1zm6.5-4.7v-22.6h3.2v19.5c-1 1.1-2 2.1-3.2 3.1zm4.8-5.1v-22.4h3.2v16.8c-.7 2-1.8 3.8-3.2 5.6z" fill="url(#bc)"/><path d="m-244.5 74.5c0 18.5 25.4 33.6 56.8 33.6s56.8-15 56.8-33.6-25.4-33.6-56.8-33.6c-31.3.1-56.7 15.1-56.8 33.6z" fill="url(#bd)"/><path d="m-221.1 47.4c4.2-1.8 8.9-3.3 14-4.4l56.8 56.8c-4 2-8.4 3.8-13.2 5.1z" fill="url(#be)" fill-opacity=".5"/><path d="m-231.4 53.1c1.7-1.2 3.6-2.4 5.7-3.5l56.6 56.6c-2.6.5-5.2.9-7.9 1.2z" fill="url(#bf)" fill-opacity=".5"/><g filter="url(#s)"><path d="m-234.7 74.5c0-13.7 21-23.9 46.5-24 25.5 0 46.5 10.3 46.5 24s-21 24-46.5 24-46.5-10.3-46.5-24zm46.5 19.1c23.2 0 41.7-9 41.7-19.1s-18.5-19.1-41.7-19.1-41.6 9-41.7 19.1c0 10.1 18.5 19.1 41.7 19.1zm10.3-31.8c7.8 0 14.5 4.2 15.9 9.9h3.6c1.5 0 2.8.9 2.8 2.2s-1.3 2.2-2.8 2.2h-3.6c-1.4 5.7-8.1 9.9-15.9 9.9-1.5 0-2.8-.9-2.8-2.2s1.3-2.2 2.8-2.2c4.8 0 8.9-2.3 10.2-5.4h-21.6c-1.7 4.8-5.7 7.9-12.5 7.9-6.2-.1-11.5-3.4-12.8-7.9h-3.7c-1.5 0-2.8-.9-2.8-2.2s1.3-2.2 2.8-2.2h3.7c1.3-4.6 6.6-7.9 12.8-7.9 1.5 0 2.8.9 2.8 2.2s-1.3 2.2-2.7 2.2c-3.2 0-5.9 1.5-7 3.5h15.2c2.1-5.9 8-10 15.6-10zm-24.3 17.7c3.3 0 5.4-1.1 6.7-3.5h-13.7c1.1 2 3.8 3.5 7 3.5zm34.4-7.9c-1.4-3.2-5.5-5.4-10.2-5.4-4.5 0-8 2.2-9.8 5.4z"/></g><path d="m-234.7 74.5c0-13.7 21-23.9 46.5-24 25.5 0 46.5 10.3 46.5 24s-21 24-46.5 24-46.5-10.3-46.5-24zm46.5 19.1c23.2 0 41.7-9 41.7-19.1s-18.5-19.1-41.7-19.1-41.6 9-41.7 19.1c0 10.1 18.5 19.1 41.7 19.1zm10.3-31.8c7.8 0 14.5 4.2 15.9 9.9h3.6c1.5 0 2.8.9 2.8 2.2s-1.3 2.2-2.8 2.2h-3.6c-1.4 5.7-8.1 9.9-15.9 9.9-1.5 0-2.8-.9-2.8-2.2s1.3-2.2 2.8-2.2c4.8 0 8.9-2.3 10.2-5.4h-21.6c-1.7 4.8-5.7 7.9-12.5 7.9-6.2-.1-11.5-3.4-12.8-7.9h-3.7c-1.5 0-2.8-.9-2.8-2.2s1.3-2.2 2.8-2.2h3.7c1.3-4.6 6.6-7.9 12.8-7.9 1.5 0 2.8.9 2.8 2.2s-1.3 2.2-2.7 2.2c-3.2 0-5.9 1.5-7 3.5h15.2c2.1-5.9 8-10 15.6-10zm-24.3 17.7c3.3 0 5.4-1.1 6.7-3.5h-13.7c1.1 2 3.8 3.5 7 3.5zm34.4-7.9c-1.4-3.2-5.5-5.4-10.2-5.4-4.5 0-8 2.2-9.8 5.4z" fill="url(#bg)"/></g><g transform="translate(258.181853)"><path d="m-258.2 71.9v-9.6c.5-18.1 25.8-32.8 56.8-32.8 31.4 0 56.8 14.9 56.8 33.3 0 .6 0 1.3-.1 1.9v5.8c.1.6.1 1.3.1 1.9 0 18.4-25.4 33.3-56.8 33.3s-56.8-14.9-56.8-33.3c0-.2 0-.4 0-.5z" fill="#986e33"/><path d="m-258.2 71.9v-9.6c0-1.2.2-2.4.4-3.6h2.8v24.9c-2.1-3.5-3.2-7.2-3.2-11.1 0-.3 0-.5 0-.6zm6.5 16v-22.8h3.2v25.9c-1.1-1-2.2-2-3.2-3.1zm6.5 5.7v-25.2h3.2v27.3c-1.1-.7-2.2-1.4-3.2-2.1zm6.5 3.9v-25.9h3.2v27.4c-1.1-.4-2.2-1-3.2-1.5zm6.5 2.9v-23.9h3.2v25c-1.1-.3-2.2-.7-3.2-1.1zm6.5 2.1v-26h3.2v26.8c-1.1-.2-2.2-.5-3.2-.8zm6.5 1.5v-27.5h3.2v27.6h-2.9c-.1 0-.2-.1-.3-.1zm6.5 1v-26.9h3.2v27.2c-1.1 0-2.2-.1-3.2-.3zm6.4.6v-27.5h3.2v27.6c-1 0-2.1-.1-3.2-.1zm6.5.1v-27.6h3.2v27.5c-1 0-2.1.1-3.2.1zm6.5-.3v-27.3h3.2v26.9c-1 .2-2.1.3-3.2.4zm6.5-.8v-26.5h3.2v25.9c-1 .2-2.1.4-3.2.6zm6.5-1.3v-25.2h3.2v24.4c-1 .3-2.1.6-3.2.8zm6.5-1.8v-23.4h3.2v22.2c-1 .5-2.1.9-3.2 1.2zm6.5-2.5v-20.9h3.2v19.4c-1 .5-2.1 1.1-3.2 1.5zm6.5-3.3v-20.8h3.2v18.7c-1 .7-2.1 1.4-3.2 2.1zm6.5-4.7v-22.6h3.2v19.5c-1 1.1-2 2.1-3.2 3.1zm4.8-5.1v-22.4h3.2v16.8c-.7 2-1.8 3.8-3.2 5.6z" fill="url(#bh)"/><path d="m-258.2 60.8c0 18.5 25.4 33.6 56.8 33.6s56.8-15 56.8-33.6-25.4-33.6-56.8-33.6c-31.3.1-56.7 15.1-56.8 33.6z" fill="url(#bi)"/><path d="m-234.8 33.7c4.2-1.8 8.9-3.3 14-4.4l56.8 56.8c-4 2-8.4 3.8-13.2 5.1z" fill="url(#bj)" fill-opacity=".5"/><path d="m-245.1 39.4c1.7-1.2 3.6-2.4 5.7-3.5l56.6 56.6c-2.6.5-5.2.9-7.9 1.2z" fill="url(#bk)" fill-opacity=".5"/><g filter="url(#t)"><path d="m-248.4 60.8c0-13.7 21-23.9 46.5-24 25.5 0 46.5 10.3 46.5 24s-21 24-46.5 24-46.5-10.3-46.5-24zm46.5 19.1c23.2 0 41.7-9 41.7-19.1s-18.5-19.1-41.7-19.1-41.6 9-41.7 19.1c0 10.1 18.5 19.1 41.7 19.1zm10.3-31.8c7.8 0 14.5 4.2 15.9 9.9h3.6c1.5 0 2.8.9 2.8 2.2s-1.3 2.2-2.8 2.2h-3.6c-1.4 5.7-8.1 9.9-15.9 9.9-1.5 0-2.8-.9-2.8-2.2s1.3-2.2 2.8-2.2c4.8 0 8.9-2.3 10.2-5.4h-21.6c-1.7 4.8-5.7 7.9-12.5 7.9-6.2-.1-11.5-3.4-12.8-7.9h-3.7c-1.5 0-2.8-.9-2.8-2.2s1.3-2.2 2.8-2.2h3.7c1.3-4.6 6.6-7.9 12.8-7.9 1.5 0 2.8.9 2.8 2.2s-1.3 2.2-2.7 2.2c-3.2 0-5.9 1.5-7 3.5h15.2c2.1-5.9 8-10 15.6-10zm-24.3 17.7c3.3 0 5.4-1.1 6.7-3.5h-13.7c1.1 2 3.8 3.5 7 3.5zm34.4-7.9c-1.4-3.2-5.5-5.4-10.2-5.4-4.5 0-8 2.2-9.8 5.4z"/></g><path d="m-248.4 60.8c0-13.7 21-23.9 46.5-24 25.5 0 46.5 10.3 46.5 24s-21 24-46.5 24-46.5-10.3-46.5-24zm46.5 19.1c23.2 0 41.7-9 41.7-19.1s-18.5-19.1-41.7-19.1-41.6 9-41.7 19.1c0 10.1 18.5 19.1 41.7 19.1zm10.3-31.8c7.8 0 14.5 4.2 15.9 9.9h3.6c1.5 0 2.8.9 2.8 2.2s-1.3 2.2-2.8 2.2h-3.6c-1.4 5.7-8.1 9.9-15.9 9.9-1.5 0-2.8-.9-2.8-2.2s1.3-2.2 2.8-2.2c4.8 0 8.9-2.3 10.2-5.4h-21.6c-1.7 4.8-5.7 7.9-12.5 7.9-6.2-.1-11.5-3.4-12.8-7.9h-3.7c-1.5 0-2.8-.9-2.8-2.2s1.3-2.2 2.8-2.2h3.7c1.3-4.6 6.6-7.9 12.8-7.9 1.5 0 2.8.9 2.8 2.2s-1.3 2.2-2.7 2.2c-3.2 0-5.9 1.5-7 3.5h15.2c2.1-5.9 8-10 15.6-10zm-24.3 17.7c3.3 0 5.4-1.1 6.7-3.5h-13.7c1.1 2 3.8 3.5 7 3.5zm34.4-7.9c-1.4-3.2-5.5-5.4-10.2-5.4-4.5 0-8 2.2-9.8 5.4z" fill="url(#bl)"/></g><g transform="translate(271.764126)"><path d="m-271.8 58.3v-9.6c.6-18.2 25.8-32.8 56.8-32.9 31.4 0 56.8 14.9 56.8 33.3 0 .6 0 1.3-.1 1.9v5.9c.1.6.1 1.3.1 1.9 0 18.4-25.4 33.3-56.8 33.3s-56.8-14.9-56.8-33.3c0-.2 0-.4 0-.5z" fill="#986e33"/><path d="m-271.8 58.3v-9.6c0-1.2.2-2.4.4-3.6h2.8v24.8c-2.1-3.5-3.2-7.2-3.2-11.1 0-.2 0-.4 0-.5zm6.5 16v-22.7h3.2v25.9c-1.1-1.1-2.2-2.1-3.2-3.2zm6.5 5.7v-25.2h3.2v27.3c-1.1-.7-2.2-1.4-3.2-2.1zm6.5 3.9v-25.9h3.2v27.4c-1.1-.4-2.1-.9-3.2-1.5zm6.5 2.9v-23.9h3.2v25c-1.1-.3-2.1-.7-3.2-1.1zm6.5 2.1v-26h3.2v26.8c-1.1-.2-2.1-.5-3.2-.8zm6.5 1.5v-27.5h3.2v27.6h-2.9c-.1 0-.2 0-.3-.1zm6.5 1.1v-27h3.2v27.2c-1.1 0-2.2-.1-3.2-.2zm6.5.5v-27.5h3.2v27.6c-1.1 0-2.2 0-3.2-.1zm6.5.1v-27.6h3.2v27.5c-1.1.1-2.2.1-3.2.1zm6.4-.3v-27.3h3.2v26.9c-1 .2-2.1.3-3.2.4zm6.5-.8v-26.5h3.2v25.9c-1 .2-2.1.4-3.2.6zm6.5-1.3v-25.2h3.2v24.4c-1 .3-2.1.6-3.2.8zm6.5-1.8v-23.4h3.2v22.2c-1 .5-2.1.9-3.2 1.2zm6.5-2.4v-21h3.2v19.4c-1 .6-2.1 1.1-3.2 1.6zm6.5-3.4v-20.8h3.2v18.7c-1 .7-2.1 1.4-3.2 2.1zm6.5-4.6v-22.7h3.2v19.5c-.9 1.1-2 2.1-3.2 3.2zm4.9-5.2v-22.4h3.2v16.8c-.8 2-1.9 3.8-3.2 5.6z" fill="url(#bm)"/><path d="m-271.8 47.2c0 18.5 25.4 33.6 56.8 33.6s56.8-15 56.8-33.6-25.4-33.6-56.8-33.6c-31.3.1-56.7 15.1-56.8 33.6z" fill="url(#bn)"/><path d="m-248.4 20.1c4.2-1.8 8.9-3.3 14-4.4l56.8 56.8c-4 2-8.4 3.8-13.2 5.1z" fill="url(#bo)" fill-opacity=".5"/><path d="m-258.7 25.8c1.7-1.2 3.6-2.4 5.7-3.5l56.6 56.6c-2.6.5-5.2.9-7.9 1.2z" fill="url(#bp)" fill-opacity=".5"/><g filter="url(#u)"><path d="m-262 47.2c0-13.7 21-23.9 46.5-24 25.5 0 46.5 10.3 46.5 24s-21 24-46.5 24-46.5-10.3-46.5-24zm46.5 19.1c23.2 0 41.7-9 41.7-19.1s-18.5-19.1-41.7-19.1-41.6 9-41.7 19.1c0 10.1 18.5 19.1 41.7 19.1zm10.3-31.8c7.8 0 14.5 4.2 15.9 9.9h3.6c1.5 0 2.8.9 2.8 2.2s-1.3 2.2-2.8 2.2h-3.6c-1.4 5.7-8.1 9.9-15.9 9.9-1.5 0-2.8-.9-2.8-2.2s1.3-2.2 2.8-2.2c4.8 0 8.9-2.3 10.2-5.4h-21.6c-1.7 4.8-5.7 7.9-12.5 7.9-6.2-.1-11.5-3.4-12.8-7.9h-3.7c-1.5 0-2.8-.9-2.8-2.2s1.3-2.2 2.8-2.2h3.7c1.3-4.6 6.6-7.9 12.8-7.9 1.5 0 2.8.9 2.8 2.2s-1.3 2.2-2.7 2.2c-3.2 0-5.9 1.5-7 3.5h15.2c2.2-5.9 8-10 15.6-10zm-24.3 17.7c3.3 0 5.4-1.1 6.7-3.5h-13.7c1.1 2.1 3.8 3.5 7 3.5zm34.4-7.8c-1.4-3.2-5.5-5.4-10.2-5.4-4.5 0-8 2.2-9.8 5.4z"/></g><path d="m-262 47.2c0-13.7 21-23.9 46.5-24 25.5 0 46.5 10.3 46.5 24s-21 24-46.5 24-46.5-10.3-46.5-24zm46.5 19.1c23.2 0 41.7-9 41.7-19.1s-18.5-19.1-41.7-19.1-41.6 9-41.7 19.1c0 10.1 18.5 19.1 41.7 19.1zm10.3-31.8c7.8 0 14.5 4.2 15.9 9.9h3.6c1.5 0 2.8.9 2.8 2.2s-1.3 2.2-2.8 2.2h-3.6c-1.4 5.7-8.1 9.9-15.9 9.9-1.5 0-2.8-.9-2.8-2.2s1.3-2.2 2.8-2.2c4.8 0 8.9-2.3 10.2-5.4h-21.6c-1.7 4.8-5.7 7.9-12.5 7.9-6.2-.1-11.5-3.4-12.8-7.9h-3.7c-1.5 0-2.8-.9-2.8-2.2s1.3-2.2 2.8-2.2h3.7c1.3-4.6 6.6-7.9 12.8-7.9 1.5 0 2.8.9 2.8 2.2s-1.3 2.2-2.7 2.2c-3.2 0-5.9 1.5-7 3.5h15.2c2.2-5.9 8-10 15.6-10zm-24.3 17.7c3.3 0 5.4-1.1 6.7-3.5h-13.7c1.1 2.1 3.8 3.5 7 3.5zm34.4-7.8c-1.4-3.2-5.5-5.4-10.2-5.4-4.5 0-8 2.2-9.8 5.4z" fill="url(#bq)"/></g><path d="m0 44.7v-9.6c.5-18.2 25.8-32.8 56.8-32.9 31.4 0 56.8 14.9 56.8 33.3 0 .6 0 1.3-.1 1.9v5.8c.1.6.1 1.3.1 1.9 0 18.4-25.4 33.3-56.8 33.3s-56.8-14.8-56.8-33.2c0-.2 0-.3 0-.5z" fill="#986e33"/><path d="m0 44.7v-9.6c0-1.2.2-2.4.4-3.6h2.8v24.9c-2.1-3.5-3.2-7.3-3.2-11.2 0-.2 0-.3 0-.5zm6.5 16v-22.7h3.2v25.9c-1.1-1-2.2-2.1-3.2-3.2zm6.5 5.7v-25.2h3.2v27.3c-1.1-.6-2.2-1.3-3.2-2.1zm6.5 3.9v-25.8h3.2v27.4c-1.1-.5-2.2-1-3.2-1.6zm6.5 2.9v-23.9h3.2v25c-1.1-.3-2.2-.7-3.2-1.1zm6.5 2.1v-26h3.2v26.8c-1.1-.2-2.2-.5-3.2-.8zm6.4 1.6v-27.6h3.2v27.6h-2.9s-.1 0-.3 0zm6.5 1v-26.9h3.2v27.2c-1-.1-2.1-.2-3.2-.3zm6.5.5v-27.4h3.2v27.6c-1-.1-2.1-.1-3.2-.2zm6.5.1v-27.5h3.2v27.5c-1 0-2.1 0-3.2 0zm6.5-.3v-27.2h3.2v26.9c-1 .1-2.1.2-3.2.3zm6.5-.8v-26.4h3.2v25.9c-1 .2-2.1.4-3.2.5zm6.5-1.2v-25.2h3.2v24.4c-1 .2-2.1.5-3.2.8zm6.5-1.8v-23.4h3.2v22.2c-1 .4-2.1.8-3.2 1.2zm6.5-2.5v-20.9h3.2v19.4c-1 .5-2.1 1-3.2 1.5zm6.5-3.4v-20.8h3.2v18.7c-1 .8-2.1 1.5-3.2 2.1zm6.5-4.6v-22.7h3.2v19.5c-1 1.1-2.1 2.2-3.2 3.2zm4.8-5.2v-22.4h3.2v16.8c-.7 2-1.8 3.9-3.2 5.6z" fill="url(#br)"/><path d="m0 33.6c0 18.5 25.4 33.6 56.8 33.6s56.8-15 56.8-33.6-25.4-33.6-56.8-33.6c-31.3.1-56.7 15.1-56.8 33.6z" fill="url(#bs)"/><path d="m23.4 6.5c4.2-1.8 8.9-3.3 14-4.4l56.7 56.8c-4 2-8.4 3.8-13.2 5.1z" fill="url(#bt)" fill-opacity=".5"/><path d="m13.1 12.2c1.7-1.2 3.6-2.4 5.7-3.5l56.6 56.6c-2.6.5-5.2.9-7.9 1.2z" fill="url(#bu)" fill-opacity=".5"/><g filter="url(#v)"><path d="m9.7 33.6c0-13.7 21-23.9 46.5-24 25.5 0 46.5 10.3 46.5 24s-21 24-46.5 24-46.5-10.3-46.5-24zm46.6 19.1c23.2 0 41.7-9 41.7-19.1s-18.5-19.1-41.7-19.1-41.6 9-41.7 19.1c0 10.1 18.5 19.1 41.7 19.1zm10.3-31.8c7.8 0 14.5 4.2 15.9 9.9h3.6c1.5 0 2.8.9 2.8 2.2s-1.3 2.2-2.8 2.2h-3.6c-1.4 5.7-8.1 9.9-15.9 9.9-1.5 0-2.8-.9-2.8-2.2s1.3-2.2 2.8-2.2c4.8 0 8.9-2.3 10.2-5.4h-21.5c-1.7 4.8-5.7 7.9-12.5 7.9-6.3 0-11.6-3.3-12.8-7.9h-3.7c-1.5 0-2.8-.9-2.8-2.2s1.3-2.2 2.8-2.2h3.7c1.3-4.6 6.6-7.9 12.8-7.9 1.5 0 2.8.9 2.8 2.2s-1.3 2.2-2.7 2.2c-3.2 0-5.9 1.5-7 3.5h15.2c2-5.8 7.9-10 15.5-10zm-24.4 17.7c3.3 0 5.4-1.1 6.7-3.5h-13.7c1.2 2.1 3.9 3.5 7 3.5zm34.5-7.8c-1.4-3.2-5.5-5.4-10.2-5.4-4.5 0-8 2.2-9.8 5.4z"/></g><path d="m9.7 33.6c0-13.7 21-23.9 46.5-24 25.5 0 46.5 10.3 46.5 24s-21 24-46.5 24-46.5-10.3-46.5-24zm46.6 19.1c23.2 0 41.7-9 41.7-19.1s-18.5-19.1-41.7-19.1-41.6 9-41.7 19.1c0 10.1 18.5 19.1 41.7 19.1zm10.3-31.8c7.8 0 14.5 4.2 15.9 9.9h3.6c1.5 0 2.8.9 2.8 2.2s-1.3 2.2-2.8 2.2h-3.6c-1.4 5.7-8.1 9.9-15.9 9.9-1.5 0-2.8-.9-2.8-2.2s1.3-2.2 2.8-2.2c4.8 0 8.9-2.3 10.2-5.4h-21.5c-1.7 4.8-5.7 7.9-12.5 7.9-6.3 0-11.6-3.3-12.8-7.9h-3.7c-1.5 0-2.8-.9-2.8-2.2s1.3-2.2 2.8-2.2h3.7c1.3-4.6 6.6-7.9 12.8-7.9 1.5 0 2.8.9 2.8 2.2s-1.3 2.2-2.7 2.2c-3.2 0-5.9 1.5-7 3.5h15.2c2-5.8 7.9-10 15.5-10zm-24.4 17.7c3.3 0 5.4-1.1 6.7-3.5h-13.7c1.2 2.1 3.9 3.5 7 3.5zm34.5-7.8c-1.4-3.2-5.5-5.4-10.2-5.4-4.5 0-8 2.2-9.8 5.4z" fill="url(#bv)"/><path d="m9.7 33.6c0-13.7 21-23.9 46.5-24 25.5 0 46.5 10.3 46.5 24s-21 24-46.5 24-46.5-10.3-46.5-24zm46.5 19.1c23.2 0 41.7-9 41.7-19.1s-18.5-19.1-41.7-19.1-41.6 9-41.7 19.1c.1 10.1 18.5 19.1 41.7 19.1zm10.3-31.8c7.8 0 14.5 4.2 15.9 9.9h3.6c1.5 0 2.8.9 2.8 2.2s-1.3 2.2-2.8 2.2h-3.6c-1.4 5.7-8.1 9.9-15.9 9.9-1.5 0-2.8-.9-2.8-2.2s1.3-2.2 2.8-2.2c4.8 0 8.9-2.3 10.2-5.4h-21.5c-1.7 4.8-5.7 7.9-12.5 7.9-6.2-.1-11.5-3.4-12.8-7.9h-3.7c-1.5 0-2.8-.9-2.8-2.2s1.3-2.2 2.8-2.2h3.7c1.3-4.6 6.6-7.9 12.8-7.9 1.5 0 2.8.9 2.8 2.2s-1.3 2.2-2.7 2.2c-3.2 0-5.9 1.5-7 3.5h15.2c2.1-5.8 7.9-10 15.5-10zm-24.3 17.7c3.3 0 5.4-1.1 6.7-3.5h-13.7c1.1 2.1 3.8 3.5 7 3.5zm34.4-7.8c-1.4-3.2-5.5-5.4-10.2-5.4-4.5 0-8 2.2-9.8 5.4z" fill="url(#bw)"/></svg>