<?xml version="1.0" encoding="UTF-8"?>
<svg width="73px" height="19px" viewBox="0 0 73 19" version="1.1" xmlns="http://www.w3.org/2000/svg" xmlns:xlink="http://www.w3.org/1999/xlink">
    <!-- Generator: Sketch 52.6 (67491) - http://www.bohemiancoding.com/sketch -->
    <title>Paypal Logo</title>
    <desc>Created with Sketch.</desc>
    <g id="Symbols" stroke="none" stroke-width="1" fill="none" fill-rule="evenodd">
        <g id="Forms-/-Billing-Info-/-Paypal-/-Pay-with-Paypal-/-Selected" transform="translate(-91.000000, -11.000000)" fill="#FFFFFF" fill-rule="nonzero">
            <g id="Sign-in-to-Paypal">
                <g id="Header">
                    <g id="Group" transform="translate(11.000000, 9.000000)">
                        <g id="Paypal-Logo" transform="translate(80.000000, 2.000000)">
                            <path d="M53.9672667,3.37816877 C53.8926464,2.52621831 53.5419309,1.77427943 52.8890032,1.18532238 C52.1801103,0.548211599 51.3182457,0.266697534 50.3966849,0.10741984 C50.1616309,0.0666743836 49.9191149,0.0777867809 49.691523,0 C49.6654059,0 49.6430198,0 49.6169027,0 C49.5422824,0.0407454567 49.463931,0.0111123973 49.3855797,0.0185206621 C49.2885733,0.00740826485 49.1878359,0.0407454567 49.0945605,0 C47.0536951,0 45.0165606,0 42.9756951,0 C42.6473658,0.118532238 42.4085808,0.322259521 42.3451535,0.681560366 C42.2668022,1.15568932 42.1921819,1.62981827 42.1175616,2.10394722 C41.8899696,3.55226299 41.6623777,5.00057877 41.4310547,6.44889455 C41.1997318,7.89721033 40.9684088,9.3455261 40.7370859,10.7938419 C40.4945699,12.3199444 40.2520539,13.8497511 40.0095379,15.3758537 C39.9535726,15.720338 40.1475854,15.9907397 40.4945699,15.9944438 C41.4758269,16.0018521 42.460815,16.0018521 43.4420721,15.9944438 C43.7592084,15.9907397 43.9681453,15.7944207 44.0166485,15.4906818 C44.0688827,15.1684223 44.1173859,14.8461628 44.1696201,14.5239032 C44.3337848,13.483042 44.4942184,12.4421808 44.6658452,11.4013196 C44.7479275,10.9049659 45.0426777,10.6679014 45.5538268,10.6641972 C46.0276658,10.6641972 46.4977737,10.6604931 46.9716127,10.6641972 C47.7812431,10.6679014 48.5871424,10.6271559 49.3781177,10.4456534 C50.8220207,10.1196898 52.0271387,9.41590462 52.833038,8.15279546 C53.7583298,6.69336729 54.1165073,5.08577382 53.9672667,3.37816877 Z M49.1393327,6.60446811 C48.7886172,7.06748466 48.2923922,7.26750781 47.7364709,7.36751939 C47.2626319,7.45271443 46.7850619,7.45271443 46.307492,7.4490103 C46.0164728,7.4490103 45.7217225,7.44530617 45.4307033,7.4490103 C45.3225039,7.45271443 45.2963868,7.42678551 45.3150418,7.3119574 C45.4903996,6.24146313 45.6582953,5.17096886 45.826191,4.10047459 C45.8523081,3.9300845 45.8746942,3.75969441 45.9120043,3.58930432 C45.9642385,3.34112745 46.1246722,3.18925802 46.3746502,3.18555388 C47.046233,3.17814562 47.7178158,3.15592082 48.3782055,3.28556546 C49.2400701,3.45225142 49.6542128,3.94490103 49.6504818,4.81907628 C49.6542128,5.46359532 49.5348203,6.07848131 49.1393327,6.60446811 Z" id="Shape"></path>
                            <path d="M13.9698049,3.41108044 C13.8952197,2.5147922 13.5297523,1.73331775 12.8323809,1.13332314 C12.1312801,0.533328538 11.2921968,0.262960599 10.3971746,0.107406442 C10.1771483,0.0703697377 9.94593426,0.0888880897 9.73336649,0 C9.64759353,0 9.55809131,0 9.47231835,0 C9.39773316,0.0407403744 9.31941872,0.0111110112 9.24110428,0.018518352 C9.14414354,0.00740734081 9.04345354,0.0407403744 8.95022206,0 C6.96252691,1.80923607e-16 4.9711025,1.80923607e-16 2.98340735,1.80923607e-16 C2.54335477,0.103702771 2.36435033,0.292589962 2.28603588,0.748141422 C2.20399218,1.22221123 2.13313626,1.69998472 2.05855107,2.17405453 C1.52526701,5.49254321 1.00317072,8.81473556 0.477345176,12.1369279 C0.309528513,13.1739556 0.123065553,14.2109833 0,15.2591221 C0,15.3961579 0,15.52949 0,15.6665258 C0.160358145,15.9368937 0.402759993,16.0035598 0.704829987,15.9998561 C1.52526701,15.9850415 2.34570403,15.9961525 3.16614105,15.9961525 C3.68450808,15.9961525 3.98657808,15.7257845 4.06489252,15.2220854 C4.26254326,13.9443191 4.46392325,12.6665528 4.66903251,11.3887865 C4.74361769,10.9184204 5.04941694,10.6665708 5.53049138,10.6628671 C6.10852656,10.6628671 6.68656173,10.6665708 7.2645969,10.6628671 C7.97315615,10.6591634 8.67798614,10.6036084 9.37162835,10.4480542 C10.8297687,10.1184275 12.0417779,9.40732283 12.8472979,8.13326021 C13.7572372,6.68882875 14.1115168,5.09995415 13.9698049,3.41108044 Z M9.40892094,6.13698186 C9.10312169,6.88141961 8.50644022,7.2332683 7.74567134,7.36660043 C7.2645969,7.45178485 6.78352247,7.45178485 6.29871877,7.45178485 C6.00783656,7.45178485 5.71322508,7.44808118 5.42234286,7.45178485 C5.32538213,7.45178485 5.29927731,7.4332665 5.31419435,7.32586006 C5.51184508,6.10364883 5.7020373,4.88143759 5.89595878,3.65552269 C5.94070989,3.38145108 6.09360952,3.19997123 6.3509284,3.19626756 C7.0818632,3.18515655 7.82025652,3.14811984 8.53627429,3.32959969 C9.27093835,3.51478321 9.64386427,3.99626037 9.65505205,4.74440179 C9.66623982,5.22587894 9.59165464,5.69254141 9.40892094,6.13698186 Z" id="Shape"></path>
                            <path d="M27.3492108,19 C27.0674846,18.7504565 27.0422015,18.5370787 27.2625258,18.22967 C28.1402112,16.9855689 29.0215085,15.7414679 29.9028057,14.5046 C29.9786551,14.3997193 29.9894907,14.3129216 29.9497601,14.1935747 C28.9890016,11.3834976 28.031855,8.57342051 27.0747084,5.76334341 C27.0313659,5.63314679 26.9735759,5.50656674 27.0133065,5.36190383 C27.0674846,5.15575917 27.2264071,5.00747969 27.4358958,5.00747969 C28.3496999,5.00386311 29.2671159,5.00024654 30.18092,5.01109626 C30.5168243,5.01471283 30.7768793,5.2461735 30.8888473,5.60783078 C31.1200073,6.37454422 31.3475553,7.13764109 31.5751034,7.90435453 C31.8640533,8.86997948 32.1530033,9.839221 32.445565,10.8084625 C32.5178025,10.7759134 32.5394738,10.7108151 32.5755925,10.660183 C33.7530634,8.92784464 34.9305344,7.19550626 36.1007815,5.45955129 C36.3102702,5.14490946 36.573937,4.9930134 36.9567957,5.00024654 C37.7947505,5.01471283 38.6290934,5.00747969 39.4670481,5.00386311 C39.6801487,5.00386311 39.8462949,5.06534485 39.9474274,5.25702321 C40.044948,5.44870157 39.9979936,5.62591364 39.8788018,5.79950914 C36.9026176,10.0815314 33.9336571,14.3707868 30.9646967,18.6600422 C30.8671761,18.8010885 30.7371486,18.9023525 30.5998974,19 C29.5163352,19 28.432773,19 27.3492108,19 Z" id="Shape"></path>
                            <path d="M72.6725756,0 C72.9708582,0.15926319 73.0379717,0.392602281 72.9820438,0.725943841 C72.6241047,2.90747916 72.2810798,5.09271827 71.9343263,7.27795738 C71.5801158,9.50393824 71.2296338,11.7336229 70.8791518,13.9596038 C70.8083097,14.4040592 70.7374676,14.8485146 70.6628969,15.29297 C70.5920548,15.707795 70.2937723,15.9855797 69.8724482,15.9929873 C69.0782709,16.0040987 68.2803651,16.0003949 67.4861878,15.9929873 C67.1692626,15.9892835 66.9641933,15.763352 67.0052072,15.4448256 C67.0723208,14.9188867 67.1618055,14.3966516 67.2438332,13.8744165 C67.4489025,12.5669768 67.6577003,11.2595371 67.866498,9.94839365 C68.0864814,8.57428567 68.3064648,7.20017769 68.5227197,5.82236591 C68.7501601,4.38158961 68.9776005,2.93710952 69.205041,1.49633322 C69.2572404,1.15558407 69.3131684,0.814834923 69.3616393,0.474085774 C69.3951961,0.244450477 69.5294233,0.100002468 69.7270354,0.00370379511 C70.7076393,0 71.6919717,0 72.6725756,0 Z" id="Shape"></path>
                            <path d="M49.4857571,0.212575818 C49.3238381,0.141717212 49.149925,0.448771172 49,0 C49.161919,0 49.3178411,0 49.4797601,0 C49.4977511,0.0472390707 49.5037481,0.0944781415 49.4977511,0.141717212 C49.4977511,0.188956283 49.4917541,0.212575818 49.4857571,0.212575818 Z" id="Shape"></path>
                            <path d="M9.48575712,0.212575818 C9.32383808,0.141717212 9.14992504,0.448771172 9,0 C9.16191904,0 9.31784108,0 9.47976012,0 C9.49775112,0.0472390707 9.50374813,0.0944781415 9.49775112,0.141717212 C9.49775112,0.188956283 9.49175412,0.212575818 9.48575712,0.212575818 Z" id="Shape"></path>
                            <path d="M50.0083333,0.204595241 C50.0083333,0.136396827 50,0.0681984135 50,0 C50.1666667,0 50.3333333,0 50.5,0 C50.3583333,0.45465609 50.175,0.136396827 50.0083333,0.204595241 Z" id="Shape"></path>
                            <path d="M9.00833333,0.204595241 C9.00833333,0.136396827 9,0.0681984135 9,0 C9.16666667,0 9.33333333,0 9.5,0 C9.35833333,0.45465609 9.16666667,0.136396827 9.00833333,0.204595241 Z" id="Shape"></path>
                            <path d="M65.4899185,5.2666755 C64.6598045,5.2666755 63.8261277,5.2666755 62.9960137,5.2666755 C62.6148025,5.2666755 62.4687309,5.40485384 62.4152901,5.79757124 C62.390351,5.98665739 62.3547238,6.17210727 62.3226593,6.36846597 C62.2905948,6.3502846 62.2799067,6.34664833 62.2727812,6.33937579 C62.2514049,6.31028561 62.2264659,6.28483171 62.2086523,6.25210526 C61.9450109,5.82666141 61.5709252,5.53939591 61.1148968,5.36485485 C60.0888331,4.96850118 59.0271422,4.9139571 57.9618885,5.1103158 C56.5047356,5.37939994 55.3076612,6.128472 54.4134182,7.32116927 C53.1735912,8.97203684 52.6926238,10.8265356 53.1985302,12.8773931 C53.4942361,14.077363 54.1640277,15.0300663 55.2934103,15.5500532 C56.5439255,16.1245842 57.8371933,16.1245842 59.1304611,15.6882315 C59.8536935,15.4446013 60.4914206,15.0409751 61.0757069,14.4482627 C61.0400797,14.6955292 61.0151406,14.8918879 60.9795134,15.0882466 C60.9118217,15.4955091 61.100646,15.7355031 61.5032335,15.7355031 C62.2442795,15.7355031 62.9888882,15.7355031 63.7299342,15.7355031 C64.2037762,15.7355031 64.5030447,15.480964 64.5778619,15.0046124 C64.7488725,13.917367 64.9163204,12.8301216 65.0837683,11.7428762 C65.3865996,9.79019807 65.6858682,7.83388365 65.9886995,5.8812055 C66.0492658,5.49939692 65.8640043,5.2666755 65.4899185,5.2666755 Z M61.7918139,10.7938092 C61.40704,12.3174072 60.103084,13.2446566 58.5639884,13.0955695 C57.7053726,13.0119352 57.0462692,12.6373992 56.7363124,11.7719664 C56.5403628,11.2228893 56.5831154,10.6629034 56.7363124,10.11019 C57.1139609,8.75022423 58.250469,7.88115519 59.6399302,7.88479146 C60.6517431,7.88479146 61.3999145,8.34659802 61.7205594,9.1720318 C61.93076,9.70292754 61.93076,10.2483684 61.7918139,10.7938092 Z" id="Shape"></path>
                            <path d="M25.4767183,5.2693979 C24.6462055,5.2693979 23.8121282,5.2693979 22.9816154,5.2693979 C22.6251721,5.2693979 22.4719015,5.40750947 22.4219994,5.76369194 C22.393484,5.96722478 22.3578396,6.17075762 22.3150664,6.4324427 C22.0156541,5.89453448 21.6164376,5.54925556 21.1031593,5.36389529 C19.8627367,4.91321543 18.6009275,4.8805048 17.3426827,5.2693979 C14.0634045,6.27615855 12.5164407,9.84888679 13.1330876,12.6620014 C13.3897267,13.8359497 13.9671648,14.8209033 15.0293658,15.4133292 C16.3018683,16.1220597 17.6527883,16.1402322 19.0179661,15.7258975 C19.791448,15.4896541 20.4651258,15.0644158 21.0782083,14.4465483 C21.0389995,14.6900608 21.0140485,14.8863246 20.9784041,15.0825884 C20.9071155,15.4969231 21.0995949,15.7368011 21.5130691,15.7368011 C22.2259556,15.7368011 22.9388422,15.7368011 23.6517287,15.7368011 C24.2505534,15.7368011 24.5071926,15.4932886 24.5998678,14.8899591 C24.8244271,13.3961734 25.0596797,11.9023878 25.2913678,10.4086021 C25.5266204,8.89664386 25.7618729,7.38468563 25.9899966,5.87272739 C26.0470276,5.48383429 25.8581126,5.2693979 25.4767183,5.2693979 Z M21.7804015,10.8483784 C21.2885098,12.687443 19.5455022,13.414346 18.0413115,13.0000113 C17.2001054,12.7674023 16.6832626,12.0841135 16.6191028,11.1863883 C16.529992,9.91794258 17.2179275,8.7112836 18.3371594,8.16974086 C18.7435048,7.97347705 19.1605434,7.88261418 19.6488707,7.88261418 C20.6540408,7.88624869 21.3954428,8.34056307 21.7233706,9.15469443 C21.9372366,9.71077522 21.9301077,10.2777596 21.7804015,10.8483784 Z" id="Shape"></path>
                        </g>
                    </g>
                </g>
            </g>
        </g>
    </g>
</svg>