<svg viewBox="0 0 209.02 40.4" xmlns="http://www.w3.org/2000/svg"><g fill="#808080" fill-rule="evenodd"><path d="m92 7.08h2.57v23.79h12.1v2.3h-14.67zm17.84 0h2.57v23.79h12.1v2.3h-14.63zm17.84 26.09v-26.09h2.56v26.09zm7.5-4.86a10.18 10.18 0 0 0 6.83 2.86c2.86 0 5.2-1.71 5.2-4.53 0-6.57-13-4.9-13-13 0-3.75 3.3-7 8.13-7a10.12 10.12 0 0 1 7 2.53l-1.27 2.15a8.89 8.89 0 0 0 -5.71-2.23c-3.34 0-5.5 2.19-5.5 4.49 0 6.2 13 4.42 13 13 0 3.89-3 7-7.9 7a11.5 11.5 0 0 1 -8.28-3.34zm25.89-18.93h-9.39v-2.3h21.32v2.3h-9.35v23.79h-2.56zm14.87 23.79v-26.09h2.56v26.09zm-117.69-2.3a4.75 4.75 0 0 0 5.12-5.08 4.89 4.89 0 0 0 -5.16-5.16h-6.64v10.24zm-.33-12.47a4.27 4.27 0 0 0 4.41-4.57 4.15 4.15 0 0 0 -4.45-4.45h-6.31v9zm-8.92-11.32h8.91c4.12 0 7 2.49 7 6.57a6 6 0 0 1 -3.31 5.68v.07c2.68.74 4.38 3.31 4.38 6.46 0 4.64-3.45 7.31-7.83 7.31h-9.15zm29 2.71s-.56 2.15-1 3.38l-3.5 9.46h9l-3.42-9.46c-.44-1.23-1-3.38-1-3.38zm5.27 15.07h-10.51l-3 8.31h-2.68l9.58-26.09h2.75l9.59 26.09h-2.73zm112.38 6.38a10.8 10.8 0 0 0 6.76-2.45l-3.19-3.26 1.56-1.6 3.15 3.23a11.79 11.79 0 0 0 2.41-7.2 10.63 10.63 0 0 0 -10.69-10.96c-5.94 0-10.54 4.71-10.54 11s4.6 11.28 10.54 11.28m0-24.61a13.19 13.19 0 0 1 13.35 13.33 13.89 13.89 0 0 1 -3.27 9l3.27 3.17-1.56 1.6-3.19-3.23a13 13 0 0 1 -8.58 3.08 13.35 13.35 0 0 1 -13.23-13.62 13.13 13.13 0 0 1 13.21-13.37"/><path d="m17.5 0 17.5 10.1v20.2l-17.5 10.1-17.5-10.1v-20.2l6.07-3.5v10.54 9.66l11.43 6.6 11.43-6.6v-13.2l-11.43-6.6-6.17 3.55v-7zm6.16 23.76-6.16 3.56v-7.12l-6.17-3.56 6.17-3.56 6.16 3.56z"/></g></svg>